<?xml version='1.0' encoding='utf-8'?>
<svg xmlns="http://www.w3.org/2000/svg" width="1343.7mm" height="1902.5mm" version="1.1" viewBox="0 0 1343.7 1902.5"> <g transform="translate(-1013.5 4419.2)"> <g transform="matrix(.93823 0 0 .93823 -230.06 -272.96)"> <path d="m1325.5-4419.2h1432.1v2027.8h-1432.1z" fill="#fef3e8" stop-color="#000000" stroke-linecap="square" stroke-width="5.3292"/> <path d="m2306.5-3573c-7.761-1.4236-19.328-1.9506-36.062-1.643-23.902 0.4395-24.637 0.3634-24.641-2.535 0-1.6433-2.3365-14.313-5.1873-28.154-6.9383-33.688-7.0956-50.608-0.7844-84.381 6.927-37.068 7.8654-48.335 6.7187-80.68-1.572-44.342-1.1066-54.364 3.8837-83.641 3.9775-23.335 4.5356-29.866 4.4907-52.553-0.042-21.805-0.6481-29.078-3.8213-45.942-6.8194-36.24-7.6389-51.858-3.6092-68.787 0.7753-3.2568 6.2182-15.832 12.095-27.944 7.7868-16.048 12.04-27.092 15.68-40.71 9.9173-37.109 13.87-48.694 24.808-72.721 18.106-39.77 20.774-51.868 20.564-93.263-0.08-15.877-0.603-33.53-1.1612-39.23-0.8971-9.1593-0.6313-11.126 2.2885-16.938 1.8169-3.6162 5.1192-7.9463 7.3383-9.6224 3.9145-2.9565 5.7468-3.0472 61.413-3.0436h57.378l31.154 10.029 27.27-1.2482c36.467-1.6691 41.202-1.3277 63.968 4.6112 27.285 7.1179 41.525 11.972 46.124 15.722 3.7179 3.0313 3.8937 3.71 3.1627 12.211-0.6292 7.3151-2.6689 12.883-10.889 29.726-5.5633 11.399-14.012 30.052-18.776 41.45-21.338 51.061-33.335 69.966-76.178 120.04-26.176 30.594-36.619 49.299-42.904 76.85-10.343 45.335-13.049 52.944-28.613 80.435-13.166 23.255-17.586 35.482-24.207 66.959-13.672 64.992-16.452 74.424-32.645 110.76-6.8667 15.407-13.775 28.074-21.363 39.172-23.417 34.249-27.769 46.323-31.034 86.095-1.987 24.209-3.9051 38.713-6.803 51.443-2.593 11.391-1.314 10.901-19.66 7.5358z" fill="#de6d5f" stroke-width="1.0658"/> <path d="m2155.4-3564.5c-7.0496-13.528-10.974-25.684-10.989-34.035-0.01-3.7401 0.755-14.869 1.6922-24.731 2.9608-31.154-0.8331-43.283-27.5-87.916-23.287-38.975-25.188-44.492-32.654-94.744-6.8614-46.186-8.4429-51.158-28.72-90.303-16.39-31.642-21.533-47.309-21.549-65.643-0.012-13.676 0.6105-16.604 8.0668-37.983 3.3854-9.7063 3.777-12.592 3.114-22.946-0.8885-13.874-3.7045-23.157-15.147-49.93-13.103-30.659-13.663-33.262-13.602-63.318 0.03-14.249 0.3017-39.23 0.6067-55.514 0.5574-29.775-2.0098-65.789-6.2456-87.611-1.7033-8.7753-1.6551-9.1848 1.1739-9.9722 6.8637-1.9108 51.864-0.6554 80.657 2.2498 25.141 2.5369 37.17 2.9811 65.115 2.4046 32.003-0.66 36.125-1.0706 62.127-6.187 27.515-5.414 45.076-8.6061 56.644-10.296l5.942-0.8683 1.0194 12.685c0.5604 6.9765 0.6913 24.129 0.2904 38.116-0.9061 31.602-2.9975 40.382-16.911 70.998-13.112 28.852-15.69 36.068-24.443 68.412-14.085 52.046-17.039 67.257-17.828 91.792-0.6543 20.35-0.3167 24.618 4.0415 51.073 7.7339 46.947 6.7486 66.243-5.2158 102.15-12.605 37.826-14.273 55.974-9.2521 100.66 3.7995 33.812 3.3908 61.366-1.3611 91.787-5.2941 33.892-3.5156 54.617 7.5836 88.373l4.9633 15.095-8.092 1.6867c-12.644 2.6354-40.286 9.9377-47.19 12.467-9.7658 3.5768-10.523 3.2084-16.337-7.9487z" fill="#ef8d72" stroke-width="1.0658"/> <path d="m2381.5-3547.5c-6.6769-3.5687-18.449-8.9933-26.159-12.055-12.42-4.9308-13.923-5.9134-13.176-8.6109 4.0194-14.501 5.2859-21.682 6.5427-37.093 4.0438-49.586 4.9191-52.089 24.6-70.359 14.575-13.53 26.952-29.489 34.692-44.734 10.805-21.281 13.351-34.272 17.742-90.537 4.0939-52.456 7.8396-72.376 16.485-87.666 2.1616-3.8231 9.2752-12.873 15.808-20.112 6.533-7.2382 14.874-17.291 18.537-22.339 11.839-16.32 22.845-41.901 29.269-68.026 5.3431-21.73 12.258-32.531 46.586-72.765 27.904-32.706 39.878-51.01 58.284-89.103l11.513-23.827 3.2292 17.905c5.523 30.625 6.3801 43.645 5.4375 82.607-0.912 37.699-3.208 61.67-8.0773 84.328-3.5541 16.539-3.7342 47.992-0.5221 91.204 2.9145 39.208 1.8716 88.03-1.9878 93.066-13.31 17.363-48.904 60.211-63.841 76.85-22.794 25.392-48.964 55.962-64.277 75.085-6.9858 8.724-20.2 22.101-34.004 34.423-27.541 24.584-33.474 32.572-46.143 62.129-11.773 27.466-16.004 36.29-17.353 36.195-0.576-0.036-6.5101-2.9942-13.187-6.563z" fill="#e15e66" stroke-width="1.0658"/> <path d="m2085.2-3538.3c-6.8848-23.057-10.774-31.322-20.478-43.516-4.2989-5.402-11.705-15.891-16.458-23.308-6.0467-9.4363-14.027-18.821-26.576-31.251-36.245-35.901-48.723-49.874-63.284-70.864-10.573-15.242-21.339-28.15-39.671-47.565-37.314-39.519-44.05-49.971-62.235-96.581-16.524-42.353-19.654-47.123-54.145-82.544-15.857-16.284-31.835-34.042-35.506-39.461-8.6088-12.708-16.712-30.915-21.638-48.62-7.7452-27.836-14.593-43.093-35.4-78.864-14.11-24.259-16.022-28.944-28.057-68.736-9.3974-31.073-36.126-88.011-47.003-100.13-9.5437-10.631-11.626-14.204-11.626-19.95 0-7.1394 3.582-12.48 12.415-18.509 13.718-9.3638 29.45-10.458 57.445-3.9939 21.356 4.9307 33.443 3.8491 51.142-4.5763 5.3238-2.5346 11.286-5.3162 13.25-6.1815 2.1349-0.9407 18.214-1.7052 39.99-1.9015 28.375-0.2556 38.154-0.8499 44.275-2.6906 17.317-5.2085 22.019-5.7619 40.704-4.791 10.227 0.5311 23.9 2.2855 30.44 3.9053 6.5303 1.6173 15.528 2.9442 19.995 2.9488 21.088 0.024 32.251 10.414 40.217 37.441 5.3146 18.032 5.2273 17.557 8.0855 43.971 1.8082 16.712 2.3363 30.989 1.9437 52.553-0.2964 16.284-0.5227 42.265-0.5018 57.734 0.042 34.061 1.0901 38.824 16.877 76.889 9.806 23.644 11.069 27.802 12.959 42.657 1.152 9.0529 2.0946 21.928 2.0946 28.61 0 30.454 4.1737 54.204 17.251 98.165 9.8832 33.223 12.993 46.917 17.658 77.748 4.099 27.094 6.5552 37.215 12.683 52.26 5.8857 14.45 11.105 22.9 30.591 49.52 17.789 24.303 26.287 38.481 30.545 50.966 3.1476 9.2276 3.1451 8.8518 0.3527 52.029-1.2604 19.486 1.8363 30.17 14.455 49.875 5.4893 8.5719 5.8693 9.7218 3.2183 9.7392-2.6944 0.018-30.546 13.459-40.781 19.681-4.9516 3.0102-9.1845 5.4732-9.4065 5.4732-0.2222 0-2.8406-8.1604-5.8189-18.134z" fill="#de6d5f" stroke-width="1.0658"/> <path d="m2444.8-3498.4c-4.8294-5.9521-13.297-14.722-18.817-19.488l-10.037-8.6657 5.4655-6.7891c10.122-12.573 17.148-25.53 24.442-45.079 3.9907-10.694 9.4489-22.775 12.129-26.846 2.6802-4.0709 16.565-19.06 30.856-33.308 32.728-32.633 39.232-38.624 69.17-63.719 14.003-11.738 26.14-23.147 28.544-26.833 10.825-16.598 22.583-33.019 25.397-35.468 1.7085-1.487 6.4823-4.0428 10.608-5.6794 7.362-2.9204 20.081-9.5689 27.846-14.556 3.5387-2.2726 4.3031-2.3025 7.7212-0.3017 8.6091 5.0392 8.8846 9.2991 7.4656 115.47-0.7503 56.132-0.9972 60.569-3.8731 69.577-5.3817 16.858-10.596 24.564-19.907 29.416-4.5035 2.3471-13.008 5.0955-18.9 6.1075-6.4739 1.112-19.47 5.525-32.849 11.155-12.176 5.1231-36.808 14.068-54.74 19.877-17.931 5.8092-36.165 12.195-40.519 14.192-10.072 4.6169-23.429 14.57-32.512 24.227-3.898 4.144-7.4524 7.5345-7.8986 7.5345-0.4466 0-4.7625-4.8698-9.5919-10.822z" fill="#99434b" stroke-width="1.0658"/> <path d="m2024.5-3480.1c-10.777-6.7028-22.868-19.492-34.968-36.99-10.723-15.505-23.957-28.188-40.223-38.548-59.117-37.652-70.742-50.012-85.431-90.837-10.759-29.903-18.256-39.088-60.595-74.239-42.861-35.586-57.093-51.082-75.489-82.197-21.19-35.841-30.962-48.388-46.676-59.933-10.216-7.5056-17.93-11.632-41.328-22.11-9.5313-4.2678-26.928-13.19-38.66-19.827s-32.94-16.819-47.131-22.627c-39.193-16.041-47.813-21.955-70.458-48.339-5.805-6.7633-14.461-14.829-19.638-18.3-5.0917-3.4131-9.2576-6.5385-9.2576-6.9454 0-0.4065 1.3471-8.8076 2.9936-18.669 4.3692-26.166 4.0122-43.082-1.4193-67.258-4.3443-19.336-4.4308-20.461-4.4308-57.591 0-46.007 2.521-73.341 8.6745-94.055 4.9015-16.5 9.2983-22.774 19.413-27.702 9.2742-4.5184 25.436-7.4301 41.664-7.5059 7.5896-0.03 16.692-0.684 20.226-1.441 3.5349-0.7571 14.334-1.8319 23.997-2.3885l17.57-1.012 6.4831 6.524c3.5658 3.5881 9.2447 10.521 12.62 15.406 9.0982 13.169 38.222 74.601 43.513 91.783 13.406 43.537 16.846 51.466 34.722 80.017 13.731 21.931 21.345 37.298 31.004 62.569 16.61 43.455 24.324 55.683 62.678 99.354 28.358 32.29 33.705 40.378 44.528 67.365 17.274 43.071 30.929 61.366 72.797 97.537 34.901 30.152 38.177 34.145 64.576 78.72 4.8221 8.142 14.892 23.131 22.377 33.308 32.271 43.877 37.47 51.414 46.076 66.8 4.9926 8.9256 14.151 24.36 20.353 34.299 10.863 17.411 20.86 36.808 20.86 40.477 0 0.9705-4.9809 6.0875-11.069 11.371-6.0878 5.2836-12.956 11.67-15.264 14.191-2.3071 2.5214-4.5566 4.5808-4.9987 4.5764-0.4418 0-4.9829-2.6071-10.09-5.7839z" fill="#e15e66" stroke-width="1.0658"/> <path d="m1990.9-3423.5c-4.8701-9.6413-22.981-28.951-35.259-37.594-4.7303-3.3296-15.449-9.0244-23.819-12.655-8.37-3.6307-17.073-8.3928-19.339-10.582-2.2667-2.1897-8.8697-10.643-14.673-18.785-12.44-17.453-30.087-36.396-44.047-47.283-14.642-11.419-28.949-19.607-65.698-37.597-32.496-15.909-57.044-29.944-68.405-39.111-3.2244-2.6017-13.866-11.678-23.649-20.169-29.781-25.849-51.998-39.242-75.662-45.609-11.26-3.0298-18.95-3.8912-43.66-4.8907-40.722-1.6472-46.312-3.1342-74.981-19.946-16.685-9.7843-25.781-12.63-40.363-12.63-10.381 0-12.324-0.5179-24.377-6.4896-14.274-7.0727-22.219-14.328-26.005-23.748-1.971-4.9032-2.1908-9.2989-1.4064-28.127 0.5113-12.274 1.8085-27.312 2.8826-33.418 3.351-19.05 3.3647-20.91 0.3204-43.435-2.6862-19.872-2.7844-23.052-1.028-33.308 1.0679-6.2364 2.0364-17.334 2.1523-24.662 0.1221-7.7086 1.23-16.755 2.6298-21.465 1.7926-6.033 2.3668-12.97 2.2168-26.78-0.212-19.545 0.6905-23.554 6.3794-28.331 9.7602-8.1948 26.804 4.9601 34.692 26.777 3.1374 8.677 21.274 33.782 29.376 40.664 13.031 11.068 30.575 20.006 64.661 32.942 7.8552 2.9811 24.244 10.086 36.42 15.789 12.176 5.7026 29.528 13.352 38.562 17 27.875 11.254 37.911 17.32 50.732 30.665 8.5122 8.8602 13.834 16.211 20.709 28.605 22.736 40.987 33.641 55.053 68.334 88.136 45.331 43.226 54.679 53.824 70.466 79.88 17.913 29.566 34.817 47.076 76.116 78.842 30.129 23.175 33.79 26.862 48.043 48.392 15.547 23.484 27.27 34.746 45.544 43.752 7.8204 3.8542 13.956 7.7501 13.636 8.6575-0.3203 0.9073-3.8061 6.2367-7.7451 11.843s-9.963 15.297-13.386 21.534l-6.2247 11.341z" fill="#99434b" stroke-width="1.0658"/> <path d="m2490.2-3415.9c-1.6274-4.5087-2.959-8.5769-2.959-9.0405 0-1.322-17.226-36.573-18.902-38.682-0.8248-1.0375-1.2474-2.0929-0.9391-2.3453 3.4999-2.8667 27.322-18.932 30.63-20.657 2.3991-1.2508 18.788-6.0534 36.42-10.672 42.368-11.099 64.314-20.065 89.549-36.584 4.9804-3.2602 9.2735-5.6816 9.5401-5.3808 1.7081 1.9265 5.2265 38.218 5.4909 56.637l0.3161 22.042-14.282 4.1997c-18.538 5.4513-27.224 8.7184-51.041 19.2-10.791 4.749-27.502 11.264-37.134 14.477-9.6321 3.2133-22.859 7.9037-29.393 10.423-6.5341 2.5193-12.433 4.5807-13.108 4.5807-0.6754 0-2.5597-3.6889-4.1871-8.1976z" fill="#99434b" stroke-width="1.0658"/> <path d="m1968.4-3352.6c-2.0032-2.2101-7.3133-10.014-11.8-17.342-15.778-25.766-23.535-37.118-33.14-48.493-11.787-13.959-45.766-47.097-54.658-53.304-3.5504-2.4786-11.918-8.6553-18.595-13.726-15.233-11.568-23.359-15.802-39.407-20.531-25.305-7.457-87.055-20.229-111.98-23.161-44.362-5.2189-51.771-8.5757-87.768-39.767-27.529-23.854-43.292-29.631-95.176-34.883-22.849-2.3131-39.534-5.9224-50.394-10.902l-6.1612-2.8249-0.9978-35.343c-0.5485-19.439-1.5133-39.673-2.1434-44.966-0.6301-5.2923-1.0837-9.7082-1.0082-9.8131 0.075-0.1048 7.8499 0.2886 17.276 0.8743l17.138 1.0651 20.709 10.007c18.43 8.9062 39.336 16.639 86.407 31.96 22.162 7.2135 40.552 17.073 69.268 37.138 31.047 21.693 51.963 33.035 84.264 45.692 12.961 5.0788 30.635 12.756 39.276 17.059 27.485 13.69 36.68 21.608 82.218 70.797 16.133 17.427 27.796 25.782 44.465 31.857 6.8342 2.4907 15.189 5.9599 18.567 7.7095 7.0302 3.6416 32.935 30.628 38.276 39.872 1.9637 3.3998 5.5938 9.4226 8.0667 13.384l4.4963 7.2029-4.8916 15.977c-2.6904 8.7872-5.2801 18.495-5.755 21.574-1.1243 7.2877-2.1513 7.7406-6.5495 2.8878z" fill="#99434b" stroke-width="1.0658"/> <path d="m1470.9-3348.1c4.4693-33.581 4.5312-62.63 0.1916-89.932-1.1646-7.3279-2.1288-14.158-2.1425-15.178-0.024-1.4488 5.5264-1.6706 25.326-1.0135 40.021 1.3282 51.77 4.514 80.936 21.946 8.7037 5.2019 18.074 10.639 20.824 12.083 3.3381 1.753 4.287 2.8456 2.8564 3.2886-20.645 6.394-46.231 20.656-82.542 46.01-30.527 21.315-43.395 29.829-45.085 29.829-0.7317 0-0.8917-3.0783-0.3653-7.0318z" fill="#693036" stroke-width="1.0658"/> <path d="m2506.7-3338.4c-0.3467-1.8783-1.6387-10.743-2.8713-19.699-1.2324-8.9562-2.6293-17.693-3.1038-19.414-0.821-2.9785-0.2161-3.1812 12.464-4.1736 7.3299-0.5736 18.091-2.0453 23.913-3.2704 21.074-4.4345 62.365-21.748 84.177-35.296 19.413-12.058 32.325-17.674 40.768-17.734l7.2902-0.048 2.6222 10.363c2.271 8.9742 2.4198 12.148 1.1104 23.686-2.0197 17.798-4.5447 25.905-12.376 39.734-5.4572 9.6359-7.6003 12.078-12.621 14.38-8.0652 3.6979-33.529 6.0895-59.429 5.5816-17.433-0.3419-22.63 0.1012-32.849 2.8029-6.6769 1.7649-19.21 3.6315-27.85 4.148-8.6406 0.5161-16.814 1.2585-18.162 1.6492-1.7077 0.4945-2.6431-0.3264-3.0821-2.7048z" fill="#99434b" stroke-width="1.0658"/> <path d="m1948.8-3272.5c-39.987-12.412-45.619-14.394-56.414-19.856-16.299-8.2468-28.521-18.35-46.072-38.087-38.183-42.938-58.427-61.421-78.85-71.99-9.3856-4.8574-35.852-14.366-55.747-20.029-5.8914-1.6769-17.471-3.4599-25.732-3.9625-13.387-0.8144-15.645-0.5826-20.776 2.1298-8.7997 4.6533-15.063 5.3643-23.873 2.7097-11.073-3.3365-30.724-14.245-48.162-26.735-27.544-19.729-41.036-25.835-65.698-29.736-18.428-2.9146-54.806-2.8815-62.841 0.054-8.6876 3.177-17.404 2.8546-21.899-0.8102-4.3013-3.5069-18.668-25.785-22.733-35.252-3.058-7.121-6.7043-38.814-6.754-58.705-0.03-13.988 2.6044-20.472 10.078-24.756 7.4185-4.2528 26.518-3.0615 36.56 2.2803 9.933 5.284 15.862 6.4962 44.931 9.1853 46.236 4.2774 56.855 8.8558 85.356 36.801 22.533 22.094 32.762 30.361 46.367 37.472 17.792 9.2993 27.202 10.975 69.462 12.368 39.026 1.2865 53.63 2.7593 67.041 6.7606 11.406 3.4031 25.635 11.26 34.462 19.028 11.967 10.532 35.075 28.488 42.346 32.904 3.5981 2.1856 13.269 6.8153 21.49 10.288 8.2213 3.4729 18.52 8.5139 22.887 11.202 13.027 8.0203 28.413 25.058 42.501 47.064 12.203 19.062 23.167 32.448 30.411 37.132l3.3439 2.1617-1.7398 20.665c-0.9569 11.366-1.408 26.177-1.0025 32.914 0.5227 8.6784 0.2629 12.197-0.89 12.071-0.895-0.098-9.0182-2.4722-18.052-5.2761z" fill="#693036" stroke-width="1.0658"/> <path d="m2593.6-3246.2c-24.312-6.4557-57.931-10.95-76.24-10.192l-11.917 0.4934 0.8942-8.1421c0.4916-4.4781 1.3077-17.289 1.8128-28.468l0.9183-20.326 3.7093 1.0634c6.5479 1.8772 37.477 0.8779 54.411-1.7581 9.0335-1.4062 25.659-4.5354 36.945-6.9536 11.286-2.4183 20.689-4.1977 20.895-3.9544 0.6218 0.7338-3.2741 31.602-5.6409 44.694-1.2163 6.7285-2.2115 18.344-2.2115 25.812s-0.482 13.543-1.0712 13.501-10.716-2.6382-22.505-5.7684z" fill="#693036" stroke-width="1.0658"/> <path d="m2637.8-3133.3c-8.6164-4.6022-18.367-10.274-21.667-12.605-13.51-9.54-28.582-13.676-58.307-16.003-10.976-0.859-22.206-1.8487-24.956-2.1991-7.3374-0.9353-53.488-8.6126-53.966-8.9773-0.2239-0.1712 1.8379-4.2292 4.5826-9.0178 6.3804-11.132 11.518-25.373 15.861-43.962 1.894-8.1075 3.8272-15.138 4.296-15.624 0.4688-0.4862 4.5051-0.8477 8.9694-0.8041 5.9578 0.054 12.282 1.7303 23.774 6.2857 8.6115 3.4134 20.501 7.1426 26.422 8.287 13.436 2.5971 49.03 5.48 73.926 5.9876 26.359 0.5376 29.038 2.6799 32.762 26.203 2.9163 18.419 0.5856 53.166-4.2104 62.78-1.9366 3.8817-7.4939 8.0176-10.773 8.0176-0.5766 0-8.0979-3.7655-16.714-8.3678z" fill="#693036" stroke-width="1.0658"/> <path d="m2092.9-3097.6c-18.705-18.22-50.21-54.196-63.604-72.63-33.687-46.366-46.174-109.94-34.934-177.86 7.2772-43.971 23.942-78.272 53.164-109.43 31.351-33.423 70.468-57.25 124.34-75.736 37.486-12.864 65.993-18.592 98.101-19.713 35.547-1.2408 62.262 4.7421 96.529 21.617 44.474 21.902 70.84 51.532 94.386 106.07 9.5858 22.203 14.346 37.409 18.586 59.363 10.113 52.372 9.556 101.14-1.6085 140.92-5.0072 17.841-7.8587 23.288-18.058 34.497l-8.5377 9.3828-17.739-2.471c-28.23-3.9324-41.922-4.5503-58.012-2.6179-27.855 3.3451-57.824 13.803-81.834 28.556-6.4315 3.9518-23.591 16.396-38.133 27.654-41.27 31.95-51.077 35.942-104.52 42.539-17.359 2.1431-33.895 4.2852-36.747 4.7602-4.9358 0.8219-5.9657 0.1036-21.379-14.909z" fill="#ebbc52" stroke-width="1.0658"/> <path d="m1918-3032.6c-20.183-15.873-48.8-28.671-84.251-37.679-14.79-3.758-51.05-11.015-111.4-22.294-21.532-4.0243-48.529-5.1271-67.499-2.7572-22.712 2.8375-34.084 2.2614-61.755-3.1287-31.137-6.0651-59.139-6.6661-77.122-1.6555-20.011 5.5757-31.666 10.99-37.094 17.231-11.742 13.501-17.175 18.396-21.513 19.384-6.0892 1.3863-11.01-2.3709-15.627-11.931-3.3682-6.9744-3.5832-9.0247-4.4934-42.854-0.8238-30.615-1.3675-36.726-3.931-44.183-1.6361-4.7597-3.9063-15.752-5.0448-24.426-1.1386-8.6745-3.5485-24.577-5.3554-35.34-3.211-19.125-3.232-19.893-0.9274-33.934 2.9321-17.865 10.77-35.144 20.522-45.238 7.6422-7.9111 12.569-10.654 26.136-14.551 20.556-5.9042 53.676-24.235 101.72-56.294 29.307-19.558 40.021-24.744 59.861-28.971 5.8963-1.2563 16.038-3.8763 22.538-5.8223 24.119-7.221 39.794-6.2742 62.56 3.7785 17.993 7.9451 27.809 14.236 42.736 27.388 7.0696 6.2288 19.12 15.607 26.779 20.841 7.6588 5.2337 20.323 13.862 28.142 19.174 9.1811 6.2367 21.702 17.061 35.348 30.557 26.483 26.193 32.938 31.55 45.411 37.687 12.958 6.376 22.813 8.855 46.417 11.677 10.604 1.2675 21.648 2.962 24.542 3.7652 4.9914 1.386 5.3432 1.8947 6.8737 9.9424 6.1213 32.187 17.294 59.442 34.731 84.721 7.4921 10.862 57.582 62.331 70.546 72.489 5.6624 4.4369 10.08 8.2904 9.8166 8.5634-0.2635 0.273-10.038 3.0833-21.721 6.2453-29.77 8.057-59.017 17.644-92.613 30.359-15.858 6.0015-32.323 11.856-36.588 13.011l-7.7547 2.0991z" fill="#367175" stroke-width="1.0658"/> <path d="m2639.3-2652.2c-31.421-26.895-86.445-49.363-133.54-54.529-4.3203-0.4743-30.671-1.4902-58.557-2.258-39.404-1.0853-54.206-2.0434-66.429-4.2998-37.674-6.9545-59.863-17.707-103.53-50.17-21.735-16.159-33.173-26.097-54.55-47.396-29.801-29.692-44.214-42.179-62.697-54.316-50.823-33.373-75.524-43.226-120.52-48.074-26.309-2.8342-39.402-9.0753-50.251-23.954-3.162-4.3364-11.472-17.786-18.467-29.888-6.9949-12.102-16.944-27.473-22.108-34.158l-9.3903-12.154 11.533-3.7709c6.343-2.0741 21.528-7.8274 33.745-12.785 23.063-9.3595 42.975-15.186 61.338-17.948 5.8914-0.8862 33.849-2.2274 62.127-2.9805 85.872-2.2867 98.006-6.5197 148.28-51.73 25.743-23.15 39.863-32.721 62.075-42.076 29.822-12.56 54.068-13.711 104.57-4.9626 98.952 17.143 101.58 17.523 129.97 18.816 30.053 1.3687 40.263 3.4392 57.952 11.753l9.1743 4.3117v8.7245c0 6.034 3.7054 23.982 12.015 58.197 26.037 107.21 27.614 143.71 9.4974 219.9-8.8276 37.123-10.532 49.064-10.537 73.837-0.01 24.401 1.0086 33.566 8.4142 76.059 2.7498 15.778 4.8142 28.875 4.5877 29.104-0.2269 0.2305-2.34-1.2327-4.6965-3.2497z" fill="#64bebf" stroke-width="1.0658"/> <path d="m1887.3-2495.8c-12.176-0.6313-48.488-2.9551-80.694-5.1638-51.722-3.5472-62.474-3.8703-92.12-2.7681-70.599 2.6254-216.28 0.4539-229.94-3.4271-16.275-4.6222-26.533-22.732-26.261-46.363 0.1234-10.766 1.1233-15.683 6.9205-34.048 6.2224-19.712 6.8383-22.99 7.5422-40.129 0.6902-16.804 0.3934-20.197-2.9767-34.048-6.9713-28.653-8.0764-44.464-8.0764-115.55 0-35.873-1-92.63-2.2224-126.13-1.8459-50.584-1.9241-65.542-0.4617-88.289 0.9685-15.063 1.8227-31.051 1.8983-35.529 0.1736-10.294 2.7758-15.244 13.351-25.392 10.26-9.8459 26.773-18.986 43.92-24.31 10.733-3.3323 15.647-3.9905 30.636-4.1029 21.04-0.1575 27.268 1.1037 58.162 11.78 29.624 10.237 37.377 11.017 62.522 6.2871 15.746-2.9618 23.014-3.4781 47.845-3.3991 67.939 0.2161 122.91 14.818 161.39 42.868 15.533 11.323 27.654 23.351 46.657 46.297 37.928 45.798 48.391 56.138 66.276 65.496 9.9047 5.1825 20.209 7.9379 41.314 11.048 29.283 4.3152 39.351 7.9177 57.828 20.691 17.367 12.006 55.056 45.317 93.836 82.935 45.071 43.72 62.143 58.114 80.139 67.566 16.434 8.6318 40 17.758 58.522 22.663 29.38 7.7802 46.212 9.8355 122.05 14.903 50.262 3.3586 65.236 6.2972 91.076 17.874 15.539 6.9619 51.738 27.285 65.698 36.884 18.308 12.59 44.989 43.65 44.989 52.375 0 1.6249 0.7088 3.4086 1.575 3.9634 0.8663 0.5551 3.1094 4.4248 4.9848 8.5995 9.2394 20.568-1.9123 48.13-21.949 54.248-2.9258 0.8934-19.138 2.5521-36.026 3.686-16.889 1.1338-39.062 2.7267-49.273 3.5396-53.138 4.2302-75.422 4.9126-94.262 2.8872-13.158-1.4147-47.272-2.1213-117.11-2.4256-54.201-0.2359-109.79-0.5114-123.54-0.6113-18.522-0.1348-30.726 0.6393-47.131 2.9911-30.268 4.3386-52.448 5.8992-109.26 7.6874-26.708 0.8405-60.128 2.1419-74.267 2.8917-43.002 2.2808-70.336 2.7254-93.548 1.5219z" fill="#83c9d1" stroke-width="1.0658"/> </g> </g> </svg>