<?xml version='1.0' encoding='utf-8'?>
<svg xmlns="http://www.w3.org/2000/svg" width="1343.7mm" height="1902.5mm" version="1.1" viewBox="0 0 1343.7 1902.5"> <g transform="translate(562.83 4419.2)"> <g transform="matrix(.93823 0 0 .93823 -230.06 -272.96)"> <path d="m-354.67-4419.2h1432.1v2027.8h-1432.1z" fill="#fbfbf3" stop-color="#000000" stroke-linecap="square" stroke-width="5.3292"/> <path d="m772.18-4023.9c-28.317-0.6118-63.249-1.8884-77.625-2.8369-14.376-0.9486-37.545-2.4169-51.486-3.263-26.936-1.6347-84.469-8.4294-95.051-11.226-10.71-2.8299-12.633-6.5108-8.0398-15.392 3.9322-7.6041 8.4698-8.5857 45.268-9.7932 36.428-1.1954 43.03-2.4736 53.322-10.324 7.761-5.9196 12.472-15.266 17.924-35.56 9.4679-35.245 19.374-42.225 57.866-40.775 22.355 0.8418 33.796 3.6741 59.797 14.803 16.43 7.0325 24.465 8.1856 33.362 4.788 9.2074-3.5163 16.332-11.431 27.277-30.302 16.559-28.55 21.05-32.476 37.15-32.476 12.603 0 26.198 3.4944 41.231 10.597 9.8767 4.6667 14.75 8.5131 28.881 22.795l17 17.181 7.7874-4.0402c9.5728-4.9666 25.728-5.5622 36.286-1.3378 14.107 5.6447 22.524 21.697 22.524 42.958 0 9.7781 0.4652 11.906 2.7723 12.682 8.9905 3.0265 16.852 7.9046 20.548 12.75 5.8021 7.607 6.8638 21.107 2.352 29.907-7.8375 15.287-18.946 19.527-59.732 22.799-9.5844 0.7689-23.129 2.1417-30.1 3.0505-23.07 3.0081-72.399 5.1863-105.35 4.652-17.862-0.2898-55.645-1.0272-83.962-1.639z" fill="#f3e5c2" stroke-width="1.0658"/> <path d="m-285.6-3887.3c-19.437-2.8393-34.858-12.336-42.089-25.918-4.9575-9.3126-4.8553-29.001 0.20058-38.691 8.009-15.349 21.928-26.525 37.877-30.413l10.439-2.5451 1.9545-9.5818c5.3244-26.102 23.889-43.953 50.491-48.547l9.584-1.6554 8.7131-14.178c10.036-16.33 21.157-27.055 36.274-34.98 27.435-14.382 59.359-15.495 84.631-2.9517 9.9579 4.9426 16.12 10.346 49.466 43.378 27.596 27.336 39.381 37.988 42.773 38.662 3.6255 0.7199 8.3838-0.9152 21.086-7.2457 27.91-13.91 45.686-18.309 57.813-14.307 7.6418 2.522 18.198 13.29 24.356 24.843 9.3248 17.495 16.656 20.794 32.934 14.821 15.909-5.8377 27.955-8.2179 38.338-7.5754 12.099 0.7487 17.511 4.6604 31.347 22.654 12.189 15.853 17.198 18.692 30.892 17.513 32.858-2.8299 43.926-2.8699 52-0.188 13.358 4.4367 20.878 15.904 20.839 31.776-0.018 7.2809-0.93417 9.0807-5.9765 11.737-4.2174 2.2216-44.755 4.748-77.952 4.8582-12.634 0.042-42.951 1.466-67.371 3.1646-43.424 3.0204-44.852 3.2293-64.952 9.5022-28.526 8.9025-41.898 11.522-59.364 11.628-17.171 0.1042-29.265-3.3685-64.952-18.653-28.772-12.322-35.582-13.999-53.684-13.217-14.371 0.621-16.433 1.1756-36.615 9.8533-50.768 21.828-45.392 20.34-92.04 25.484-22.36 2.466-62.66 2.8711-77.013 0.7743z" fill="#f3e5c2" stroke-width="1.0658"/> <path d="m676.78-3625.8c-9.9676-3.8966-22.738-13.445-28.358-21.203-3.7215-5.1374-4.565-7.9218-4.565-15.069 0-19.173 10.005-28.479 32.25-29.998 13.466-0.9191 16.01-2.0468 19.398-8.5989 2.4962-4.8271 2.0961-12.209-1.7255-31.838-1.1564-5.9395 2.5292-23.744 6.8781-33.226 2.4899-5.4292 7.4503-13.154 11.023-17.166 18.621-20.908 59.617-36.58 83.268-31.83 12.796 2.5698 25.621 9.3523 36.237 19.164 10.668 9.8602 15.233 17.073 23.527 37.178 7.0347 17.053 10.823 21.595 18.013 21.595 7.4824 0 12.256-4.6002 19.779-19.059 11.405-21.921 20.82-29.655 37.977-31.195 16.11-1.4464 21.204 1.0629 38.706 19.066 13.519 13.906 16.234 16.004 20.181 15.59 8.8579-0.9291 21.805 4.2094 29.175 11.579 10.92 10.92 15.46 21.325 16.27 37.288 0.8086 15.944-1.0582 23.941-7.9985 34.263-10.762 16.006-26.142 20.563-44.732 13.255-7.5313-2.9607-12.301-3.7037-22.971-3.5778-14.88 0.1754-17.51 0.8704-64.9 17.148-41.085 14.112-48.55 14.715-74.508 6.0212-16.455-5.5109-19.752-6.0925-34.06-6.0074-13.891 0.083-17.501 0.7251-29.308 5.2159-37.228 14.16-63.041 17.86-79.554 11.405z" fill="#f3e5c2" stroke-width="1.0658"/> <path d="m-272.51-3579.3c-25.417-6.1468-40.868-25.999-35.824-46.03 2.4065-9.557 8.4238-21.259 14.477-28.153 6.3367-7.2171 24.442-16.217 35.371-17.583l8.598-1.0742 4.064-12.904c4.8497-15.399 8.2262-21.152 20.647-35.18 24.216-27.35 50.375-23.876 77.249 10.262 14.339 18.215 18.69 19.325 33.403 8.5245 5.0076-3.6759 10.033-5.8999 14.459-6.3987 6.2119-0.7002 7.2741-0.2599 12.6 5.2246 3.1992 3.2941 8.2234 9.6119 11.165 14.04 2.9415 4.4277 6.8208 9.3802 8.6207 11.006 4.5776 4.1335 15.18 3.7425 33.511-1.236 20.734-5.6313 31.634-5.4508 44 0.7286 13.671 6.8316 26.282 20.752 28.898 31.9 3.4446 14.676 5.8437 16.899 20.408 18.914 11.14 1.5411 13.473 4.0284 13.559 14.451l0.06826 8.3286h-153.67l-8.713 4.2718c-4.7922 2.3494-12.928 6.9832-18.081 10.297-13.434 8.6412-18.656 8.2044-41.513-3.4725l-17.978-9.1842-11.083 0.9292c-8.7032 0.7297-13.064 2.0898-20.304 6.3333-13.239 7.759-29.361 13.863-43.087 16.312-14.698 2.6226-18.908 2.5808-30.848-0.3066z" fill="#f3e5c2" stroke-width="1.0658"/> <path d="m-249.84-3350.1c-3.7356-3.0272-3.7398-3.0719-3.6168-38.417 0.1443-41.434 2.5346-60.08 15.199-118.56l8.0626-37.228 6.1186-5.7498c3.7583-3.5318 8.955-6.464 13.472-7.6013 10.705-2.6955 19.014-7.3598 27.872-15.645 8.8178-8.248 6.6322-8.5439 23.614 3.1973 21.394 14.792 44.703 13.404 72.078-4.2915 16.087-10.399 21.032-11.094 57.624-8.1006 16.99 1.3898 38.733 3.659 48.318 5.0427 19.08 2.7544 48.092 2.2214 57.823-1.0623 15.443-5.2113 23.057-17.282 21.819-34.588-0.80358-11.232-3.8894-18.862-10.515-25.998-6.4924-6.9935-12.366-9.3266-23.319-9.2633l-9.9053 0.06-1.9031-7.9328c-3.8353-15.988-27.54-39.228-46.585-45.673-13.339-4.5139-32.707-4.2929-51.497 0.5874l-14.531 3.774-4.0501-6.5463c-15.711-25.395-35.402-30.326-62.524-15.658-0.56402 0.3053-3.56-3.6166-6.6572-8.715-7.16-11.786-21.693-25.686-32.799-31.369-12.326-6.3077-30.467-7.2381-45.69-2.3433-10.256 3.2979-11.166 3.3536-14.89 0.9136-7.5114-4.9217-8.1411-9.4183-5.2844-37.738 1.4257-14.134 2.5899-29.044 2.5871-33.135-4e-3 -5.5055 0.95189-8.5491 3.6804-11.721 3.4436-4.0034 4.8738-4.3733 21.783-5.6335 52.418-3.9065 76.12-11.68 112.14-36.78 8.1606-5.686 16.882-10.787 19.38-11.336 7.5377-1.6555 20.379 3.2777 39.164 15.046 25.344 15.877 32.995 19.947 44.507 23.677 21.144 6.8505 53.872 3.1501 93.602-10.583l21.387-7.3927 38.813 0.4526c38.315 0.4467 102.51-3.5196 127.53-7.8794 30.591-5.3312 48.828-26.184 49.026-56.059 0.0749-11.324-0.43828-13.601-4.825-21.386-5.531-9.8168-15.765-18.418-27.114-22.789-9.7784-3.7658-33.888-4.9647-56.615-2.8151-9.5422 0.9025-18.377 1.0661-19.632 0.3634-1.2554-0.7025-7.3521-7.6007-13.548-15.329-9.4457-11.782-12.979-14.924-21.868-19.45-18.055-9.1918-39.801-8.6837-60.135 1.4051-5.2604 2.61-10.119 4.4026-10.797 3.9836-0.67797-0.4191-3.0833-6.6974-5.3452-13.952-6.7112-21.525-17.157-33.584-33.226-38.356-22.645-6.7249-53.79 2.6808-75.869 22.912l-10.43 9.5573-10.314-15.44c-24.47-36.634-48.085-60.04-73.175-72.532-20.098-10.006-35.348-13.591-57.823-13.591-22.128 0-37.551 3.5488-57.023 13.12-11.232 5.5209-16.169 9.3226-29.843 22.98-12.895 12.88-17.319 16.365-20.772 16.365h-4.387l-1.1025-16.008c-0.60642-8.8043-0.62725-30.726-0.0479-48.714 0.95267-29.501 0.72801-34.383-2.2923-49.816-6.3373-32.383-3.6354-50.796 10.652-72.592 15.967-24.358 40.694-40.594 76.298-50.099 13.482-3.5992 17.938-4.0085 42.773-3.9284 30.174 0.098 48.032 1.5976 89.953 7.5576 35.259 5.0128 51.297 4.9825 75.595-0.1425 30.742-6.4843 34.102-7.0692 50.163-8.7296 18.548-1.9176 37.094-0.3694 78.561 6.5565 37.728 6.3019 52.231 5.9027 86.354-2.3765 38.005-9.2213 50.954-10.906 83.542-10.87 35.786 0.042 49.948 2.3603 103.33 16.934 62.986 17.197 74.435 17.498 140.64 3.6986l24.555-5.1182 72.081-0.077c78.359-0.084 76.09 0.1078 121.19-10.238 35.732-8.1968 44.431-9.4814 64.302-9.4956 20.302-0.012 36.24 3.6639 52.612 12.143 15.565 8.0608 36.361 28.821 44.159 44.084 11.887 23.265 18.41 50.794 19.704 83.17l0.91854 22.971-6.8245-7.9209c-18.473-21.441-38.351-35.424-62.68-44.092-13.116-4.6731-15.331-4.9793-36.151-4.998-21.633-0.018-22.439 0.1036-32.76 4.9933-5.82 2.7573-13.958 8.1039-18.085 11.882-8.606 7.8774-23.353 27.187-29.141 38.157-2.17 4.1126-4.665 7.7298-5.5446 8.0382-0.87962 0.3083-10.51-1.4596-21.402-3.9287-64.883-14.709-98.99-10.76-122.3 14.16-8.9745 9.5944-13.816 18.955-19.433 37.572-8.4279 27.934-9.3434 28.628-40.754 30.882-40.731 2.9226-50.561 5.3482-59.409 14.66-8.8744 9.3387-12.257 18.003-12.315 31.545-0.0479 11.001 0.39817 12.777 4.7672 19.01 9.2822 13.242 32.134 21.081 72.806 24.974 22.827 2.1849 161 5.7034 207.53 5.2844 35.6-0.3203 46.704-1.1123 85.546-6.0989 26.045-3.3437 41.075-1.5152 58.615 7.1307 13.148 6.481 25.745 17.067 29.923 25.146 2.0416 3.9478 2.177 7.6177 0.87478 23.698-0.99285 12.26-0.99973 29.942-0.018 49.717 1.4005 28.249 0.41554 61.107-2.3295 77.697l-0.96243 5.8174-5.0302-2.9223c-9.986-5.8014-22.744-8.3098-38.911-7.6502-13 0.5305-16.782 1.35-25.844 5.6005-11.944 5.6025-23.119 15.86-28.262 25.94l-3.4514 6.7653-6.3271-12.122c-11.118-21.301-32.745-38.091-56.693-44.015-21.729-5.3749-54.989-0.3515-80.223 12.117-38.512 19.029-59.393 52.312-59.817 95.347-0.10897 11.044-0.74029 16.238-1.9736 16.238-0.99733 1e-4 -6.4177 1.4222-12.045 3.1604-24.017 7.4182-37.172 29.782-32.568 55.369 3.3164 18.432 14.556 32.82 37.265 47.705 27.638 18.116 49.533 18.559 98.668 1.9981 20.067-6.7636 22.169-7.1598 34.06-6.4198 9.5212 0.5921 16.07 2.1622 26.328 6.3111 19.737 7.9826 28.195 9.6528 43.98 8.6854 14.673-0.8993 22.458-3.0805 69.1-19.362 15.684-5.4746 33.862-10.801 40.397-11.837 6.5347-1.0358 13.129-2.2348 14.654-2.6644 2.2085-0.6224 2.7723 0.2089 2.7723 4.0885 0 8.8026-4.7462 36.895-10.455 61.88-15.43 67.534-18.041 81.475-22.046 117.71-1.355 12.259-7.0146 18.65-23.63 26.685-10.476 5.0658-14.279 6.0997-22.441 6.0997-17.635 0-61.291-8.7267-90.936-18.178-35.298-11.254-112.09-29.2-150.5-35.172-25.152-3.9105-73.796-3.8432-95.843 0.1329-18.363 3.3115-36.918 8.8738-51.34 15.391-5.5832 2.5228-10.407 4.3309-10.72 4.0178-0.31315-0.3132 0.12574-5.4755 0.97482-11.472 2.8176-19.896-1.8822-40.926-15.034-67.271-29.155-58.402-82.53-99.493-139.96-107.75-18.624-2.6787-58.255-1.0247-78.575 3.2794-27.748 5.8775-48.324 15.2-78.371 35.507-32.353 21.866-56.901 49.737-68.931 78.261-9.9291 23.543-12.623 37.642-12.664 66.275-0.0239 16.605-0.59276 25.269-1.6208 24.675-8.6709-5.0126-22.576-15.815-40.375-31.366-26.92-23.519-37.162-31.052-51.422-37.819-42.614-20.222-80.976-11.493-111.38 25.344-12.206 14.79-16.296 17.546-50.762 34.208-17.683 8.5487-37.287 18.86-43.565 22.914-15.004 9.6887-33.657 28.702-50.722 51.702-7.5962 10.238-14.078 18.614-14.403 18.614s-2.2752-1.3637-4.3321-3.0306z" fill="#e9d6c8" stroke-width="1.0658"/> <path d="m286.79-3317.4c-20.147-12.197-32.176-21.573-52.066-40.582-9.789-9.3556-23.858-21.356-31.264-26.668-18.358-13.168-46.854-30.222-54.15-32.408-7.4448-2.2305-8.4667-6.2385-7.1562-28.069 2.5267-42.09 23.514-82.661 57.546-111.25 43.573-36.598 81.201-51.262 131.29-51.163 33.526 0.066 51.552 5.1502 75.203 21.211 44.232 30.037 70.216 72.073 72.483 117.26 0.82083 16.355-1.8382 33.917-5.8708 38.776-3.0417 3.665-30.291 16.86-50.831 24.614-38.54 14.55-43.473 18.282-94.733 71.677-8.1612 8.5011-17.518 17.579-20.794 20.173l-5.955 4.7165z" fill="#cc9b59" stroke-width="1.0658"/> <path d="m-254.06-3082.9c-0.91351-1.1006-2.5263-5.4377-3.5839-9.6378-2.4602-9.7704-0.83789-21.796 10.077-74.699l8.1711-39.605 0.21794-38.02c0.11975-20.911 0.94536-40.604 1.8348-43.762 0.88938-3.1578 5.1318-11 9.4276-17.426 4.2957-6.4266 14.676-22.734 23.066-36.24 20.175-32.473 30.039-45.075 42.873-54.776 12.411-9.3812 32.253-19.504 51.565-26.306 27.366-9.639 43.085-18.066 59.094-31.682 11.195-9.5218 20.894-14.35 36.158-18.002 29.085-6.958 50.611-0.089 82.378 26.286 5.6634 4.7022 23.486 21.444 39.605 37.204 24.29 23.749 32.152 30.4 45.922 38.845 9.138 5.6046 22.88 14.689 30.538 20.188 13.388 9.613 47.384 29.379 81.603 47.446 16.257 8.5828 16.274 8.5981 12.674 11.348-36.022 27.509-76.157 53.099-93.6 59.68-54.029 20.384-61.647 24.213-102.64 51.593-15.461 10.325-28.756 18.773-29.547 18.773s-5.6572-3.7886-10.816-8.4192c-32.966-29.593-60.162-42.051-87.834-40.237-26.289 1.7236-67.045 20.404-98.699 45.24-5.0767 3.983-15.966 15.591-24.199 25.795-17.543 21.743-21.666 25.562-41.936 38.843-27.432 17.974-38.276 22.473-42.345 17.57z" fill="#dbb79d" stroke-width="1.0658"/> <path d="m409.02-3001.8c-39.722-6.9953-68.07-21.029-104.97-51.968-22.014-18.456-32.151-25.231-45.117-30.157-11.322-4.3006-21.574-4.7283-77.649-3.2391l-26.139 0.6942-15.397-6.8837c-8.4682-3.7861-21.657-11.035-29.308-16.11-13.982-9.2732-43.218-33.786-43.218-36.236 0-0.7223 3.7426-3.8092 8.317-6.8598 4.5743-3.0507 17.941-13.545 29.704-23.32 24.261-20.162 37.818-28.782 51.35-32.648 8.4188-2.4055 11.367-2.4674 29.074-0.6102 24.526 2.5724 37.157 0.8151 52.482-7.3012 12.807-6.7825 72.671-49.842 94.66-68.088 8.8418-7.3364 21.674-19.587 28.515-27.224 23.63-26.375 33.691-36.198 42.701-41.689 4.9738-3.0314 25.303-16.355 45.175-29.608s38.831-25.463 42.131-27.133c13.408-6.7851 30.946-11.693 63.558-17.786 39.57-7.3927 67.318-9.2917 93.731-6.4146 26.668 2.9047 86.608 15.528 135.54 28.544 13.223 3.5175 29.336 5.8782 65.744 9.6317 51.71 5.3313 63.599 7.2682 78.082 12.721 8.8102 3.3172 35.141 19.731 38.616 24.072 2.3231 2.9025 9.3635 33.87 12.17 53.531 2.7759 19.446 4.9397 47.526 3.6622 47.526-0.48738 0-8.9615-3.9225-18.831-8.7165-27.134-13.18-50.706-18.215-85.273-18.215-50.481 0-86.712 12.633-134.46 46.883-19.651 14.097-58.515 52.79-78.728 78.384-8.6522 10.955-24.444 30.975-35.094 44.49-22.846 28.992-54.323 62.34-70.496 74.686-22.334 17.049-37.549 22.698-84.073 31.218-14.631 2.6792-31.028 6.2587-36.436 7.9545-11.522 3.6123-8.7083 3.6244-30.019-0.1287z" fill="#dbb79d" stroke-width="1.0658"/> <path d="m58.717-2821.2c-13.613-1.8799-33.211-6.8435-45.925-11.631-27.835-10.482-51.834-25.795-103.2-65.854-58.351-45.504-82.069-59.349-115.67-67.526-9.5689-2.3283-20.232-4.9183-23.696-5.7555-7.4306-1.7959-14.809-9.0315-19.869-19.484-4.8059-9.9275-3.7869-22.538 3.1709-39.246 9.3258-22.393 19.09-31.801 53.888-51.918 21.906-12.664 27.078-16.304 59.695-42.005 25.045-19.734 35.255-26.341 55.019-35.603 17.667-8.2788 34.79-12.56 50.235-12.56 24.298 0 36.554 7.6954 76.639 48.124 43.514 43.885 68.464 64.987 84.583 71.537 17.469 7.0983 31.83 8.022 75.128 4.8324 21.285-1.5681 41.108-2.3301 44.051-1.6934 9.3072 2.0135 18.914 7.9054 44.456 27.264 29.53 22.381 49.444 33.781 73.248 41.932 9.653 3.3053 17.738 6.014 17.966 6.0194 0.22812 0-4.8316 5.3075-11.244 11.783-11.747 11.862-29.172 34.252-49.401 63.476-14.177 20.482-32.399 39.347-46.669 48.318-6.2373 3.9209-16.46 10.431-22.717 14.468l-11.377 7.3385-27.723 1.1078c-15.248 0.6093-41.625 2.5265-58.615 4.2603-35.459 3.6186-86.045 5.0165-101.97 2.8176z" fill="#ab8468" stroke-width="1.0658"/> <path d="m983.74-2457.7c-2.2374-11.926-10.748-32.236-18.379-43.86-5.2938-8.0637-14.198-17.828-27.254-29.886-28.616-26.429-34.948-33.448-49.079-54.402-30.943-45.884-47.797-62.874-89.38-90.106-8.8529-5.7977-24.18-14.404-34.06-19.125-38.281-18.293-66.972-24.073-141.98-28.605-74.299-4.4885-84.471-7.6009-151.63-46.399-65.108-37.612-97.626-49.605-147.17-54.277-10.546-0.9946-21.929-2.2756-25.297-2.8466l-6.1223-1.0381 8.8913-6.1238c10.948-7.5399 24.556-22.007 35.037-37.25 22.459-32.66 27.837-39.737 38.222-50.294 25.913-26.342 52.604-38.288 110.69-49.54 63.339-12.269 78.356-19.907 121.75-61.93 24.903-24.116 38.873-42.45 63.586-83.448 35.569-59.008 59.126-84.891 92.689-101.84 16.781-8.4744 30.339-13.041 59.407-20.011 24.452-5.8632 26.354-6.0798 53.862-6.1343 31.795-0.063 45.161 2.1083 61.852 10.047 14.021 6.669 33.098 27.187 42.021 45.195l6.8388 13.801 1.1097 24.857c0.87315 19.558 2.316 30.43 6.7672 50.996 12.119 55.992 13.761 71.417 14.368 134.95 0.2688 28.157 1.0348 71.868 1.7022 97.136 1.0939 41.418 0.8618 49.607-2.3567 83.17-4.0557 42.294-3.9674 61.77 0.7969 175.84 2.9927 71.659 2.4643 85.471-4.3306 113.18-3.4656 14.131-16.223 42.184-19.666 43.244-0.99081 0.3048-2.2816-2.064-2.8891-5.3022z" fill="#ab8468" stroke-width="1.0658"/> <path d="m888.62-2426.1c-6.9704-1.2601-23.01-5.8633-35.644-10.23-64.895-22.427-59.104-20.903-80.002-21.056-10.456-0.076-27.275 0.494-37.376 1.267-13.126 1.0047-20.601 0.8695-26.202-0.4742-6.6705-1.6001-9.9476-1.4195-22.031 1.2135-25.208 5.4932-42.186 7.3188-68.058 7.3188-28.975 0-37.459-1.1021-97.428-12.658-58.125-11.201-65.83-12.287-87.13-12.284-21.733 0-25.909 0.9174-59.112 12.942-36.33 13.156-46.359 15.222-73.168 15.07-18.823-0.106-28.17-1.1841-61.783-7.1214l-39.605-6.9956-87.13 0.5071c-80.495 0.4683-89.604 0.2449-119.61-2.9316-47.773-5.0578-56.311-4.0738-103.76 11.958-49.089 16.584-74.173 15.076-103.76-6.2382-19.046-13.718-24.65-19.35-30.685-30.833-13.566-25.816-13.739-44.665-1.0191-110.75 9.3085-48.36 9.2323-60.851-0.65168-106.81-10.358-48.166-10.664-68.877-2.0548-139.07 4.209-34.314 4.9663-45.943 5.029-77.229 0.0599-29.188 0.50235-36.833 2.1399-36.832 1.1364 2e-4 8.6216 1.8091 16.634 4.02 29.528 8.1479 57.255 24.908 99.322 60.037 71.671 59.85 121.49 83.746 186.93 89.656 22.691 2.0492 42.694 1.214 88.715-3.7043 26.412-2.8227 41.942-3.4708 83.17-3.4708 104.22 0 136.94 8.5024 205.88 53.495 87.936 57.391 110.02 65.514 201.26 74.034 65.335 6.1015 95.17 13.591 130.7 32.809 44.401 24.019 62.271 42.074 95.176 96.16 6.4587 10.616 15.163 20.906 35.101 41.494 14.582 15.057 28.686 30.804 31.343 34.992 5.1836 8.1721 12.641 29.687 12.641 36.47 0 2.2746-1.8122 7.2279-4.0272 11.008l-4.0272 6.872-18.547-0.1724c-10.201-0.095-24.251-1.2035-31.221-2.4636z" fill="#7d4d41" stroke-width="1.0658"/> </g> </g> </svg>