<?xml version='1.0' encoding='utf-8'?>
<svg xmlns="http://www.w3.org/2000/svg" width="1411.1mm" height="1940mm" version="1.1" viewBox="0 0 1411.1 1940"> <g transform="translate(-322.17 133.95)"> <g transform="matrix(1.0691 0 0 1.0691 527.27 489.04)"> <path d="m-191.85-582.75h1319.9v1814.7h-1319.9z" fill="#fff" stop-color="#000000" stroke-linecap="square" stroke-width=".56124" style="paint-order:markers stroke fill"/> <path d="m294.45 1190.6c1.3179-0.3436 3.1466-0.3211 4.0636 0.051 0.91707 0.3713-0.16128 0.6521-2.3962 0.6246-2.235-0.026-2.9853-0.3313-1.6674-0.6748zm147.96-201.08c-48.021-1.7749-84.832-8.2368-126.17-22.15-50.179-16.886-86.898-37.519-131.19-73.715-57.958-47.367-114.32-118.71-140.27-177.56-12.312-27.924-20.519-54.781-24.833-81.272-5.1479-31.608-5.5726-37.74-5.5349-79.918 0.04104-42.878 1.0911-57.442 6.854-94.818 4.0809-26.467 13.511-67.45 19.453-84.542 1.5317-4.406 2.6104-8.1853 2.3972-8.3985-1.2903-1.2903-21.857 16.135-36.869 31.238-53.857 54.182-99.806 135.03-135.92 239.15-3.7467 10.802-12.489 31.624-19.428 46.27l-12.616 26.629-0.75156-39.388 6.307-18.449c36.938-108.05 87.781-197.45 145.68-256.17 28.576-28.977 51.211-44.656 64.512-44.686 8.9549-0.0213 8.9991 1.3646 0.99148 31.141-13.914 51.74-22.527 125.13-20.426 174.06 2.5012 58.239 10.472 97.478 28.89 142.23 6.1214 14.872 6.1632 14.93 22.53 31.154 9.5825 9.4992 21.364 19.571 28.349 24.236 35.941 24.001 102.6 44.486 174.3 53.561 44.873 5.6802 82.556 6.4623 130.71 2.713 62.963-4.902 141.33-21.536 209.28-44.421 62.953-21.203 95.765-35.966 241.11-108.48 53.267-26.577 104.77-51.877 114.46-56.223 41.089-18.436 76.235-31.754 98.614-37.37 6.1071-1.5325 12.198-3.111 13.536-3.5078 2.2066-0.65465 2.3949 0.18833 2.0318 9.0907l-0.4003 9.8122-8.1272 2.3381c-38.741 11.145-114.89 46.082-150.35 68.977-53.442 34.507-109.71 74.375-142.23 100.78-35.25 28.619-51.688 42.929-103.66 90.239-82.948 75.507-121.86 103.87-166.52 121.35l-11.563 4.5279 7.45 0.0512c23.917 0.15726 84.694-8.1252 125.29-17.075 52.414-11.554 93.007-24.02 186.93-57.406 100.27-35.645 152.6-51.445 205.92-62.18 21.062-4.2405 47.075-8.2228 53.713-8.2228 3.7315 0 3.8278 0.18525 3.8278 7.3669v7.3671l-6.4341 0.83167c-74.961 9.691-146.02 29.655-269.89 75.823-57.407 21.397-109.04 38.343-146.29 48.012-80.768 20.965-157.45 29.831-233.66 27.014zm52.15-26.672c54.098-18.23 100.79-51.365 195.02-138.39 53.785-49.672 82.948-74 127.96-106.74 12.707-9.244 23.408-17.108 23.78-17.476 0.37268-0.3681-17.304 8.4963-39.282 19.698-91.496 46.636-155.24 71.502-235.01 91.674-116.68 29.505-215.88 34-327.12 14.824-50.29-8.6695-88.791-22.236-119.69-42.174-5.1132-3.2993-9.518-5.7774-9.7884-5.5071-0.99109 0.99109 24.378 31.944 39.125 47.739 79.064 84.674 167.67 130.11 273.22 140.09 8.5674 0.81053 18.015 1.7033 20.995 1.984 2.98 0.28056 11.818 0.39216 19.641 0.24829 12.748-0.23505 15.978-0.85361 31.154-5.9677zm-23.027-566.46c-78.623-4.747-148.49-31.184-203.18-76.881-54.804-45.793-88.483-109.11-96.123-180.72-6.3873-59.869 13.025-151.06 43.652-205.06 15.971-28.161 39.565-55.119 76.853-87.814 55.232-48.427 111.87-83.755 157.54-98.27 11.968-3.8034 37.214-9.0138 53.454-11.032 17.486-2.1735 38.915-0.28516 63.744 5.6174 48.738 11.586 81.804 27.833 130.75 64.246 48.504 36.083 77.809 64.703 100.23 97.884 9.6141 14.227 26.449 45.996 29.253 55.202 0.68708 2.256 3.1383 9.5878 5.4472 16.293 15.619 45.358 18.373 97.674 7.9513 151.03-12.442 63.7-45.82 128.04-89.044 171.64-46.688 47.097-101.63 76.129-170.82 90.266-32.234 6.5862-76.141 9.6283-109.71 7.6014zm64.807-18.934c67.492-4.6082 118.57-22.844 168.05-59.994 17.194-12.91 42.15-37.806 53.905-53.775 38.011-51.638 68.056-129.1 76.968-198.44 9.8085-76.316-18.353-145.43-81.387-199.75-30.239-26.058-76.413-56.3-110.91-72.643-31.182-14.771-74.354-25.35-115.22-28.232-16.576-1.1692-52.087-2.6571-58.922-2.4688-16.489 0.45411-67.914 23.89-104.2 47.488-58.566 38.085-103.98 82.333-131.34 127.95-19.034 31.741-33.326 71.855-41.573 116.69-2.7145 14.755-3.6792 25.259-4.2462 46.233-1.3684 50.617 5.296 82.998 25.358 123.21 24.724 49.56 61.827 85.363 117.84 113.71 59.72 30.226 134.88 44.848 205.68 40.014zm-490.78-403.6c-1.981-3.2053 6.6475-11.424 19.765-18.828 8.9981-5.0782 13.412-5.336 17.561-1.0254 3.0832 3.2034 3.1145 3.2063 7.2535 0.68237 5.5294-3.3719 15.088-3.3032 20.75 0.14896 2.4212 1.4763 4.4023 3.268 4.4023 3.9818 0 2.3294-5.9245 5.5148-10.257 5.5148-2.4648 0-6.7276 1.6886-10.196 4.039-7.8156 5.2959-10.969 5.1674-15.758-0.64167l-3.8988-4.7299-10.761 5.3229c-11.842 5.8578-17.615 7.5517-18.862 5.5347zm30.247-146.67c-1.4889-1.6762-3.9339-6.7049-5.4333-11.175-5.059-15.082-8.828-16.049-26.413-6.7727-13.184 6.9541-20.777 8.1113-20.777 3.1663 0-4.8327 8.2388-16.165 14.758-20.299 8.2538-5.2344 13.919-5.0307 25.791 0.92754 7.862 3.9457 10.548 6.2136 15.241 12.868 3.1333 4.443 6.0767 8.0782 6.5409 8.0782 0.46432 0 3.2396-2.027 6.1674-4.5044s9.1329-7.0717 13.789-10.209c4.6562-3.1378 8.4658-6.209 8.4658-6.8249 0-0.61591 2.3186-2.7266 5.1523-4.6904 7.1026-4.9221 12.244-4.6558 17.988 0.9317 2.5454 2.4762 6.535 5.8175 8.8657 7.4251 7.979 5.5032 6.2498 12.225-2.7124 10.544-2.5298-0.47459-7.2604-2.666-10.512-4.8697-3.2521-2.2038-6.8271-3.9994-7.9446-3.9902-3.903 0.0306-16.938 10.148-21.656 16.806-8.8772 12.527-12.645 15.637-18.947 15.637-4.1605 0-6.3719-0.80594-8.3633-3.0478zm-66.169-0.86012c0-1.2397 5.9395-5.5739 7.6384-5.5739 0.52853 0-0.47049 1.5239-2.2203 3.3864-3.2478 3.4571-5.4181 4.3334-5.4181 2.1876zm238.42-38.737-5.9595-6.0722-5.7387 3.3631c-5.8033 3.4009-12.706 4.4943-12.706 2.0125 0-2.2175 9.6516-12.213 13.928-14.424 4.8615-2.5141 8.8781-1.6301 14.646 3.2231 2.4954 2.0998 4.6157 3.0593 4.8969 2.216 0.27286-0.81804 2.2764-4.2951 4.4528-7.7269 6.5706-10.361 14.283-10.206 30.458 0.61249 11.788 7.8844 14.31 11.178 10.23 13.361-3.1815 1.7027-8.0209-0.0309-18.261-6.548-3.6846-2.3444-7.1422-4.2625-7.6836-4.2625-0.54134 0-1.6758 2.0953-2.521 4.6563-2.0574 6.234-6.4341 11.598-9.463 11.598-1.3562 0-2.8167 0.91429-3.2455 2.0318-1.4874 3.876-6.9147 2.1935-13.033-4.0404zm-77.455-97.896c-1.9855-1.2998-6.4022-4.7206-9.8152-7.6017-7.0483-5.95-4.9868-6.0215-29.187 1.0114-16.857 4.8988-23.65 5.9203-24.987 3.757-2.6458-4.2809 28.662-20.689 41.185-21.584 6.6093-0.47305 8.1376-0.0527 13.545 3.7223 17.568 12.264 16.12 11.574 18.282 8.7175 1.0726-1.4168 2.3557-4.7095 2.8512-7.317 1.1141-5.8619 4.3131-12.33 7.1812-14.518 4.1473-3.165 12.378-1.7505 32.554 5.5944 11.075 4.0319 21.568 8.0684 23.318 8.97 4.5461 2.3424 10.631 8.2759 10.631 10.366 0 5.0673-31.722-2.3822-50.126-11.771-2.9158-1.4876-5.9109-2.7047-6.6556-2.7047-0.74481 0-2.0817 2.4283-2.9709 5.3963-0.88927 2.968-2.7424 6.415-4.118 7.6599-1.3757 1.2449-2.5012 3.1111-2.5012 4.147s-1.4961 3.3796-3.3248 5.2082c-3.9932 3.9933-10.606 4.3881-15.862 0.94722z" fill="#4f4354" stroke-width=".93541"/> <path d="m-162.39-542.3v605.7c0 333.14 0.23504 605.45 0.52115 605.14 0.2862-0.31024 3.1068-8.1828 6.2674-17.495 23.228-68.439 54.784-133.87 89.82-186.25 40.473-60.501 96.133-113.04 119.82-113.09 8.9549-0.0213 8.9997 1.3646 0.99212 31.141-13.914 51.74-22.528 125.13-20.427 174.06 2.5012 58.239 10.474 97.478 28.892 142.23 6.1214 14.872 6.1633 14.93 22.53 31.154 9.5825 9.4992 21.363 19.572 28.347 24.236 43.063 28.757 128.88 51.77 214.93 57.634 20.305 1.3837 65.077 0.73808 90.077-1.299 64.272-5.2369 141.48-21.65 209.28-44.483 62.58-21.077 97.262-36.647 235.01-105.51 49.915-24.954 99.288-49.324 109.72-54.152 50.412-23.337 84.214-36.077 119.54-45.057l5.7567-1.463v-1102.5h-630.54zm679.97 278c14.568-0.10911 31.276 2.06 49.898 6.487 48.738 11.586 81.803 27.835 130.75 64.248 48.504 36.083 77.811 64.702 100.23 97.884 9.6141 14.227 26.449 45.997 29.252 55.203 0.68709 2.256 3.1383 9.5866 5.4472 16.292 9.5845 27.833 13.954 55.715 14.011 89.399 0.09005 53.07-13.019 104.73-39.528 155.77-51.872 99.876-143.94 160.69-262.29 173.24-108.49 11.507-204.91-14.513-277-74.748-54.804-45.793-88.482-109.11-96.122-180.72-6.3872-59.869 13.025-151.06 43.652-205.06 15.971-28.161 39.563-55.12 76.851-87.815 55.232-48.427 111.87-83.755 157.54-98.27 11.968-3.8034 37.214-9.0134 53.454-11.032 4.3715-0.54333 8.9911-0.83396 13.847-0.87037z" fill="#fdf0e8" stroke-width=".93541"/> <path d="m527.12 963.38c44.657-17.487 83.572-45.847 166.52-121.35 51.973-47.31 68.411-61.62 103.66-90.239 32.518-26.401 88.784-66.269 142.23-100.78 35.584-22.976 110.84-57.483 150.69-69.096l8.4658-2.467v243.06l-15.238 1.7474c-17.799 2.0409-54.863 9.178-78.011 15.022-44.648 11.272-90.649 25.921-170.21 54.202-93.919 33.386-134.51 45.853-186.93 57.406-40.601 8.9497-101.38 17.232-125.29 17.075l-7.45-0.0512 11.563-4.5278z" fill="#fab9cf" stroke-width=".93541"/> <path d="m443.76 968.54c-2.98-0.28054-12.428-1.1734-20.995-1.984-105.55-9.9856-194.15-55.418-273.22-140.09-14.748-15.794-40.117-46.747-39.125-47.739 0.27031-0.27031 4.6752 2.2078 9.7884 5.5071 30.901 19.939 69.402 33.505 119.69 42.174 111.24 19.177 210.44 14.682 327.12-14.824 79.77-20.172 143.52-45.038 235.01-91.674 21.977-11.202 39.654-20.066 39.282-19.698-0.37271 0.36807-11.074 8.2322-23.78 17.476-45.01 32.744-74.173 57.072-127.96 106.74-94.229 87.023-140.92 120.16-195.02 138.39-15.176 5.1141-18.406 5.7327-31.154 5.9677-7.8225 0.14444-16.661 0.0308-19.641-0.24829z" fill="#d9c6e8" stroke-width=".93541"/> <path d="m-162.39 951.63v-239.87l12.958-27.309c7.1269-15.02 16.022-36.147 19.767-46.95 12.67-36.549 26.96-70.987 42.437-102.27 29.414-59.452 57.731-100.92 93.478-136.88 15.012-15.103 35.579-32.528 36.869-31.238 0.213 0.213-0.86555 3.9925-2.3972 8.3985-5.9419 17.092-15.372 58.075-19.453 84.542-5.7629 37.376-6.8156 51.94-6.854 94.818-0.03582 42.178 0.38705 48.31 5.5349 79.918 4.3144 26.491 12.521 53.349 24.833 81.272 25.947 58.847 82.307 130.19 140.27 177.56 44.315 36.217 81.11 56.887 131.19 73.696 48.661 16.333 89.811 22.42 151.91 22.469 112.14 0.0897 204.67-19.588 354.21-75.327 122.17-45.533 201.98-67.995 269.21-75.761l7.1113-0.82137v353.63l-1261.1-0.028v-239.86z" fill="#c9dde8" stroke-width=".93541"/> <path d="m186.46-311.29c1.8286-1.8286 3.3248-4.1723 3.3248-5.2082s1.1255-2.902 2.5012-4.147c1.3756-1.245 3.2288-4.6919 4.118-7.6599s2.2261-5.3963 2.9709-5.3963c0.74472 0 3.7398 1.2171 6.6556 2.7047 18.404 9.3892 50.126 16.839 50.126 11.771 0-2.0903-6.0853-8.0238-10.631-10.366-1.7498-0.90161-12.243-4.9381-23.318-8.97-20.175-7.3449-28.406-8.7594-32.554-5.5944-2.868 2.1886-6.0671 8.6562-7.1812 14.518-0.49558 2.6075-1.7786 5.9002-2.8512 7.317-2.1623 2.8563-0.71433 3.5468-18.282-8.7175-5.4077-3.7751-6.936-4.195-13.545-3.7223-12.523 0.89579-43.831 17.304-41.185 21.584 1.337 2.1632 8.1305 1.1418 24.987-3.757 24.2-7.0329 22.138-6.9614 29.187-1.0114 13.217 11.157 19.537 12.795 25.677 6.6545z" fill="#4f4354" stroke-width=".93541"/> <path d="m261.09-208.41c0.42901-1.1175 1.8893-2.0318 3.2455-2.0318 3.029 0 7.4057-5.3642 9.463-11.598 0.84523-2.561 1.9797-4.6563 2.521-4.6563 0.54139 0 3.999 1.9181 7.6836 4.2625 10.24 6.5153 15.079 8.2507 18.261 6.548 4.0797-2.1834 1.5582-5.4766-10.23-13.361-16.174-10.818-23.887-10.973-30.458-0.61249-2.1764 3.4318-4.1801 6.9089-4.4528 7.7269-0.28108 0.84331-2.4015-0.11622-4.8969-2.216-5.7677-4.8532-9.7844-5.7372-14.646-3.2231-4.2766 2.2114-13.928 12.207-13.928 14.424 0 2.4818 6.903 1.3884 12.706-2.0125l5.7387-3.3631 5.9595 6.0722c6.1181 6.2338 11.545 7.9164 13.033 4.0404z" fill="#4f4354" stroke-width=".93541"/> <path d="m15.052-175.9c1.7498-1.8625 2.7488-3.3864 2.2203-3.3864-1.6989 0-7.6384 4.3342-7.6384 5.5739 0 2.1458 2.1704 1.2695 5.4181-2.1876z" fill="#4f4354" stroke-width=".93541"/> <path d="m94.089-174.26c2.3467-2.454 6.4075-7.4828 9.0239-11.175 4.7184-6.6585 17.753-16.774 21.656-16.806 1.1175-0.01 4.6926 1.7864 7.9446 3.9902 3.2521 2.2037 7.9827 4.3952 10.512 4.8697 8.9621 1.6813 10.691-5.0408 2.7124-10.544-2.3307-1.6075-6.3203-4.9488-8.8657-7.4251-5.7436-5.5875-10.885-5.8538-17.988-0.9317-2.8338 1.9638-5.1523 4.0745-5.1523 4.6904 0 0.61594-3.8096 3.6871-8.4658 6.8249s-10.861 7.732-13.789 10.209c-2.9278 2.4774-5.7031 4.5044-6.1674 4.5044-0.46435 0-3.4077-3.6352-6.5409-8.0782-4.6929-6.6545-7.3791-8.9224-15.241-12.868-11.872-5.9582-17.537-6.162-25.791-0.92754-6.5194 4.1345-14.758 15.467-14.758 20.299 0 4.945 7.5939 3.7878 20.777-3.1663 17.585-9.2758 21.354-8.3094 26.413 6.7727 3.7409 11.152 6.7191 14.223 13.797 14.223 4.6302 0 6.43-0.80934 9.9229-4.4619z" fill="#4f4354" stroke-width=".93541"/> <path d="m64.417-31.712 10.761-5.3229 3.8988 4.7299c4.7884 5.8091 7.9421 5.9376 15.758 0.6417 3.4686-2.3504 7.7314-4.039 10.196-4.039 4.3322 0 10.257-3.1855 10.257-5.5148 0-0.71371-1.9811-2.5055-4.4023-3.9817-5.6622-3.4523-15.221-3.5211-20.75-0.14896-4.139 2.524-4.1704 2.521-7.2535-0.6824-4.1487-4.3105-8.5626-4.0528-17.561 1.0254-13.118 7.4033-21.746 15.622-19.765 18.828 1.2466 2.017 7.0191 0.32303 18.862-5.5347z" fill="#4f4354" stroke-width=".93541"/> <path d="m479.82 377.27c-90.477-6.1075-176.15-42.475-227.25-96.468-29.417-31.083-50.81-71.449-60.057-113.32-6.8881-31.189-7.2276-78.376-0.81478-113.23 12.762-69.371 36.587-119.59 78.979-166.48 45.181-49.971 119.11-100.08 177.82-120.53 15.83-5.5136 17.647-5.6806 47.409-4.3535 42.868 1.9115 57.668 3.5299 83.689 9.1519 34.744 7.5066 60.05 17.531 93.891 37.19 90.865 52.788 137.82 104.51 156.77 172.68 14.258 51.284 5.4783 119.27-25.307 195.98-19.468 48.507-42.513 85.133-71.859 114.21-64.914 64.315-148.05 92.272-253.28 85.169z" fill="#fedf9f" stroke-width=".93541"/> </g> </g> </svg>