<?xml version='1.0' encoding='utf-8'?>
<svg xmlns="http://www.w3.org/2000/svg" width="1340.6mm" height="1897.8mm" version="1.1" viewBox="0 0 1340.6 1897.8"> <g transform="translate(793.12 61.319)"> <g transform="matrix(8.658 0 0 8.658 -40852 -65.849)" stroke-width=".1155"> <path d="m4626.8 0.52324h154.84v219.2h-154.84z" fill="#fff" stop-color="#000000" stroke-linecap="square" stroke-width=".03465" style="paint-order:markers stroke fill"/> <path d="m4637 40.772c-1.2076-0.25594-1.9221-0.86758-2.0966-1.7949-0.2459-1.3069 0.5406-2.7185 1.8651-3.3474 0.4171-0.19804 0.7715-0.46728 1.2146-0.92264 0.4318-0.44372 0.8058-0.73024 1.2066-0.92451 1.0319-0.50002 1.686-0.46808 2.5027 0.12222 0.2213 0.15989 1.0055 0.52136 1.7429 0.80327 1.1209 0.42855 1.4608 0.51989 2.0727 0.55733 0.677 0.04138 0.7756 0.02439 1.3106-0.22598 0.416-0.19464 0.8273-0.50864 1.463-1.117 0.9867-0.94431 1.1269-1.0329 2.0807-1.3158 1.8288-0.54236 2.3472-1.0938 3.8374-4.0817 0.9953-1.9957 1.2899-2.3593 2.4639-3.041 1.432-0.83164 2.6881-1.0713 3.9327-0.7504 2.3699 0.61099 5.9789 3.2427 7.1304 5.1994 0.7409 1.2589 0.8912 2.2636 0.6015 4.0178-0.298 1.8029-0.193 2.1485 1.0766 3.5466 0.7784 0.85703 1.0644 1.7736 0.723 2.3168-0.5097 0.81101-2.3742 1.0824-4.5958 0.6689-0.2567-0.04772-1.1303-0.23359-1.9415-0.41295-2.6886-0.5945-4.0397-0.69475-5.9615-0.4423-0.5802 0.07622-2.3419 0.26283-3.9149 0.41472-2.6157 0.25254-3.2041 0.27878-6.8824 0.30689-2.2121 0.01689-4.2634 0.07041-4.5584 0.11888-1.1007 0.18092-3.5937 0.44962-4.1114 0.44316-0.2949-0.0032-0.8178-0.0664-1.1619-0.1393z" fill="#5d9cd2" stroke-width=".1155"/> <path d="m4761 73.977c-0.1967-0.04751-1.1868-0.19962-2.2004-0.33798-1.6425-0.22422-1.9013-0.28277-2.3817-0.53877-1.0342-0.55123-1.427-1.1068-1.0266-1.4517 0.087-0.07411 0.4782-0.26625 0.8715-0.42704 1.0036-0.4103 1.6183-0.72971 2.4754-1.2863 0.4082-0.26511 1.0239-0.62308 1.3679-0.7955 1.2442-0.62333 2.2606-1.5705 2.6501-2.4694 0.1013-0.23416 0.224-0.884 0.3035-1.6088 0.1679-1.5317 0.2673-2.088 0.4992-2.7944 0.3679-1.1208 0.9858-2.0844 1.5105-2.3558 0.7927-0.40992 1.6006 0.08245 2.6304 1.603 0.6003 0.88639 0.9742 1.6696 1.4242 2.9834 0.5186 1.5142 0.7578 1.9665 1.2946 2.4491 0.6954 0.62526 1.1686 0.737 2.8079 0.66302 1.2476-0.05627 1.3629-0.04772 1.7276 0.12887 0.7843 0.37963 1.2183 1.1617 1.3365 2.408 0.058 0.60933-0.1534 2.5553-0.3516 3.2411l-0.1095 0.3788-2.3648 0.05701c-1.3007 0.03135-2.6464 0.09913-2.9905 0.15049-0.7983 0.11922-8.9827 0.12173-9.4742 0.0032z" fill="#5d9cd2" stroke-width=".1155"/> <path d="m4639.5 71.879c0-0.15212-0.1075-0.15916-0.2502-0.01636-0.1602 0.16016-0.1299 0.23943 0.072 0.18678 0.098-0.02576 0.1787-0.1024 0.1787-0.1704z" stroke-width=".1155"/> <path d="m4649.6 89.095c-0.6145-0.04085-2.4446-0.13791-4.0669-0.21562-4.8874-0.23412-6.5201-0.33475-6.6141-0.40767-0.05-0.03821-0.2819-0.09733-0.5173-0.13136-0.658-0.09522-1.8146-0.62014-2.5663-1.1647-0.2211-0.16026-0.5631-0.34249-0.7597-0.40497-1.0596-0.33661-2.1901-1.2589-2.5968-2.1185-0.3062-0.6473-0.3464-1.2829-0.233-3.691 0.1202-2.5511 0.3655-3.4093 1.2591-4.4032l0.3975-0.4421 0.013-1.0408c0.011-0.87846 0.051-1.1524 0.2574-1.7559 0.4069-1.19 0.993-1.9245 2.0064-2.5146 0.2287-0.13315 0.6974-0.49839 1.0415-0.81166 0.7058-0.6425 1.2928-0.96352 2.0085-1.0983 0.269-0.05067 0.7918-0.19736 1.162-0.32606 0.8173-0.28422 1.6876-0.36042 2.4355-0.21327 0.9883 0.19443 1.2826 0.41114 2.4173 1.7797 0.9292 1.1208 1.3163 1.4381 2.9442 2.4125 1.5662 0.93746 2.1047 1.1807 2.7416 1.2385 0.7018 0.06366 1.2529-0.1107 3.0908-0.97789 2.3782-1.1221 2.8486-1.2211 4.1815-0.88018 1.2251 0.31331 2.1836 0.94223 2.882 1.891 0.4988 0.67751 0.727 1.1635 1.299 2.7664 0.9574 2.6828 1.652 3.7238 2.89 4.3312 0.6417 0.3148 2.3968 0.75636 4.2585 1.0713 1.2946 0.21901 1.837 0.39455 2.2067 0.71409 0.317 0.27403 0.335 0.31936 0.3692 0.92333 0.03 0.52101 5e-4 0.7083-0.1612 1.0422-0.3219 0.66517-1.0841 1.1897-2.3584 1.6231-1.1351 0.38605-1.9461 0.48418-4.704 0.5692-4.3934 0.13542-4.7959 0.21174-8.4018 1.5928-1.4244 0.54556-2.0312 0.64891-4.0221 0.68511-0.9585 0.01742-2.2456-0.0021-2.8601-0.04265z" fill="#5d9cd2" stroke-width=".1155"/> <path d="m4648.7 13.479c0.1717-0.11097-1.0378-0.11097-1.2961 0-0.1217 0.05236 0.035 0.07844 0.4916 0.08171 0.3688 0.0032 0.7308-0.0341 0.8045-0.08171z" stroke-width=".1155"/> <path d="m4654.5 10.857c-0.581-0.0011-1.2956 4.75e-4 -2.1893 5e-3 -4.3069 0.01963-4.5951 0.03949-6.3462 0.44133-0.6822 0.15657-1.414 0.23922-2.6813 0.30278-2.4302 0.12191-2.6017 0.14761-3.2879 0.49098-0.7642 0.38227-1.4022 0.9898-1.683 1.6033-0.4872 1.0642-0.6327 3.2387-0.3437 5.1416 0.2069 1.3627 0.357 6.0139 0.3317 10.258l-0.022 3.6883 0.342-0.21602c1.2387-0.78196 2.6245-0.7276 5.5312 0.21657 0.6002 0.19493 1.1966 0.3546 1.3256 0.3546 0.1722 0 0.4406-0.1976 1.0093-0.74248 1.2449-1.1929 1.7192-1.4635 3.2426-1.8515 0.4123-0.10504 0.8852-0.27454 1.0507-0.37641 0.4474-0.27558 0.9663-1.04 1.7506-2.5787 0.7862-1.5424 1.0289-1.9284 1.5499-2.4653 0.7783-0.80195 2.7439-1.9131 3.9065-2.2083 1.8008-0.45725 3.6439-0.1378 5.9883 1.0387 4.0896 2.0521 6.2995 4.4026 6.8929 7.3314 0.1916 0.94538 0.1248 1.9882-0.1954 3.0593-0.1322 0.44243-0.2587 0.89012-0.2819 0.99505-0.03 0.13565 0.1285 0.41383 0.5471 0.96232 0.6954 0.91137 0.99 1.4641 1.1838 2.2209 0.3082 1.2026-3e-4 2.2695-0.886 3.0659-1.2761 1.1474-3.0853 1.374-6.4318 0.80466-3.5954-0.61169-4.6377-0.62771-6.7274-0.10365-1.9938 0.50002-4.7348 0.73505-10.055 0.86248-1.8434 0.04413-3.6133 0.12172-3.9328 0.17239-0.3196 0.05067-1.1442 0.11632-1.8324 0.1462-1.2741 0.05521-1.2189 0.06081-3.7009-0.38514l-0.3045-0.05456 0.063 2.6731c0.035 1.4702 0.099 3.0549 0.1428 3.522 0.043 0.46701 0.1201 3.5038 0.1708 6.7483 0.081 5.2155 0.2296 9.7283 0.3267 9.8856 0.018 0.02977 0.2665-0.02639 0.5506-0.12493 0.3468-0.12019 0.8414-0.19276 1.505-0.22094 1.2004-0.05099 2.1097 0.14412 3.2242 0.69228 0.922 0.45357 1.5009 1.0259 2.4417 2.414 0.395 0.58273 0.8693 1.1849 1.054 1.3377 0.5273 0.43624 2.9222 1.6131 3.2825 1.6131 0.1689 0 1.051-0.2811 1.9601-0.62463s1.9665-0.7119 2.3501-0.81885c1.5871-0.44242 3.6176-0.10281 5.3457 0.89468 0.6773 0.39096 1.9419 1.6537 2.4746 2.4707 0.2245 0.34412 0.7114 1.1962 1.0823 1.8935 1.102 2.0722 1.643 2.765 2.4314 3.1128 0.2459 0.10844 1.3321 0.4888 2.4135 0.84503 2.2451 0.73951 2.937 1.0679 3.6988 1.7572 1.8419 1.6668 1.5429 4.7452-0.5997 6.176-1.0375 0.69285-2.694 1.2429-4.3506 1.4451-0.4424 0.05405-1.6892 0.09987-2.7707 0.10092-2.4767 0.0032-4.5041 0.12798-5.1394 0.31587-0.2704 0.08002-1.2415 0.50477-2.1583 0.94432-2.542 1.2187-4.0056 1.5009-7.1747 1.384-2.4558-0.09058-9.5304-0.48567-10.716-0.59845-0.5805-0.05479-1.0727-0.0832-1.0938-0.06219-0.041 0.04138-0.1836 6.7824-0.2754 13.03-0.066 4.5506 0.015 6.2721 0.4626 9.7912 0.4996 3.924 0.755 8.2696 0.755 12.9l5e-4 2.1783 0.629-0.59354c1.7393-1.6408 3.8179-3.0062 5.5939-3.6747 0.3274-0.12329 1.5655-0.46531 2.7506-0.75993s2.8384-0.71353 3.6742-0.93123c2.1945-0.57171 3.0312-0.70609 4.4242-0.71137 1.7596-6e-3 2.6361 0.2124 5.8181 1.4506 0.7666 0.29835 1.6921 0.62702 2.0561 0.73048 0.9017 0.25629 2.1709 0.31883 3.5008 0.17292 2.14-0.23479 2.9754-0.15117 6.7689 0.67537 0.762 0.16602 1.8482 0.36811 2.4135 0.44898 0.5653 0.0809 1.5707 0.2889 2.2344 0.46261 1.6173 0.42332 2.1471 0.52475 3.6202 0.69337 0.6882 0.0787 1.6131 0.20741 2.0555 0.28531 0.4425 0.0779 1.0948 0.1413 1.4496 0.1413 0.7528-3.7e-4 0.7868-0.0172 2.6174-1.2907 0.6637-0.46165 2.2117-1.5374 3.4408-2.3905 1.229-0.85311 2.8179-1.9962 3.5307-2.5405 3.7925-2.8965 4.3845-3.2874 6.2566-4.1313 1.1939-0.53817 2.2473-0.89267 3.9328-1.3229 0.6637-0.16941 1.9306-0.50774 2.8155-0.75175 1.9374-0.53425 3.0373-0.73207 4.0599-0.73102 1.3675 1e-3 1.8628 0.37653 3.0009 2.2732 1.2629 2.1048 2.177 3.1174 4.2224 4.6763 2.2824 1.7395 3.2799 2.3168 8.3358 4.8252 2.63 1.3049 5.8677 2.8856 7.195 3.5127s2.4447 1.1436 2.4838 1.1489c0.039 5e-3 0.24-0.0777 0.4469-0.1833 0.207-0.10559 0.7132-0.3055 1.1248-0.4446 0.4436-0.14996 1.2256-0.54063 1.9214-0.9596 1.3448-0.80974 1.8898-1.0913 3.1401-1.6219 1.2446-0.5281 2.6885-1.2634 4.469-2.276 1.6357-0.9303 3.135-1.6813 4.5585-2.2836 0.4915-0.20801 1.6574-0.7605 2.5907-1.2274 2.2776-1.1395 4.6622-2.2151 5.4231-2.4462 0.4994-0.15171 0.7844-0.18128 1.4435-0.15056 0.9877 0.046 1.2638 0.17123 1.8898 0.85813 0.2478 0.27196 0.7929 0.85998 1.211 1.3066 0.4182 0.44657 1.1581 1.3647 1.6442 2.0403 0.8583 1.1926 1.8347 2.3022 2.0257 2.3022 0.052 0 0.3365 0.12092 0.6338 0.2684 0.2972 0.14748 0.5532 0.26786 0.5679 0.26786 0.015 0 0.054-0.39192 0.086-0.87122 0.1199-1.793 0.595-7.1827 0.7627-8.6478 0.096-0.8357 0.2343-2.0422 0.3072-2.6813 0.073-0.63906 0.1957-2.2078 0.2728-3.486 0.077-1.2781 0.2197-3.0882 0.3169-4.0222 0.1721-1.6514 0.2344-2.6841 0.4512-7.4951 0.1013-2.2447 0.072-3.9366-0.1035-6.0347-0.046-0.55914-0.1242-2.3547-0.1707-3.9906-0.095-3.312-0.1609-4.2908-0.5401-8.0423-0.144-1.4256-0.2886-3.0099-0.3224-3.5209l-0.061-0.92904-1.0807 0.07692c-1.745 0.12418-3.1849 0.08783-5.3266-0.13311-1.8821-0.1942-2.2372-0.20325-5.5443-0.1473-2.4264 0.04107-3.6696 0.02908-3.9671-0.03763-0.7422-0.16633-1.3698-0.54209-2.3136-1.3857-0.7022-0.62769-0.9716-0.93547-1.1773-1.3458-0.2517-0.50107-0.2683-0.59491-0.2683-1.605 0-0.98972 0.016-1.1069 0.2345-1.5209 0.6541-1.2389 2.4491-2.1611 5.3883-2.7675 1.2109-0.2498 1.7337-0.51436 2.1248-1.0763 0.2044-0.29368 0.264-0.51071 0.3431-1.2493 0.1958-1.8311 0.708-3.6323 1.3563-4.7691 0.4301-0.75455 1.2574-1.5796 1.8891-1.8843 0.736-0.35492 1.235-0.4152 1.9448-0.23403 1.7617 0.44965 3.4334 2.3461 4.8771 5.5328 0.6164 1.3605 0.8051 1.6204 1.2743 1.755l0.3023 0.08675-0.059-1.9121c-0.033-1.0517-0.098-2.5086-0.1468-3.2377-0.048-0.72915-0.1692-2.7936-0.2684-4.5879-0.2136-3.8569-0.3624-5.91-0.7151-9.8321-0.3637-4.0452-0.4271-4.9745-0.5816-8.536-0.1352-3.1186-0.2105-4.1932-0.4517-6.4798-0.08-0.76196-0.1288-2.2113-0.1288-3.9327 0-2.9799-0.069-3.8409-0.3939-5.1062-0.1987-0.77046-0.2201-1.0558-0.2602-3.5634-0.047-2.9382-0.1389-3.724-0.5324-4.5836-0.6407-1.3994-1.8108-1.7441-5.5961-1.6464-1.3474 0.03473-2.6026 0.12706-3.7642 0.27604-2.6969 0.34588-4.209 0.4345-6.3014 0.37042-2.5004-0.07654-6.0803-0.27982-8.9827-0.51008-1.9024-0.15091-3.5563-0.20083-8.4018-0.2553-3.7968-0.04265-6.2817-0.10639-6.7035-0.17184-0.4815-0.07474-2.5595-0.09429-7.374-0.06874-6.6869 0.03547-6.7071 0.0361-8.2228 0.2684-1.8074 0.27694-3.332 0.3958-5.9883 0.46643-3.1539 0.08382-4.9486 0.21668-8.0445 0.59573-1.3296 0.16283-1.8267 0.17984-3.9775 0.1353-1.4176-0.02935-2.8932-0.11016-3.4859-0.19039-3.0095-0.40724-3.7371-0.43893-10.278-0.44843-4.1991-0.0063-6.6142-0.04466-7.2397-0.11511-1.6958-0.19096-4.6222-0.37977-6.686-0.43097-1.1158-0.02766-2.7125-0.10675-3.5482-0.17621-0.8356-0.06946-2.2057-0.16821-3.0446-0.2193-1.4705-0.08952-2.2825-0.18979-4.1951-0.51716-0.5767-0.09892-1.118-0.13407-2.8608-0.13857zm71.913 13.828h6e-4c0.6899 0.0042 1.4459 0.07331 2.313 0.20186 2.8689 0.42546 4.0334 1.0225 6.1013 3.127 1.5077 1.5344 2.6619 3.1142 3.3905 4.6392 0.4255 0.89076 0.7031 1.8286 1.1063 3.7385 0.1186 0.56145 0.2106 0.77069 0.4626 1.0496 0.3465 0.3836 0.6401 0.49546 2.4402 0.92904 1.4057 0.33859 2.0118 0.63749 2.6186 1.2929 1.7988 1.943 1.3637 4.2751-1.0153 5.4444-1.3787 0.67762-1.8247 0.75199-4.7789 0.79485-2.8406 0.04117-5.8687-0.11261-8.6226-0.43752-2.0445-0.24122-4.5026-0.18792-6.7035 0.14511-2.4728 0.37418-4.1333 0.27609-5.9819-0.3535-0.365-0.12437-0.8041-0.22585-0.9758-0.22585-0.1718 0-0.8784 0.18678-1.5707 0.41515-1.0928 0.36051-1.3825 0.42056-2.1973 0.45497-0.8022 0.03389-1.1315-7.39e-4 -2.2678-0.23677-1.3249-0.27513-2.2282-0.37281-1.3966-0.15111 0.4654 0.12406 0.5267 0.31951 0.1342 0.42824-0.4457 0.12347-1.8835 0.3241-3.3965 0.47407-0.7865 0.07791-1.8526 0.20318-2.3687 0.27876-0.5163 0.07548-1.562 0.15523-2.324 0.17676-1.1904 0.03368-1.4789 0.01382-2.049-0.14075-1.4312-0.38808-2.8104-1.331-3.2683-2.2345-0.465-0.91773-0.4807-2.28-0.042-3.6993 0.3211-1.0397 1.1101-1.7803 2.45-2.2994 1.0227-0.39625 1.6071-0.46455 3.3762-0.39551l1.5843 0.06164 0.233-0.25149c0.1281-0.13827 0.457-0.57126 0.731-0.96232 1.0167-1.451 1.7373-1.9224 3.0397-1.989 1.0517-0.05384 1.1196-0.07284 1.2912-0.36114 0.2066-0.34692 0.6837-0.81774 0.9875-0.97487 0.1402-0.07252 0.5083-0.18037 0.8182-0.23949 0.5281-0.10082 0.5884-0.13823 0.9591-0.59899 0.4397-0.54644 1.0224-0.89413 1.4997-0.89413 0.1706 0 0.7828 0.16068 1.3605 0.35732 0.5778 0.19664 1.1506 0.35787 1.2728 0.35787 0.3428 0 0.8768-0.6001 2.3332-2.624 1.9826-2.7549 2.7585-3.5217 4.3834-4.3299 1.3558-0.67436 2.5537-0.97753 4.0718-0.96778zm-24.094 36.309c2.0999-0.01084 2.4718 0.05282 3.7091 0.63391 0.3688 0.17314 1.254 0.50707 1.9667 0.74192 1.7771 0.58549 4.5382 1.7959 5.3954 2.3649 0.7343 0.48738 1.8854 1.5178 2.4974 2.2356 1.1977 1.4048 2.2907 3.8468 2.6213 5.8563 0.1707 1.0376 0.121 3.107-0.1056 4.3779-0.6367 3.5751-2.9047 6.5592-6.1557 8.099-1.5823 0.74948-3.421 1.2525-5.3446 1.462-2.9418 0.32045-6.0518-0.16957-8.3385-1.3142-3.4345-1.7192-6.1973-5.1023-7.3576-9.0089-0.9537-3.2113-0.7209-6.461 0.6464-9.0313 1.462-2.7482 4.7709-5.4019 7.6948-6.1716 0.8208-0.21605 1.0471-0.23704 2.7707-0.24549z" fill="#5793c5" stroke-width=".1155"/> <path d="m4769.8 145.24c-2.1797-0.92308-3.2467-1.4332-8.7146-4.1664-2.7774-1.3884-5.9348-2.9145-7.0164-3.3914-1.0814-0.47691-2.8913-1.2755-4.0221-1.7747-1.1306-0.49919-3.6827-1.7153-5.6713-2.7024l-3.6154-1.7948 0.5766-0.27017c0.3171-0.1486 1.0103-0.53846 1.5404-0.86635 1.2726-0.78717 2.0185-1.1562 3.3699-1.6675 1.3967-0.52838 2.178-0.9202 4.3171-2.1651 0.9309-0.54173 2.2813-1.2654 3.001-1.6082 0.7195-0.34279 2.2937-1.1 3.4981-1.6828 2.537-1.2275 5.1896-2.2547 5.8178-2.2531 0.6243 2e-3 0.7603 0.0775 1.2125 0.67593 0.2297 0.30407 0.7831 0.93495 1.2297 1.402 0.4467 0.46701 1.2524 1.4652 1.7904 2.2183 1.2648 1.77 1.8799 2.3558 2.7512 2.6205 0.4914 0.14927 0.746 0.29074 1.0724 0.59614 0.8286 0.77501 0.8171 0.72876 0.7567 3.0424-0.029 1.1136-0.1151 2.608-0.1912 3.3208-0.2507 2.3479-0.342 4.9964-0.2795 8.1112 0.033 1.6345 0.048 2.9695 0.034 2.9666-0.015-3e-3 -0.67-0.27782-1.4565-0.61092z" fill="#1a3376" stroke-width=".1155"/> <path d="m4637.3 157.69c6e-4 -0.855 0.3611-7.5244 0.4972-9.1987 0.1324-1.6268 0.4991-4.6976 0.9715-8.1336 0.4224-3.0717 0.7655-6.5525 0.7655-7.7653v-0.53446l1.4077-1.42c3.8989-3.9328 4.9436-4.5962 9.386-5.9597 3.8193-1.1722 4.3955-1.294 6.1438-1.2988 1.9652-5e-3 2.3112 0.1004 5.2914 1.6175 1.4908 0.75886 2.6278 1.2773 3.1284 1.4263 1.0764 0.32033 2.5999 0.38388 4.1381 0.17259 1.429-0.19629 3.2236-0.13406 6.5695 0.22778 2.7236 0.29456 2.5151 0.26118 4.2122 0.67445 1.3715 0.33399 3.0351 0.56172 4.2342 0.57964 0.4178 6e-3 0.8804 0.0384 1.0279 0.0715 0.2444 0.0548 0.185 0.0928-0.6703 0.42838-1.5948 0.62573-3.5745 1.1592-5.7204 1.5415-2.1509 0.38317-2.8347 0.44487-7.9996 0.72165-3.9765 0.21312-6.437 0.71817-8.6698 1.7796-1.6631 0.79058-3.0917 1.9227-5.9885 4.7457-0.7866 0.76651-2.1353 2.0185-2.9971 2.7821-2.2805 2.0206-2.9105 2.7227-6.5318 7.2794-1.0858 1.3664-6.5431 7.718-9.1631 10.665-0.018 0.0205-0.033-0.16051-0.033-0.40221z" fill="#1a3376" stroke-width=".1155"/> <path d="m4675 176.42c-2.3524-0.51418-3.2277-0.5828-7.1119-0.55749-4.0841 0.0266-4.1411 0.0222-10.502-0.82541-5.9721-0.7957-6.0818-0.80492-9.6084-0.80573-3.4-8.9e-4 -3.342-7e-3 -7.5079 0.79696-0.8603 0.16601-1.7556 0.32105-1.9897 0.34454-0.3799 0.0381-0.4297 0.0223-0.4635-0.14753-0.1063-0.53483-0.396-6.5197-0.5564-11.499l-0.056-1.7447 1.5552-1.3964c1.568-1.4078 4.7645-4.5966 6.3467-6.3315 2.1436-2.3503 3.3564-3.877 5.8459-7.3589 1.5781-2.2072 2.5014-3.3746 4.147-5.2437 1.4178-1.6102 1.939-2.2502 3.2759-4.0221 1.7003-2.2536 2.5991-3.0634 4.2677-3.8454 2.2657-1.0617 4.5989-1.4864 9.5574-1.7396 4.0629-0.20742 5.7402-0.37449 8.157-0.81249 3.7886-0.68659 6.2904-1.6972 9.4297-3.8091 4.7654-3.2059 7.5595-5.1087 8.4016-5.7214 2.9252-2.1282 4.0044-2.53 7.1505-2.6624 1.0691-0.045 2.2191-0.14319 2.592-0.22135 1.2718-0.26654 3.0119-0.91777 5.0027-1.8724 0.3674-0.17612 0.7552-0.32021 0.8617-0.32021 0.1394 0 0.5711 0.43296 1.538 1.5426 1.4477 1.6615 2.0187 2.205 3.4455 3.2791 2.0492 1.5427 3.8988 2.6574 6.5862 3.9693 5.1592 2.5185 11.306 5.5358 11.34 5.5665 0.021 0.019-0.039 0.0911-0.1339 0.16032-0.095 0.0692-0.1484 0.14957-0.1193 0.17856 0.028 0.029 0.3774 0.0934 0.7742 0.14321 0.8454 0.10599 1.3199 0.34226 6.6212 3.2963 1.7707 0.98673 5.2636 2.8179 7.762 4.0692 2.4985 1.2513 6.2318 3.2062 8.2965 4.3443 5.5143 3.0395 6.788 3.6592 9.9212 4.8273 0.8357 0.31157 1.5524 0.609 1.5926 0.66096 0.062 0.0801 0.014 2.7187-0.051 2.7834-0.043 0.0429-3.7903-0.58186-5.6532-0.94239-1.0323-0.19979-2.9629-0.5237-4.2902-0.71979-1.3273-0.1961-3.0367-0.49819-3.7987-0.6713-2.8724-0.65262-4.5227-0.84461-7.273-0.84611-2.4997-1e-3 -3.8774 0.23867-6.7597 1.1778-4.0233 1.3109-6.2528 2.2247-10.631 4.357-3.3699 1.6413-4.3406 2.062-8.2283 3.5659-3.14 1.2147-4.3317 1.7501-8.4017 3.7752-4.222 2.1007-6.1883 3.1297-8.5535 4.476-2.9869 1.7004-3.4009 1.8242-6.546 1.9582-3.183 0.13562-4.3939 0.34724-6.8876 1.2037-2.009 0.69006-3.5951 1.4068-7.9025 3.5714-4.1692 2.0951-5.8254 2.8651-8.2021 3.8134-1.5282 0.60974-1.593 0.61485-3.2405 0.25475z" fill="#2b5190" stroke-width=".1155"/> <path d="m4749.5 177.49c-1.883-0.1066-10.993-0.44615-13.586-0.50637-1.6476-0.0382-2.6785-7e-3 -4.7818 0.14349-1.4748 0.10574-3.2244 0.23107-3.8881 0.2785-1.5819 0.11305-4.3509 0.11043-5.5863-5e-3 -0.5407-0.0507-2.25-0.27143-3.7986-0.4906-3.6973-0.52329-4.6909-0.62794-8.0323-0.84591-6.1199-0.39924-7.0074-0.3964-10.648 0.034-1.0569 0.12493-3.007 0.28934-4.3334 0.36536-1.3265 0.076-3.2571 0.23588-4.2903 0.35522-2.8632 0.33076-3.6481 0.35366-6.571 0.1917-1.4502-0.0803-2.8515-0.15549-3.114-0.16695l-0.4773-0.0208 0.6113-0.26096c1.2948-0.55264 4.4605-2.1446 6.5999-3.3191 4.6706-2.5639 7.6031-3.7811 10.011-4.155 1.0469-0.16263 2.9169-0.12889 4.6478 0.0838 3.6897 0.45351 4.7241 0.216 11.441-2.6271 2.2693-0.96053 4.3413-1.9042 7.537-3.4328 1.2452-0.5956 3.4976-1.6301 5.0053-2.2989 3.2883-1.4586 5.3796-2.4742 7.6572-3.7184 3.4429-1.8809 4.3833-2.3418 6.9269-3.3942 5.6824-2.3512 7.1211-2.6335 11.048-2.1676 1.4534 0.17244 2.4813 0.39075 4.8171 1.023 1.0815 0.29273 3.0436 0.73516 4.3603 0.98316 1.3166 0.248 3.6896 0.74916 5.2735 1.1137 1.5837 0.36451 3.3231 0.73268 3.8655 0.81817l0.9861 0.15542-0.019 5.2803c-0.011 2.9042-0.062 5.8635-0.116 6.5763-0.053 0.71281-0.1224 2.7895-0.1535 4.6148l-0.057 3.3188-1.9307 0.0444c-2.4064 0.0554-4.6943 0.37569-9.3939 1.3149-1.2044 0.24068-2.6926 0.50301-3.3071 0.58296-1.3443 0.17488-4.7581 0.24209-6.7035 0.13196z" fill="#4474b2" stroke-width=".1155"/> <path d="m4680.5 186.19c-1.1704-0.0532-2.6771-0.22304-5.1264-0.57788-2.5627-0.37125-7.9338-0.98588-10.068-1.1521-1.5346-0.11954-6.5446-0.12303-9.5689-6e-3 -2.3307 0.0896-3.9084 0.0359-6.2307-0.2126-3.104-0.33207-5.7726-0.52402-7.3945-0.5319-1.8658-0.01-2.3807 0.0604-3.3804 0.45575-0.3107 0.12288-0.5835 0.20478-0.6063 0.182-0.059-0.0593-0.1973-3.2-0.2305-5.2493l-0.028-1.743 0.2681 8e-3c0.7322 0.0229 2.4402-0.18077 4.5471-0.54221 2.9556-0.50705 3.9784-0.60114 6.5807-0.60541 2.8888-4e-3 3.9099 0.13932 9.3295 1.3162 5.0934 1.106 6.0162 1.2323 9.1722 1.255 1.3519 0.01 3.0613 0.049 3.7987 0.0872 1.1037 0.0572 1.554 0.0398 2.5473-0.0985 0.749-0.1043 1.5795-0.1586 2.1898-0.14321 0.5408 0.0136 1.687-0.0257 2.5473-0.0873 0.9076-0.065 3.384-0.11466 5.8991-0.11825 3.9366-5e-3 4.4623-0.024 5.7204-0.19952 1.8655-0.26035 2.9314-0.35983 5.05-0.47131 0.9831-0.0517 2.4091-0.15456 3.1689-0.2285 3.6277-0.35303 4.9573-0.33747 8.6739 0.10156 5.135 0.60651 6.1045 0.77899 10.502 1.8683 4.1512 1.0283 4.3839 1.0696 6.0331 1.0716 1.6248 2e-3 2.2116-0.0934 3.8434-0.6246 1.2269-0.39943 3.3432-0.94552 4.9615-1.2803 1.745-0.36097 2.4486-0.39634 6.8284-0.34338 4.8052 0.0582 7.3885 0.22334 11.494 0.73509 1.5969 0.19907 4.1765 0.26371 5.5862 0.13998 0.6637-0.0583 2.011-0.22607 2.9943-0.37294 3.1818-0.47528 8.8172-1.1589 10.021-1.2156l1.1728-0.0552 0.063 1.0635c0.1087 1.8068 0.4097 3.8233 0.8078 5.4094l0.056 0.22236-1.8154 0.11265c-3.164 0.19633-5.4851 0.26663-10.645 0.32239-5.8237 0.0629-6.67 0.11242-9.9845 0.58382-3.5337 0.50258-5.2705 0.65173-7.5973 0.65235-2.3528 9e-4 -3.5554-0.1156-7.6867-0.74292-1.5976-0.2426-3.9506-0.56338-5.2287-0.71283-1.2782-0.14945-3.3153-0.43303-4.5268-0.63017-1.2116-0.19714-2.7803-0.41697-3.4859-0.48853-3.4322-0.34801-12.569-0.40591-15.264-0.0967-1.7778 0.20393-7.1823 0.99007-8.3704 1.2176-0.537 0.10282-1.9215 0.42548-3.0767 0.71701-2.6732 0.67462-3.3981 0.77997-6.0779 0.88308-2.5713 0.0989-6.5713 0.1664-7.4632 0.12585z" fill="#1a3376" stroke-width=".1155"/> <path d="m4730 200.05c-1.888-0.18447-2.4926-0.25961-3.5886-0.44593-1.6798-0.28559-3.4302-0.69325-6.2432-1.4541-5.4639-1.4778-7.8279-1.9092-10.458-1.9083-2.0622 9e-4 -3.1988 0.22119-6.3252 1.227-3.8593 1.2416-4.9476 1.3393-13.026 1.1704-2.9579-0.0619-3.9266-0.0528-4.7819 0.0447-1.2366 0.14095-4.2921 0.13009-5.5863-0.0198-1.2934-0.14986-2.3506-0.46207-4.0762-1.2039-2.9451-1.2661-4.4135-1.6348-7.4539-1.8716-1.0077-0.0785-2.7774-0.25121-3.9326-0.38381-1.7596-0.20196-2.4631-0.24024-4.335-0.23592-2.2915 5e-3 -3.0154 0.0646-6.6142 0.54209-2.1186 0.28108-5.3299 0.37124-7.8383 0.22007-2.9378-0.17705-6.4595-0.46153-6.5242-0.52702-0.092-0.0932-0.4441-3.6461-0.7226-7.2971-0.019-0.2465 0.014-0.27452 0.5163-0.44597 0.4925-0.16807 0.6962-0.1798 2.5025-0.14446 3.9785 0.0779 5.8501 0.0474 7.0611-0.11504 1.7768-0.2383 4.1095-0.64106 5.9885-1.034 3.5216-0.7364 4.6975-0.85493 8.4464-0.85148 4.4281 4e-3 7.7876 0.3492 13.393 1.3759 2.064 0.37804 3.676 0.59405 6.3785 0.85477 2.7264 0.26303 4.0792 0.41753 5.8803 0.67158 1.8742 0.26439 4.0526 0.31385 6.2119 0.14107 0.9832-0.0786 2.7127-0.20353 3.8434-0.27749 2.4115-0.15773 2.9114-0.21068 6.3459-0.67235 1.4257-0.19162 3.971-0.49154 5.6564-0.66648 1.6855-0.17494 3.9177-0.43548 4.9606-0.57899 3.3591-0.46221 3.6547-0.48809 5.5609-0.48672 1.4458 1e-3 2.3594 0.0563 3.9774 0.2407 1.1552 0.13164 2.7641 0.30087 3.5752 0.37605 1.9618 0.18186 2.6646 0.26871 4.7818 0.5909 3.181 0.48407 4.4364 0.62028 6.2239 0.67529 2.612 0.0804 4.9874-0.1643 8.8814-0.91483 3.9974-0.77047 3.0078-0.71 11.619-0.71 5.4794 0 8.2717-0.0354 9.7236-0.12302 1.1204-0.0677 2.0568-0.10324 2.0809-0.0792 0.024 0.0241 0.1602 0.64256 0.3025 1.3743 0.4105 2.1111 0.8035 5.5343 0.807 7.0285v0.60332l-0.4246 6e-5c-0.5439 0-10.852 0.33247-12.446 0.40132-9.9638 0.43032-12.989 0.90935-19.753 3.1283-3.2896 1.0791-4.4313 1.3938-5.8545 1.6137-0.8498 0.13131-3.9756 0.24169-4.7371 0.16729z" fill="#2d5090" stroke-width=".1155"/> <path d="m4736.6 209.3c-1.6567-0.0926-3.2351-0.22914-5.6757-0.49084-3.3137-0.35532-5.8529-0.44016-9.7653-0.32627-3.3507 0.0976-4.6371 0.0742-8.3789-0.15185-0.8602-0.0519-1.8457-0.10806-2.1897-0.12462-0.5576-0.0268-0.859-0.12803-2.7709-0.93064-3.1792-1.3347-4.2546-1.8257-7.5525-3.4483-3.1153-1.5327-5.0125-2.3892-7.0611-3.188-0.6636-0.25876-1.2267-0.49131-1.2513-0.5168-0.024-0.0255 0.277-0.0209 0.6703 0.0105 2.3915 0.18884 4.347 0.24057 5.7498 0.15208 2.2144-0.13966 3.0393-0.30751 6.109-1.2431 2.3953-0.73002 3.0833-0.84964 4.8553-0.84413 2.3122 7e-3 4.0535 0.32304 9.7424 1.7671 6.716 1.7047 9.1834 2.0849 12.91 1.989 2.6882-0.0691 4.4381-0.41395 7.3928-1.4568 3.9756-1.4032 4.8152-1.6834 5.8851-1.9643 4.2714-1.1213 7.4113-1.3657 20.066-1.562 3.3674-0.0523 6.5826-0.10335 7.145-0.11355l1.0224-0.0186 0.086 0.35752c0.047 0.19664 0.09 1.2022 0.094 2.2345 0.011 1.9517-0.048 2.435-0.4945 4.1993-0.3571 1.4112-0.9224 2.2056-1.8039 2.5352-0.2545 0.0951-1.0057 0.28179-1.6693 0.41481-0.6637 0.13301-2.3941 0.53526-3.8455 0.89387-4.4077 1.0891-6.2343 1.3317-10.768 1.4302-1.3273 0.0288-3.6803 0.11057-5.2288 0.18164-5.7322 0.26312-7.2679 0.31065-9.6173 0.29771-1.3224-7e-3 -2.9674-0.0448-3.6556-0.0832z" fill="#4373b1" stroke-width=".1155"/> <path d="m4699.8 44.733c-0.6288-0.14057-1.2223-0.43028-1.663-0.81177-0.3474-0.30079-0.3481-0.30243-0.3429-0.96542 0.011-1.0025 0.2602-1.4541 1.0292-1.8404 0.7244-0.36401 1.6981-0.54647 2.9431-0.55149 2.4015-0.0095 3.0939-0.384 4.0251-2.176 0.6122-1.178 0.9299-1.6392 1.2392-1.7992 0.1379-0.07126 0.636-0.16903 1.1071-0.21723 0.471-0.04824 0.9496-0.13497 1.0635-0.19284 0.1139-0.05785 0.4499-0.36239 0.7466-0.6767 0.5394-0.57124 0.5398-0.57148 1.0444-0.57148 0.8512 0 1.1887-0.20593 1.7386-1.0607 0.3005-0.4672 0.3174-0.47837 0.6437-0.42618 0.1844 0.02945 0.7035 0.17499 1.1538 0.32336 0.9329 0.30744 1.1442 0.32472 1.6087 0.13157 0.4791-0.19923 1.0578-0.79815 2.2402-2.3182 1.7764-2.2839 2.7631-3.2098 4.17-3.9135 1.7905-0.89558 3.5895-1.0359 6.547-0.51067 1.1537 0.20488 1.9957 0.49716 2.5693 0.89181 0.9988 0.68721 2.2947 2.0215 3.4599 3.5625 1.2563 1.6616 1.6377 2.4887 2.0666 4.482 0.3813 1.7729 0.7113 2.4131 1.5515 3.0105 0.5275 0.37507 1.2418 0.60123 2.6202 0.82969 0.6362 0.10546 1.2902 0.27108 1.519 0.38466 0.8305 0.41237 1.2291 1.6191 0.7155 2.166-0.3179 0.33849-1.3511 0.81136-2.2367 1.0237-0.6608 0.15841-1.055 0.18167-3.088 0.18222-2.5649 7.18e-4 -4.8215-0.10177-7.1438-0.3243-2.2895-0.21939-5.2244-0.13204-7.642 0.22743-2.5023 0.37205-3.3446 0.35768-5.2288-0.0892-1-0.23718-1.7379-0.2195-2.6937 0.0645-2.1981 0.65316-2.6561 0.68803-4.3824 0.33358-1.7334-0.35589-2.4919-0.33198-5.6159 0.17704-1.4256 0.23229-2.8936 0.48511-3.2623 0.56185-0.9068 0.18869-1.9081 0.22588-2.5027 0.093z" fill="#5d9cd2" stroke-width=".1155"/> <path d="m4704.9 84.471c-2.0824-0.06851-4.099-0.52279-5.525-1.2447-1.3857-0.70158-3.1758-2.2794-4.1741-3.6792-0.9536-1.337-1.7248-3.0578-2.1106-4.7086-0.2576-1.1022-0.2367-3.4015 0.04-4.4201 0.4635-1.7049 0.9925-2.5888 2.3846-3.984 1.1612-1.1639 1.9881-1.779 3.2277-2.401 1.5954-0.80061 2.7339-1.0603 4.5036-1.0275 0.6637 0.01235 1.3155-0.0084 1.4485-0.04729 0.1764-0.05078 0.5031 0.0152 1.2066 0.24401 0.5307 0.17253 1.2665 0.40125 1.6351 0.50825 0.7089 0.20573 1.2354 0.46783 3.0335 1.5101 1.4855 0.86101 1.7672 1.0784 2.8679 2.2128 1.1081 1.1421 1.393 1.5558 2.2424 3.2565 0.9464 1.8947 1.0726 2.3105 1.1281 3.7162 0.092 2.3193-0.3593 4.0671-1.5069 5.8397-0.5521 0.85288-1.9556 2.1997-2.776 2.6637-1.8935 1.0712-4.7493 1.6559-7.6256 1.5613z" fill="#dad6ca" stroke-width=".1155"/> <path d="m4697.5 208.92c-0.2704-0.0151-1.2759-0.0873-2.2344-0.16037-1.7679-0.13481-2.0093-0.14844-5.8991-0.33266-1.2424-0.0588-5.5155-0.10769-9.8766-0.1129-7.671-0.01-9.3909-0.06-13.79-0.40719-0.6037-0.0476-3.8012-0.12764-7.1057-0.17773-3.3045-0.05-6.436-0.13158-6.9589-0.18108-0.523-0.0495-1.7018-0.22957-2.6197-0.40017-2.219-0.41241-2.8538-0.48151-5.2782-0.5747-2.2837-0.0877-2.6369-0.16175-3.2409-0.67871-0.5367-0.4594-0.733-0.96782-0.8771-2.2711-0.069-0.61765-0.2309-2.0594-0.3614-3.2039-0.1304-1.1445-0.2208-2.0972-0.2009-2.1172 0.02-0.02 0.5784 0.0196 1.2411 0.0879 3.2797 0.33805 4.9663 0.43524 7.6402 0.44031 3.1016 6e-3 3.0974 6e-3 7.0854-0.7616 1.2647-0.24352 3.0033-0.55093 3.8636-0.68311 2.4178-0.3715 4.426-0.32244 10.234 0.25003 2.0566 0.20272 3.3463 0.58698 5.6756 1.691 2.8283 1.3406 4.0444 1.6473 7.9877 2.0146 2.4353 0.22687 4.2515 0.60097 6.2256 1.2823 1.8174 0.62725 5.9599 2.4052 9.2936 3.9888 2.1276 1.0106 3.0957 1.4433 4.335 1.9378 0.4915 0.19612 0.9105 0.37313 0.931 0.39335 0.041 0.0406-5.2895 0.0198-6.0704-0.0238z" fill="#5f9ed3"/> </g> </g> </svg>