<?xml version='1.0' encoding='utf-8'?>
<svg xmlns="http://www.w3.org/2000/svg" width="1343.7mm" height="1902.5mm" version="1.1" viewBox="0 0 1343.7 1902.5"> <g transform="translate(-2591.1 237.91)"> <g transform="matrix(.93823 0 0 .93823 -230.06 -272.96)"> <path d="m3006.9 37.359h1432.1v2027.8h-1432.1z" stop-color="#000000" stroke-linecap="square" stroke-width="5.3292"/> <path d="m3046.1 599.91c-12.236-6.2547-22.141-27.042-23.765-49.872-1.1851-16.66 2.9994-36.648 15.537-74.212 15.259-45.719 28.648-69.787 47.023-84.532 3.48-2.7923 10.455-10.991 15.501-18.218 11.119-15.928 27.161-32.9 37-39.145 26.495-16.817 62.52-11.175 85.499 13.39 11.385 12.171 19.636 28.333 31.915 62.515 17.51 48.747 31.983 70.278 48.603 72.307 6.7792 0.82759 14.446-3.0563 18.626-9.4362 1.3754-2.0993 3.9619-11.524 5.7476-20.945 5.3854-28.41 12.048-42.839 27.156-58.814 44.155-46.687 124.96-40.9 170.68 12.225 18.945 22.012 33.664 50.259 40.353 77.443 4.5483 18.484 6.6897 22.621 14.024 27.093 7.9584 4.8526 16.167 3.9165 36.965-4.2158 17.375-6.7936 19.5-7.2625 29.839-6.5841 14.366 0.94249 25.531 6.5248 37.484 18.741 12.384 12.656 16.309 26.607 11.031 39.202-3.6575 8.7274-11.423 11.495-37.254 13.278-12.269 0.84693-29.793 3.014-38.942 4.8157-9.1487 1.8018-21.624 4.2128-27.723 5.3579-16.673 3.1302-52.526 2.7346-76.334-0.84238-11.166-1.6776-30.282-3.8146-42.48-4.7489-22.966-1.7591-42.411-6.0398-61.106-13.453-13.216-5.2399-47.741-14.644-64.648-17.609-17.906-3.14-32.19-2.9293-46.273 0.68234-15.57 3.9932-50.347 17.691-80.6 31.746-38.846 18.047-36.863 17.616-78.854 17.139l-36.051-0.40954-11.882 4.5356c-16.634 6.3499-37.446 7.4835-47.071 2.5637z" fill="#fefcf7" stroke-width="1.0658"/> <path d="m4056.5 798.54c-3.8869-4.9414-4.2271-12.679-0.907-20.625 1.3069-3.128 2.3919-8.2735 2.411-11.434 0.075-12.399 10.054-25.665 23.908-31.784 4.0197-1.7754 15.069-5.1079 24.555-7.4056 15.112-3.6608 19.428-4.0727 34.879-3.3296 13.705 0.65916 19.799 1.7233 27.362 4.7782 9.683 3.9111 9.7384 3.9146 11.449 0.71885 1.1027-2.0604 1.3358-7.8188 0.6503-16.068-2.3896-28.76 7.674-53.07 33.042-79.819 19.971-21.058 39.37-31.313 57.098-30.185 8.801 0.56043 11.071 1.3542 15.264 5.3376 2.7087 2.5736 6.2264 7.2085 7.8173 10.3 4.3409 8.4366 10.734 31.78 12.704 46.389 0.9604 7.1183 3.1728 17.683 4.9169 23.477l3.1716 10.535 12.171-12.229c16.959-17.039 33.271-23.788 51.776-21.423 22.102 2.8256 34.841 16.347 42.085 44.671 5.2092 20.366 3.2495 32.143-6.285 37.776-2.7016 1.5957-5.2792 4.0587-5.7282 5.4733-0.4491 1.4146-2.4082 3.3226-4.3547 4.24-5.8852 2.7744-27.492 5.1856-53.44 5.9637-26.989 0.80927-40.14 3.067-55.485 9.526-12.592 5.2997-25.489 5.8905-38.936 1.7837-9.0842-2.7742-10.331-2.8014-20.663-0.45145-6.0473 1.3755-24.865 4.2658-41.818 6.4229-16.953 2.157-37.239 5.3263-45.081 7.0427-7.8418 1.7165-25.532 4.6581-39.31 6.537-13.779 1.8789-27.948 4.4377-31.487 5.6863-10.351 3.652-17.913 2.9904-21.763-1.904z" fill="#fefcf7" stroke-width="1.0658"/> <path d="m4025.7 84.049c-22.665 0.41805-45.487 4.0116-80.153 10.526-18.702 3.5145-40.09 7.0873-47.526 7.9395-23.152 2.6532-72.09 1.8592-109.22-1.7698-29.286-2.8626-38.99-3.1616-67.473-2.0916-54.417 2.0442-66.955 1.611-95.051-3.2798-20.21-3.518-30.484-4.4383-50.694-4.5329-29.833-0.14011-41.141 1.7646-79.887 13.456-99.947 30.159-108.83 30.882-182.31 14.781-41.757-9.1493-53.167-10.196-92.932-8.5119-19.017 0.80554-37.785 2.1428-41.706 2.9704-3.9208 0.82753-14.017 1.539-22.435 1.5749-18 0.0811-35.927 3.197-46.214 8.0323-11.219 5.2738-16.095 11.988-21.532 29.645-6.8296 22.18-9.6227 51.413-9.6227 100.74 0 38.108 0.2527 41.684 4.0935 58.064 2.2513 9.6007 4.4608 17.457 4.9135 17.457 0.4526 0 4.4946-3.321 8.9791-7.3795 26.427-23.917 56.928-34.463 88.297-30.53 38.761 4.8602 65.624 25.203 84.581 64.048 3.8268 7.8417 11.075 27.268 16.108 43.169 5.0328 15.901 9.5369 28.911 10.006 28.911 0.4694 0 2.5976-3.2903 4.7308-7.3114 17.683-33.333 54.536-61.606 94.108-72.201 18.747-5.0194 51.831-4.9834 70.691 0.0774 30.539 8.1944 49.173 18.774 69.797 39.623 14.846 15.008 30.002 36.63 46.331 66.106l10.619 19.168 8.3263-2.8775c4.8906-1.6895 12.951-2.8971 19.527-2.927 28.486-0.13161 55.735 16.307 76.839 46.359 10.378 14.778 13.296 23.902 13.326 41.622 0.018 12.605-0.4443 15.052-3.7934 19.945-8.2759 12.091-22.468 17.572-52.591 20.316-10.798 0.98344-29.969 3.3105-42.603 5.1703-16.686 2.4563-30.989 3.4057-52.278 3.4716-26.702 0.0829-31.138-0.31536-49.902-4.4865-23.151-5.1465-37.028-5.7278-82.378-3.4468l-26.931 1.3552-28.516-7.2341c-36.392-9.2311-76.365-14.379-94.853-12.216-20.877 2.4425-35.136 7.1683-66.632 22.083-28.66 13.571-35.015 15.338-71.985 20.013-30.815 3.8968-33.17 4.433-41.387 9.4433-4.7922 2.9218-10.674 5.7836-13.07 6.3584l-4.3565 1.0458v25.084c0 15.833 1.3077 36.368 3.549 55.672 3.2855 28.299 3.5157 36.226 3.0786 106.06-0.5508 88.005 1.2834 117.08 10.127 160.57 13.297 65.387 11.037 107.48-9.6723 180.11-13.333 46.757-14.588 76.481-5.1022 120.89 3.0527 14.292 3.4175 21.421 3.7222 72.873 0.2425 40.87 1.0289 62.052 2.7724 74.751 1.9052 13.877 2.0917 21.046 0.8632 33.054-2.4352 23.803-2.4147 68.224 0.065 142.37 1.5968 47.744 2.7332 66.85 3.8182 64.16 10.296-25.528 25.368-51.547 44.097-76.118 28.154-36.936 38.589-66.484 51.953-147.12 8.712-52.568 10.577-59.481 32.355-119.98 10.111-28.088 22.723-65.515 28.03-83.17 12.546-41.742 17.94-52.664 37.742-76.45 9.4145-11.308 18.678-24.46 22.872-32.476 11.468-21.917 14.253-31.999 42.903-155.26 8.8919-38.255 24.321-94.119 32.572-117.92 13.407-38.682 28.024-66.549 43.522-82.972 32.297-34.224 76.207-54.698 105.79-49.333 27.694 5.0219 45.158 24.211 59.754 65.67 7.2194 20.506 10.038 33.642 19.013 88.597 8.954 54.826 12.412 70.948 19.914 92.793 7.7514 22.572 19.192 72.222 26.282 114.06 13.128 77.48 21.772 98.376 48.946 118.31 26.282 19.28 36.021 38.818 51.576 103.48 9.4065 39.102 14.733 54.891 28.054 83.17 6.1565 13.07 13.522 30.179 16.371 38.02 2.8491 7.8418 5.2181 13.352 5.26 12.244 0.1665-4.24 13.913-16.759 25.214-22.962 20.804-11.418 41.834-30.105 54.348-48.293 6.277-9.1233 10.002-20.303 16.492-49.506 3.0013-13.505 6.6145-28.119 8.0323-32.476 4.5922-14.111 14.156-31.273 28.249-50.694 32.73-45.104 36.654-53.165 50.66-104.17 14.492-52.769 21.32-62.958 57.065-85.144 16.611-10.31 23.904-15.947 31.124-24.051 13.285-14.911 19.919-17.842 37.748-16.687 31.431 2.0363 61.472 18.413 77.325 42.154 11.152 16.7 26.813 56.131 33.729 84.921 1.6747 6.9704 5.2403 27.261 7.9245 45.091 5.6354 37.437 11.259 56.858 20.696 71.483 3.6057 5.588 14.562 19.785 24.348 31.548 26.985 32.438 47.349 61.566 58.377 83.498 2.9763 5.9194 10.114 22.374 15.861 36.566 5.7462 14.193 13.587 30.589 17.423 36.436 8.4843 12.935 24.783 29.403 24.783 25.041 0-1.5992-5.3582-23.924-11.906-49.614l-11.906-46.709-1.5316-52.51c-2.5345-86.829-2.1184-126.5 1.5471-147.24 3.3878-19.171 7.1581-53.706 8.7687-80.323 0.5509-9.1488 3.0458-29.11 5.5414-44.357 10.968-67.018 9.9776-107.85-4.1738-171.75-5.2151-23.55-5.5103-26.346-4.4709-42.383 1.2957-19.993-0.3712-28.154-7.5281-36.836-2.6111-3.1675-7.7089-7.3159-11.328-9.2174-6.4856-3.4076-7.6299-3.4604-80.242-3.4964-76.281-0.0407-74.83-0.13957-105.35 7.0855-6.9705 1.6502-25.024 5.5696-40.118 8.7068-15.095 3.1371-34.252 7.798-42.572 10.359-16.036 4.9362-27.762 5.8724-34.586 2.763-9.5488-4.3507-12.163-19.582-7.3578-42.85 5.8682-28.417 16.238-44.812 32.847-51.932 9.0347-3.8728 36.638-8.1023 57.727-8.8461l16.634-0.58791 0.9405-13.085c1.5938-22.159 8.5338-40.422 23.33-61.403 22.412-31.78 55.025-55.786 82.094-60.428 9.5692-1.6409 12.743-1.5438 21.757 0.68071 26.656 6.5781 42.245 28.543 49.361 69.553 1.404 8.093 2.859 15.023 3.2362 15.399 0.3772 0.3762 2.2854-0.80204 4.2421-2.6176 5.3127-4.9288 17.706-11.069 24.75-12.259 5.4474-0.9204 6.327-1.6756 7.0856-6.0861 0.479-2.7696 1.6975-28.916 2.7135-58.104 1.5999-45.989 1.5041-57.564-0.7119-86.753-3.5865-47.241-3.3997-80.592 0.5509-98.328 5.3528-24.03 7.9184-49.571 8.9728-89.352 1.0484-39.565-0.3592-62.535-5.1205-83.594-1.2801-5.6635-2.9901-21.703-3.7996-35.644-2.1843-37.608-7.3772-53.665-22.126-68.414-14.504-14.504-32.832-21.389-64.995-24.413-20.356-1.9135-35.129-1.1057-66.536 3.6418-31.323 4.7348-59.78 4.4288-87.131-0.94061-53.459-10.495-82.34-15.207-111.48-14.669zm48.671 54.481c4.5429-0.0234 9.2647 0.18573 14.149 0.6312 38.01 3.4664 71.059 16.936 93.999 38.308 13.345 12.434 22.162 25.087 33.872 48.602 4.5553 9.1487 8.4861 16.859 8.7316 17.132 0.2455 0.27398 7.4897-2.7292 16.096-6.674 21.269-9.7496 33.313-12.677 47.253-11.488 23.955 2.0431 42.843 12.583 57.538 32.105 13.71 18.215 17.794 34.067 11.451 44.469-3.7775 6.1955-5.6067 7.1858-21.087 11.405-15.515 4.2288-26.182 4.2151-52.365-0.0619-18.938-3.0938-27.234-3.4255-89.005-3.5644-66.6-0.14939-68.315-0.074-76.833 3.3231-13.343 5.3211-45.518 14.618-57.031 16.479-7.4468 1.204-17.752 1.1244-37.228-0.28776-25.655-1.8602-27.723-1.7913-43.633 1.4821-9.186 1.8899-27.008 4.4861-39.605 5.7674-12.596 1.2813-34.309 2.3253-48.25 2.3237-28.259-4e-3 -32.901-1.1741-44.314-11.195-19.604-17.213-13.576-47.352 9.4712-47.352 2.2389 0 10.434-2.4574 18.212-5.4611 7.8291-3.0236 19.998-6.2505 27.265-7.2279 7.2194-0.97093 20.97-3.5911 30.554-5.8231 12.969-3.0203 23.504-4.2613 41.189-4.8547l23.763-0.79828 0.074-27.126c0.07-25.174 0.3844-28.058 4.3783-40.05 5.1486-15.46 14.648-30.271 23.667-36.904 11.671-8.5827 28.001-13.058 47.687-13.159zm-233.25 540.79c7.3197 0.0198 15.739 1.0844 26.659 3.0508 40.098 7.2202 75.872 28.278 87.7 51.619 12.708 25.078 8.126 65.635-10.712 94.785-15.504 23.991-39.821 37.662-74.525 41.897-17.463 2.1313-26.352 2.0181-42.838-0.54456-52.743-8.1982-81.63-38.778-81.642-86.422 0-18.093 2.7657-29.691 11.207-46.938 10.238-20.918 25.437-35.501 50.202-48.166 12.6-6.4435 21.749-9.3153 33.949-9.2824z" fill="#333" stroke-width="1.0658"/> <path d="m3959 1904.5c-13.52-3.392-28.294-9.1588-54.747-21.369-47.595-21.969-53.578-23.806-125.85-38.655-39.897-8.1972-60.867-13.421-117.52-29.275-47.253-13.222-68.643-12.045-126.14 6.9413-25.762 8.5071-37.281 9.8416-62.877 7.2844-24.923-2.4899-37.132-5.6071-89.879-22.947-70.905-23.309-74.818-24.299-139.04-35.163-45.079-7.6261-65.456-8.1637-78.418-2.0691-11.757 5.5282-24.908 17.922-39.306 37.04-6.5827 8.7415-15.202 19.718-19.155 24.392l-7.186 8.4983-1.9764-7.7062c-3.7036-14.44-7.0747-47.306-6.4072-62.468 0.6358-14.444 1.2412-16.508 18.124-61.803 21.486-57.645 28.536-73.856 39.774-91.47 34.362-53.855 35.968-57.603 67.665-157.91 4.9559-15.683 11.854-35.644 15.329-44.357 11.301-28.333 37.917-102.31 46.734-129.9 24.453-76.511 26.073-80.959 38.364-105.35 15.706-31.164 21.904-46.838 31.011-78.417 11.669-40.462 17.788-58.039 32.541-93.467 14.415-34.616 17.69-44.336 28.32-84.037 12.858-48.025 20.911-68.113 48.238-120.32 11.923-22.779 19.882-34.046 29.525-41.796 13.95-11.211 33.338-16.755 45.061-12.886 15.237 5.0287 23.097 19.208 27.855 50.251 27.521 179.56 29.984 189.89 53.775 225.43 20.687 30.901 27.883 48.198 40.356 97.002 15.635 61.178 21.962 74.706 46.132 98.645 25.005 24.767 28.809 35.014 38.811 104.56 7.2817 50.631 11.078 68.778 21.479 102.67 4.0622 13.236 9.4607 30.839 11.997 39.116 2.536 8.2774 9.5616 34.817 15.612 58.976 12.49 49.867 15.811 59.634 27.08 79.641 15.22 27.02 29.935 44.656 66.488 79.689 14.174 13.584 19.446 22.477 22.812 38.483 2.9355 13.955 7.6275 24.654 16.617 37.892 16.835 24.791 83.475 102.33 109.45 127.36l21.228 20.451-16.634-1.3596c-19.996-1.6341-24.059-1.6574-47.526-0.2724-13.882 0.8193-20.48 0.5077-27.723-1.3095z" fill="#925622" stroke-width="1.0658"/> <path d="m4065 1872.3c-27.302-26.789-46.521-47.62-75.885-82.249-44.746-52.767-48.919-58.118-58.976-75.609-9.5126-16.545-17.248-26.486-36.412-46.793-22.269-23.599-32.788-40.084-44.672-70.007-4.5703-11.509-18.044-59.139-23.338-82.503-2.6576-11.727-2.661-12.59-0.068-16.634 1.5044-2.3456 5.8421-10.324 9.6394-17.73 7.8551-15.321 9.0882-16.61 22.732-23.774 12.045-6.3241 27.826-20.498 40.333-36.223 15.882-19.971 20.606-31.588 28.206-69.365 9.0663-45.067 12.825-52.541 41.53-82.582 33.518-35.079 46.071-58.514 60.742-113.4 9.6979-36.28 19.427-63.656 26.257-73.885 6.8737-10.294 18.836-21.653 29.462-27.976 6.6166-3.9375 7.0273-3.9809 20.594-2.1737 21.169 2.8198 33.003 6.265 42.041 12.24 13.941 9.2152 33.284 36.351 49.474 69.409 10.586 21.612 15.077 35.059 22.941 68.672 10.603 45.323 15.055 55.84 39.761 93.927 19.739 30.43 28.381 48.143 49.749 101.96 18.921 47.658 24.95 60.55 34.83 74.48 8.6891 12.251 34.269 36.762 51.815 49.648 16.398 12.044 16.019 10.872 15.957 49.34-0.06 30.069-3.0117 50.909-12.951 91.101-8.1095 32.791-10.965 49.62-12.248 72.187l-1.0419 18.334-8.4776 1.7783c-4.6625 0.9779-13.091 3.98-18.73 6.6712-12.602 6.0147-25.899 20.072-47.181 49.882-8.067 11.299-17.609 22.774-21.204 25.5-6.4366 4.8802-32.708 16.713-52.87 23.812-12.037 4.2385-20.712 4.8015-46.994 3.0496-18.976-1.2648-19.378-1.2216-26.28 2.8233-4.7038 2.7566-9.7471 8.0678-15.332 16.146-9.065 13.113-15.645 18.304-27.832 21.958-18.938 5.6773-14.628 8.1605-55.572-32.016z" fill="#ce9f45" stroke-width="1.0658"/> <path d="m4388.2 1777.9-6.2934 7.6919c-3.4614 4.2298-10.128 12.041-14.815 17.358s-15.15 18.988-23.252 30.381c-16.576 23.308-28.727 35.463-43.101 43.12-27.45 14.622-58.983 18.991-99.108 13.729-10.229-1.3412-19.236-2.0445-20.016-1.5625-0.7804 0.4826-2.2809 3.5395-3.3355 6.7947-6.3902 19.725-20.206 36.06-36.542 43.206-46.767 18.008-41.848 11.441-75.042 5.4704-8.7131-1.5332-18.595-3.7596-21.959-4.9444-5.4199-1.9088-7.4966-1.7918-18.218 1.0056-6.6556 1.7364-20.874 4.0062-31.597 5.0465-34.157 3.3141-51.719-1.0599-110.12-27.426-19.063-8.6063-34.912-15.647-35.217-15.647-0.3053 0-9.6833-4.1817-20.839-9.2916-27.088-12.408-33.701-14.71-107.76-37.526-85.581-26.365-86.546-26.607-106.57-26.631-13.866-0.018-18.611 0.6657-28.515 4.109-15.036 5.2272-23.869 10.195-34.852 19.604-4.7922 4.1055-12.398 9.161-16.9 11.232-20.507 9.4311-68.479 8.2226-110.69-2.7878-6.9355-1.809-32.926-9.975-57.758-18.144-79.908-26.287-152.92-44.244-177.77-44.264-3.5498 0-6.1171 0.3599-7.5806 1.117-2.1783 1.127-7.9093 7.8339-12.735 14.904-12.553 18.39-48.339 64.584-58.278 75.224-7.766 8.3142-9.0152 10.776-15.696 30.941-6.2184 18.768-7.2782 23.84-7.395 35.375-0.2484 24.53 10.233 43.227 27.569 49.181 6.4661 2.221 13.299 3.0087 26.498 3.0446 17.732 0.054 17.795 0.042 20.415-4.3039 17.83-29.558 42.457-56.902 63.924-70.97 6.5047-4.2626 18.267-10.191 26.139-13.175 12.833-4.8649 16.36-5.4965 34.116-6.1294 17.381-0.6194 23.87-0.024 53.07 4.8918 69.505 11.699 85.544 11.732 145.28 0.288 50.407-9.6569 77.109-6.274 126.41 16.012 67.614 30.566 74.836 32.344 144.03 35.465 53.519 2.4135 98.483 10.707 133.39 24.611 13.095 5.2151 14.513 5.4425 34.181 5.4425 11.286 0 28.308 0.7905 37.826 1.7575 11.929 1.2119 42.021 1.4017 96.858 0.6064l79.553-1.1541 54.76-2.6423 48.318-0.6808c37.521-0.5275 50.538-1.2506 58.25-3.2333 9.3854-2.4129 21.986-7.9864 30.196-13.36 2.6196-1.715 8.1334-2.4561 19.01-2.5495 13.343-0.1143 16.46-0.6899 24.172-4.4772 15.904-7.8105 27.635-22.337 32.309-40.01 2.9812-11.272 3.4099-45.468 0.8382-66.796-1.519-12.599-11.168-70.721-14.016-84.426z" fill="#d8b26b" stroke-width="1.0658"/> <path d="m3562.1 2017.8c-13.505-0.6764-54.14-3.1641-90.299-5.5282-51.756-3.3838-71.979-4.0903-95.051-3.3206-68.798 2.295-116.91 2.7041-147.03 1.2505-17.696-0.8543-32.666-2.0587-33.268-2.6764-1.7294-1.7762 31.63-32.936 44.225-41.309 14.521-9.6535 27.635-14.934 42.148-16.97 9.4734-1.3293 17.255-0.9452 44.388 2.1908 26.428 3.0543 40.85 3.8026 73.298 3.8026 36.462 0 43.328-0.4437 70.496-4.5554 24.234-3.6675 33.341-4.3928 46.734-3.7213 21.978 1.1022 34.136 5.0536 81.881 26.612 68.762 31.049 78.435 33.091 168.9 35.654 19.869 0.5629 35.909 1.2271 35.644 1.4762-0.2647 0.2491-25.076 1.252-55.136 2.2285-30.06 0.9766-67.486 2.4333-83.17 3.2371-47.662 2.4428-78.009 2.9195-103.76 1.6296z" fill="#ebb88b" stroke-width="1.0658"/> <path d="m3941.5 326.47c-13.842-2.3275-27.746-2.224-54.467 0.40535-10.568 1.04-24.468-1.1906-32.245-5.1745-5.3783-2.7554-6.6291-7.4171-4.9037-18.276l1.3412-8.4411 8.82-0.94986c4.8511-0.52211 13.757-2.4375 19.79-4.2558 6.0334-1.8183 18.099-3.7682 26.812-4.3331 8.7131-0.56522 23.327-2.8654 32.476-5.1124 13.551-3.3279 22.02-4.2574 45.687-5.0143 28.084-0.89812 29.154-1.0539 32.08-4.669 3.6755-4.5417 3.7181-6.3503 0.4975-21.107-3.122-14.305-3.477-38.77-0.7314-50.402 2.4192-10.249 8.4239-23.033 13.28-28.274 9.1275-9.8498 29.522-14.511 50.601-11.566 7.1741 1.0025 18.796 1.8218 25.826 1.8206 24.339-4e-3 38.572 7.5188 65.711 34.73 18.048 18.096 32.421 38.112 38.951 54.243 2.2351 5.5202 4.2936 10.279 4.5756 10.576 0.2814 0.29638 4.3098-2.3259 8.9507-5.8273 13.506-10.19 33.75-19.161 45.774-20.283 39.654-3.703 77.625 23.134 77.495 54.771-0.06 8.3649-3.1099 13.151-11.011 17.139-9.2992 4.6927-18.255 4.6053-56.152-0.54786-22.831-3.1044-37.617-4.1584-60.341-4.3015-77.87-0.49038-97.247 0.0299-113.27 3.0319-25.196 4.723-53.024 8.5712-73.665 10.187-30.224 2.3654-40.216 4.092-50.75 8.7692-11.738 5.2122-22.646 5.9712-41.134 2.8624z" fill="#fefcf7" stroke-width="1.0658"/> <path d="m3825.1 861.21c-23.013-4.0793-42.413-15.421-53.067-31.025-13.078-19.154-15.495-50.494-6.1018-79.121 5.7218-17.439 18.833-39.557 26.684-45.015 6.8752-4.7795 40.74-12.147 55.093-11.986 16.726 0.18747 47.626 7.1784 61.486 13.91 16.659 8.0918 30.559 20.091 35.293 30.466 11.01 24.13-1.948 78.817-23.591 99.562-20.452 19.604-60.878 29.398-95.796 23.208z" fill="#d4a850" stroke-width="1.0658"/> </g> </g> </svg>