<?xml version='1.0' encoding='utf-8'?>
<svg xmlns="http://www.w3.org/2000/svg" width="1343.7mm" height="1902.5mm" version="1.1" viewBox="0 0 1343.7 1902.5"> <g transform="translate(-1013.5 2252.4)"> <g transform="matrix(.93823 0 0 .93823 -230.06 -272.96)"> <path d="m1325.5-2109.8h1432.1v2027.8h-1432.1z" fill="#fef3e8" stop-color="#000000" stroke-linecap="square" stroke-width="5.3292"/> <path d="m2234.1-1990.3c-4.6436-4.6436-10.658-17.027-8.9869-18.502 1.4248-1.2574 29.253-6.261 30.102-5.4124 1.158 1.158-4.5617 16.404-8.154 21.734-4.5144 6.6988-7.8766 7.2643-12.961 2.1798z" fill="#f8827a" stroke-width="1.0658"/> <path d="m2399.6-1885.5c-14.704-11.216-19.611-33.524-12.513-56.892 4.0925-13.474 14.976-35.676 24.79-50.574 9.2961-14.111 9.3586-14.151 18.806-12.256 4.3543 0.8737 15.942 1.7058 25.751 1.8489 15.179 0.2216 17.685 0.614 16.832 2.6366-3.6317 8.6101-6.9432 21.938-6.9432 27.943 0 8.2409-1.9348 12.359-14.531 30.93-5.1198 7.5482-13.625 22.875-18.901 34.06-5.2757 11.185-11.086 21.94-12.911 23.9-4.8817 5.2429-12.157 4.6721-20.379-1.5987z" fill="#f8827a" stroke-width="1.0658"/> <path d="m2563.4-1661.7c-5.4087-2.1764-6.1213-8.5419-2.2849-20.411 8.684-26.867 35.731-53.471 62.833-61.804 5.2278-1.6075 13.961-3.4338 19.406-4.0585l9.9012-1.1359-0.036 4.5121c-0.018 2.4816-1.3642 10.572-2.9895 17.978s-3.4664 18.099-4.0913 23.763-2.5032 12.545-4.174 15.293c-4.2722 7.0253-14.87 16.232-22.577 19.613-14.652 6.4278-46.667 10.002-55.989 6.2515z" fill="#f8827a" stroke-width="1.0658"/> <path d="m1669.4-1532.8c-3.9209-0.3389-14.258-1.6535-22.971-2.9217s-21.188-2.7436-27.723-3.2785c-6.5347-0.5347-22.802-2.3398-36.15-4.0108-31.406-3.9316-37.263-3.8343-52.062 0.865-11.935 3.7901-12.544 3.8297-21.018 1.366-6.9917-2.0325-12.199-2.3012-26.186-1.351-21.032 1.4288-23.177 1.4117-33.3-0.2659-4.3565-0.722-10.416-0.9189-13.466-0.4377-3.0495 0.4814-7.6833 0.3766-10.297-0.2329-2.6139-0.6093-7.4259-1.5618-10.693-2.1166l-5.9407-1.0087-0.012-15.374c-0.01-8.4558-1.3812-27.137-3.0567-41.513-1.6754-14.377-3.52-31.254-4.099-37.506l-1.0527-11.368 12.671-13.188c19.811-20.618 48.855-35.917 70.973-37.384 11.139-0.7388 11.337-0.6829 17.597 4.973 8.4602 7.6432 13.978 20.552 17.278 40.421 1.7095 10.294 3.9562 18.214 6.0559 21.347 2.8909 4.3141 12.561 10.539 26.1 16.802 8.7773 4.0602 19.013-3.3758 22.368-16.249 11.926-45.771 20.351-64.446 36.167-80.175 23.812-23.68 49.235-29.288 74.8-16.498 15.442 7.7253 24.771 17.424 33.466 34.794 8.9681 17.915 13.099 35.124 16.182 67.41 3.0575 32.023 6.0312 39.417 18.33 45.577 16.642 8.3349 33.33 4.9468 65.744-13.348 14.873-8.394 22.573-9.2978 30.916-3.6284 10.199 6.9308 14.632 23.604 9.5434 35.89-1.7315 4.1801-3.0226 4.7686-15.629 7.1231-7.5576 1.4115-17.662 3.181-22.454 3.932-15.361 2.4075-36.584 6.5991-61.783 12.203-33.298 7.4042-68.835 11.006-90.299 9.1519z" fill="#f8827a" stroke-width="1.0658"/> <path d="m2375.6-1160.6c-5.897-2.446-5.9408-2.5317-5.9408-11.635 0-7.2574 1.1954-11.688 5.7282-21.233 5.1474-10.839 5.6621-13.1 5.0763-22.3-0.5586-8.7751-1.5468-11.536-6.9163-19.328-8.157-11.837-32.014-32.455-45.068-38.949l-10.288-5.118h-28c-25.987 0-28.323-0.2395-32.484-3.334-12.856-9.558-17.877-37.444-12.36-68.644 2.0977-11.863 9.7701-30.023 15.01-35.528 2.3839-2.5045 18.999 10.315 32.148 24.805 27.849 30.688 36.601 39.169 44.464 43.087 9.6394 4.8036 15.099 5.0105 20.482 0.7767 5.9794-4.7034 8.0102-12.686 7.0109-27.558-1.0534-15.676-3.4854-22.632-14.915-42.656-13.678-23.963-16.805-33.642-16.973-52.535-0.078-8.7131 0.8273-22.971 2.0111-31.684 3.0964-22.791 2.9535-41.351-0.3778-49.11-3.6167-8.4225-12.139-17.096-24.968-25.413-18.12-11.747-23.548-22.48-23.529-46.523 0.03-38.09 21.401-80.339 60.173-118.96 10.829-10.788 18.472-16.848 26.97-21.386 11.546-6.1663 12.254-6.3288 26.908-6.1768 8.2774 0.086 20.855 1.3041 27.951 2.7072 9.0088 1.7814 16.948 2.2654 26.316 1.6043 12.283-0.8668 13.7-0.6608 16.803 2.4415 4.3356 4.3356 4.3785 11.804 0.2227 38.727-7.1256 46.164-14.06 59.654-41.347 80.425-15.295 11.643-17.255 15.6-17.324 34.974-0.06 16.352-1.3896 20.597-19.305 61.544-4.7652 10.891-9.9424 24.436-11.505 30.1-3.3208 12.036-3.7889 36.311-0.9317 48.317 4.9402 20.758 20.311 41.54 36.829 49.794 17.391 8.6904 31.812 5.3104 41.984-9.8403 10.811-16.102 10.608-35.561-0.6298-60.361-5.0029-11.04-5.8389-14.541-5.9096-24.741-0.071-10.3 0.5503-13.04 4.6701-20.584 2.6138-4.7864 8.5831-12.628 13.265-17.426 9.6924-9.9321 9.2359-10.215 12.812 7.9506 3.2686 16.605 12.02 25.29 25.495 25.301 9.6371 0.01 18.985-6.1439 29.184-19.205 13.429-17.198 40.536-41.69 52.674-47.594 9.8902-4.8105 11.909-5.2135 25.78-5.1454 11.114 0.054 17.121 0.8915 22.971 3.2005l7.921 3.1266-0.1299 31.624c-0.1138 27.74-4.5784 95.339-6.4254 97.285-2.6782 2.8223-42.644-15.512-56.947-26.124-18.5-13.726-26.56-17.251-39.586-17.309-9.5977-0.042-12.142 0.5694-17.735 4.2708-14.612 9.67-18.73 25.928-13.88 54.807 2.2743 13.544 2.4269 18.329 0.9407 29.497-2.5582 19.224-6.0423 28.261-17.78 46.119-17.182 26.142-21.839 37.985-24.93 63.411-1.9131 15.734-0.2276 26.138 6.3113 38.955 2.4138 4.7315 3.0554 8.0773 2.3451 12.229-3.0379 17.758-2.8335 24.705 1.0692 36.341l3.8763 11.558-9.6558 4.8878c-16.242 8.2217-22.249 9.1362-59.558 9.0674-27.104-0.048-35.273-0.5659-40.001-2.5269z" fill="#f8827a" stroke-width="1.0658"/> <path d="m2639.7-1032.6c-5.2279-3.2786-15.459-9.4749-22.735-13.77-24.217-14.293-29.91-21.043-50.495-59.864-15.385-29.017-23.37-41.111-33.864-51.293-11.337-11.001-14.489-13.063-24.871-16.275-8.7524-2.708-8.789-2.7462-15.739-16.395-9.1995-18.066-9.1938-21.392 0.054-30.811 9.9977-10.185 15.114-22.174 17.872-41.881 2.8673-20.486 5.555-28.565 13.671-41.095 10.124-15.631 11.254-19.308 11.111-36.14-0.1526-17.916-4.2222-52.442-7.7495-65.744-4.9848-18.797-2.8398-32.679 6.0678-39.269 7.1245-5.271 13.344-2.8153 29.258 11.553 7.6686 6.9235 17.908 14.702 22.754 17.284 11.8 6.2893 34.829 12.807 46.377 13.125l9.3717 0.258-0.3772 40.505-0.3773 40.505 5.8372 20.594c22.723 80.172 26.044 129.44 13.776 204.36-2.5681 15.684-5.1553 37.961-5.7493 49.506-0.7253 14.097-1.6722 20.96-2.8834 20.898-0.992-0.048-6.0809-2.7746-11.309-6.0532z" fill="#efd6d1" stroke-width="1.0658"/> <path d="m2213.4-1480.3c-0.5814-2.3165-0.4293-10.387 0.3377-17.935 0.7671-7.5475 1.3858-20.139 1.3748-27.98-0.024-17.388-3.991-27.028-16.622-40.397-13.544-14.335-14.497-15.859-13.316-21.283 0.5814-2.6711 4.1696-12.467 7.9737-21.769 8.6908-21.252 11.634-33.658 11.664-49.168 0.024-13.899-3.5598-25.486-11.117-35.919-2.5855-3.5694-4.701-7.2087-4.701-8.0876 0-0.8788 3.7538-1.5979 8.3417-1.5979 11.081 0 18.314 4.0321 23.032 12.84 5.2308 9.7643 4.1459 17.731-4.9894 36.637-9.4573 19.573-10.206 25.204-5.9815 44.962 1.8418 8.6134 4.0341 21.916 4.8717 29.562 0.8834 8.0625 3.9975 21.369 7.4147 31.684 5.4416 16.425 5.9005 19.244 6.0074 36.91 0.1126 18.583-0.018 19.345-4.6368 26.804-5.6701 9.1604-8.228 10.416-9.6532 4.7368z" fill="#f8827a" stroke-width="1.0658"/> <path d="m2233.2-1458.2c8.0052-6.7359 10.565-16.162 10.313-37.976-0.2478-21.445-2.047-33.049-8.1925-52.844-4.0483-13.039-4.2287-15.048-3.7827-42.097 0.3939-23.899 0.9822-29.804 3.7077-37.228 1.7817-4.8531 4.9365-13.458 7.0107-19.121 5.0028-13.66 5.1694-29.631 0.4412-42.268-6.5454-17.494-24.44-30.604-41.773-30.604-7.5371 0-19.669 4.1082-23.917 8.0992-4.5286 4.2543-4.7683 9.2106-1.164 24.065 2.5271 10.415 2.5005 11.214-0.7909 23.763-1.8732 7.1418-5.3141 19.045-7.6461 26.451-3.5681 11.331-4.2583 16.479-4.3537 32.476-0.1467 24.556 0.4964 25.825 22.788 45.02 16.07 13.838 18.474 23.271 13.557 53.2-4.1738 25.403-2.3345 36.291 7.0314 41.621 2.6446 1.505 4.8128 3.2711 4.8184 3.9246 0 0.6534 1.4357 2.6138 3.1783 4.3565 4.5107 4.5106 12.862 4.1381 18.775-0.8372z" fill="#f8827a" stroke-width="1.0658"/> <path d="m2294.5-2020.5-1.3181 7.9209c-1.8665 11.217-11.01 28.877-20.415 39.428-12.794 14.355-24.136 18.697-38.182 14.614-14.486-4.2114-28.377-19.235-33.856-36.616l-2.565-8.1407-38.219 0.6993c-31.439 0.576-44.821 0.068-75.447-2.8559-37.609-3.5911-49.099-3.6612-103.76-0.6435-14.72 0.8126-21.362 0.2915-42.773-3.3603-16.967-2.8939-33.591-4.5813-50.286-5.1022-33.964-1.0593-44.876 0.9465-104.66 19.227-24.352 7.4468-52.666 14.482-67.931 16.882-16.402 2.5781-38.429 0.1826-80.422-8.744-47.363-10.068-55.248-10.803-94.349-8.8182-18.289 0.9283-36.464 2.3608-40.384 3.1839s-14.258 1.5393-22.971 1.5872c-25.23 0.1473-43.478 5.7176-52.031 15.882-5.7423 6.8243-11.885 27.504-14.58 49.073-1.255 10.044-2.7288 36.796-3.2736 59.45l-0.9902 41.189 5.1239 22.179c6.3631 27.54 6.8275 46.526 1.8101 73.987-1.8632 10.197-3.3881 19.236-3.3881 20.087 0 0.8514 5.5249-0.4658 12.278-2.927 14.036-5.1159 37.571-10.49 52.727-12.039 36.147-3.695 58.965 20.238 61.267 64.262 0.9619 18.396 3.507 27.166 3.5861 12.358 0.054-10.153 5.985-30.654 12.76-44.104 7.2439-14.38 22.708-33.838 34.274-43.126 43.345-34.809 91.748-34.623 127.35 0.4892 17.61 17.368 24.873 35.951 32.426 82.981 2.2289 13.878 5.1765 27.601 6.5502 30.496 2.4429 5.1481 2.7177 5.2632 12.565 5.2632 5.5376 0 17.755-1.1456 27.148-2.5465 49.499-7.3826 67.376 3.931 77.548 49.076 5.5958 24.834 3.5676 33.177-9.5052 39.113-9.4631 4.2966-20.972 3.8118-43.701-1.8441-23.056-5.7375-26.258-5.5811-52.789 2.5991-13.454 4.1485-23.884 6.0988-42.399 7.9302-27.391 2.7094-34.097 4.1774-65.249 14.282-18.902 6.1313-23.476 7.0397-35.644 7.0577-14.707 0.024-61.588-4.841-84.593-8.7812-8.061-1.3805-23.84-2.3298-38.735-2.3298-20.437 0-27.756-0.645-39.168-3.4438l-14.035-3.4406-8.2211 3.6015c-11.626 5.0921-18.653 7.696-23.54 8.7254-3.9262 0.8272-4.3123 1.6578-5.3776 11.584-1.5648 14.582 0.1755 51.923 4.1554 89.114 3.0096 28.124 3.213 36.426 2.2463 92.675-1.2047 70.103 1.1809 113 7.9829 143.55 6.521 29.288 9.0084 50.114 9.1617 76.657 0.2071 35.82-4.5712 63.315-20.072 115.46-8.7397 29.402-9.3887 64.765-1.8998 103.76 3.2099 16.716 4.0719 26.061 4.0719 44.166v22.968l7.5249-0.94369c4.1387-0.51791 15.596-1.4271 25.458-2.0205l17.93-1.0798 14.545-12.983c22.031-19.667 42.707-41.933 68.646-73.925 12.91-15.923 27.447-33.253 32.306-38.512 12.965-14.034 14.904-17.376 21.981-37.9 9.6419-27.962 27.854-60.277 51.381-91.165 4.9345-6.4786 23.147-26.796 40.471-45.149 38.451-40.735 49.037-53.306 65.314-77.532 15.974-23.777 25.176-42.14 42.575-84.968 16.266-40.037 25.232-58.332 36.192-73.854 18.134-25.683 37.098-41.578 53.72-45.029 7.5322-1.5636 11.054-1.4572 20.591 0.6127 27.734 6.0184 45.552 20.126 68.423 54.178 7.7429 11.528 20.195 29.186 27.671 39.24 23.496 31.596 30.82 48.03 42.974 96.428 8.5224 33.936 13.981 48.783 24.15 65.697 16.178 26.911 56.592 78.318 84.763 107.82 10.65 11.152 23.504 25.075 28.565 30.938 5.061 5.8629 11.276 12.135 13.809 13.939l4.604 3.2798 4.7093-3.4809c5.8302-4.3106 18.179-21.367 34.444-47.581 14.963-24.117 16.246-25.638 35.61-42.176 16.929-14.458 27.694-27.678 43.076-52.897 5.6585-9.2775 12.847-20.587 15.972-25.13 3.1252-4.5433 5.6873-10.14 5.6993-12.438s0.1641-12.831 0.3401-23.407c0.3114-18.69 0.1964-19.405-4.0842-25.582-4.6336-6.6861-13.068-14.264-32.408-29.116-9.5084-7.3017-14.1-9.6263-24.611-12.457-29.097-7.836-38.153-16.087-50.812-46.291-7.8487-18.727-15.447-34.121-20.929-42.405-7.698-11.632-7.4231-26.044 0.8384-43.698 11.645-24.885 32.55-35.347 51.607-25.83 13.359 6.672 37.874 28.901 52.52 47.625 18.045 23.068 31.791 37.304 33.946 35.149 2.8924-2.8924 3.5417-13.074 1.4604-22.881-2.2152-10.439-7.0041-18.349-25.31-41.78-11.066-14.164-21.166-32.529-26.158-47.569-6.5127-19.624-7.6797-34.026-4.6969-57.965 0.594-4.7698-0.3299-7.0636-5.7426-14.258-9.0122-11.978-16.87-28.08-19.843-40.663-3.23-13.674-2.0968-40.491 2.4474-57.937 7.7811-29.874 19.358-51.381 48.633-90.358 43.35-57.714 65.875-77.04 89.798-77.044 28.955 0 63.149 16.462 71.026 34.202 3.9769 8.9579 9.6148 50.097 9.7495 71.146 0.2659 41.627-14.918 65.319-50.778 79.225-6.3282 2.4541-12.269 5.3821-13.203 6.5069s-2.0394 6.5318-2.4567 12.018c-1.2098 15.914-4.7525 27.046-18.289 57.467-15.469 34.763-19.336 48.724-18.401 66.456 1.1251 21.331 11.658 39.882 26.971 47.513 13.324 6.6397 13.906 6.2674 13.948-8.9823 0.018-7.1879 0.7898-15.921 1.7048-19.406 0.9152-3.4852 2.2118-17.743 2.8838-31.684 0.9816-20.366 1.9131-27.134 4.7401-34.434 7.763-20.047 29.715-46.018 40.626-48.064 8.0467-1.5096 15.391 2.3403 21.715 11.38 2.8197 4.0311 5.9364 8.4587 6.9246 9.8393 1.6366 2.2871 3.1887 2.2626 17.408-0.2569 18.453-3.2696 23.468-5.9572 41.786-22.395 21.149-18.978 35.941-24.586 64.847-24.586 14.31 0 15.647-0.2629 16.417-3.2086 0.7041-2.6925-1.7609-60.363-2.6176-61.242-0.1569-0.1605-4.5497 1.7414-9.762 4.2296-26.244 12.528-62.003 14.4-85.125 4.4525-9.2452-3.9772-20.462-15.966-23.064-24.651-9.4807-31.644 17.021-83.297 55.775-108.7 20.556-13.476 35.658-18.386 56.601-18.398l13.664-0.012 0.9901-4.9506c0.5443-2.7228 0.9772-19.298 0.9592-36.832-0.03-30.574-2.3908-57.749-6.2749-72.173-0.9602-3.5662-2.0516-14.977-2.4258-25.356-1.231-34.169-7.2359-52.743-21.69-67.112-8.9131-8.8602-20.476-15.147-35.582-19.348-10.826-3.0106-57.81-4.8522-72.613-2.8465-9.4533 1.2807-9.5242 1.3303-13.351 9.2081-2.9301 6.032-3.745 9.9989-3.4097 16.634 1.2108 23.946 0.7577 27.641-4.8021 38.974-4.2382 8.639-9.0726 14.58-23.064 28.354-9.7353 9.5841-22.004 22.903-27.265 29.598-12.167 15.484-21.153 21.107-33.444 20.926-19.653-0.2898-38.438-17.292-45.236-40.941-6.6245-23.044 3.4787-59.218 26.148-93.625 3.4158-5.1842 5.7181-9.895 5.1177-10.467s-12.142-2.999-25.647-5.393c-20.14-3.5703-29.532-4.378-52.232-4.502zm-397.3 45.088c14.921-4e-4 29.222 4.8236 44.125 14.518 15.634 10.169 40.769 35.319 56.01 56.041 6.4084 8.713 12.069 16.326 12.578 16.919 0.5084 0.5922 4.8429 0.024 9.6351-1.2531 15.473-4.1324 45.25-0.282 61.499 7.9519 27.272 13.82 41.872 53.061 25.743 69.191-6.1522 6.1522-13.241 6.9646-35.793 4.0997-18.852-2.3947-29.616-5.4416-50.945-14.412-5.3863-2.2654-15.706-4.9124-22.934-5.885-16.671-2.2437-59.755-1.0655-61.452 1.6801-0.658 1.0647-6.0169 3.6823-11.906 5.82-11.308 4.1045-49.049 8.7785-113.33 14.032-41.703 3.4085-51.637 2.7096-67.984-4.7743-16.982-7.7748-23.899-15.6-23.899-27.046 0-5.0021 1.1904-7.0605 7.7136-13.348 11.778-11.352 43.748-22.717 69.516-24.71l13.07-1.0086v-9.3381c0-13.674 4.3281-32.456 9.8888-42.922 7.0774-13.32 21.311-26.636 36.681-34.317 14.967-7.4795 28.614-11.238 41.78-11.238zm380.72 38.082c13.179-0.2671 23.992 5.8293 30.109 17.757 5.9203 11.544 1.9663 32.774-7.7075 41.372l-3.2518 2.8899 3.9697 8.6698c5.9785 13.059 4.8969 31.419-3.3231 56.418-7.0828 21.541-7.0012 21.861 6.705 25.845 13.089 3.8051 17.521 6.5432 20.415 12.612 2.1679 4.5463 2.2789 6.4334 0.693 11.727-2.1856 7.2949-9.7502 15.487-17.16 18.583-2.8301 1.1825-8.5533 2.118-12.72 2.0761-8.2429-0.079-52.153-13.1-66.852-19.824-11.406-5.2181-21.905-16.448-29.215-31.241-17.352-35.119-16.009-76.517 3.3231-102.29 5.5484-7.3965 40.266-33 52.69-38.859 7.866-3.7094 15.421-5.5967 22.324-5.7365zm247.9 42.82c21.167-0.054 45.669 12.586 55.635 32.881 3.9337 8.0105 4.4393 10.786 4.4153 24.103-0.024 13.068-0.6044 16.286-4.3998 24.444-5.9137 12.71-13.47 21.547-22.717 26.56-13.836 7.5009-23.346 6.8382-52.065-3.6232-24.732-9.0095-36.306-24.797-33.324-45.456 1.3803-9.5616 6.7281-21.286 14.072-30.852 3.1833-4.1462 5.786-8.6018 5.786-9.9012s2.7241-5.085 6.0521-8.4129c6.6647-6.6648 16.207-9.7178 26.544-9.7434zm-915.29 467.3c15.624 0.1234 29.669 4.3462 46.959 12.992 36.09 18.047 50.859 33.781 57.3 61.047 8.8711 37.554-12.05 101.22-42.631 129.74-12.238 11.41-21.689 16.63-39.373 21.755-28.728 8.3253-57.323 6.3739-82.14-5.6065-10.734-5.1822-16.085-9.1184-26.291-19.354-25.491-25.564-38.065-60.627-33.837-94.346 1.9377-15.453 4.598-23.226 12.5-36.526 3.3651-5.6634 6.624-11.998 7.2402-14.075 3.7033-12.482 21.756-34.228 33.423-40.261 2.6091-1.3492 13.973-5.1145 25.254-8.3665 16.334-4.7086 29.442-7.0916 41.594-6.9958z" fill="#efd6d1" stroke-width="1.0658"/> <path d="m2490.8-801.58c-13.339-1.3178-34.878-5.422-41.332-7.8759-2.0994-0.79825-3.8172-2.502-3.8172-3.7862 0-2.9245-8.5969-9.4108-15.56-11.74-2.8946-0.96823-7.8848-3.7939-11.089-6.2793-3.2045-2.4854-15.817-11.341-28.027-19.679-16.863-11.515-25.335-18.589-35.235-29.421-15.402-16.852-25.198-23.7-48.705-34.049-40.786-17.956-59.667-28.566-75.834-42.612l-6.13-5.3256 4.7039-7.0927c2.587-3.901 10.192-17.786 16.9-30.855 19.005-37.029 20.049-38.161 50.372-54.655 23.838-12.966 43.062-34.992 65.45-74.99 4.3094-7.6994 8.942-14.591 10.295-15.315s9.7726-2.1664 18.711-3.2056c12.718-1.4785 20.286-1.4637 34.805 0.068 10.204 1.0768 26.751 1.9274 36.771 1.8904 10.02-0.036 20.366 0.5856 22.991 1.3837 2.9315 0.8913 13.32 10.072 26.931 23.8 12.187 12.292 28.575 27.722 36.416 34.288 7.8417 6.5665 20.818 18.206 28.836 25.865 8.0177 7.6591 23.701 21.186 34.852 30.06 11.151 8.8741 23.661 19.41 27.799 23.412 8.6193 8.336 8.9242 10.102 5.1489 29.832-1.8642 9.7421-2.3761 26.005-2.3763 75.498l-2e-4 63.081-27.924 13.453c-15.358 7.3992-34.104 15.524-41.658 18.054-21.713 7.2744-50.603 9.4227-83.292 6.1935z" fill="#294854" stroke-width="1.0658"/> <path d="m1982.3-741.02c-4.3565-2.4375-12.555-7.2819-18.218-10.765-59.757-36.754-109.48-47.139-187.84-39.23-60.796 6.1366-94.623-0.37362-144.79-27.865-44.135-24.186-67.737-26.143-104.27-8.646-28.547 13.674-28.093 13.742-12.65-1.9168 15.858-16.081 33.467-39.267 51.157-67.363 18.018-28.616 20.492-31.268 37.459-40.166 21.276-11.157 32.225-22.786 46.307-49.184 11.573-21.693 22.004-38.085 34.283-53.874 14.402-18.518 57.747-82.797 73.625-109.18 13.226-21.978 30.18-55.88 45.11-90.204 23.848-54.823 28.956-63.331 57.121-95.146 33.218-37.523 40.368-42.263 58.841-39.009 18.286 3.2211 32.161 14.198 43.267 34.23 4.5532 8.2131 21.12 46.549 33.556 77.651 2.0905 5.2278 8.0714 23.763 13.291 41.189 17.55 58.594 22.461 67.194 65.144 114.08 30.536 33.546 71.264 80.307 81.875 94.004 3.8118 4.9206 10.733 16.883 15.38 26.583 10.415 21.741 23.082 38.781 42.421 57.066 24.507 23.172 49.592 34.991 83.788 39.477 25.336 3.3242 32.114 6.9239 57.524 30.547 11.381 10.581 22.36 21.493 24.398 24.25l3.7053 5.0116-62.012-1.0854c-67.811-1.1869-82.578-0.27362-104.01 6.4309-16.269 5.0887-30.555 12.305-60.991 30.808-29.804 18.119-31.561 18.888-59.407 25.995-27.408 6.9952-83.154 23.265-94.53 27.589-10.544 4.0075-10.022 4.0417-19.531-1.2791z" fill="#3b6072" stroke-width="1.0658"/> <path d="m1414.4-649.3c0-19.29 0.7387-41.698 1.6415-49.795 1.2977-11.637 1.1317-18.611-0.792-33.287-1.3385-10.211-2.4337-22.739-2.4337-27.84v-9.2753l8.317-1.0317c25.042-3.1064 63.307-9.2358 70.892-11.356 4.7921-1.3393 19.554-8.1087 32.804-15.043 28.249-14.784 39.588-17.955 55.931-15.637 12.568 1.7824 17.004 3.3294 44.36 15.469 43.482 19.296 65.032 23.679 126.71 25.768 45.584 1.544 54.842 2.7872 91.883 12.337 13.505 3.482 34.179 8.5994 45.941 11.372 30 7.0716 77.892 20.998 76.452 22.232-2.6668 2.2844-40.206 17.367-54.619 21.946-35.747 11.355-52.732 10.804-93.17-3.0218-40.27-13.769-60.374-16.583-89.511-12.53-29.733 4.1355-54.62 13.407-76.998 28.686-10.134 6.919-17.329 10.678-21.81 11.395-3.6776 0.58797-17.87 0.27183-31.538-0.70305-72.096-5.1413-126.27 12.57-175.18 57.273l-8.8798 8.1156z" fill="#7fc9b5" stroke-width="1.0658"/> <path d="m2677-565.28c0-3.548-24.203-26.8-38.3-36.795-20.774-14.729-36.671-29.082-56.751-51.239-46.839-51.685-78.528-69.709-167.21-95.104-19.212-5.5016-50.222-15.697-68.912-22.657-31.374-11.683-50.293-17.959-67.806-22.495-3.791-0.98195-6.6247-2.0534-6.297-2.381 0.3275-0.32751 18.4-2.7769 40.161-5.4428s47.648-5.9154 57.527-7.2212c31.672-4.1862 37.58-3.4699 66 8.0026 20.339 8.2106 38.063 11.741 95.844 19.093 49.911 6.3503 66.275 4.2539 100.03-12.816l13.696-6.9249 1.7887 12.233c0.9838 6.7283 3.9407 20.401 6.5708 30.384 16.297 61.856 22.389 90.32 26.09 121.91 3.3939 28.966 2.7461 72.882-1.075 72.882-0.7471 0-1.3585-0.64066-1.3585-1.4237z" fill="#7fc9b5" stroke-width="1.0658"/> <path d="m2635.8-434.01c-40.819-7.0482-90.811-7.8988-139.41-2.3717-32.085 3.6492-63.839 4.7196-77.625 2.617-7.4125-1.1305-16.35-3.9692-23.763-7.5471-10.671-5.1505-15.131-9.0004-43.767-37.78-47.07-47.305-75.547-67.31-112.28-78.869-34.704-10.922-48.944-10.17-143.43 7.5726-21.314 4.0023-47.663 8.7202-58.554 10.484-26.104 4.2277-73.406 5.5511-108.52 3.036-14.812-1.061-70.061-2.5053-122.77-3.2094-89.515-1.1956-96.882-1.5058-111.58-4.6986-19.674-4.2744-35.372-10.294-60.252-23.102-27.879-14.352-38.108-17.153-59.208-16.212-19.781 0.88262-33.204 4.8887-57.802 17.251-33.339 16.755-76.093 49.843-90.573 70.095-3.4853 4.8744-6.8714 8.878-7.5249 8.8967-0.6535 0.018-1.2711-13.332-1.3726-29.669-0.1012-16.337-0.636-40.344-1.1881-53.35l-1.0038-23.647 6.1919-7.6056c12.59-15.464 39.696-35.84 63.881-48.02 43.015-21.663 85.295-26.527 137.8-15.851 28.98 5.8925 33.852 5.1716 68.117-10.078 58.532-26.05 77.007-27.975 125.36-13.059 32.26 9.9506 40.567 11.44 63.423 11.375 24.07-0.0695 44.642-3.72 99.198-17.604 80.267-20.428 89.584-23.815 141.78-51.538 26.356-13.998 33.916-17.243 51.486-22.105 11.327-3.1339 30.447-8.9487 42.489-12.922 19.533-6.4447 22.85-7.1043 30.757-6.1165 30.473 3.8073 67.579 19.058 117.65 48.354 44.368 25.96 59.187 32.592 109.97 49.22 42.524 13.924 60.681 24.712 99.55 59.145 24.029 21.287 35.666 29.761 57.418 41.817 15.557 8.6218 21.562 13.078 33.058 24.533l14.048 13.998-1.0542 6.6283c-0.5796 3.6456-4.2039 19.817-8.0537 35.936-7.8811 32.998-10.014 45.857-10.641 64.139-0.3377 9.8565-0.958 12.706-2.8056 12.892-1.3045 0.13172-9.8571-1.0536-19.006-2.6332z" fill="#60b5a0" stroke-width="1.0658"/> <path d="m1425.5-204.66c-6.2965-1.7299-7.3724-2.6985-9.215-8.2954-1.1475-3.4852-2.057-11.877-2.0212-18.649 0.054-10.087 1.2313-15.789 6.519-31.549 10.479-31.235 12.039-53.806 5.5009-79.582-5.3767-21.195-8.7046-48-8.7046-70.111v-18.339l11.195-13.186c17.24-20.307 45.341-46.475 67.389-62.753 10.986-8.1111 28.631-21.686 39.212-30.167 10.772-8.6344 25.079-18.394 32.513-22.179 13.181-6.7105 13.396-6.7587 30.1-6.7212l16.824 0.0359 24.555 10.073c50.718 20.804 60.661 22.739 135.2 26.3 66.537 3.1792 125.84 6.7146 159.95 9.5362 35.765 2.958 76.936 2.9632 110.4 0.018 14.376-1.2668 39.328-3.4842 55.447-4.9276 40.245-3.6036 86.668-3.6419 105.91-0.0874 31.525 5.8225 46.632 13.588 91.319 46.941 48.762 36.393 66.133 47.11 88.715 54.728 17.002 5.7362 42.422 6.685 87.546 3.2678 69.317-5.249 87.368-3.1383 158.8 18.57l27.723 8.4255 1.9059 10.178c7.8125 41.722 11.831 69.944 12.67 88.991 0.9211 20.894 0.3425 24.183-3.5662 20.28-3.2912-3.2858-20.621-6.2333-42.18-7.1742-33.237-1.4505-48.35-3.5639-75.763-10.594-33.124-8.495-42.327-8.9801-73.32-3.8656-20.736 3.422-30.198 4.131-55.447 4.1545-19.332 0.018-40.852 1.1641-58.959 3.1399-70.379 7.6795-80.05 4.247-141.94-50.376-34.59-30.529-72.159-50.257-110.74-58.15-18.046-3.6923-53.625-2.5935-72.081 2.2259-17.506 4.5712-37.113 14.545-46.347 23.576-4.2039 4.1112-12.8 15.802-19.104 25.979-6.3031 10.177-14.472 22.082-18.154 26.457-37.091 44.067-105.54 52.248-225.31 26.928-29.297-6.1936-33.534-6.7022-56.239-6.7517-23.585-0.0479-25.181 0.15388-40.397 5.1688-23.474 7.7378-49.536 21.046-90.299 46.108-39.004 23.981-58.354 34.041-76.041 39.532-13.541 4.204-33.808 5.529-43.565 2.8481z" fill="#e0a07a" stroke-width="1.0658"/> <path d="m1865.9-172.07c-3.9209-0.29698-34.711-2.3113-68.424-4.4758-67.55-4.337-104.08-4.8497-154.03-2.1618-24.588 1.3232-43.811 1.3222-74.457 0-22.722-0.98351-60.203-2.2368-83.293-2.7854-26.383-0.62665-43.747-1.6971-46.734-2.881-4.1105-1.629-2.3983-1.8832 12.674-1.882 34.699 0 69.181-13.067 121.98-46.237 55.779-35.04 72.753-44.124 91.091-48.751 14.18-3.5778 40.428-2.2333 76.963 3.9419 49.296 8.3322 67.328 10.139 102.05 10.226 35.449 0.0886 50.649-1.8248 74.672-9.4014 24.888-7.8495 43.423-18.904 76.618-45.694 43.058-34.75 53.823-38.539 104.56-36.798 51.168 1.7562 79.099 11.822 124.55 44.885 28.32 20.603 33.604 24.013 46.294 29.876 24.33 11.241 50.672 12.713 99.263 5.548 25.748-3.797 47.994-4.0098 80.794-0.7731 30.02 2.9624 37.711 4.8289 64.952 15.762 37.134 14.904 64.654 18.133 123.09 14.444 19.888-1.2555 22.967-1.1134 26.535 1.2247 5.4033 3.5403 5.0967 6.5501-1.6678 16.372-10.744 15.599-31.107 25.126-49.579 23.196-8.1532-0.85226-9.7537-0.47721-17.005 3.9847-8.9903 5.5318-18.193 9.0985-29.891 11.585-14.776 3.1406-293.24 8.4798-315.59 6.0512-22.777-2.4748-53.441-1.8765-79.954 1.5603-41.112 5.3289-52.624 6.1842-106.65 7.9227-28.753 0.9253-73.658 2.7345-99.79 4.0201-43.542 2.1423-80.97 2.6123-99.026 1.2437z" fill="#f1b590" stroke-width="1.0658"/> <path d="m1753.4-1831.3c-9.5485-1.6099-16.239-4.3334-15.115-6.1527 1.3829-2.2376 17.42-7.8884 29.745-10.481 15.527-3.2662 25.6-2.8686 43.203 1.7052 15.066 3.9146 15.534 3.9408 21.164 1.1881 3.6606-1.79 6.8412-5.0355 8.735-8.9132 2.7176-5.5649 2.8214-7.4752 1.1881-21.839-3.4267-30.135-2.2009-40.041 6.5697-53.098 13.192-19.638 45.006-30.962 66.089-23.524 8.9674 3.1639 24.3 14.286 34.136 24.763 12.627 13.449 22.046 27.789 33.81 51.474 11.449 23.052 14.379 26.941 21.788 28.923 9.8789 2.6421 16.195-0.2718 28.162-12.992 9.9266-10.552 12.047-12.048 18.352-12.946 9.0014-1.2835 21.28 1.4104 28.72 6.3011 5.9394 3.9043 12.469 14.966 12.469 21.122 0 3.0103-0.8757 3.4641-6.7328 3.4895-3.703 0.018-12.687 1.0822-19.964 2.3691-13.417 2.3728-15.271 2.2984-40.631-1.6307-13.07-2.025-80.891-4.656-105.35-4.0868-5.6636 0.1317-20.278 1.3142-32.476 2.6276-12.198 1.3133-32.516 3.053-45.15 3.8659s-32.951 2.8731-45.149 4.5783c-30.592 4.2764-35.395 4.6357-43.565 3.2582z" fill="#f8827a" stroke-width="1.0658"/> <path d="m2515.9-1800.2c-25.23-8.173-31.285-19.76-21.039-40.263 7.744-15.497 24.754-29.173 40.619-32.657 7.4134-1.6282 16.764 3.7544 21.978 12.652 3.8345 6.5431 4.1605 8.3478 3.5054 19.409-1.0419 17.593-10.544 37.265-20.483 42.405-5.983 3.0938-11.289 2.7603-24.58-1.5453z" fill="#f8827a" stroke-width="1.0658"/> <path d="m2275.1-1762.1c-12.602-4.6832-27.075-13.307-30.849-18.382-4.0624-5.4619-16.267-35.367-20.17-49.421-9.6502-34.752-7.2438-65.47 6.1804-78.894 11.946-11.945 37.151-16.838 45.213-8.7763 2.1387 2.1387 3.8728 5.1684 3.8537 6.7328-0.048 3.954-5.2379 14.305-10.957 21.855-6.9893 9.2265-7.6853 14.905-2.5717 20.982 2.279 2.7084 6.2872 5.3952 8.9071 5.9706 11.374 2.4981 13.046 18.247 4.6861 44.125-6.6279 20.516-7.5567 30.321-3.4835 36.775 3.5077 5.558 12.05 10.17 18.836 10.17 2.5334 0 5.9901 1.0678 7.6815 2.3727 2.9993 2.3143 2.9655 2.4705-1.3698 6.3368-5.6284 5.0196-12.751 5.062-25.957 0.1545z" fill="#f8827a" stroke-width="1.0658"/> <path d="m1578-1228.3c-29.217-6.6709-53.252-31.184-61.44-62.662-1.9826-7.622-2.5046-14.643-2.0091-27.027 0.5796-14.479 1.312-18.102 5.4464-26.931 5.795-12.376 18.099-27.495 28.721-35.292 5.6771-4.1673 13.284-7.3691 27.468-11.561 24.942-7.3714 42.011-8.6073 56.328-4.0784 14.474 4.5786 30.24 13.999 40.403 24.142 12.198 12.174 14.682 20.539 13.605 45.816-0.6404 15.021-1.6822 20.974-5.8178 33.246-15.741 46.711-36.146 64.004-77.773 65.913-9.7379 0.4466-18.537-0.106-24.931-1.5658z" fill="#ebbc52" stroke-width="1.0658"/> </g> </g> </svg>