<?xml version='1.0' encoding='utf-8'?>
<svg xmlns="http://www.w3.org/2000/svg" width="1411.1mm" height="1940mm" version="1.1" viewBox="0 0 1411.1 1940"> <g transform="translate(364 372.7)"> <g transform="matrix(1.0691 0 0 1.0691 3961.7 -2369.5)" stroke-width=".93541"> <g transform="matrix(5.1195 0 0 5.1195 -5574 2300.6)"> <path d="m298.41-84.531h257.82v354.47h-257.82z" fill="#fff" stop-color="#000000" stroke-linecap="square" stroke-width=".10963" style="paint-order:markers stroke fill"/> <path d="m304.17 253.99v-8.0423l2.1307-2.0044c2.4799-2.3329 5.1638-4.1606 9.7756-6.6572 1.819-0.98467 5.072-2.8473 7.229-4.1392 8.619-5.1622 9.7818-5.5596 21.256-7.2646 9.2203-1.3701 13.073-0.90784 21.429 2.5712 4.8112 2.0033 5.7402 2.3551 5.8714 2.2238 0.19209-0.19208 0.19996-0.18767-3.5295-1.9829-11.264-5.4225-11.285-5.4291-16.669-5.4084-3.5156 0.0135-4.2708 0.10001-6.6146 0.7576-4.2994 1.2063-6.655 1.6747-10.716 2.1308-9.0627 1.0178-12.078 2.5109-22.254 11.019-1.9807 1.656-4.5709 3.7602-5.7561 4.676l-2.1549 1.6652 0.1352-46.184 2.6458-2.2164c4.1443-3.4717 10.674-7.8672 15.478-10.419 1.2369-0.65709 4.3326-2.2995 6.8792-3.6497 4.4634-2.3666 8.9958-5.1049 8.9958-5.4349 0-0.9455-11.66 4.722-17.992 8.7448-5.6035 3.5604-12.019 7.731-14.149 9.1983l-1.8588 1.2805-0.0678-20.296c-0.0373-11.163-0.0373-20.326 0-20.363 0.2107-0.20816 4.9049-0.69112 8.799-0.90528 4.04-0.22219 9.612-0.87786 13.229-1.5567 2.7861-0.52287 5.9639-0.63769 18.521-0.6692 12.015-0.0301 14.1-0.13354 13.76-0.68247-0.46171-0.74706-10.365-1.1043-16.009-0.57745-1.6735 0.15622-5.2454 0.35871-7.9375 0.45-2.6921 0.0913-8.2881 0.45346-12.435 0.80484-4.6918 0.39751-9.5148 0.63951-12.766 0.64058l-5.2255 2e-3v-77.749l1.5518-0.94265c4.2114-2.5583 8.225-4.1226 12.379-4.8249 3.3397-0.56457 5.2078-0.29467 7.4226 1.0724 1.596 0.98509 2.2978 1.1631 2.6078 0.6614 0.2966-0.47992-0.63801-1.1087-4.11-2.7649l-3.2998-1.5741-3.4471 4e-3c-4.1118 0.0047-6.1952 0.50788-10.401 2.5118l-2.7203 1.2962 0.1488-6.109 2.7781-1.2435c5.0519-2.2613 15.749-8.2115 20.505-11.406 1.0186-0.68412 2.626-1.5841 3.5719-1.9999 0.94589-0.41584 2.6443-1.3292 3.7743-2.0296 1.13-0.70046 2.9528-1.6304 4.0506-2.0665 2.6483-1.052 4.3573-1.9274 6.5948-3.3779 1.0186-0.66036 3.3404-2.056 5.1594-3.1015 1.819-1.0454 4.2305-2.5042 5.3589-3.2416 1.2477-0.81543 3.0225-1.6642 4.5295-2.1663 2.5814-0.86 7.1149-3.356 8.5782-4.723 1.5202-1.4201 0.94161-2.8501-1.1348-2.8044-1.5526 0.03416-5.5148 2.1888-7.8978 4.2947-1.0414 0.92027-2.7904 2.1291-3.8869 2.6863-1.0964 0.55718-3.4777 1.8324-5.2917 2.8339s-4.4276 2.3525-5.808 3.0023c-4.1605 1.9583-5.275 2.6357-7.0149 4.2633-1.0727 1.0035-2.3736 1.8847-3.6584 2.4784-1.0966 0.50666-2.8057 1.5753-3.798 2.3748-1.0159 0.81852-2.6712 1.8155-3.7886 2.2819-2.8484 1.1889-4.7694 2.1802-8.0295 4.1435-2.8142 1.6948-8.0092 4.1892-12.474 5.9896l-2.2504 0.90745v-25.361c0-23.926 0.0262-25.369 0.46302-25.497 0.25466-0.07438 1.6536-0.45292 3.1089-0.8412 3.4218-0.913 5.0271-1.6687 5.0271-2.3665 0-0.4751-0.14869-0.52068-1.4552-0.44606-0.80036 0.04571-2.5552 0.25407-3.8998 0.46302-1.3445 0.20895-2.6244 0.37992-2.8443 0.37992-0.35405 0-0.39972-3.1911-0.39972-27.929v-27.929l1.3279 0.74286c0.73033 0.40858 2.7842 1.806 4.5641 3.1054 3.8825 2.8344 5.9122 4.044 10.115 6.0287 4.996 2.3591 9.1281 3.5215 9.1281 2.5678 0-0.15716-0.68461-0.96083-1.5214-1.7859-1.063-1.0482-2.717-2.1717-5.4901-3.7293-3.887-2.1832-7.1059-4.1019-11.936-7.1149-1.3261-0.82718-3.2608-1.9139-4.2995-2.415l-1.8884-0.91101v-23.975h17.164l1.8027 1.2277c2.2273 1.5168 4.7669 3.5212 5.6191 4.4347 0.76565 0.82078 1.0784 0.87017 1.0784 0.17033 0-0.33358-0.72818-1.0756-2.0505-2.0894-1.1278-0.86467-2.5212-2.0606-3.0964-2.6577l-1.0459-1.0856h47.881l1.0023 2.0255c1.4596 2.9499 2.5021 4.4817 4.8125 7.0714 1.7105 1.9173 2.1741 2.2937 2.7438 2.2275 1.0775-0.12521 1.0567-1.1298-0.0476-2.2943-0.50084-0.52818-1.7612-2.2105-2.8007-3.7384-1.0396-1.528-2.3182-3.3437-2.8415-4.0349l-0.9514-1.2568h38.846l0.0527 2.5217c0.029 1.3869 0.28896 3.7384 0.5777 5.2255 0.6099 3.1413 0.65009 4.6575 0.21634 8.1616-0.26438 2.1358-0.25362 2.7095 0.0666 3.5508 0.49082 1.2896 0.90369 1.4101 1.4187 0.41408 0.50812-0.98258 0.51367-2.7924 0.0155-5.0571-0.48649-2.2117-0.49457-4.7869-0.0222-7.0603 0.20609-0.99178 0.45953-3.1427 0.5632-4.7798l0.18849-2.9766h33.327l-0.17183 0.7276c-0.0945 0.40018-0.99163 2.9898-1.9936 5.7547-2.3872 6.5873-3.1129 8.9711-3.3091 10.871-0.29949 2.8989 0.67733 2.8878 1.9882-0.02263 0.39325-0.87312 1.8728-5.1296 3.288-9.4589l2.573-7.8714h99.433l-6e-3 10.451-0.85662 0.55454c-0.47113 0.305-1.7496 1.2708-2.841 2.1461-2.8866 2.3152-5.5292 4.0105-9.1652 5.8797-3.9368 2.0238-5.121 2.942-4.6898 3.6363 0.76797 1.2365 3.3462 0.23896 8.9016-3.4443 2.0695-1.3721 4.8641-3.0452 6.2102-3.718l2.4474-1.2233v61.329l-2.712 0.31866c-1.4916 0.17526-4.758 0.60537-7.2587 0.9558s-5.1796 0.63897-5.9531 0.6412c-1.729 0.00497-2.3214 0.29767-1.8216 0.89993 0.73556 0.8863 2.1123 0.97173 7.0591 0.43804 2.6032-0.28085 6.0726-0.59395 7.7097-0.69578l2.9766-0.18515v49.012l-4.8286-2.4871c-4.4793-2.3071-9.0524-4.2071-12.237-5.084-1.742-0.47968-5.9531-0.79333-5.9531-0.44339 0 0.52568 1.0087 1.1536 2.8703 1.7868 1.0457 0.35568 2.8816 1.0621 4.0796 1.5698 1.198 0.50773 3.6665 1.5342 5.4855 2.2809 1.819 0.74679 4.9444 2.144 6.9453 3.105l3.638 1.7472v2.0695l-0.8599-0.52987c-2.8845-1.7774-5.632-2.6475-10.582-3.3512-4.4722-0.63575-6.8515-0.44626-5.4415 0.4334 0.95862 0.59803 1.9493 0.99618 5.6166 2.2571 1.8799 0.64638 5.1838 2.0697 7.3422 3.1629l3.9242 1.9877v54.42l-1.2568 0.14809c-0.69122 0.0815-2.0307 0.22124-2.9766 0.31065-0.94589 0.0894-2.8509 0.37978-4.2333 0.64527-1.3824 0.2655-2.9682 0.56053-3.5239 0.65563s-3.2346-0.031-5.9531-0.28027c-4.284-0.39278-5.5598-0.4108-9.5729-0.13521-6.5267 0.4482-7.7407 0.78233-6.764 1.8616 0.71314 0.78801 2.5941 1.0376 9.2775 1.231 5.9321 0.17165 6.1721 0.15809 9.525-0.53791l3.4396-0.714 12.039 0.65797v59.633l-1.5214 0.17322c-0.83675 0.0953-3.2088 0.24881-5.2712 0.34121-5.5084 0.24677-7.7908-0.20507-17.814-3.5267-3.9072-1.2948-7.2087-2.1879-8.1359-2.2008-1.8287-0.0254 4.716 2.8661 10.385 4.5881 2.4432 0.74218 5.9591 1.5786 8.9958 2.1402 1.1642 0.21528 3.3668 0.63232 4.8948 0.92675 2.3186 0.44677 7.8651 1.3362 8.3326 1.3362 0.0737 0 0.13403 7.1224 0.13403 15.828v15.828l-2.0505 0.32279c-2.5626 0.40339-7.2702 0.73499-15.941 1.123-13.73 0.61434-13.473 0.61611-18.785-0.12948-2.6921-0.37785-6.4426-0.87265-8.3344-1.0996-5.6682-0.6799-7.4906-1.2891-12.537-4.1907-3.8579-2.2184-5.9931-3.0926-10.085-4.1291-6.7074-1.6989-8.6231-2.5309-13.494-5.8606-3.1899-2.1807-4.7625-2.8175-4.7625-1.9287 0 0.75102 2.7947 3.2765 5.424 4.9015 6.1008 3.7706 11.214 6.844 12.253 7.3655 1.5461 0.77584 3.8694 1.4556 7.1938 2.1049 1.528 0.2984 4.9288 1.1913 7.5575 1.9841 7.1582 2.1591 9.8878 2.5769 26.971 4.1287 12.542 1.1393 17.025 1.028 24.805-0.61587l1.7859-0.3774v35.125h-0.58035c-0.55052 0-3.0974 0.17378-11.855 0.80893-2.11 0.15304-6.9916 0.62783-10.848 1.0551-7.8273 0.86723-11.554 0.95785-14.684 0.35706-1.1642-0.22347-3.7835-0.5538-5.8208-0.73406-3.6136-0.31975-3.7753-0.36108-6.6146-1.6907-1.6007-0.74959-4.3392-1.9171-6.0854-2.5944-5.0295-1.9509-8.1381-3.5138-12.965-6.5183-2.4738-1.54-5.425-3.2878-6.5582-3.884-1.1332-0.59626-2.9675-1.6963-4.0764-2.4446-2.5199-1.7004-6.8937-3.8062-8.8123-4.2426-2.4998-0.56867-8.6704-0.43262-12.171 0.26831-2.931 0.58693-3.9688 1.0554-3.9688 1.7916 0 0.82661 0.94829 0.86148 5.5728 0.20495 2.5375-0.36026 5.0224-0.76568 5.5222-0.90096 1.4118-0.38217 4.2284 0.39145 7.6904 2.1122 1.6735 0.8318 4.1143 1.9537 5.424 2.493 1.3097 0.53938 3.2147 1.5663 4.2333 2.282 8.9629 6.2977 10.036 6.9036 16.14 9.1169 1.3097 0.47488 3.7505 1.5244 5.424 2.3324 1.8602 0.89811 4.1224 1.7409 5.8208 2.1687 1.528 0.38483 3.8742 1.1085 5.214 1.6081 2.3109 0.86177 2.6107 0.90836 5.8459 0.90836 1.8755 0 5.299 0.13076 7.6077 0.29054 4.7315 0.3275 7.6751 0.11856 13.543-0.96136 4.0424-0.74396 9.1214-1.1797 13.761-1.1806h3.2412v8.4667h-129.81l-0.9113-0.66654c-1.4715-1.0763-8.397-8.2933-8.0801-8.4203 0.15931-0.0638 1.1231-0.73782 2.1417-1.4977 1.0186-0.75991 3.2808-2.0817 5.0271-2.9373 2.2386-1.0968 4.0724-2.2603 6.2177-3.9451 4.2579-3.3438 7.6242-5.231 14.883-8.3434 0.98227-0.42119 1.7859-0.87111 1.7859-0.9998 0-0.12872-0.20836-0.1473-0.46302-0.0413-0.90532 0.37682-3.1431 1.2295-5.5221 2.1041-1.3273 0.48797-3.2918 1.2952-4.3656 1.7938-2.5588 1.1882-10.633 6.1557-12.57 7.7334-1.6966 1.382-3.0595 2.1263-6.1018 3.332-1.1364 0.45037-2.4538 1.0574-2.9274 1.3488l-0.86122 0.52996-2.0492-1.1746c-1.1271-0.64606-3.3549-1.7545-4.9507-2.4632-3.3805-1.5012-5.8877-3.0951-8.4756-5.3881-1.0186-0.90258-2.9236-2.3622-4.2333-3.2437-1.3097-0.88143-2.7579-1.9576-3.2183-2.3916-1.3194-1.2436-1.9196-0.37459-0.89816 1.3005 0.28148 0.46164 1.0754 1.3546 1.7643 1.9844 0.68889 0.62976 2.4963 2.377 4.0164 3.8828 3.3183 3.2869 5.6578 4.867 9.4813 6.4037 2.5464 1.0234 6.901 3.3011 9.6707 5.0582 0.53489 0.33933 2.2241 1.8374 3.7538 3.329l2.7812 2.7114h-112.41z" fill="#fedf9f" stroke-width=".18271"/> <path d="m422.82 114.51-5.3376 0.50798 9.4532 8.907s3.1332 4.4808 3.5553 4.6002c0.42211 0.11947 18.594 16.371 18.594 16.371s3.3343 2.3677 2.9848 2.7316c-0.34941 0.36396-7.3401 0.96841-7.3401 0.96841l-49.995-1.0485-36.339 3.0954c-0.33196 0.16656-1.5988 0.26156-3.8013 0.32349-8e-4 2e-5 -2e-3 -2e-5 -3e-3 0l-0.2992 0.0258s-0.30085-8e-3 -0.3638-9e-3c-5.4e-4 1e-5 -1e-3 -1e-5 -2e-3 0-2.1021 0.0474-4.8128 0.0775-9.1457 0.0884-12.557 0.0315-15.735 0.14634-18.521 0.66921-3.6171 0.67884-9.1892 1.3348-13.229 1.557-3.8942 0.21416-8.5882 0.69669-8.799 0.90485-0.0373 0.0368-0.0373 9.2007 0 20.364l0.0677 20.296 1.8588-1.2805c2.1299-1.4673 8.545-5.6381 14.148-9.1984 6.0735-3.859 17.044-9.2271 17.928-8.8238 2.2413-1.8392 15.377-11.862 35.999-11.862 3.2389 0 6.6577 0.25079 10.242 0.82424 28.672 4.5876 44.729 13.253 47.278 14.91 0.79018 0.51362 2.6183 1.6158 4.6679 2.8407l6.3273-0.81081c0.18738-0.0436 0.36851-0.0862 0.55656-0.13022l18.66-6.5758s1.7969-0.45646 3.1941-0.81132c2.707-1.0776 5.0416-2.0568 6.226-2.668 1.3276-0.68521 4.7541-1.0353 8.7028-1.2035 3.577-0.86416 7.1559-1.1257 10.272-1.0961 5.5482 0.0528 9.6309 1.003 9.6309 1.003 6.3315-1.082 12.68 0.012 18.579 1.7012 1.4203 0.26133 4.1286 1.021 7.3179 2.0779 3.3051 1.0953 5.7226 1.8549 7.7375 2.404 2.1467 0.40647 4.1277 0.76562 6.1128 1.1198 1.2298 0.0773 2.4799 0.0696 3.9636 3e-3 2.0624-0.0924 4.4342-0.24628 5.271-0.34158l1.5214-0.17312v-59.633l-12.039-0.65836-3.4396 0.71417c-3.3529 0.696-3.5929 0.7096-9.525 0.53795-6.6834-0.19339-8.5643-0.44292-9.2775-1.2309-0.0484-0.0535-0.065-0.0973-0.10232-0.14728-11.335-0.15562-32.895-0.30905-47.148 0.50798-20.007 1.1469-37.095-0.40721-37.095-0.40721l-10.408-1.2614s0.74574-0.37444 1.3586-0.68265zm100.16 0.12868c-1.5767 0.10827-2.8353 0.21098-3.8334 0.31884 1.0029-0.10766 2.2489-0.21004 3.8334-0.31884zm-4.9403 0.45888c-0.0486 7e-3 -0.11247 0.014-0.15917 0.0212 0.047-7e-3 0.11026-0.0141 0.15917-0.0212zm-0.97307 0.17725c-0.0389 9e-3 -0.091 0.0172-0.12764 0.0264 0.0369-9e-3 0.0885-0.0173 0.12764-0.0264zm-0.67025 0.20774c-0.0221 0.01-0.0541 0.0185-0.0744 0.0284 0.0205-0.01 0.0521-0.0186 0.0744-0.0284zm-194.24 35.584c-1.1814 0.10008-2.37 0.19022-3.5409 0.26923 1.1708-0.079 2.3595-0.16915 3.5409-0.26923zm-8.0114 0.51314c-0.69885 0.0305-1.4125 0.0642-2.0572 0.0832 0.64474-0.019 1.3582-0.0527 2.0572-0.0832zm203.36 20.01c-0.0399 0.0177-0.0546 0.0438-0.0532 0.0754-1.1e-4 -0.0311 0.0128-0.058 0.0532-0.0754zm-0.0522 0.10025c2e-3 7e-3 0.0132 0.0168 0.017 0.0243-4e-3 -7e-3 -0.015-0.0174-0.017-0.0243zm0.44804 0.38344c0.0329 0.0206 0.0879 0.0476 0.12402 0.0692-0.0352-0.0213-0.092-0.0489-0.12402-0.0692zm-207.43 20.315c-0.37066 0.27418-0.71654 0.54269-1.0713 0.81339 0.35482-0.27077 0.7005-0.53914 1.0713-0.81339z" fill="#fff0f2" stop-color="#000000" stroke-linecap="square" stroke-width=".10963" style="paint-order:markers stroke fill"/> <path d="m374.23 163.69c-20.622 0-33.758 10.023-35.999 11.862 0.0375 0.0171 0.0636 0.0405 0.0636 0.0791 0 0.33006-4.5324 3.0682-8.9958 5.4348-2.5466 1.3502-5.6422 2.9928-6.8792 3.6499-4.8042 2.5521-11.334 6.9478-15.478 10.42l-2.6458 2.2164-0.0672 23.092-0.0677 23.092 2.1549-1.665c1.1852-0.91585 3.7756-3.0202 5.7562-4.6762 10.176-8.5079 13.191-10.001 22.254-11.019 4.0606-0.45606 6.4162-0.92431 10.716-2.1306 2.3438-0.65759 3.099-0.74408 6.6146-0.75758 4.1785-0.0161 5.2774 0.0641 10.758 2.5998 9.3234 2.9024 17.532 8.2945 22.289 11.895-0.32977-1.0433 0.24903-1.4147 1.3059-0.41858 0.46037 0.43392 1.9087 1.5102 3.2184 2.3916 1.3097 0.88146 3.2147 2.3412 4.2333 3.2437 2.5879 2.293 5.0949 3.887 8.4754 5.3883 1.5958 0.70869 3.8241 1.8168 4.9511 2.4629l2.049 1.1746 0.86145-0.52968c0.47367-0.29147 1.7905-0.89839 2.927-1.3488 3.0423-1.2057 4.4054-1.9501 6.102-3.3321 1.9368-1.5777 10.011-6.5452 12.57-7.7334 1.0738-0.49861 3.0383-1.3057 4.3656-1.7937 2.0493-0.7534 3.6785-1.3821 4.7568-1.8128 1.8562-0.89542 3.5298-1.6577 4.9563-2.2495-7e-3 -0.044-0.0238-0.0816-0.0238-0.13126 0-0.73623 1.0378-1.2047 3.9688-1.7916 3.5004-0.70093 9.671-0.83739 12.171-0.26872 1.9186 0.43646 6.2924 2.5422 8.8124 4.2426 1.1089 0.74826 2.9431 1.8486 4.0762 2.4448 1.1331 0.59627 4.0844 2.344 6.5582 3.884 4.8265 3.0044 7.9351 4.5676 12.965 6.5185 1.7462 0.67733 4.4847 1.8446 6.0854 2.5942 2.8393 1.3296 3.001 1.3711 6.6146 1.6908 2.0373 0.18026 4.6567 0.51034 5.8208 0.73381 3.1299 0.60079 6.8571 0.51014 14.684-0.35709 3.8563-0.42725 8.7379-0.90167 10.848-1.0547 8.7577-0.63515 11.305-0.80926 11.855-0.80926h0.58033v-35.125l-1.7859 0.37775c-7.7792 1.6439-12.262 1.7548-24.805 0.61547-17.083-1.5518-19.812-1.9694-26.97-4.1284-2.6287-0.79285-6.0297-1.686-7.5577-1.9844-3.3245-0.64928-5.6477-1.3289-7.1939-2.1048-1.0393-0.52152-6.1522-3.5949-12.253-7.3654-1.5759-0.97397-3.1992-2.2664-4.2566-3.3114l-18.754-9.4227s-12.616-7.3909-15.165-9.0475c-2.5487-1.6566-18.605-10.322-47.278-14.91-3.5841-0.57345-7.0029-0.82424-10.242-0.82424zm101.67 38.314c1.7885 0.72387 3.8257 1.3213 6.8559 2.0888 4.0922 1.0365 6.2273 1.9111 10.085 4.1295 5.046 2.9016 6.8685 3.5106 12.537 4.1904 1.8918 0.22691 5.6422 0.72183 8.3344 1.0997 5.3124 0.74559 5.0549 0.74353 18.785 0.12919 8.6709-0.38798 13.379-0.71954 15.941-1.1229l2.0505-0.32246v-4.4204c-20.877 0.11999-68.288-5.0723-74.589-5.7717z" fill="#e290b7" stop-color="#000000" stroke-linecap="square" stroke-width=".10963" style="paint-order:markers stroke fill"/> <path d="m321.33 67.919c-0.93439-0.03683-1.98 0.05752-3.2324 0.26924-4.1541 0.70225-8.1677 2.2662-12.379 4.8245l-1.5518 0.94258v77.75l5.2255-2e-3c1.6203-5.3e-4 3.6322-0.0609 5.8224-0.17053 1.1245-0.0727 2.2511-0.14123 3.3946-0.2005 1.1735-0.0791 2.365-0.16943 3.5491-0.26975 4.1473-0.35138 9.7433-0.71331 12.435-0.80461 2.6921-0.0913 6.264-0.29388 7.9375-0.4501 5.6439-0.52683 15.548-0.16931 16.009 0.57775 0.0619 0.10013-1e-3 0.18098-0.14624 0.25373l36.339-3.0954 49.995 1.0485s6.9907-0.60445 7.3401-0.96841c0.34944-0.36396-2.9848-2.7316-2.9848-2.7316s-18.172-16.252-18.594-16.371c-0.42215-0.11947-3.5553-4.6002-3.5553-4.6002l-12.704-11.97s-10.747-7.3501-18.113-9.5803c-7.3664-2.2302-13.179-1.1041-17.504 0.24753-4.3252 1.3516-8.9002-0.26428-12.57 0.31574-3.67 0.58003-13.094-7.9977-17.165-16.535-4.0712-8.5378-14.262-12.869-15.727-13.697-0.61204-0.34593-2.6013-1.508-5.1041-2.6856-0.34373 0.36924-1.05 0.1563-2.5265-0.75499-1.3842-0.8544-2.6331-1.2801-4.1904-1.3415zm33.263 83.044c-0.20712 6e-3 -0.43819 0.0114-0.66714 0.0165 0.0612 2e-3 0.36535 9e-3 0.36535 9e-3z" fill="#d9c7e7" stop-color="#000000" stroke-linecap="square" stroke-width=".10963" style="paint-order:markers stroke fill"/> <path d="m531.2 50.942c-1.7285-0.02336-3.4665 0.12322-5.1832 0.48886-13.733 2.9251-17.96 7.2363-17.96 7.2363s-10.292 6.9614-12.65 14.799c-2.3576 7.8372-8.2832 16.375-8.2832 16.375l-2.4851 4.2049s-3.5696-19.452-17.491-14.586c-13.922 4.8659-18.743 19.013-26.177 24.419-7.434 5.4065-19.509 11.309-19.509 11.309l10.408 1.2614s17.088 1.5541 37.095 0.40721c14.253-0.81703 35.813-0.6636 47.148-0.50798-0.71447-0.95753 0.66329-1.2886 6.8662-1.7146 4.0131-0.27559 5.2891-0.25739 9.5731 0.13539 2.7185 0.24927 5.3974 0.37518 5.9531 0.28008s2.1414-0.38975 3.5238-0.65525c1.3824-0.26549 3.2874-0.55604 4.2333-0.64544 0.94587-0.0894 2.2853-0.22908 2.9766-0.31058l1.2568-0.14831v-54.42l-3.9243-1.9875c-2.1583-1.0932-5.4623-2.5167-7.3422-3.1631-3.6672-1.2609-4.6576-1.6592-5.6162-2.2572-0.25769-0.16076-0.38609-0.29803-0.40101-0.41186-0.66821-0.05788-1.3388-0.09943-2.0118-0.10852z" fill="#fab9cf" stop-color="#000000" stroke-linecap="square" stroke-width=".10963" style="paint-order:markers stroke fill"/> <path d="m490.36 168.97c-3.3289-0.0317-7.1856 0.25958-11.004 1.2733-10.182 2.7033-17.391 4.5057-17.391 4.5057l-18.923 6.6683-7.0285 0.90072s20.851 11.65 29.877 15.786c-0.82835-0.7885-1.386-1.4683-1.386-1.7983 0-0.88881 1.5726-0.25209 4.7625 1.9286 4.8707 3.3297 6.7864 4.1618 13.494 5.8606 4.0922 1.0365 6.2273 1.9111 10.085 4.1295 5.046 2.9016 6.8685 3.5106 12.537 4.1904 1.8918 0.22691 5.6422 0.72183 8.3344 1.0997 5.3124 0.74559 5.0549 0.74353 18.785 0.12919 8.6709-0.38798 13.379-0.71954 15.941-1.1229l2.0505-0.32246v-15.827c0-8.7051-0.0601-15.828-0.13384-15.828-0.46756 0-6.0142-0.88907-8.3328-1.3358-1.528-0.29443-3.7306-0.71179-4.8948-0.92707-3.0367-0.56156-6.5526-1.3977-8.9958-2.1399-5.6689-1.722-12.214-4.6138-10.385-4.5884 0.17036 2e-3 0.49836 0.0642 0.81804 0.12299-5.8996-1.6892-12.248-2.7832-18.579-1.7012 0 0-4.0827-0.95024-9.6309-1.003z" fill="#b39bca" stop-color="#000000" stroke-linecap="square" stroke-width=".10963" style="paint-order:markers stroke fill"/> <path d="m425.4 35.704c5.9699-1.1751 11.906-4.3991 16.352-8.8809 5.9708-6.0193 8.6095-14.997 6.6691-22.69-0.63049-2.4999-2.4699-6.7124-4.2764-9.7938-2.6559-4.5301-6.6514-8.1945-11.528-10.573-4.3326-2.113-12.12-4.2118-14.535-3.9173-2.2995 0.28042-7.4564 1.8719-10.406 3.2115-4.7119 2.1398-8.7337 5.93-12.867 12.126-1.2812 1.9205-1.8345 2.9705-2.8494 5.4067-3.6256 8.7031-2.9988 16.004 1.9975 23.266 1.4772 2.147 5.0662 5.6634 7.2193 7.0736 4.0093 2.6258 8.5175 4.2473 13.972 5.0254 2.4896 0.35515 7.8299 0.22279 10.253-0.25413z" fill="#cd576c" stroke-width=".18271"/> <path d="m345.04 224.05c-1.0748 0.30157-2.0282 0.55706-2.9171 0.77773 0.88889-0.22067 1.8423-0.47616 2.9171-0.77773zm-2.9171 0.77773c-0.88889 0.22066-1.7131 0.40652-2.5301 0.56895 0.81695-0.16243 1.6412-0.34829 2.5301-0.56895zm-2.5301 0.56895c-0.81695 0.16243-1.6266 0.30152-2.4856 0.4284 0.85904-0.12688 1.6687-0.26597 2.4856-0.4284zm-2.4856 0.4284c-0.85903 0.12688-1.7676 0.24152-2.7828 0.35554 1.0152-0.11402 1.9237-0.22866 2.7828-0.35554zm14.819-0.64802c-2.1341 0.0341-4.4913 0.28343-7.3727 0.71158-11.474 1.705-12.637 2.1025-21.256 7.2647-2.1569 1.2919-5.41 3.1546-7.229 4.1393-4.6118 2.4966-7.2957 4.324-9.7756 6.657l-2.1306 2.0045v8.0424l5.2e-4 8.0419h112.19c-0.23249-0.30487-0.42044-0.55395-0.64957-0.85472l-1.9043-1.8562c-1.5297-1.4916-3.2189-2.9897-3.7538-3.329-2.7697-1.7572-7.1243-4.0352-9.6707-5.0586-3.8235-1.5367-6.1628-3.1169-9.4811-6.4038-1.5201-1.5057-3.3279-3.2527-4.0168-3.8824-0.68888-0.62976-1.4828-1.5227-1.7642-1.9844-0.20338-0.33356-0.33976-0.63313-0.42168-0.89245-4.7534-3.5965-12.943-8.9728-22.245-11.875 1.5616 0.72418 3.4173 1.6129 5.8808 2.7988 3.7294 1.7953 3.7216 1.7908 3.5295 1.9828-0.13124 0.13126-1.0602-0.22037-5.8715-2.2236-5.7446-2.3918-9.3604-3.358-14.055-3.283zm33.363 11.684c0.0116 5e-3 0.0223 8e-3 0.0341 0.0134-0.0119-5e-3 -0.0225-8e-3 -0.0341-0.0134zm0.31884 0.1819c0.0202 0.0141 0.0413 0.0297 0.062 0.045-0.0208-0.0154-0.0417-0.0308-0.062-0.045zm1.6903 1.3539c0.58334 0.43348 1.2727 0.92302 1.9275 1.3637-0.65484-0.44072-1.3442-0.93026-1.9275-1.3637zm-78.405 1.419c-1.0433 0.84757-1.9871 1.6024-2.5797 2.0603 0.5926-0.45792 1.5364-1.2128 2.5797-2.0603z" fill="#b39bca" stop-color="#000000" stroke-linecap="square" stroke-width=".10963" style="paint-order:markers stroke fill"/> <path d="m457.14 232.31c-0.21889 0.0121-0.41729 0.0416-0.59376 0.0894-0.4997 0.13528-2.9847 0.54046-5.5222 0.90072-4.3465 0.61705-5.4326 0.61439-5.549-0.0734-1.4265 0.59178-3.1001 1.354-4.9563 2.2495 0.17347-0.0693 0.63987-0.23923 0.76533-0.29145 0.25466-0.106 0.46302-0.0874 0.46302 0.0413 0 0.12869-0.80367 0.57875-1.7859 0.99994-7.2586 3.1124-10.625 4.9994-14.883 8.3432-2.1454 1.6848-3.9791 2.8482-6.2177 3.945-1.7462 0.85561-4.0084 2.1774-5.0271 2.9373-1.0186 0.75991-1.9822 1.4338-2.1415 1.4976-0.31686 0.12697 6.6086 7.3444 8.0801 8.4207l0.91106 0.66663h129.81v-8.4667h-3.2412c-4.6392 9.2e-4 -9.718 0.43633-13.76 1.1803-5.8682 1.0799-8.8119 1.2892-13.543 0.9617-2.3087-0.15978-5.7323-0.29094-7.6078-0.29094-3.2352 0-3.5347-0.0462-5.8456-0.90795-1.3397-0.49959-3.6862-1.2233-5.2142-1.6082-1.6985-0.42778-3.9606-1.2708-5.8208-2.1689-1.6735-0.80793-4.1143-1.8573-5.424-2.3322-6.104-2.2133-7.1767-2.8195-16.14-9.1173-1.0186-0.71573-2.9236-1.7427-4.2333-2.282-1.3097-0.53934-3.7505-1.6611-5.424-2.4929-3.0292-1.5056-5.5645-2.2858-7.0967-2.2014z" fill="#fab9cf" stroke-width=".18271"/> <path d="m372.53-76.631c-0.49469 0-0.89969 0.06262-0.89969 0.13901 0 0.28365 1.9524 4.0082 2.7817 5.3067 0.47229 0.73942 1.7851 2.3825 2.9171 3.6515 1.7104 1.9173 2.1742 2.2935 2.744 2.2273 1.0785-0.12532 1.0568-1.1297-0.0496-2.2939-0.50192-0.52818-1.4229-1.7346-2.0464-2.6805-0.62345-0.94588-1.9017-2.7616-2.8407-4.0349-1.5645-2.1216-1.7823-2.3151-2.6066-2.3151zm41.335 0c-1.3568 0-1.4925 0.05295-1.527 0.59531-0.11333 1.7814 0.12782 4.6436 0.61546 7.3086 0.551 3.011 0.56122 4.5564 0.062 9.1627-0.12612 1.1637-0.0611 1.8534 0.24236 2.5797h-5.2e-4c0.49933 1.1951 0.82551 1.2457 1.3606 0.21084 0.50012-0.96672 0.5023-2.7875 7e-3 -5.0405-0.48654-2.2117-0.49464-4.7866-0.0222-7.06 0.20609-0.99178 0.4596-3.143 0.56327-4.7801l0.18862-2.9766zm35.978 0c-1.0495 0-1.1786 0.07039-1.3338 0.7276-0.0945 0.40018-0.99167 2.9898-1.9937 5.7547-2.9366 8.1033-3.7532 11.19-3.3207 12.553 0.0951 0.2995 0.26563 0.54415 0.37879 0.54415 0.30763 0 0.95846-0.80948 1.4841-1.8459 0.37067-0.73076 5.9469-17.268 5.9469-17.637 0-0.05297-0.52262-0.09663-1.1617-0.09663zm-126.72 0.04289c-0.17443-0.02109-0.36444-0.01403-0.59893 0.0052l-1.0325 0.08423 1.1906 0.78342c1.7606 1.1583 5.33 3.9487 6.0658 4.7423 0.76362 0.82368 1.078 0.87579 1.078 0.17828 0-0.32082-0.6209-0.98127-1.6536-1.7596-0.90951-0.68544-2.3199-1.8916-3.1347-2.6799-1.0097-0.97695-1.3913-1.2906-1.9146-1.3539zm175.35 2.1389c-0.0305-3.97e-4 -0.069 6e-3 -0.11472 0.01912-1.3707 0.39453-9.411 6.8011-14.785 11.838-4.6393 4.3482-5.4981 5.3256-5.7397 6.5335-0.16247 0.81234-0.13001 0.85886 0.60307 0.85886 1.1506 0 2.8573-1.2279 5.3712-3.8644 1.2341-1.2943 3.3767-3.4249 4.761-4.7346 7.7531-7.3353 10.421-10.179 9.972-10.628-0.0147-0.01466-0.0372-0.02182-0.0677-0.02222zm-168.25 4.4328c-0.47642 0 0.25162 0.70086 3.3021 3.1776 7.0868 5.7538 11.957 9.2262 17.066 12.168 2.3874 1.3747 3.3146 2.1046 5.1594 4.0602 5.7941 6.1421 8.4247 8.4966 10.186 9.1183 1.0182 0.35928 1.4616 0.29363 1.8164-0.26975 0.3724-0.59136-0.30679-1.5256-2.2381-3.0768-0.78655-0.63177-2.5977-2.2376-4.0246-3.5688-2.9629-2.7642-4.7111-4.0364-8.4713-6.1655-1.4613-0.82739-3.8555-2.4123-5.3206-3.5223-1.4651-1.1099-3.676-2.7191-4.9129-3.576-1.2369-0.85688-2.9702-2.1672-3.852-2.9114-1.3991-1.181-8.2163-5.4333-8.7106-5.4333zm220.09 3.9688c-0.2085 0-1.4732 0.92929-3.7956 2.7895-2.5635 2.0533-5.3865 3.8713-8.2021 5.2818-3.0897 1.5479-5.2602 2.9166-5.4627 3.4442-0.0839 0.21866 4e-3 0.58634 0.19534 0.817 0.79778 0.96126 3.4336-0.14708 8.7809-3.6923 2.0695-1.3721 4.8639-3.0453 6.21-3.7181l2.4474-1.2232v-1.8495c0-1.0172-0.0777-1.8495-0.17311-1.8495zm-168.8 3.7042c-0.46451 0-0.35056 0.50186 0.59221 2.6086 0.75728 1.6922 2.0881 3.5808 4.0023 5.6792 0.77314 0.84754 1.9345 2.4577 2.5807 3.5781s2.0896 3.1047 3.2076 4.4096c2.4646 2.8767 3.1383 3.9171 3.9744 6.1386 0.91779 2.4383 1.5963 3.6848 2.2577 4.1481 0.80837 0.5662 1.0186 0.31656 0.7028-0.83354-0.37413-1.3625-0.81568-2.1815-2.7492-5.0963-0.91904-1.3855-2.2822-3.7383-3.0293-5.2281-1.0384-2.0708-1.8675-3.2623-3.5192-5.0591-1.356-1.4752-2.6908-3.2921-3.5848-4.8793-1.5026-2.6676-3.7732-5.4658-4.4354-5.4658zm60.665 8.9958c-1.0381 0-5.0166 12.327-4.5625 14.136 0.22723 0.90535 0.53739 0.858 1.1767-0.17932 0.80154-1.3006 1.7917-4.3896 2.8195-8.7974 1.0171-4.3621 1.1044-5.1594 0.56637-5.1594zm-137.88 0.79375c-0.0757 0-0.13797 0.76547-0.13797 1.7007v1.7002l1.4366 0.82217c0.79013 0.45207 2.844 1.8516 4.5641 3.1099s3.9609 2.7751 4.9795 3.3709c2.574 1.5055 7.8133 3.9494 10.186 4.7516 2.0679 0.69905 3.9688 0.88979 3.9688 0.39842 0-0.15716-0.68461-0.96084-1.5214-1.7859-1.063-1.0482-2.717-2.1714-5.4901-3.729-3.9339-2.2096-8.035-4.6591-11.455-6.8409-1.643-1.0483-6.2169-3.498-6.5314-3.498zm169.54 1.8583c-0.1859-0.07021-0.56819 0.388-3.2964 3.7-1.3795 1.6747-3.8683 4.2922-5.5309 5.8162-5.1794 4.7475-8.0021 7.7146-9.8185 10.321-1.7759 2.5485-3.8949 4.7205-6.7117 6.8792-2.3914 1.8327-3.394 3.7627-2.4469 4.7098 0.17462 0.17462 0.62722 0.31729 1.0061 0.31729 0.95067 0 2.0635-1.2584 3.4546-3.9067 1.5418-2.9353 2.2194-3.7002 5.5097-6.2234 3.6985-2.8362 5.5358-4.7037 9.9488-10.11 3.6219-4.4375 8.2757-11.131 7.9592-11.447-0.0248-0.02482-0.0473-0.04578-0.0739-0.05581zm-59.088 0.76688c-0.39963-0.03483-0.60439 1.2171-0.71675 3.9894-0.11457 2.8271-0.0822 3.0943 0.4532 3.7703 1.2132 1.5319 2.9159 0.26622 2.529-1.88-0.25279-1.4026-1.11-4.1281-1.5901-5.0565-0.27184-0.52568-0.49376-0.80738-0.67541-0.82321zm109.44 0.35967c-0.0828-0.08283-1.1951 0.50961-2.4717 1.3162-4.1859 2.6448-5.8764 3.4672-12.375 6.0219-5.4061 2.125-9.7225 4.6022-13.361 7.6683-0.50932 0.42914-0.78789 0.78365-0.61909 0.78755 0.63303 0.01468 6.9449-2.4664 9.7472-3.8313 2.6112-1.2718 11.572-6.4622 14.288-8.276 2.4481-1.6352 4.933-3.5465 4.793-3.6866zm-153.77 11.832c-0.74973 0 1.733 2.8191 3.8401 4.3605 1.1124 0.81379 2.1311 0.88946 2.1311 0.15813 0-0.67303-2.2422-2.6091-4.2499-3.6695-0.88373-0.46679-1.6585-0.84904-1.7213-0.84904zm45.389 2.249c-0.71172 0-1.1599 1.5036-1.2692 4.2581-0.10513 2.6504-0.10057 2.6747 0.6196 3.2411 0.83948 0.66034 0.93208 0.67387 1.8247 0.26717 1.0719-0.48838 1.3165-1.698 0.78651-3.8938-0.5139-2.1291-1.3971-3.8726-1.9616-3.8726zm20.846 0.78238c-0.68581 0.11574-3.3786 7.1128-3.3786 8.8754 0 0.45095 0.18807 0.87205 0.4563 1.0222 0.57955 0.32433 1.3379-0.05846 1.6635-0.84026 0.28032-0.67323 1.2069-5.5074 1.4387-7.505 0.0981-0.84515 0.0522-1.4351-0.11988-1.5415-0.0178-0.01099-0.0378-0.01459-0.06-0.01085zm-35.143 3.7243c-0.49054 0.30317 1.0104 4.2785 2.0696 5.4813 0.50199 0.57007 0.7025 0.57804 1.233 0.04754 0.55753-0.55753 0.553-0.57709-0.52761-2.3782-1.0255-1.7092-2.4642-3.3428-2.775-3.1507zm-23.573 0.31884c-0.0971-0.01724-0.15868 0.0017-0.1788 0.06201-0.18659 0.55977 1.6952 2.6735 4.2695 4.7961 4.3091 3.553 6.2643 5.6579 7.5479 8.1251 0.62209 1.1957 1.4503 2.4704 1.8407 2.8324 1.2993 1.2048 3.0676 0.66565 3.0226-0.92139-0.0319-1.1234-0.46633-1.5726-5.0793-5.2524-2.1067-1.6806-4.9047-4.1444-6.2177-5.4756-2.1064-2.1356-4.5253-4.0454-5.2048-4.1662zm-39.405 0.10542c-0.82677-0.04434 0.48929 0.99828 4.1481 3.3042 3.4836 2.1955 5.4068 3.1967 7.5153 3.9114 3.5263 1.1953 4.2526 0.64826 1.5875-1.1953-1.4152-0.97896-11.308-5.5784-12.766-5.9356-0.20498-0.0502-0.36661-0.07841-0.48472-0.08475zm147.45 1.8211c-0.40922 0.03853-1.309 0.33418-2.7001 0.88573-4.1137 1.631-7.7778 3.5154-10.207 5.2488-5.4105 3.8614-8.7433 5.7688-13.985 8.0036-3.8497 1.6414-5.1759 2.5238-5.1759 3.4432 0 0.34427 0.14882 0.68573 0.33072 0.75913 1.3538 0.54628 3.8633-0.70887 8.1359-4.07 1.6735-1.3165 4.063-3.0304 5.3098-3.8086 2.2488-1.4035 2.8564-1.6901 7.0528-3.3238 2.3122-0.90019 5.5187-2.7058 9.2005-5.1811 2.0392-1.371 2.7196-2.0212 2.0376-1.957zm-124 9.6123c-0.11465-0.0046-0.22465-8.9e-5 -0.32969 0.01189-1.4706 0.16766-1.9525 1.8737-0.36174 2.5327 0.42844 0.17746 1.5905 0.53918 2.5828 0.80357 2.0798 0.55416 3.6802 0.65317 3.9331 0.24391 0.44228-0.71563-3.2957-3.1434-5.4668-3.5507-0.12363-0.02319-0.24294-0.03678-0.3576-0.04134zm12.847 5.9826c-0.50296-0.01549-0.817 0.06044-0.817 0.25683 0 0.33705 1.2555 1.2149 4.0917 2.8608 1.3149 0.76305 2.6442 1.388 2.9538 1.3891 1.4373 0.00432 1.4544-1.78 0.0253-2.6515-1.535-0.93614-4.745-1.8087-6.2539-1.8552zm175.37 12.181c-0.53889 0-6.9788 0.81174-10.561 1.3312-1.9645 0.2849-4.2267 0.52046-5.0271 0.52348-1.7793 0.00671-2.3736 0.29462-1.8676 0.90434 0.19084 0.22995 0.71893 0.52602 1.1736 0.65784 0.45464 0.13182 0.90023 0.25043 0.99063 0.26355 0.0904 0.01313 2.293-0.20558 4.8948-0.48628 2.6018-0.28069 6.0699-0.59373 7.707-0.69556l2.9766-0.185v-1.157c0-0.65628-0.12415-1.1565-0.28732-1.1565zm-29.842 2.1875c-1.5066-0.00553-3.1752 0.00641-4.9279 0.039274-6.3975 0.11997-6.8792 0.1627-6.8792 0.60513 0 0.30351 0.33528 0.59706 0.92605 0.8108 1.0075 0.36453 5.8604 0.25662 8.9958-0.19999 0.94588-0.13775 3.2676-0.3298 5.1594-0.42633 1.8918-0.096533 3.6056-0.26345 3.8086-0.37104 0.4988-0.26444-2.563-0.44127-7.0828-0.45785zm-31.459 0.34778c-5.3639 0.077474-9.8452 0.75597-14.083 2.1017-4.9938 1.5858-7.7344 1.6398-13.758 0.27078-1.902-0.43222-3.5241-0.20165-3.8091 0.54105-0.28659 0.74685-0.16848 1.399 0.30334 1.6738 0.64324 0.37465 1.1073 0.35044 2.604-0.13694 0.92897-0.30251 2.5795-0.4458 5.7966-0.50333 6.9435-0.12417 12.71-0.56045 18.785-1.4211 5.4992-0.77896 6.71-0.8995 12.502-1.2464 2.8455-0.17046 3.521-0.37411 2.5177-0.75913-0.25261-0.096938-2.802-0.28784-5.6653-0.42426-0.97369-0.046392-1.919-0.077347-2.8381-0.092501-0.80414-0.01326-1.5886-0.014685-2.3549-0.00362zm-131.59 1.9777c-1.692-0.017-7.9719 1.093-9.7591 1.725-0.65485 0.23156-1.3468 0.47012-1.5379 0.52968-0.19082 0.05956-0.27353 0.2281-0.18293 0.37465 0.379 0.61323 12.615-0.14036 14.139-0.87075 1.5867-0.76047 0.1196-1.7306-2.6593-1.7585zm-35.336 0.18552c-1.2719-0.0092-2.485 0.16719-3.6592 0.52865-1.9893 0.61237-3.0376 1.2164-2.6991 1.5549 0.11565 0.11565 2.1394 0.30111 4.4974 0.41238 2.358 0.11126 4.8229 0.30919 5.4777 0.43977 1.688 0.33657 6.2972 0.35174 7.4745 0.02481 1.0553-0.29307 1.2964-0.86895 0.52916-1.264-0.25466-0.13112-1.5941-0.30663-2.9766-0.39016-1.3824-0.08353-3.466-0.40876-4.6302-0.72244-1.4111-0.38021-2.7418-0.57472-4.0137-0.58394zm52.285 0.06046c-0.68133-0.02246-1.6231 0.11511-2.773 0.41444-1.8024 0.46922-2.2959 0.81153-1.7069 1.1839 0.21706 0.13723 1.4814 0.25112 2.8096 0.25322 2.6018 0.0044 3.209-0.27074 2.8804-1.3059-0.10817-0.34082-0.52894-0.52324-1.2103-0.5457zm-62.445 2.0479c-0.77244 0.0062-2.1451 0.176-4.5455 0.51315l-3.1088 0.43667v1.4314c0 1.2381 0.0624 1.4131 0.46302 1.296 0.25466-0.07439 1.6537-0.45302 3.1088-0.84129 3.4218-0.913 5.0271-1.669 5.0271-2.3668 0-0.3179-0.17221-0.47541-0.94465-0.46922zm66.946 13.566c-0.79837 0-1.2422 0.22808-2.3053 1.1839-1.523 1.3693-2.2237 2.6922-1.6268 3.0701 0.57283 0.36263 1.8632 0.28878 3.3021-0.18862 1.7-0.56403 2.4944-1.2981 2.4944-2.3048 0-1.1227-0.67553-1.7606-1.8645-1.7606zm76.104 0.30231c-0.9151 0.03143-1.291 0.47549-1.1689 1.3369 0.10131 0.71462 0.91083 1.0173 4.7165 1.7627 2.6741 0.52375 5.9454 0.71829 5.7113 0.33951-0.22255-0.36008-3.3509-1.7881-5.8498-2.6701-1.2599-0.44468-2.2501-0.69787-2.9838-0.75706-0.15286-0.01233-0.29457-0.01638-0.4253-0.01189zm-86.806 5.4105c-1.5525 0.03416-5.5147 2.1889-7.8977 4.2948-1.0413 0.92026-2.7902 2.129-3.8866 2.6861-1.0964 0.55718-3.4777 1.8324-5.2917 2.8339s-4.428 2.3526-5.8084 3.0024c-4.1605 1.9583-5.2747 2.6357-7.0146 4.2633-1.0727 1.0035-2.3738 1.8848-3.6587 2.4784-1.0966 0.50666-2.8054 1.5756-3.7977 2.375-1.0155 0.8182-2.672 1.8157-3.7889 2.282-2.806 1.1715-4.992 2.3017-8.2874 4.285-2.8365 1.7072-6.5785 3.5058-11.689 5.6183l-2.6458 1.0935-0.0791 1.4934-0.0791 1.4929 2.1957-0.93483c4.4836-1.9087 16.416-8.5094 21.246-11.753 1.0186-0.68409 2.626-1.584 3.5719-1.9999 0.94589-0.41584 2.6445-1.3294 3.7744-2.0298 1.13-0.70045 2.9531-1.6304 4.0509-2.0665 2.6483-1.052 4.3569-1.9276 6.5944-3.3781 1.0186-0.66036 3.3404-2.0557 5.1594-3.1011s4.2305-2.5042 5.3588-3.2417c1.2477-0.81542 3.0229-1.6642 4.53-2.1663 2.5814-0.86 7.1144-3.3563 8.5778-4.7232 1.5202-1.4201 0.94157-2.8502-1.1348-2.8045zm109.47 1.7002c-0.99435 0.0063-1.6772 0.08711-1.7792 0.25218-0.0872 0.14112 0.29282 0.45145 0.84439 0.68988 3.1579 1.3651 5.6203 2.0654 9.7188 2.7626 2.4848 0.42274 5.5289 1.0041 6.7644 1.2924 1.2356 0.28834 2.6036 0.57275 3.0401 0.632 0.43657 0.05925 0.88304 0.126 0.99218 0.1478s0.19844-0.07867 0.19844-0.22273c0-0.42137-4.5867-2.6046-7.5024-3.5714-1.4762-0.48947-4.1574-1.137-5.9583-1.4387-1.7113-0.2867-3.6676-0.46972-5.2302-0.52607-0.39065-0.01409-0.75685-0.0202-1.0883-0.01809zm-32.463 4.3062c-1.1332-0.05165-1.8638 0.76257-1.5772 1.9048 0.18538 0.73859 3.8372 3.7144 6.0611 4.9392 0.75631 0.41655 1.4202 0.62874 1.5529 0.49609 0.58176-0.58176-4.2618-6.9458-5.5283-7.2636-0.17653-0.04431-0.34662-0.0691-0.5085-0.07648zm-57.709 2.0619c-0.8577 0.11984-1.5622 1.1552-2.9471 3.946-1.296 2.6116-2.598 4.5874-6.1898 9.3927-3.3979 4.5459-4.907 6.815-5.9655 8.969-0.7793 1.5859-1.417 3.1635-1.417 3.5057 0 1.2274 0.83745 0.76884 4.2416-2.3229 2.5743-2.338 3.578-3.9313 5.4364-8.63 2.2855-5.7786 2.5664-6.1914 6.9169-10.158 0.91299-0.83232 1.7176-1.814 1.8195-2.22 0.26398-1.0518-0.17951-2.0572-1.0408-2.3601-0.16815-0.05913-0.32494-0.10057-0.47491-0.12092-0.13122-0.01781-0.25678-0.01919-0.37931-0.0021zm117.62 0.90899c-0.52426 0.32401-0.22557 1.1566 0.70952 1.9777 1.7793 1.5622 4.391 2.4166 9.6247 3.1486 4.0293 0.56359 6.6079 0.68 6.6079 0.29869 0-0.73814-4.3165-2.1976-9.1038-3.0784-2.6098-0.48013-4.2471-0.94258-5.6312-1.5906-1.0734-0.50255-2.0666-0.84287-2.2071-0.75603zm-48.712 6.7495c-0.32367 0.03003-0.49196 0.18496-0.49196 0.46922 0 0.75271 1.5081 1.9989 4.2333 3.498 2.5987 1.4295 7.2467 4.2271 9.7896 5.8927 2.4641 1.6139 2.7631 1.2816 0.81442-0.90486-1.8168-2.0384-4.4565-4.1208-7.5613-5.9655-3.4413-2.0447-5.8131-3.0796-6.7841-2.9895zm-23.967 0.57154c-0.20883-9.62e-4 -0.38856 0.09566-0.68265 0.28835-1.2694 0.83174-1.1163 1.48 1.2444 5.2782 0.56715 0.91253 1.5144 2.1648 2.1053 2.7833 1.4942 1.5639 1.8752 1.5002 1.666-0.27957-0.16607-1.413-1.3148-4.905-2.1358-6.4926-0.24301-0.46994-0.84574-1.0472-1.3395-1.2826-0.41085-0.19594-0.649-0.29411-0.85782-0.29507zm-31.862 0.50281c-0.83761 0.07781-1.7238 0.82916-1.9187 2.1854-0.32763 2.2794-0.95291 7.8254-0.95291 8.4537 0 1.7912 1.0135 0.30189 3.0592-4.4958 0.81173-1.9037 1.4387-3.7723 1.4387-4.2871 0-1.3381-0.78864-1.934-1.6263-1.8562zm127.71 0.28732c-0.41207 0.01382-0.67076 0.05701-0.67076 0.13694 0 0.52568 1.009 1.1538 2.8706 1.787 1.0457 0.35568 2.8813 1.0612 4.0793 1.5679 1.198 0.50671 4.0741 1.7129 6.3913 2.6805 0.92378 0.38574 1.9636 0.84584 2.9662 1.2924l0.0295 0.0052 0.0486 0.02894c1.4831 0.66154 2.8792 1.303 3.7026 1.7219 1.3936 0.7089 2.6295 1.2948 2.7466 1.3022 0.11709 0.0074 0.1767-0.53754 0.1323-1.2113l-0.0806-1.2252-4.4979-2.3399c-4.0046-2.0834-9.7192-4.4449-12.7-5.2483-1.1638-0.31365-3.7816-0.53962-5.0178-0.49816zm-111.55 1.5911c-0.12642 0.0075-0.25886 0.02828-0.39739 0.06304-1.5682 0.3936-1.7441 2.0134-1.324 12.189 0.26106 6.3227 0.14838 7.2028-1.3245 10.349-0.90014 1.9225-0.96196 2.2181-0.93896 4.501 0.0162 1.6014 0.17546 2.8198 0.46147 3.5347 0.34291 0.85701 0.55654 1.0732 0.99735 1.0103 0.77633-0.11078 1.8837-2.385 2.3027-4.7294 0.29265-1.6376 0.2753-2.1695-0.13591-4.1951-0.42008-2.0693-0.43828-2.7594-0.16743-6.395 0.31113-4.1762 0.50986-5.2604 1.7079-9.3302 1.2387-4.2078 0.71516-7.1096-1.1813-6.9975zm61.963 11.91c-0.35817 0.04307-0.69756 0.21888-0.75396 0.39067-0.18473 0.56309 1.6948 2.306 4.0752 3.7791 1.285 0.79522 3.2319 2.1194 4.3264 2.9425s2.7985 1.9913 3.7868 2.5962c0.98828 0.60491 2.5784 1.7631 3.5336 2.5735 0.95527 0.81038 2.0789 1.5926 2.497 1.7384 0.41809 0.14575 0.76017 0.44631 0.76017 0.66818 0 0 1.3446-2.1115 1.3245-2.6774-7e-5 -2e-3 2e-3 -0.0088 2e-3 -0.01085-0.17822 0.14134-0.31339 0.10096-0.50746-0.06718-0.23193-0.20094-0.92049-0.74788-1.5307-1.2154-0.61016-0.46755-1.7012-1.3263-2.4241-1.9084-0.72298-0.58208-2.0444-1.5155-2.9368-2.0743-0.89234-0.55881-2.1776-1.4964-2.8562-2.0836-1.5383-1.3314-8.391-4.7602-9.2961-4.6514zm-38.572 1.4087c-0.5219-0.04278-0.64483 0.51004-0.52142 1.8702 0.1998 2.2022 2.3758 6.2172 5.2245 9.6402 2.4276 2.9171 2.4254 2.0005-0.0103-3.9894-2.1733-5.3445-2.934-6.7197-4.0318-7.2874-0.26833-0.13876-0.48697-0.21932-0.66094-0.23358zm-44.207 0.32556c-0.21148 0.02078-0.4686 0.1291-0.77722 0.31678-1.2099 0.73578-1.9721 2.2268-3.7496 7.3319-1.9791 5.6841-2.4958 8.8108-1.6903 10.231 0.31577 0.55698 2.0731-1.8027 3.514-4.7181 2.1789-4.4086 3.5273-8.503 3.5476-10.773 0.0154-1.7266-0.20997-2.4513-0.84439-2.389zm-27.347 4.8783c-0.94123-0.10923-2.1156 0.92859-3.6003 3.1822-0.66209 1.005-1.7653 2.4448-2.452 3.1993-1.756 1.9292-4.502 6.553-4.502 7.5809 0 0.65511 0.87652 0.14588 2.7332-1.588 1.096-1.0236 2.621-2.7202 3.3889-3.7703s2.0841-2.6558 2.9249-3.5683c1.836-1.9926 2.3882-2.9893 2.2794-4.1124-0.0665-0.68612-0.20995-0.85822-0.77205-0.92346zm80.083 13.854c-0.23097 0.01324-0.45662 0.15845-0.70486 0.40669-1.0572 1.0572-0.71249 2.0241 4.2158 11.83 0.1576 0.31357 0.23203 0.51514 0.26097 0.70642 0.39988-0.4253 1.4174-1.5842 1.7958-2.7952-0.0556-0.06003-0.42833-0.94299-0.82837-1.9616s-1.1976-2.8046-1.772-3.9688c-1.5345-3.11-2.2744-4.257-2.9673-4.2173zm-92.091 1.7477c-0.52558 0.03851-1.291 0.70029-2.3575 2.0257-1.5034 1.8684-2.6023 2.949-4.1393 4.07l-0.93844 0.68471 1.3255 3.3114c-0.0176-0.25424 0.10661-0.44003 0.36639-0.80874 0.28211-0.40043 0.7777-1.2507 1.1012-1.8898 0.32352-0.63909 1.5778-2.2066 2.7874-3.483 2.2213-2.3439 2.7852-3.2599 2.3027-3.7424-0.12416-0.12416-0.27284-0.18078-0.44804-0.16795zm31.636 2.3373c-0.52325 0-2.0399 2.1643-2.7208 3.8824-0.39369 0.99346-1.2039 3.0556-1.8004 4.5827-0.59648 1.527-1.9555 4.4441-3.0205 6.4823s-2.0064 4.0056-2.0919 4.3718c-0.0503 0.21549-0.20818 0.40821-0.47233 0.61908l0.0186 0.0119s2.2806-0.82094 2.9223-0.7059c3.2e-4 -0.11151 0.54757-1.3617 1.2159-2.7781 1.2284-2.6032 4.4106-10.172 5.5656-13.237 0.64042-1.6997 0.82192-3.2293 0.38344-3.2293zm24.039 4.5367c-0.13743 0.0057-0.27404 0.13554-0.53279 0.39429-0.46514 0.46516-0.61172 1.3764-1.1684 7.2595-0.35012 3.7001-0.81986 8.275-1.0439 10.167-0.22399 1.8918-0.4088 3.5812-0.4098 3.7543l2.5161 1.173c0.0925-0.23611 0.332-2.0963 0.53227-4.1336 0.20024-2.0373 0.54858-5.2513 0.77359-7.1422s0.40876-5.057 0.40876-7.0363c0-3.2834-0.0471-3.6414-0.53847-4.0861-0.26195-0.23707-0.4-0.35557-0.53743-0.34985z" fill="#fff0f2" stroke-width=".18271"/> <path d="m421.56-19.428c-2.7112-0.07266-6.394 0.16655-7.7489 0.58498-2.107 0.65068-4.0178 2.1594-3.4494 2.7233 0.11703 0.11611 1.8411 0.17243 3.8308 0.12557 2.5524-0.06011 4.3566 0.04586 6.1278 0.35967 1.3806 0.24462 4.2404 0.52277 6.3552 0.61805l3.8447 0.17312 1.9761 1.341c1.0867 0.73731 2.8686 1.8574 3.96 2.4893 1.0914 0.63188 2.7619 1.8961 3.7119 2.8096 0.95004 0.91353 2.0216 1.7783 2.3812 1.9218 0.84828 0.33853 0.98889 0.34458 1.1715 0.049093 0.24296-0.39311-5.1554-6.9176-6.5422-7.907-0.70041-0.49972-2.7018-1.4054-4.4979-2.0355-1.7798-0.62444-4.1056-1.5023-5.1687-1.9508-1.0631-0.44846-2.7219-0.95287-3.6866-1.1209-0.56555-0.09849-1.3618-0.15716-2.2655-0.18138zm-16.38 2.5141c-1.498-0.14872-2.9758 1.1758-7.0668 5.9552-2.3644 2.7623-3.7603 4.6622-4.5966 6.2554-1.1831 2.2539-3.1033 7.3471-3.0918 8.2011 0.0107 0.79727 0.88722-0.64834 3.4298-5.655 1.3482-2.6548 3.0364-5.6075 3.7512-6.5619 1.5796-2.1093 3.729-3.7681 6.7107-5.1785 2.066-0.97723 2.2417-1.1217 2.2417-1.8407 0-0.61474-0.15427-0.83251-0.72761-1.0273-0.22249-0.0756-0.43661-0.12706-0.6506-0.14831zm40.115 14.352c-0.0337-0.014083-0.0552-0.011155-0.0625 0.010852-0.0573 0.17205 0.44212 1.4745 1.11 2.8944 0.92312 1.9625 1.2553 3.02 1.3839 4.4095 0.17649 1.9067-0.17549 6.0532-0.83975 9.8976-0.43999 2.5464-0.32088 3.5281 0.49713 4.101 1.4536 1.0182 2.3038 0.08 3.2375-3.5719 1.3038-5.0994 1.1207-8.9654-0.56069-11.834-0.95753-1.6339-4.2598-5.6959-4.7656-5.9071zm-55.183 9.2397c-0.13441 0.04151-0.28849 0.34758-0.49299 0.84129-0.44472 1.0737-0.19663 4.0936 0.52606 6.4037 0.30729 0.98226 0.66019 1.7859 0.78394 1.7859 0.42241 0 0.47426-1.9812 0.12092-4.6302-0.44035-3.3014-0.64222-4.4921-0.93793-4.4008zm2.4774 11.779c-0.0969-8.6e-4 -0.18386 0.02391-0.26097 0.0739-0.67785 0.43942-0.50223 2.2464 0.36432 3.7455 1.0662 1.8445 4.6704 5.2762 7.4952 7.1365 3.1669 2.0856 3.5786 2.1501 2.2081 0.34468-0.39704-0.52306-1.576-1.8665-2.62-2.9853s-2.6167-3.0833-3.4954-4.3656c-1.8367-2.6804-3.0127-3.9436-3.6912-3.9496zm53.012 3.9295c-0.21769-0.21769-2.4154 1.6897-3.7884 3.2882-1.7137 1.9951-5.1848 4.9852-6.5598 5.6508-0.62166 0.30094-2.352 0.89649-3.8458 1.3234-3.757 1.0739-6.3744 2.107-6.2539 2.4691 0.0554 0.16651 0.62686 0.50463 1.2697 0.75138 1.4194 0.54482 4.2318 0.60547 5.8229 0.12557 0.64159-0.1935 1.9932-0.75905 3.0034-1.2568 3.4398-1.6947 8.651-7.3783 9.9854-10.89 0.27687-0.72868 0.44169-1.3861 0.36639-1.4614zm-37.576 9.9606c-0.71813-8e-3 -1.2159 0.10244-1.3653 0.34416-0.33092 0.53544 1.7189 2.0368 3.5848 2.6257 0.95506 0.3014 2.8674 0.6389 4.2499 0.75034 1.3824 0.11144 2.8707 0.21865 3.3073 0.23823 1.0916 0.04892 2.7781-0.24938 2.7781-0.49144 0-0.22105-0.0859-0.25107-2.9254-1.0216-1.0998-0.29846-3.2581-0.96381-4.7961-1.4785-1.8277-0.61158-3.6364-0.95356-4.8333-0.96687zm116.35 17.819c-0.89112 0.01872-1.8677 0.21885-2.8556 0.59893-1.0186 0.3919-2.8641 1.0466-4.101 1.4547-3.3624 1.1092-5.3893 2.1076-8.4755 4.1749-3.4678 2.323-7.9387 6.9051-10.154 10.407-0.32206 0.50907-0.5197 0.78639-0.68213 0.91519v5.17e-4l-1.326 2.6877c0 0.62607 0.66631-0.03011 1.9286-1.8996 3.5355-5.2365 5.5399-7.0786 9.5126-8.7442 4.552-1.9084 5.7149-2.5653 8.3483-4.7155 2.5826-2.1086 3.7871-2.6578 6.5366-2.9791 0.87313-0.10206 2.1811-0.38761 2.9063-0.63407 1.2714-0.4321 1.2966-0.45949 0.70487-0.77618-0.64606-0.34576-1.4519-0.50861-2.343-0.48989zm10.597 0.48731c-1.6402-0.01853-2.2238 0.26745-1.3637 0.82527 0.73195 0.47471 3.1389 1.4223 6.5639 2.5833 1.3824 0.46862 4.1804 1.7176 6.2177 2.7755s3.7935 1.9407 3.9026 1.9616c0.10914 0.02092 0.19844-0.8493 0.19844-1.9337v-1.972l-1.5214-0.88728c-2.7293-1.5918-5.0006-2.2701-9.988-2.9833-1.6612-0.23754-3.0254-0.35837-4.0096-0.36949zm-214.26 14.93-3.4473 0.0041c-4.11 0.0047-6.1956 0.50803-10.393 2.5079l-2.712 1.2919v4.5915l0.59531-0.38706c3.3937-2.2073 8.2038-4.3303 11.443-5.0503 4.5571-1.0129 6.8911-0.82486 9.3808 0.75603 1.4908 0.94661 2.2307 1.1289 2.542 0.62528 0.2966-0.47992-0.63785-1.109-4.1098-2.7652zm175.65 5.5438c-0.53571-0.0074-1.46 1.4-2.5079 3.854-0.75392 1.7656-1.5766 3.1631-2.5135 4.27-1.1243 1.3283-1.4991 2.0311-1.9461 3.6463-0.57156 2.0653-3.6668 8.533-4.1088 8.5855-0.13713 0.01629-0.61338-0.86762-1.0583-1.9642-1.1106-2.7372-1.965-4.1062-3.6716-5.8823-2.4999-2.6018-2.5731-2.0423-0.32039 2.452 0.76585 1.528 1.7264 3.552 2.1348 4.4979 0.40839 0.94588 1.0309 2.1139 1.3834 2.5952 0.44029 0.60119 0.81719 0.84955 1.2046 0.79375 1.0562-0.15224 5.5414-7.1079 6.6213-10.268 1.5332-4.4866 2.6006-6.9592 3.683-8.5318 1.266-1.8396 1.8008-3.4614 1.3048-3.9574-0.0599-0.05988-0.12863-0.08989-0.20516-0.09095zm-167.29 0.09819c-0.34768-0.0048-0.56379 0.01919-0.56379 0.07286 0 0.29882 1.5428 1.154 3.3073 1.833 9.9762 3.839 11.672 5.3931 17.263 15.826 3.1782 5.9315 3.7386 6.5123 12.999 13.462 2.3297 1.7484 3.4885 2.0329 7.46 1.8319 1.8713-0.0947 3.9542-0.0562 4.7082 0.0868 1.7477 0.33144 3.8863-0.053 9.4289-1.6955 3.7614-1.1146 4.4398-1.2408 6.0854-1.1281 1.0186 0.0697 2.745 0.42224 3.8365 0.78341 1.0914 0.36117 3.4131 1.1008 5.1594 1.6433 4.6681 1.4504 6.6508 2.5834 10.475 5.9857 1.8056 1.6063 4.4449 3.7162 5.8648 4.6886s3.222 2.2088 4.0049 2.7476c0.78293 0.53883 2.2357 1.8834 3.2282 2.9879 0.99249 1.1046 2.3357 2.3602 2.9854 2.7905 1.2602 0.83473 1.8841 0.98563 1.8841 0.45527 0-0.18001-1.3395-1.5989-2.9766-3.1528s-2.9112-2.8904-2.8314-2.9704 2.052-0.27694 4.3827-0.4377c3.7865-0.26116 4.7446-0.23398 9.001 0.25528 2.6199 0.30115 5.5887 0.53582 6.5975 0.52142 2.5748-0.0367 4.6865-0.32158 4.7935-0.64647 0.21593-0.65569-4.4813-1.2553-11.558-1.4754-4.1911-0.13032-7.65-0.36418-8.599-0.58136l-1.5875-0.36329 1.4552-0.40566c0.80036-0.22303 2.3605-0.6049 3.467-0.84853 4.2877-0.94406 7.29-2.9282 10.016-6.6198 1.0026-1.3575 2.3942-2.9277 3.0923-3.4897 2.4849-2.0006 8.2475-8.3665 9.4413-10.429 0.54472-0.94126 1.3393-1.708 2.9104-2.8086 2.1481-1.5049 3.6443-2.908 7.1882-6.7402 1.7922-1.9379 1.9151-2.0178 3.7962-2.4722 3.29-0.79471 4.4416-2.5166 1.6831-2.5166-2.3424 0-8.4419 3.3716-11.619 6.4223l-3.8251 3.5812c0.42605 0.8477 0.41878 0.912-0.22169 2.0138-0.3638 0.62587-1.9427 2.3004-3.5088 3.7212-1.5662 1.4209-3.4579 3.3506-4.2039 4.2881-0.74597 0.93747-2.4413 2.5803-3.7672 3.6509s-3.1846 2.6702-4.1305 3.5548c-2.8438 2.6597-4.8928 3.8759-8.9199 5.2932-2.0062 0.70609-4.7448 1.6729-6.0859 2.1487l-2.4386 0.86506-1.3978-1.3493c-1.5947-1.5392-2.0726-1.9194-4.3899-3.4918l-4.0173-2.7347c-1e-3 0.17313-2.0564-0.68414-4.5666-1.9053-4.9986-2.4317-7.1998-3.1359-11.129-3.5595-1.4277-0.15391-3.6898-0.52344-5.0271-0.82166-1.7422-0.38856-3.1251-0.51934-4.8793-0.46044-1.3464 0.0452-2.4477-9e-3 -2.4474-0.1204l-2.9409 0.69401c-0.40131 0.32036-1.1024 0.6909-2.4753 1.3141l-2.7926 1.2676-2.973-0.43357c-1.6351-0.23848-3.4821-0.65683-4.1047-0.92966-0.62255-0.27283-2.349-1.4341-3.8365-2.5807-1.4875-1.1467-3.7168-2.7838-4.9537-3.638-2.7641-1.9089-5.2218-4.3585-6.0374-6.0167-0.30062-0.61122-0.45014-0.92092-0.46715-1.1669l-1.3255-3.3114-0.74414-1.4216c-1.4211-2.7142-5.2585-6.7099-8.6093-8.9648-1.665-1.1204-6.4608-2.6827-9.2087-2.9998-0.52751-0.06088-1.0068-0.09447-1.3544-0.09922zm142.72 7.4476c-0.40946-0.02214-0.67748 0.04458-0.67748 0.23668 0 0.1261 0.80367 0.5961 1.7859 1.0444 0.98226 0.44828 2.1175 0.82119 2.5228 0.82889 0.647 0.01231 0.70359-0.04802 0.46406-0.49558-0.36476-0.68157-2.867-1.548-4.0954-1.6144zm78.698 34.618-1.2568 0.14831c-0.69122 0.0815-2.0307 0.22118-2.9766 0.31058-0.94589 0.0894-2.8509 0.37994-4.2333 0.64543-1.3824 0.26551-2.9681 0.56015-3.5238 0.65525s-3.2346-0.0308-5.9531-0.28008c-4.284-0.39278-5.5599-0.41098-9.573-0.13539-6.3508 0.43612-7.6834 0.77892-6.8652 1.7648 0.63931 0.77031 1.6301 0.98458 5.41 1.1694 7.9202 0.38732 10.145 0.31902 13.658-0.41806 3.2206-0.67569 3.3579-0.68237 8.1726-0.39687 2.6934 0.15971 5.4021 0.29041 6.0193 0.29041h1.1219v-1.8769zm-70.772 2.3053c-4.0978 4e-3 -7.3856 0.0327-8.8677 0.092-4.0439 0.16181-5.3453 0.30332-6.0193 0.65577-1.1141 0.58263-1.0847 0.84872 0.13229 1.1973 1.4416 0.41295 21 0.13322 24.937-0.35657 1.6782-0.20876 6.6617-0.44186 11.112-0.51986 7.9732-0.13964 10.583-0.30462 10.583-0.66973 0-0.21138-19.585-0.41203-31.878-0.39894zm-26.586 0.84284c-1.4553-1e-3 -1.7595 0.0988-1.9528 0.39998-0.37408 0.58274-0.0112 0.97397 1.1922 1.2847 0.95202 0.2458 7.1185 0.0862 8.7674-0.22686 2.7871-0.52923-0.47029-1.2871-6.1294-1.4263-0.77931-0.0192-1.3923-0.0311-1.8774-0.0315zm-24.353 10.469c-0.12957 0.10991 0.73278 1.0419 2.4495 2.6246 4.3675 4.0269 9.4757 9.288 11.252 11.589 0.9547 1.2369 2.2814 2.8282 2.9481 3.5362 1.2821 1.3615 3.3932 2.5426 4.5532 2.5466 0.38236 1e-3 0.84308 0.18118 1.0242 0.39946 0.4173 0.50283 1.0583 0.51502 1.0583 0.0202 0-1.0816-0.70145-3.1531-1.3017-3.8442-0.37549-0.43234-1.9923-1.5796-3.5931-2.5497-4.0963-2.4825-8.0346-5.4895-13.097-9.9999-2.4011-2.1393-4.574-4.0079-4.8286-4.1522-0.26882-0.15235-0.4219-0.20717-0.46509-0.17053zm-0.33538 19.258c-3.9064-5e-3 -7.3926 0.0721-8.985 0.25271-1.4937 0.16945-5.7158 0.39015-9.3824 0.49041-3.6665 0.10026-6.7543 0.26992-6.8616 0.37724-0.75545 0.75544 3.0454 1.1435 12.337 1.2594 2.2556 0.0281 4.9345 0.14463 5.9531 0.2589 2.9828 0.33461 27.404-0.13557 28.161-0.54209 0.47457-0.25508-1.532-0.84802-5.0095-1.481-2.024-0.36844-9.7018-0.60654-16.212-0.61548zm-48.671 0.54882c-5.2154-4e-3 -6.5365 0.22757-8.2078 0.94256-1.2202 0.52199-1.2704 1.0429-0.13229 1.3715 0.47295 0.13656 2.8244 0.25785 5.2255 0.26975 3.8417 0.019 6.1078-0.1007 11.906-0.62891 0.80036-0.0729 2.9435-0.25736 4.7625-0.40979 3.2047-0.26852 6.0607-0.67398 6.2782-0.89142 0.26657-0.26657-3.2299-0.42068-13.161-0.58032-2.7612-0.0444-4.9324-0.0721-6.6709-0.0734zm-29.821 2.8479c-2.592-0.025-5.3079 0.0484-7.4244 0.24598-1.6735 0.1562-5.2454 0.35829-7.9375 0.44959s-8.2881 0.45374-12.435 0.80511c-4.6918 0.39752-9.5148 0.63928-12.766 0.64027l-5.2255 2e-3v1.1906c0 1.3346-0.10519 1.2934 2.3812 0.92449 0.94589-0.14032 3.8034-0.37146 6.35-0.51418 4.157-0.23296 9.7299-0.88734 13.361-1.5689 2.7861-0.52287 5.9639-0.63771 18.521-0.66921 12.015-0.0302 14.1-0.13371 13.76-0.68264-0.28857-0.46691-4.2651-0.78151-8.585-0.82321zm48.27 13.671c-0.87313-0.0101-1.6383 0.10046-1.7007 0.24599-0.37084 0.86537 16.058 9.6049 21.888 11.644 2.1223 0.74216 2.1708 0.74956 2.1658 0.32866-0.01-0.74379-7.9745-5.7116-14.548-9.0744-6.0903-3.1156-6.1116-3.1244-7.8052-3.144zm-24.235 1.6562c-9.8543-0.0417-11.071 0.0714-19.251 1.7901-3.573 0.75066-4.7822 1.1672-5.3408 1.8402-0.3169 0.38182-0.29625 0.49194 0.15348 0.82115 0.36052 0.26385 0.84224 0.32687 1.5772 0.20618 1.0012-0.16441 1.8024-0.36705 8.2021-2.0743 4.3319-1.1556 6.988-1.4493 15.575-1.7224 4.4917-0.14285 8.232-0.32556 8.3122-0.40566s0.0849-0.20653 0.0103-0.28112c-0.0746-0.0746-4.2322-0.15295-9.2387-0.17415zm111.02 3.3616c-3.1499 8e-3 -3.8073 0.10231-7.8052 1.1162-2.4011 0.60894-6.0325 1.4145-8.0698 1.7901-6.103 1.1251-11.789 3.0903-17.212 5.949-5.2862 2.7862-6.7836 3.2154-12.024 3.4499l-4.3656 0.19534-1.1906-1.2562c-1.9258-2.0322-3.9804-3.2775-4.3692-2.6484-0.15838 0.25627 5.0938 5.6303 5.748 5.8813 0.24137 0.0926 1.5481 0.98653 2.9037 1.9864 5.807 4.2834 8.5484 5.852 13.577 7.7696v5.2e-4c1.4552 0.55492 3.003 1.0091 3.4396 1.0061l0.79375-3e-3 -0.92604-0.79736c-1.7129-1.4742-8.8838-5.4969-14.381-8.0672-1.7249-0.80656-3.0942-1.5086-3.0427-1.5601s1.2842-0.22227 2.7394-0.37931c1.4551-0.15705 3.8359-0.63934 5.2912-1.0718s5.3711-1.4579 8.7018-2.2789c5.829-1.4369 8.2142-2.1592 12.2-3.6959 4.4285-1.7072 14.431-4.6529 18.389-5.4157 0.80036-0.15425 3.0038-0.28115 4.8963-0.28215 2.9396-1e-3 3.9216 0.11531 6.7402 0.80357 3.3757 0.82431 6.2248 1.0357 7.1665 0.53175 0.57706-0.30883 0.68159-1.1731 0.18087-1.4945-0.1819-0.11675-2.5334-0.28944-5.2255-0.38344-2.7015-0.0944-6.1989-0.39135-7.8052-0.66301-1.8403-0.31124-4.1751-0.48917-6.35-0.48317zm32.965 3.3533c-0.36604-0.0187-0.55345 0.0378-0.55345 0.17156 0 0.66301 9.5682 4.2253 14.552 5.4178 2.8472 0.68122 12.397 2.4985 16.007 3.0463 2.7205 0.41285 2.5135 0.54374 2.5135-1.5839v-1.8893l-1.5214 0.17312c-0.83675 0.0953-3.2086 0.24918-5.271 0.34158-5.5084 0.24677-7.7909-0.2053-17.814-3.5269-4.106-1.3608-6.8151-2.0942-7.9132-2.1503zm-179.96 3.9502c-0.5544 0.0567-1.8537 0.50747-3.3765 1.1937-3.5384 1.5945-10.416 5.1526-12.609 6.5226-3.0237 1.8895-11.386 7.314-14.883 9.6542l-2.9766 1.9921v2.5502l2.712-2.2722c4.2064-3.5247 10.707-7.9057 15.544-10.475 1.2369-0.65709 4.3326-2.2997 6.8792-3.6499 4.4634-2.3666 8.9958-5.1048 8.9958-5.4348 0-0.0745-0.102-0.0995-0.28681-0.0806zm126.79 20.373c-0.19728 0.0312-0.29559 0.15815-0.29559 0.38034 0 0.75102 2.7947 3.2765 5.424 4.9015 6.1008 3.7706 11.214 6.8439 12.253 7.3654 1.5461 0.77584 3.8694 1.4555 7.1939 2.1048 1.528 0.29839 4.929 1.1915 7.5577 1.9844 7.0742 2.1337 9.2614 2.4781 25.383 3.9972 13.609 1.2823 18.309 1.196 26.458-0.48628l1.5875-0.32762 0.0786-1.7761c0.0906-2.0563 0.3821-1.934-3.2763-1.3762-1.4425 0.21995-5.8378 0.51879-9.7668 0.66405-3.9291 0.14523-8.6854 0.38194-10.57 0.52606-5.0812 0.38859-8.3321 0.31961-12.317-0.262-1.9645-0.28676-5.5959-0.76868-8.0698-1.0707-6.8439-0.83563-8.368-1.3204-13.595-4.3258-3.8579-2.2184-5.9934-3.093-10.086-4.1295-6.7074-1.6989-8.6231-2.531-13.494-5.8606-2.3924-1.6355-3.8751-2.4025-4.4669-2.3089zm-113.14 27.363c-3.5156 0.0135-4.2708 0.1-6.6146 0.75757-4.2994 1.2063-6.655 1.6746-10.716 2.1306-8.1627 0.91677-11.846 2.5237-18.785 8.1959-1.528 1.2489-4.7129 3.8311-7.0776 5.7382l-4.2995 3.4675v2.372l2.1306-2.0045c2.4799-2.3329 5.1638-4.1604 9.7756-6.657 1.819-0.98467 5.0721-2.8474 7.229-4.1393 8.619-5.1622 9.7822-5.5597 21.256-7.2647 9.2203-1.3701 13.072-0.90763 21.428 2.5714 4.8112 2.0033 5.7402 2.3549 5.8715 2.2236 0.19209-0.19208 0.19994-0.18756-3.5295-1.9828-11.264-5.4224-11.285-5.429-16.669-5.4084zm105.91 7.3959c-2.7258-0.0374-5.9569 0.18049-8.1447 0.61857-2.931 0.58693-3.9688 1.0554-3.9688 1.7916 0 0.82661 0.94823 0.86117 5.5728 0.20465 2.5375-0.36027 5.023-0.76545 5.5227-0.90073 1.4118-0.38217 4.228 0.39128 7.69 2.112 1.6735 0.8318 4.1143 1.9535 5.424 2.4929 1.3097 0.53938 3.2147 1.5663 4.2333 2.282 8.9629 6.2977 10.036 6.904 16.14 9.1173 1.3097 0.47488 3.7505 1.5242 5.424 2.3322 1.8602 0.89811 4.1224 1.7411 5.8208 2.1689 1.528 0.38483 3.8744 1.1086 5.2142 1.6082 2.3488 0.87597 2.5756 0.90942 6.35 0.93792 2.1528 0.0163 5.0451 0.116 6.4275 0.2217v-5.2e-4c5.3257 0.40716 7.8301 0.24419 14.219-0.92553 4.05-0.74147 9.133-1.1777 13.76-1.1777h3.2411v-1.3229c0-1.1854-0.0603-1.3229-0.58032-1.3229-0.55052 0-3.0974 0.17411-11.855 0.80926-2.11 0.15304-6.9916 0.62746-10.848 1.0547-7.8273 0.86723-11.554 0.95788-14.684 0.35709-1.1642-0.22347-3.7835-0.55354-5.8208-0.73381-3.6136-0.31975-3.7753-0.36127-6.6146-1.6908-1.6007-0.74959-4.3392-1.9168-6.0854-2.5942-5.0295-1.9509-8.1381-3.514-12.965-6.5185-2.4738-1.54-5.4246-3.2877-6.5577-3.884-1.1332-0.59626-2.9679-1.6966-4.0768-2.4448-2.5199-1.7004-6.8938-3.8062-8.8124-4.2426-0.93742-0.21324-2.3907-0.32742-4.0261-0.34985zm-81.945 1.7983c-0.11089-0.01-0.18371-4e-3 -0.20826 0.0207-0.22232 0.2223-0.21495 0.22591 2.1745 1.0242 2.3488 0.78471 3.2722 0.91714 2.249 0.32246-0.81002-0.47075-3.4391-1.2992-4.2152-1.3674zm65.992 2.6329c-0.0839-7e-3 -0.19978 0.0147-0.32711 0.0677-0.90532 0.37682-3.1431 1.2292-5.5221 2.1037-1.3273 0.48798-3.2918 1.2956-4.3656 1.7942-2.5588 1.1882-10.633 6.1557-12.57 7.7334-1.6966 1.382-3.0592 2.1259-6.1014 3.3316-1.1364 0.45038-2.4538 1.0573-2.9275 1.3488l-0.86145 0.5302-2.049-1.1746c-1.127-0.64606-3.3548-1.7547-4.9506-2.4634-3.3805-1.5012-5.8881-3.0948-8.476-5.3878-1.0186-0.90257-2.9236-2.3623-4.2333-3.2437-1.3097-0.88144-2.7575-1.9577-3.2179-2.3916-1.3194-1.2436-1.9195-0.37444-0.89814 1.3007 0.28148 0.46165 1.0754 1.3546 1.7642 1.9844 0.68889 0.62976 2.4962 2.3767 4.0163 3.8824 3.3241 3.2927 5.6643 4.8713 9.4868 6.4001 1.5796 0.63177 3.7646 1.6745 4.856 2.3172 1.0914 0.64264 2.6768 1.5187 3.5228 1.9467 1.0059 0.50883 2.6296 1.8269 4.6922 3.8086l3.1543 3.0303h4.0793l-0.91105-0.66662c-1.4715-1.0763-8.397-8.2932-8.0801-8.4202 0.15931-0.0638 1.1228-0.73766 2.1415-1.4976 1.0186-0.75991 3.2808-2.0817 5.0271-2.9373 2.2386-1.0968 4.0724-2.2602 6.2177-3.945 4.2579-3.3438 7.6242-5.2313 14.883-8.3437 0.98227-0.42119 1.7859-0.87073 1.7859-0.99942 0-0.0643-0.052-0.10155-0.13591-0.10903z" fill="#4f4354" stroke-width=".18271"/> </g> </g> </g> </svg>