<?xml version='1.0' encoding='utf-8'?>
<svg xmlns="http://www.w3.org/2000/svg" width="1411.1mm" height="1940mm" version="1.1" viewBox="0 0 1411.1 1940"> <g transform="translate(-297.14 -568.47)"> <g transform="matrix(1.1464 0 0 1.1464 -1633.1 866.23)"> <path d="m1683.7-259.74h1230.9v1692.3h-1230.9z" fill="#fff" stop-color="#000000" stroke-linecap="square" stroke-width=".52338" style="paint-order:markers stroke fill"/> <path d="m1728.3 1276.8v-13.84l3.7703-2.1187c15.09-8.4796 59.213-35.594 72.203-44.371 66.62-45.01 152.25-120.37 211.33-185.97 66.166-73.478 144.47-181.35 157.9-217.54 2.5761-6.9379 6.4953-23.694 5.7248-24.475-0.2233-0.22676-5.3493 0.40199-11.391 1.3968-16.7 2.7495-39.356 2.4153-48.519-0.71559-14.794-5.0551-24.588-14.062-31.73-29.181-5.9709-12.64-7.1937-18.857-8.6814-44.138-0.6646-11.295-1.7754-24.112-2.4685-28.484-2.8326-17.868-13.297-32.94-27.95-40.257-7.3626-3.6764-9.2719-4.0699-21.691-4.4699-15.958-0.51402-27.025 1.0078-44.52 6.1214-22.907 6.6956-35.804 12.197-75.569 32.235-57.932 29.192-69.166 33.011-96.869 32.927-18.242-0.0549-29.3-2.5731-43.867-9.9884-12.244-6.2329-18.715-11.033-28.785-21.354l-8.8899-9.1118 0.064-66.458 4.2159 9.7449c7.7609 17.939 23.393 38.533 35.674 46.999 6.7738 4.6695 20.146 11.075 26.775 12.827 14.533 3.8397 35.39 3.5656 51.341-0.67463l4.6474-1.2354-7.1588-4.8487c-15.154-10.264-27.815-26.999-35.135-46.441-7.451-19.79-9.9201-32.79-14.802-77.935-4.7275-43.716-9.2657-59.847-22.621-80.41-8.2106-12.641-25.123-29.768-35.998-36.452l-7.003-4.3049v-8.4433c0-4.6438 0.368-8.4433 0.8178-8.4433 1.6735 0 16.736 8.9175 23.036 13.638 28.032 21.005 46.84 50.765 53.919 85.315 0.9897 4.8309 3.2155 21.341 4.9462 36.69 4.2436 37.635 7.3406 55.314 12.363 70.575 8.2664 25.118 20.772 41.407 39.431 51.363 5.1272 2.7356 8.0879 3.5892 10.648 3.0699 1.9503-0.39579 15.196-4.8751 29.434-9.9544 42.968-15.328 63.45-21.253 88.483-25.593 17.319-3.0033 38.687-3.2616 49.037-0.5929 21.615 5.5729 39.025 20.003 51.75 42.89 5.5355 9.9564 8.3294 17.753 15.782 44.044 8.9064 31.419 13.842 40.181 25.702 45.623 5.6234 2.5804 22.562 4.8638 35.468 4.7811 8.4664-0.0544 8.5416-0.0841 5.5179-2.1663-6.6704-4.5941-13.847-12.24-16.527-17.608-7.6134-15.25-8.9793-28.542-6.1779-60.118 1.6727-18.854 1.8096-25.394 0.7076-33.794-2.8353-21.611-9.6063-35.197-25.807-51.782-13.237-13.551-24.311-20.842-38.915-25.622-13.458-4.4045-31.412-4.3037-61.651 0.34612-63.591 9.778-101.79-1.1919-138.24-39.7-15.56-16.44-25.354-32.941-32.11-54.101-7.0054-21.941-7.562-30.471-6.2611-95.959 0.4447-22.391 0.1924-28.055-1.5518-34.824-5.059-19.635-19.561-40.616-38.946-56.348-20.26-16.442-39.806-22.804-66.45-21.632l-14.408 0.63431v-15.755l7.0506-0.91227c18.159-2.3497 46.502 3.7979 64.532 13.997 19.821 11.212 45.826 38.004 55.735 57.42 8.2542 16.174 11.118 28.646 12.33 53.689l0.7519 15.547 4.5178-8.0842c5.5123-9.8637 17.335-27.409 33.521-49.749 27.438-37.868 36.619-57.164 39.808-83.661 1.1212-9.3168 1.0455-13.391-0.4013-21.591-4.8302-27.377-30.214-58.464-63.216-77.42-9.7033-5.5735-15.165-7.9643-46.724-20.453-26.92-10.653-39.612-16.727-51.823-24.8-20.658-13.658-35.633-29.247-49.209-51.225l-6.8734-11.128 0.221-38c0.1216-20.9 0.3941-35.201 0.6056-31.781 3.422 55.321 28.871 96.768 75.567 123.07 8.8072 4.9607 10.94 5.0701 7.9559 0.40818-2.7366-4.2754-6.9818-16.482-9.1702-26.368-2.7775-12.547-2.7205-42.864 0.1062-56.436 6.1552-29.554 10.362-37.095 60.853-109.08 22.555-32.156 24.53-35.399 26.002-42.685 4.0346-19.967 14.495-49.599 24.665-69.872l5.3035-10.572 8.1133-0.36618 8.1132-0.36666-7.3882 15.666c-11.176 23.698-21.698 57.958-25.781 83.943-2.1851 13.907-2.2212 62.848-0.057 77.111 2.5848 17.034 8.6541 40.574 13.913 53.963 15.502 39.467 36.167 59.315 97.906 94.031 29.013 16.315 38.772 23.125 50.887 35.51 11.37 11.624 19.5 24.846 24.94 40.565 8.6633 25.029 7.9356 47.645-2.8573 88.808-1.6924 6.4547-4.5258 17.193-6.2965 23.862-7.1881 27.076-7.9251 31.628-8.607 53.169-0.7016 22.165 0.8536 34.71 6.5529 52.858l2.1482 6.8405 0.7858-23.631c1.7707-53.251 13.11-88.153 43.961-135.32 15.493-23.684 22.329-36.804 28.968-55.596 4.3623-12.347 4.6194-13.907 4.7173-28.606 0.1228-18.423-1.2192-23.262-13.336-48.088-10.947-22.43-25.318-46.199-54.017-89.344-39.815-59.855-51.635-82.25-61.197-115.95-11.245-39.626-10.664-75.266 1.901-116.77l3.9093-12.914h18.941l-4.1641 13.309c-16.68 53.31-13.949 99.475 8.6643 146.51 11.852 24.651 25.201 43.283 56.838 79.33 24.867 28.333 37.822 46.003 50.934 69.47 1.8683 3.3435 9.8131 11.957 18.886 20.476 34.391 32.29 48.828 48.586 65.446 73.873 16.095 24.492 31.717 60.432 35.374 81.382 0.7084 4.0589 1.3124 13.853 1.3423 21.765l0.054 14.385 2.2519-4.353c4.8673-9.4089 16.29-40.263 19.191-51.837 4.6011-18.356 6.0609-35.504 4.3685-51.315-2.3111-21.592-7.3233-37.851-24.785-80.395-8.5029-20.717-14.719-38.674-18.346-52.995-1.3319-5.2591-4.1416-13.919-6.2437-19.244-7.5306-19.076-12.741-46.275-15.806-82.508-3.9908-47.185-13.002-75.89-31.819-101.36-4.0424-5.4724-16.051-18.839-26.686-29.704-21.684-22.153-42.021-44.321-42.021-45.804 0-0.53928 5.9317-0.92791 13.182-0.86341l13.182 0.11701 24.311 25.69c26.022 27.498 36.031 40.09 43.652 54.918 14.172 27.573 17.971 46.205 19.603 96.141 0.5768 17.649 1.2718 32.316 1.5444 32.592 0.2726 0.27642 1.1942-5.4885 2.0479-12.811 1.7958-15.405 7.116-37.796 12.52-52.691 8.1583-22.489 22.546-48.852 57.471-105.31 6.9109-11.171 14.774-24.463 17.472-29.539l4.9069-9.2273h10.929c6.011 0 10.929 0.43444 10.929 0.96551 0 0.53103-2.369 5.7136-5.2644 11.517-6.0203 12.067-16.028 28.068-32.644 52.191-38.792 56.32-49.726 77.052-57.726 109.45-5.1242 20.752-6.5965 35.64-5.7642 58.289 0.7943 21.615 3.2012 35.018 9.9769 55.556 4.0959 12.415 7.3037 19.889 26.138 60.898 9.8389 21.423 13.942 32.492 18.185 49.054 1.656 6.4648 3.9557 12.813 5.1104 14.107 4.099 4.5941 20.21 16.144 37.984 27.23 21.254 13.256 30.538 20.286 36.29 27.475 11.231 14.038 15.47 31.491 13.034 53.654-1.7005 15.468-6.1438 31.105-12.132 42.697-2.5661 4.9672-4.1789 9.0312-3.5839 9.0312 2.0052 0 38.297-18.895 49.457-25.749 26.003-15.971 54.503-41.608 68.43-61.557 19.167-27.454 27.454-56.427 24.292-84.926-3.3701-30.377-15.137-54.874-43.025-89.571-41.433-51.549-65.531-91.291-79.941-131.83-19.487-54.828-16.048-111.24 10.002-164.09l6.7819-13.759 8.2768-0.36761c4.5522-0.20195 8.2768-0.0759 8.2768 0.28024 0 0.35665-2.7271 5.8388-6.0601 12.183-16.378 31.174-23.767 60.016-23.828 92.999-0.066 36.385 9.0109 67.453 31.107 106.46 14.921 26.342 27.445 43.967 61.338 86.315 26.792 33.476 40.051 58.673 45.484 86.439 2.1693 11.087 2.1549 41.062-0.024 50.993-4.2298 19.272-12.718 38.838-24.216 55.82-3.6502 5.3911-6.4712 9.9699-6.2689 10.175 0.2024 0.20526 5.6019-0.43778 11.999-1.4294 6.397-0.99139 24.874-2.2966 41.06-2.9005 38.357-1.431 49.968-3.847 56.271-11.709 6.8477-8.5414 20.348-30.399 25.409-41.139 16.083-34.128 16-83.892-0.2134-126.8-12.372-32.748-28.22-56.876-66.398-101.09-10.716-12.41-23.214-27.382-27.772-33.271-40.551-52.383-46.229-109.82-17.073-172.7l5.0459-10.883h8.9932c4.9462 0 8.9931 0.21854 8.9931 0.48549 0 0.26687-1.8539 4.3246-4.1197 9.017-6.4767 13.413-10.326 24.048-13.967 38.594-3.067 12.251-3.3646 15.434-3.2943 35.233 0.069 19.427 0.4221 23.062 3.2877 33.837 6.6156 24.876 16.289 41.408 46.556 79.564 25.86 32.602 32.992 42.178 43.833 58.855 17.444 26.837 32.085 61.696 37.679 89.713 3.1026 15.538 3.1046 55.184 0 69.885-4.1393 19.622-13.053 39.47-26.299 58.559-4.2291 6.0944 2.4995 0.67806 13.242-10.66 41.44-43.735 56.837-89.144 51.51-151.92-1.7573-20.71-5.9477-52.015-10.52-78.585-9.4618-54.99-12.239-88.292-9.2829-111.31 5.032-39.187 26.064-76.884 61.73-110.64l11.224-10.623h21.648l-8.3081 7.2626c-13.122 11.471-32.147 32.343-40.82 44.785-31.966 45.855-36.638 77.497-24.36 164.98 1.44 10.261 3.0997 19.188 3.6882 19.837 0.6471 0.71459 1.07 0.3614 1.07-0.89349 0-3.9036 14.69-31.369 22.107-41.331 4.074-5.4724 14.148-17.389 22.385-26.481 48.69-53.737 63.971-79.671 73.069-124.01 1.8867-9.1956 6.2846-39.849 6.2846-43.804 0-0.19133 0.8277-0.34804 1.8394-0.34804 1.5955 0 1.8392 5.1241 1.8392 38.654v38.654l-3.2411 8.2964c-7.9608 20.379-22.128 44.595-35.777 61.155-3.1011 3.7623-16.465 18.034-29.698 31.715s-27.509 29.632-31.725 35.446c-9.0764 12.519-18.648 31.846-22.078 44.58-2.3142 8.5911-2.3578 9.8848-0.7339 21.765 2.7575 20.174 4.6022 52.619 3.7589 66.111-1.7429 27.883-4.2242 39.586-14.899 70.27-3.6887 10.603-8.6244 26.833-10.968 36.068-7.0801 27.897-19.581 49.362-40.571 69.667-12.122 11.726-20.615 17.73-48.503 34.288-38.074 22.606-51.208 31.79-66.471 46.479-7.8497 7.5544-22.808 26.514-22.808 28.908 0 0.57682 2.0692-4e-3 4.5982-1.2926 14.441-7.3534 41.585-12.728 63.423-12.557 5.413 0.0429 17.843 0.80456 27.622 1.694l17.78 1.6171 8.2781-4.1977c32.619-16.54 65.655-49.404 87.484-87.024 3.8211-6.5855 10.74-20.03 15.375-29.877 7.5672-16.076 12.979-29.508 39.267-97.453 14.807-38.271 33.083-72.951 51.305-97.355l7.9703-10.674 0.3514 11.005 0.3513 11.005-7.2676 10.984c-15.285 23.101-27.192 49.229-49.215 107.99-31.161 83.149-47.297 113.13-78.252 145.4-15.651 16.315-25.685 24.454-46.831 37.992l-4.2917 2.7474 9.8095-0.65998c35.612-2.396 88.072-25.624 119.15-52.758 26.196-22.869 41.844-45.301 52.67-75.508l4.0117-11.194 0.076 52.236-6.5023 9.6645c-23.434 34.83-60.498 66.317-100.74 85.578-16.135 7.7234-39.032 15.515-52.58 17.892-13.77 2.416-41.409 2.4767-59.081 0.12983-7.3756-0.97955-21.284-2.4897-30.907-3.356-33.843-3.0463-60.37 2.9901-83.223 18.938-8.6599 6.0434-22.976 20.29-29.717 29.575-12.948 17.831-17.133 28.072-25.896 63.371-7.7596 31.254-12.676 41.929-25.031 54.353-19.633 19.743-39.712 25.548-90.237 26.088-31.76 0.33944-38.178 1.1817-48.304 6.3406-20.439 10.413-30.936 25.767-43.7 63.923-6.7452 20.164-9.7842 27.045-16.393 37.123-5.453 8.3144-18.492 22.213-26.484 28.23l-4.2917 3.2311 4.9048-0.89964c6.8262-1.2521 19.71-5.7958 27.735-9.7816 14.086-6.9958 22.732-17.028 39.638-45.99 12.569-21.533 19.288-30.518 29.128-38.955 8.0969-6.9424 22.168-14.881 32.249-18.194 9.0905-2.9873 48.185-11.402 66.969-14.414 46.453-7.4498 59.274-14.305 92.566-49.493 30.044-31.756 48.6-46.638 72.746-58.347 28.178-13.664 53.767-19.496 105.54-24.055 69.669-6.1348 115.46-25.962 159.14-68.9l12.609-12.397-0.695 29.588-10.423 9.1419c-19.945 17.494-49.089 35.796-72.648 45.623-25.161 10.495-49.256 15.684-98.406 21.194-33.733 3.7817-50.247 6.7603-69.791 12.588-29.794 8.884-51.381 22.15-73.309 45.049-21.055 21.988-28.275 32.783-44.149 66.006-34.48 72.168-58.651 102.88-93.142 118.37l-7.168 3.218 15.642 5.7787c20.796 7.6826 26.565 8.7926 41.367 7.959 21.389-1.2046 39.529-9.327 54.741-24.51 15.963-15.933 22.437-32.734 28.038-72.758 6.3747-45.553 12.086-62.515 25.394-75.411 11.665-11.305 24.872-16.348 42.675-16.297 15.65 0.0478 24.066 1.9723 52.726 12.073 39.634 13.968 58.239 17.668 82.768 16.46 41.868-2.0622 76.771-18.766 110.05-52.666l16.247-16.55v33.362l-10.92 9.9312c-30.998 28.19-61.963 44.925-97.367 52.621-9.9829 2.17-16.681 2.726-33.338 2.7666-31.262 0.0759-48.268-3.9424-88.542-20.924-11.998-5.0591-25.206-10.087-29.349-11.173-22.099-5.7924-38.341 1.3321-47.614 20.885-5.4967 11.591-8.3571 24.289-12.361 54.873-3.8899 29.711-7.3232 44.236-13.731 58.089-12.714 27.489-37.99 47.445-68.075 53.748-18.29 3.8318-34.746 1.3613-52.923-7.9448-5.349-2.7386-9.9199-4.7821-10.158-4.541-0.568 0.57609 8.0704 26.129 13.796 40.809 19.198 49.225 47.773 105.39 71.063 139.68 15.868 23.36 29.11 39.548 48.403 59.17 51.093 51.962 117.1 92.048 244.67 148.58 24.278 10.76 53.523 23.836 64.988 29.06l20.845 9.497 0.3479 14.116c0.2741 11.107 0.022 13.976-1.2262 13.459-0.8658-0.361-9.0232-4.0089-18.128-8.1062-9.1046-4.097-33.578-15.094-54.386-24.438-77.472-34.788-123.66-59.465-172.89-92.364-58.088-38.82-98.662-77.13-132.76-125.35-37.438-52.942-72.361-124.87-93.37-192.31-4.2019-13.489-5.5876-16.413-9.8028-20.688-2.7-2.7386-6.8082-5.615-9.1294-6.3921-4.3916-1.47-116.29-0.8318-159.75 0.91119l-20.832 0.83556-0.9475 6.6994c-4.6609 32.956-36.521 87.652-96.435 165.56-71.624 93.129-149.16 170.79-245.37 245.76-34.403 26.809-67.184 49.008-122.31 82.829l-3.9852 2.4449zm616.33-510.04c1.8682-0.72046 9.2153-2.1182 16.327-3.1062 18.799-2.6116 24.113-4.0365 34.559-9.2673 21.663-10.847 38.621-28.141 56.958-58.089 4.1018-6.6985 9.3993-15.817 11.772-20.263 12.883-24.139 17.088-32.337 16.587-32.337-0.306 0-4.3362 2.5708-8.9558 5.7129-21.518 14.635-43.827 21.513-78.372 24.162-38.243 2.932-48.598 9.5476-68.092 43.505-14.753 25.699-23.227 35.68-38.251 45.055l-7.426 4.6339 21.325 0.3719c11.729 0.20482 25.565 0.49823 30.748 0.65196 5.1827 0.15372 10.952-0.30936 12.82-1.0303zm-131.82-5.1286c8.196-4.1505 12.482-7.4632 21.32-16.479 13.895-14.175 17.483-21.03 22.505-42.999 6.165-26.969 7.8385-40.79 7.0782-58.455-0.9391-21.822-4.953-34.81-15.616-50.53-7.9671-11.745-32.822-34.74-54.457-50.383-9.1295-6.6006-22.794-14.746-43.77-26.09-24.906-13.47-33.369-19.128-44.154-29.52-25.543-24.61-44.684-66.768-48.758-107.39-2.3774-23.707 0.294-40.175 14.084-86.822 10.544-35.666 13.505-52.547 12.445-70.941-1.6262-28.228-17.114-53.552-43.752-71.539-6.5251-4.4061-12.239-8.0111-12.698-8.0111s2.1013 3.5101 5.6894 7.8002c19.121 22.862 26.668 43.048 25 66.872-1.4567 20.816-5.6934 35.639-19.189 67.138-22.631 52.821-31.403 81.779-34.567 114.11-2.4503 25.035 1.199 51.309 10.161 73.161 7.2121 17.585 22.199 39.38 36.351 52.867 18.074 17.223 46.996 42.304 57.146 49.556 20.663 14.763 41.353 39.233 48.961 57.905 7.1178 17.47 8.5995 28.236 8.9002 64.674 0.2835 34.365 1.2046 42.238 6.0088 51.367 5.1218 9.7316 18.169 18.554 27.825 18.816 1.7765 0.0482 7.8462-2.25 13.488-5.1072zm93.671-153.69c17.258-11.061 31.404-13.378 69.248-11.344 24.939 1.3405 28.579 1.2771 37.887-0.66081 18.974-3.9498 31.532-13.112 39.036-28.479 2.0723-4.2441 7.1649-18.91 11.317-32.591 13.334-43.939 28.332-69.356 54.611-92.551 5.8362-5.1513 8.2806-8.51 11.824-16.246 4.8576-10.606 13.588-24.939 20.281-33.298 2.3278-2.9073 3.803-5.2858 3.2782-5.2858-4.7403 0-86.092 27.077-108.24 36.025-44.206 17.864-90.055 50.389-110.36 78.289-17.335 23.822-33.816 62.246-46.725 108.93-2.0805 7.5246-4.0572 14.5-4.3929 15.5-0.3357 1.0004 3.1418-1.8175 7.7279-6.262 4.586-4.4444 11.112-9.8581 14.501-12.03zm-28.249-6.86c7.7941-34.823 28.647-82.428 47.155-107.65 17.39-23.698 58.479-56.48 92.89-74.11 29.85-15.294 73.586-31.488 126.67-46.903 34.688-10.073 36.647-10.861 49.713-19.987 5.3666-3.7486 19.138-12.577 30.603-19.619 30.897-18.978 37.939-24.185 52.175-38.582 12.484-12.626 22.507-26.069 26.299-35.273 1.5358-3.7283 0.089-2.6015-9.3023 7.2451-11.921 12.499-25.09 22.511-36.108 27.454-16.628 7.4586-29.969 9.4147-80.085 11.742-41.864 1.9444-52.161 4.9588-71.645 20.973-27.939 22.964-52.414 36.581-119.22 66.326-41.536 18.495-72.841 34.194-85.962 43.11-22.592 15.351-36.911 34.452-43.68 58.266-3.6406 12.808-3.8766 42.573-0.4655 58.709 3.6901 17.455 16.633 58.748 18.123 57.817 0.4531-0.28358 1.7312-4.5667 2.8396-9.5185zm-33.158-46.508c-4.462-19.883-5.4994-46.223-2.4199-61.443 1.5756-7.7871 2.0762-15.804 1.9373-31.022-0.3433-37.59 5.2626-61.505 24.894-106.2 7.7518-17.648 8.1989-19.195 9.5284-32.959 2.0142-20.854 0.8347-40.524-3.2151-53.619-7.4393-24.055-29.687-63.205-49.856-87.733-9.0341-10.986-39.95-42.858-41.574-42.858-0.4499 0-0.2816 2.9383 0.3738 6.5295 1.4296 7.834 0.5381 21.276-2.0641 31.12-1.0436 3.9482-5.5574 15.422-10.031 25.496-21.11 47.546-31.583 70.885-40.028 89.21-19.551 42.423-25.722 66.828-27.41 108.38-1.2882 31.721 2.4547 51.986 12.366 66.953 3.6008 5.4375 8.7733 10.445 19.045 18.438 7.7557 6.0354 17.964 14.226 22.685 18.201s13.761 10.41 20.09 14.3c22.617 13.901 53.058 37.004 63.821 48.435 2.3143 2.458 4.423 4.2509 4.6859 3.9842 0.2626-0.2664-1.0097-7.1144-2.828-15.217zm-229.23 6.3262c7.4184-1.0461 21.303-2.235 30.854-2.6418l17.366-0.73968-11.235-8.7858c-21.196-16.576-36.534-34.966-48.682-58.372-17.672-34.049-22.296-74.963-13.449-119 4.4069-21.934 15.084-52.29 33.702-95.814 22.754-53.193 25.075-78.828 9.5627-105.63-9.6372-16.655-34.224-39.595-64.915-60.566-20.62-14.09-34.289-25.948-43.84-38.033-24.809-31.388-38.626-76.364-40.789-132.78-0.5975-15.582-1.1047-19.945-2.1204-18.237-0.7344 1.2348-10.609 16.608-21.943 34.163-30.852 47.784-35.956 59.955-39.111 93.254-2.5126 26.521 1.3302 48.682 11.35 65.45l4.0559 6.7879 16.639 6.3684c22.047 8.4382 41.602 18.107 52.462 25.937 24.334 17.547 44.757 43.095 53.815 67.318 3.3094 8.85 3.4871 10.348 3.4675 29.228-0.018 18.103-0.3238 20.91-3.3799 31.093-6.9708 23.227-18.93 43.308-51.249 86.049-16.226 21.459-24.887 34.884-33.666 52.186l-6.8503 13.5 0.6711 13.059c0.724 14.089 4.5771 31.645 9.801 44.655 9.4983 23.656 30.778 47.573 53.694 60.349 9.4382 5.2621 22.998 10.251 31.994 11.772 10.458 1.768 37.301 1.471 51.797-0.57317zm250.43-115.73c15.815-18.967 41.14-34.752 97.813-60.966 21.468-9.93 24.209-12.174 31.318-25.638 10.628-20.129 15.963-50.908 12.061-69.581-3.1953-15.29-9.8183-22.645-36.708-40.761-10.406-7.0106-21.482-14.923-24.614-17.583-3.1322-2.66-6.0322-4.8363-6.4444-4.8363-0.412 0-0.7495 3.2847-0.7495 7.2995 0 28.286-13.062 63.306-45.753 122.67-21.185 38.47-29.102 57.81-34.457 84.171-3.6843 18.139-3.8074 20.187-0.9609 15.988 1.1448-1.6888 4.9676-6.5317 8.4949-10.762zm-537.8-523.36-0.1716-45.918 6.8581-17.512c6.5549-16.737 23.361-51.412 30.339-62.597l3.2979-5.2858h20.831l-5.931 9.6389c-29.23 47.503-50.162 107.78-54.084 155.75-0.6913 8.4548-1.0174-1.2934-1.1399-34.076z" fill="#4f4354" stroke-width=".8723"/> <path d="m1728.4-166.98-0.011-42.598h40.262l-6.1689 10.874c-9.889 17.431-19.203 36.919-26.901 56.287l-7.1683 18.034z" fill="#e290b7" stroke-width=".8723"/> <path d="m2265.5 0.60723c-0.1059-0.34183-0.6988-15.173-1.3168-32.959-1.7501-50.37-5.5182-68.83-19.675-96.389-7.6363-14.866-19.71-29.98-44.362-55.534-12.645-13.108-22.991-24.165-22.991-24.57 0-0.40532 41.156-0.73755 91.458-0.73755h91.458l-4.907 9.2273c-2.6989 5.075-10.561 18.367-17.472 29.538-22.9 37.016-40.535 67.397-47.204 81.321-11.884 24.81-19.591 50.73-23.095 77.666-0.9343 7.1825-1.7858 12.779-1.892 12.437z" fill="#a7c0e5" stroke-width=".8723"/> <path d="m2740.8 26.725c-0.3771-1.0261-1.5688-8.022-2.6485-15.547-12.899-89.888-8.2693-122.57 23.898-168.71 8.6728-12.441 27.698-33.314 40.82-44.785l8.3083-7.2626h27.558c15.157 0 27.558 0.1566 27.558 0.34804 0 3.9556-4.3979 34.609-6.2847 43.804-9.0979 44.34-24.378 70.273-73.069 124.01-8.2382 9.0919-18.264 20.958-22.28 26.368-7.2292 9.7404-18.267 29.703-21.5 38.885-1.1001 3.124-1.9106 4.1169-2.3607 2.8918z" fill="#f1e2fc" stroke-width=".8723"/> <path d="m1803.1 104.64c-14.273-8.2699-20.432-12.903-31.578-23.755-16.17-15.743-29.924-38.738-36.121-60.386-8.4609-29.558-8.0403-68.135 1.1659-106.95 8.5956-36.239 28.978-84.756 48.722-115.98l4.5226-7.1514h131.02l-5.9737 12.126c-10.752 21.827-19.604 46.713-23.855 67.072-1.942 9.2993-3.2361 11.48-26.433 44.553-50.491 71.985-54.698 79.526-60.853 109.08-2.8267 13.572-2.8837 43.889-0.1062 56.436 2.1837 9.8646 6.4767 22.269 8.9925 25.984 3.9892 5.8903 2.0927 5.6843-9.4987-1.0319z" fill="#b39bca" stroke-width=".8723"/> <path d="m2671.6 264.16c13.246-19.089 22.16-38.936 26.299-58.559 3.101-14.701 3.0989-54.347 0-69.885-5.5944-28.017-20.235-62.876-37.679-89.713-10.841-16.678-17.972-26.254-43.833-58.855-30.267-38.156-39.94-54.688-46.556-79.564-2.8654-10.775-3.2186-14.41-3.2877-33.837-0.07-19.803 0.2273-22.98 3.2972-35.245 3.5604-14.223 7.8083-25.897 14.451-39.715l4.0233-8.3695h201.19l-11.224 10.623c-21.068 19.94-38.275 43.093-48.722 65.558-17.571 37.783-18.369 71.286-3.7243 156.4 4.5718 26.57 8.7622 57.875 10.52 78.585 5.3265 62.777-10.07 108.19-51.51 151.92-10.743 11.338-17.472 16.754-13.242 10.66z" fill="#b39bca" stroke-width=".8723"/> <path d="m2541.4 292.46c0-0.34134 2.9671-5.0036 6.5933-10.36 11.455-16.918 19.949-36.51 24.173-55.756 2.1796-9.9305 2.194-39.906 0.024-50.993-5.4328-27.765-18.692-52.963-45.484-86.439-33.892-42.348-46.417-59.973-61.338-86.315-22.096-39.01-31.173-70.077-31.107-106.46 0.06-33.104 6.8827-59.867 23.541-92.347l6.8572-13.37h52.471c28.859 0 52.471 0.29553 52.471 0.65735 0 0.3614-1.6868 4.0467-3.7486 8.1894-13.45 27.025-20.772 60.593-18.96 86.92 2.1524 31.278 13.685 60.097 35.142 87.816 4.5585 5.8886 17.056 20.86 27.772 33.271 38.178 44.212 54.026 68.34 66.399 101.09 16.213 42.91 16.296 92.674 0.2135 126.8-5.0613 10.74-18.561 32.597-25.409 41.139-6.283 7.8371-17.976 10.289-55.658 11.669-25.744 0.94302-40.25 2.204-50.58 4.3964-1.8546 0.39338-3.372 0.43587-3.372 0.094z" fill="#d9c7e7" stroke-width=".8723"/> <path d="m2290 296.53c-0.029-7.912-0.6339-17.706-1.3424-21.765-3.6566-20.95-19.278-56.89-35.374-81.382-16.618-25.287-31.055-41.583-65.446-73.873-9.0728-8.5184-17.018-17.132-18.886-20.476-13.112-23.466-26.068-41.136-50.934-69.47-9.4762-10.797-21.238-24.704-26.137-30.905-41.145-52.072-56.911-105.92-47.338-161.68 2.2774-13.266 7.503-33.588 11.114-43.222l1.2516-3.3389 92.638 0.0766 3.9806 5.3631c2.1893 2.9497 15.876 17.624 30.414 32.609 14.539 14.986 29.999 32.004 34.357 37.818 19.302 25.754 28.349 54.242 32.387 101.99 3.0646 36.233 8.275 63.432 15.806 82.508 2.1021 5.3248 4.9118 13.984 6.2437 19.244 3.6269 14.321 9.8435 32.278 18.346 52.995 17.461 42.544 22.474 58.803 24.785 80.395 1.6923 15.811 0.2325 32.959-4.3685 51.315-2.9011 11.574-14.324 42.428-19.191 51.837l-2.2519 4.353-0.054-14.385z" fill="#8ba9d0" stroke-width=".8723"/> <path d="m2415.1 353.5c5.9884-11.592 10.432-27.229 12.132-42.697 2.4365-22.163-1.8031-39.616-13.034-53.654-5.7514-7.1891-15.036-14.218-36.29-27.475-17.774-11.086-33.886-22.636-37.985-27.23-1.1547-1.2942-3.4544-7.6425-5.1104-14.107-4.2426-16.563-8.3459-27.631-18.185-49.054-18.834-41.009-22.042-48.483-26.138-60.898-6.7757-20.538-9.1826-33.941-9.9768-55.556-1.6889-45.96 9.409-85.055 35.885-126.41 3.8208-5.9685 14.193-21.484 23.049-34.48 22.619-33.192 31.929-48.082 37.901-60.621l5.1769-10.869 65.31-0.0266-6.9258 14.02c-26.224 53.086-29.715 109.49-10.179 164.45 14.41 40.544 38.508 80.286 79.941 131.83 12.91 16.062 27.056 37.532 31.977 48.532 19.184 42.885 14.65 86.01-13.244 125.97-13.928 19.95-42.427 45.587-68.43 61.557-11.16 6.8545-47.452 25.749-49.457 25.749-0.595 0 1.0177-4.064 3.5838-9.0312z" fill="#fad1df" stroke-width=".8723"/> <path d="m1868.2 389.55c0-22.853-4.0604-41.845-12.468-58.321-9.9088-19.416-35.914-46.208-55.735-57.42-17.78-10.058-42.2-15.592-62.08-14.069l-9.503 0.72804v-208.11l6.8734 11.128c13.576 21.978 28.551 37.567 49.209 51.225 12.211 8.0736 24.903 14.147 51.823 24.8 31.559 12.489 37.021 14.879 46.724 20.453 33.002 18.956 58.386 50.043 63.216 77.42 1.4468 8.2 1.5225 12.274 0.4012 21.591-3.1889 26.497-12.37 45.793-39.808 83.661-16.153 22.294-28.041 39.932-33.32 49.438-2.3743 4.2753-4.5452 7.7733-4.8244 7.7733s-0.5076-4.632-0.5075-10.293z" fill="#e290b7" stroke-width=".8723"/> <path d="m2688.5 409.73c21.146-13.537 31.18-21.677 46.831-37.992 30.955-32.267 47.091-62.25 78.252-145.4 21.791-58.147 33.703-84.362 48.878-107.57l6.9028-10.556 0.315 81.635 0.3152 81.635-3.8118 11.007c-10.451 30.178-26.611 53.52-53.01 76.565-31.082 27.134-83.543 50.362-119.15 52.758l-9.8096 0.65998z" fill="#a7c0e5" stroke-width=".8723"/> <path d="m2079.9 409.79c-5.6993-18.148-7.2545-30.693-6.5529-52.858 0.6819-21.541 1.4189-26.094 8.607-53.169 1.7707-6.6695 4.6041-17.407 6.2965-23.862 10.793-41.163 11.52-63.779 2.8573-88.808-5.4408-15.719-13.57-28.941-24.94-40.565-12.114-12.385-21.874-19.195-50.887-35.509-61.739-34.717-82.404-54.564-97.906-94.031-5.2587-13.388-11.328-36.929-13.913-53.963-2.1643-14.263-2.1282-63.204 0.057-77.111 4.0793-25.962 14.604-60.243 25.755-83.887l7.3621-15.611h50.358c27.697 0 50.358 0.28644 50.358 0.63583 0 0.34994-1.9005 6.9955-4.2233 14.768-14.404 48.201-11.53 95.252 8.7011 142.45 10.58 24.679 19.687 40.264 51.298 87.787 28.699 43.145 43.07 66.913 54.017 89.344 12.117 24.826 13.459 29.665 13.336 48.088-0.098 14.699-0.3551 16.258-4.7173 28.606-6.6395 18.793-13.475 31.912-28.968 55.596-30.852 47.163-42.191 82.065-43.962 135.32l-0.7857 23.631z" fill="#c9dde8" stroke-width=".8723"/> <path d="m2546.3 422.48c0-2.3945 14.959-21.354 22.808-28.908 15.263-14.689 28.397-23.873 66.471-46.479 27.888-16.558 36.381-22.562 48.503-34.288 20.99-20.305 33.491-41.77 40.571-69.667 2.3436-9.2347 7.2793-25.465 10.968-36.068 10.675-30.684 13.156-42.387 14.899-70.27 0.8433-13.492-1.0014-45.937-3.7589-66.111-1.6239-11.88-1.5803-13.174 0.7339-21.765 3.4303-12.734 13.002-32.061 22.079-44.58 4.2156-5.8144 18.492-21.765 31.724-35.446 27.672-28.609 32.327-34.043 43.442-50.712 8.8204-13.228 14.841-24.631 21.159-40.08l4.0697-9.9497 0.048 216.54-8.3702 11.13c-18.343 24.392-36.536 58.847-51.518 97.569-26.288 67.946-31.7 81.377-39.267 97.453-4.635 9.847-11.554 23.292-15.375 29.877-21.829 37.621-54.866 70.484-87.484 87.024l-8.2782 4.1978-17.78-1.6172c-9.7789-0.88947-22.209-1.6517-27.622-1.694-21.838-0.16987-48.982 5.2038-63.423 12.557-2.529 1.2877-4.5982 1.8694-4.5982 1.2926z" fill="#8ba9d0" stroke-width=".8723"/> <path d="m2255.7 457.2c-0.038-0.94762 1.3626-8.7485 3.1067-17.335 5.3541-26.36 13.272-45.701 34.457-84.171 32.692-59.364 45.753-94.384 45.753-122.67 0-4.0147 0.3375-7.2995 0.7495-7.2995s3.3123 2.1763 6.4445 4.8364c3.1322 2.6599 14.208 10.572 24.614 17.583 26.89 18.116 33.513 25.471 36.708 40.761 3.9022 18.673-1.4331 49.452-12.061 69.581-7.1088 13.464-9.85 15.708-31.318 25.638-64.334 29.759-89.255 46.573-106.31 71.728-1.1905 1.7562-2.1091 2.333-2.1458 1.3476z" fill="#e290b7" stroke-width=".8723"/> <path d="m1964.1 561.39c-8.9959-1.5209-22.556-6.5102-31.994-11.772-22.916-12.776-44.196-36.694-53.694-60.349-5.2239-13.01-9.077-30.566-9.801-44.655l-0.6711-13.059 6.8503-13.5c8.7796-17.302 17.441-30.727 33.666-52.186 32.319-42.742 44.278-62.822 51.249-86.049 3.0561-10.183 3.3612-12.99 3.3799-31.093 0.02-18.88-0.1581-20.378-3.4674-29.228-9.0581-24.223-29.482-49.772-53.815-67.318-10.86-7.8309-30.415-17.499-52.462-25.937l-16.639-6.3684-4.0559-6.7879c-10.019-16.768-13.862-38.928-11.35-65.45 3.1547-33.299 8.2596-45.471 39.111-93.254 11.334-17.555 21.208-32.928 21.943-34.163 1.0157-1.7082 1.523 2.6542 2.1205 18.237 2.1631 56.412 15.98 101.39 40.789 132.78 9.5519 12.085 23.221 23.943 43.84 38.033 21.382 14.611 36.19 26.892 49.414 40.982 18.305 19.504 25.286 34.729 25.194 54.949-0.087 19.104-4.9325 36.787-19.256 70.271-36.045 84.264-43.763 122.29-34.852 171.7 3.0359 16.835 6.9303 28.336 14.599 43.111 12.148 23.406 27.486 41.797 48.682 58.372l11.235 8.7858-17.366 0.73966c-9.5513 0.40677-23.436 1.5957-30.854 2.6418-14.496 2.0441-41.339 2.3412-51.797 0.57319z" fill="#d9c7e7" stroke-width=".8723"/> <path d="m2243.3 565.73c-10.763-11.431-41.204-34.534-63.821-48.435-6.3285-3.8898-15.369-10.325-20.09-14.3-4.7209-3.9751-14.929-12.166-22.685-18.201-10.271-7.9929-15.444-13.001-19.045-18.438-9.9114-14.967-13.654-35.232-12.366-66.953 1.6876-41.555 7.8595-65.96 27.41-108.38 8.445-18.325 18.917-41.665 40.028-89.21 4.4733-10.075 8.9871-21.548 10.031-25.496 2.6022-9.8445 3.4937-23.286 2.0641-31.12-0.6554-3.5912-0.8236-6.5295-0.3739-6.5295 1.6231 0 32.54 31.872 41.574 42.858 20.169 24.528 42.417 63.678 49.856 87.733 4.0498 13.095 5.2293 32.766 3.2151 53.619-1.3295 13.764-1.7766 15.31-9.5284 32.959-19.632 44.695-25.238 68.61-24.894 106.2 0.1389 15.218-0.3614 23.235-1.9373 31.022-3.0794 15.22-2.0421 41.56 2.4198 61.443 1.8184 8.1027 3.091 14.95 2.828 15.217-0.2625 0.26638-2.3715-1.5262-4.6858-3.9843z" fill="#a7c0e5" stroke-width=".8723"/> <path d="m2272.5 604.63c-4.9818-14.472-13.023-42.137-15.092-51.923-3.4111-16.136-3.1751-45.901 0.4655-58.709 6.7689-23.814 21.088-42.915 43.68-58.266 13.121-8.9157 44.426-24.615 85.962-43.11 66.802-29.745 91.276-43.361 119.22-66.326 19.483-16.014 29.781-19.028 71.644-20.973 50.116-2.3276 63.457-4.2837 80.085-11.742 11.018-4.9426 24.187-14.955 36.108-27.454 9.3913-9.8466 10.838-10.973 9.3023-7.245-3.7915 9.204-13.814 22.647-26.299 35.273-14.236 14.397-21.278 19.605-52.175 38.582-11.465 7.042-25.236 15.871-30.603 19.619-13.066 9.1266-15.025 9.9143-49.713 19.987-53.08 15.414-96.816 31.609-126.67 46.903-34.411 17.63-75.5 50.412-92.89 74.11-18.508 25.221-39.361 72.826-47.155 107.65-1.1083 4.9518-2.3861 9.2351-2.8396 9.5185-0.453 0.28358-1.8172-2.3689-3.0308-5.894z" fill="#fab9cf" stroke-width=".8723"/> <path d="m2284.3 626.15c0.3356-1.0004 2.3125-7.9754 4.3929-15.5 12.909-46.689 29.39-85.113 46.725-108.93 20.303-27.9 66.152-60.426 110.36-78.289 22.143-8.9478 103.49-36.025 108.24-36.025 0.5249 0-0.9504 2.3786-3.2782 5.2858-6.693 8.359-15.423 22.693-20.28 33.298-3.5434 7.7363-5.9878 11.095-11.824 16.246-26.279 23.195-41.277 48.612-54.611 92.551-4.1519 13.681-9.2445 28.347-11.317 32.591-7.5036 15.367-20.062 24.529-39.036 28.479-9.3088 1.9379-12.948 2.0013-37.887 0.66078-30.952-1.6637-41.544-0.83008-55.071 4.3344-10.79 4.1195-18.704 9.3735-28.678 19.04-4.5861 4.4445-8.0637 7.2623-7.7279 6.2619z" fill="#c9dde8" stroke-width=".8723"/> <path d="m1803.9 678.3c-9.3959-1.3887-14.172-2.993-23.969-8.0518-10.792-5.5724-13.908-7.8377-22.4-16.285-9.0322-8.9844-19.293-24.46-24.865-37.502l-4.2346-9.9113v-90.916c0-50.004 0.2652-90.916 0.5893-90.916 2.2959 0 16.284 10.752 24.897 19.137 17.628 17.162 28.798 37.203 34.595 62.069 1.3088 5.6143 3.802 23.36 5.5404 39.435 4.8821 45.145 7.3512 58.145 14.802 77.935 7.3199 19.442 19.98 36.176 35.135 46.441l7.1587 4.8488-4.6473 1.2315c-13.295 3.5231-29.269 4.4545-42.602 2.4839z" fill="#fad1df" stroke-width=".8723"/> <path d="m2231.1 762.45c7.9916-6.0166 21.031-19.915 26.484-28.23 6.6091-10.077 9.6481-16.959 16.393-37.122 12.764-38.156 23.261-53.51 43.7-63.923 10.126-5.1589 16.545-6.0014 48.304-6.3406 50.525-0.53962 70.604-6.3445 90.237-26.088 12.355-12.424 17.271-23.099 25.031-54.353 8.7636-35.299 12.949-45.54 25.897-63.371 6.7416-9.2843 21.057-23.531 29.717-29.575 22.853-15.948 49.38-21.985 83.223-18.938 9.6233 0.86629 23.532 2.3764 30.907 3.356 17.672 2.347 45.312 2.2862 59.081-0.12984 21.426-3.7595 51.311-15.725 74.99-30.025 30.514-18.428 60.523-46.497 77.878-72.844l6.3912-9.7021 0.3207 49.425 0.321 49.425-9.5173 9.7762c-30.649 31.483-68.995 53.696-109.67 63.531-15.893 3.8425-32.83 6.4973-52.505 8.2298-51.768 4.5586-77.357 10.391-105.54 24.055-24.147 11.709-42.702 26.591-72.746 58.347-33.292 35.188-46.112 42.043-92.566 49.493-18.784 3.0123-57.878 11.427-66.969 14.414-10.081 3.3128-24.152 11.251-32.249 18.193-9.8407 8.4376-16.559 17.422-29.128 38.955-16.906 28.962-25.552 38.994-39.638 45.99-8.0251 3.9857-20.909 8.5294-27.735 9.7815l-4.9047 0.89969z" fill="#f1e2fc" stroke-width=".8723"/> <path d="m2191.5 764.84c-8.2988-3.0894-16.142-9.774-19.944-16.997-4.8043-9.1284-5.7254-17.002-6.0089-51.367-0.3007-36.437-1.7823-47.204-8.9002-64.674-7.6077-18.672-28.298-43.142-48.961-57.905-10.15-7.252-39.072-32.333-57.146-49.556-14.152-13.487-29.139-35.282-36.351-52.867-8.9622-21.852-12.612-48.127-10.161-73.161 3.164-32.328 11.937-61.286 34.567-114.11 13.496-31.499 17.733-46.323 19.189-67.138 1.6673-23.824-5.8793-44.01-25-66.872-3.5881-4.29-6.1483-7.8001-5.6894-7.8001s6.1731 3.605 12.698 8.0111c26.638 17.987 42.126 43.312 43.752 71.539 1.0597 18.394-1.9017 35.275-12.445 70.941-13.79 46.647-16.461 63.116-14.084 86.822 4.0734 40.618 23.215 82.775 48.758 107.39 10.785 10.391 19.249 16.05 44.154 29.52 20.976 11.344 34.64 19.489 43.77 26.09 21.636 15.642 46.49 38.638 54.457 50.383 10.664 15.721 14.678 28.708 15.617 50.53 0.7602 17.665-0.9133 31.486-7.0783 58.455-5.0222 21.97-8.6099 28.825-22.505 42.999-8.8382 9.0161-13.124 12.329-21.32 16.479-10.948 5.5441-14.034 6.0189-21.369 3.2882z" fill="#f1e2fc" stroke-width=".8723"/> <path d="m2301.2 767.05-21.325-0.37239 7.426-4.6339c15.024-9.3752 23.498-19.356 38.251-45.055 19.494-33.958 29.848-40.573 68.092-43.505 34.545-2.6484 56.855-9.5264 78.372-24.162 4.6196-3.142 8.6498-5.7129 8.9559-5.7129 0.5011 0-3.704 8.198-16.587 32.337-12.481 23.384-25.383 42.148-37.932 55.161-10.505 10.893-18.974 17.27-30.798 23.191-10.446 5.2307-15.76 6.6557-34.559 9.2673-7.1116 0.98796-14.459 2.3857-16.327 3.1062-1.8682 0.72047-7.6372 1.1841-12.82 1.0304-5.1828-0.15373-19.02-0.44733-30.748-0.652z" fill="#b39bca" stroke-width=".8723"/> <path d="m2148 767.85c-15.212-1.7927-23.348-7.0718-29.998-19.465-1.8044-3.3626-6.2812-16.699-9.9485-29.636-7.4526-26.29-10.246-34.087-15.782-44.044-12.725-22.887-30.136-37.317-51.75-42.89-10.35-2.6686-31.718-2.4103-49.037 0.59294-25.033 4.3408-45.515 10.265-88.483 25.593-14.238 5.0793-27.484 9.5588-29.434 9.9544-7.1184 1.444-24.593-10.37-34.068-23.034-15.95-21.316-21.547-41.432-28.374-101.97-4.5945-40.747-7.3384-52.278-17.214-72.344-12.34-25.072-36.076-49.305-59.68-60.927l-5.8245-2.8678v-129.76l5.689-0.79095c17.917-2.4909 41.181 1.0336 56.068 8.4944 19.334 9.6899 41.68 32.027 51.056 51.035 8.2825 16.792 9.152 22.172 8.5424 52.858-1.3008 65.488-0.7443 74.017 6.2612 95.959 6.7559 21.16 16.55 37.662 32.11 54.101 36.448 38.508 74.646 49.478 138.24 39.7 30.239-4.6496 48.192-4.7504 61.651-0.34565 14.604 4.7794 25.678 12.071 38.915 25.622 16.2 16.585 22.972 30.172 25.807 51.782 1.102 8.3995 0.965 14.939-0.7077 33.794-2.8013 31.576-1.4354 44.868 6.1779 60.118 2.6798 5.3679 9.8562 13.014 16.527 17.608 2.9934 2.0617 2.8203 2.109-7.3572 2.0152-5.7324-0.0531-14.455-0.57133-19.384-1.1522z" fill="#fab9cf" stroke-width=".8723"/> <path d="m2436.5 787.82c-2.6976-0.67288-11.944-3.8257-20.547-7.0063l-15.642-5.7831 7.168-3.218c34.491-15.485 58.661-46.201 93.142-118.37 15.874-33.224 23.094-44.019 44.149-66.006 21.928-22.899 43.515-36.165 73.309-45.049 19.544-5.8277 36.058-8.8062 69.791-12.588 49.15-5.51 73.245-10.699 98.406-21.194 23.699-9.8851 52.707-28.133 72.954-45.893l10.729-9.4112v105.81l-16.247 16.55c-33.28 33.901-68.183 50.604-110.05 52.666-24.529 1.2081-43.134-2.4918-82.768-16.46-28.661-10.101-37.076-12.028-52.726-12.073-17.803-0.052-31.01 4.9917-42.675 16.297-13.308 12.897-19.019 29.858-25.394 75.412-3.728 26.64-6.6453 38.173-13.057 51.615-4.6205 9.687-7.3192 13.496-14.981 21.144-16.007 15.977-33.67 23.574-56.554 24.323-7.7557 0.25399-16.308-0.0883-19.006-0.76126z" fill="#d9c7e7" stroke-width=".8723"/> <path d="m2848.5 1218.3c-11.465-5.3098-40.71-18.458-64.988-29.217-127.57-56.533-193.58-96.619-244.67-148.58-19.294-19.622-32.536-35.809-48.403-59.17-23.29-34.288-51.865-90.453-71.063-139.68-5.725-14.679-14.363-40.233-13.796-40.809 0.2378-0.24109 4.8085 1.8024 10.158 4.541 18.177 9.3062 34.634 11.777 52.923 7.9449 30.085-6.3032 55.361-26.259 68.075-53.748 6.4074-13.854 9.8407-28.378 13.731-58.089 4.0042-30.584 6.8646-43.281 12.361-54.873 9.2722-19.553 25.514-26.678 47.614-20.885 4.1438 1.0862 17.351 6.114 29.349 11.173 40.275 16.982 57.28 21.001 88.542 20.924 16.657-0.0429 23.355-0.59663 33.338-2.7667 35.404-7.696 66.369-24.431 97.367-52.621l10.92-9.9312v317.85c0 174.82-0.1371 317.79-0.3063 317.72-0.1681-0.071-9.687-4.4731-21.152-9.7831z" fill="#fdf0e8" stroke-width=".8723"/> <path d="m1728.4 968.12v-294.74l8.8899 9.1118c10.07 10.321 16.541 15.121 28.785 21.354 14.567 7.4153 25.625 9.9333 43.867 9.9884 27.703 0.0841 38.937-3.735 96.869-32.927 39.765-20.037 52.663-25.539 75.569-32.235 17.495-5.1136 28.562-6.6354 44.52-6.1214 12.419 0.40006 14.328 0.79347 21.691 4.4699 14.653 7.3168 25.117 22.389 27.95 40.257 0.693 4.3714 1.8038 17.189 2.4684 28.484 1.4878 25.281 2.7106 31.498 8.6814 44.138 7.1418 15.119 16.935 24.126 31.73 29.181 9.1632 3.1309 31.819 3.4651 48.519 0.71555 6.0418-0.99464 11.168-1.6232 11.391-1.3968 0.7705 0.78157-3.1487 17.537-5.7247 24.475-13.435 36.184-91.738 144.06-157.9 217.54-47.824 53.109-120.96 119.78-178.64 162.85-26.188 19.555-63.94 43.963-99.769 64.502l-8.8899 5.0964z" fill="#fdf0e8" stroke-width=".8723"/> <path d="m1728.4 1336.5v-45.884l23.542-14.625c41.767-25.946 72.054-46.789 102.76-70.714 96.204-74.968 173.74-152.63 245.37-245.76 59.914-77.904 91.774-132.6 96.435-165.56l0.9475-6.6995 20.832-0.83545c43.457-1.7431 155.35-2.3812 159.75-0.91121 2.3212 0.77699 6.4294 3.6534 9.1294 6.392 4.2153 4.2755 5.6009 7.1998 9.8029 20.688 21.008 67.439 55.931 139.37 93.37 192.31 45.952 64.982 107.43 115.55 205.99 169.45 31.274 17.102 60.235 30.78 150.68 71.17l22.991 10.267v126.59h-1141.6z" fill="#e191b3" stroke-width=".8723"/> </g> </g> </svg>