<?xml version='1.0' encoding='utf-8'?>
<svg xmlns="http://www.w3.org/2000/svg" width="1343.7mm" height="1902.5mm" version="1.1" viewBox="0 0 1343.7 1902.5"> <g transform="translate(562.83 2252.4)"> <g transform="matrix(.93823 0 0 .93823 -230.06 -272.96)"> <path d="m-354.67-2109.8h1432.1v2027.8h-1432.1z" fill="#fbfbf3" stop-color="#000000" stroke-linecap="square" stroke-width="5.3292"/> <path d="m-114.7-1831c-6.9704-0.7976-50.456-1.7024-96.636-2.0107-73.8-0.4928-85.112-0.8926-93.467-3.3031-16.27-4.6944-20.777-9.9103-14.957-17.31 5.5791-7.0927 18.328-8.8052 55.354-7.4355 13.582 0.5023 16.441 0.072 29.307-4.4066 7.8418-2.7299 22.657-9.2129 32.922-14.407 23.309-11.793 36.958-15.185 60.545-15.045 25.556 0.1521 47.72 6.6373 89.507 26.19l18.218 8.5248h33.268c30.882 0 34.745 0.3287 53.862 4.5805 11.327 2.5193 22.171 5.6128 24.097 6.8745 3.9495 2.5867 6.2096 7.9909 4.1796 9.9938-0.74005 0.7302-8.3042 2.4431-16.809 3.8066l-15.464 2.4791-9.626-3.9114c-19.961-8.1107-36.862-8.2793-55.717-0.5556-6.9397 2.8426-13.048 3.5838-37.593 4.5618-16.119 0.6423-33.585 1.5402-38.813 1.9953-5.2278 0.4551-15.208 0.1749-22.179-0.6225z" fill="#f2f8ec" stroke-width="1.0658"/> <path d="m812.05-1730.1c-6.9704-1.953-17.664-5.3802-23.763-7.6161-28.755-10.541-50.14-11.554-75.249-3.5645-12.372 3.9368-15.78 4.3064-41.981 4.5531-15.684 0.1479-41.704 0.8633-57.823 1.5903-25.966 1.1712-32.107 0.9344-53.862-2.0766-13.505-1.8693-26.918-3.7084-29.807-4.087-9.6539-1.2656-32.057 2.321-49.284 7.8902-21.392 6.9156-32.096 7.3715-35.924 1.5299-4.3156-6.5864-4.5758-16.64-0.72969-28.197 4.0027-12.028 16.172-30.156 24.518-36.521 13.407-10.226 42.307-20.083 67.812-23.128 22.166-2.6466 45.267 1.0647 62.682 10.07 7.0039 3.6219 8.259 3.2264 8.247-2.5982-0.012-4.9215 2.1332-18.838 7.1296-46.294 2.9884-16.422 9.6943-29.732 20.128-39.952 35.225-34.499 90.832-37.132 120.92-5.726 8.8473 9.2336 15.16 21.395 21.219 40.881 2.7094 8.7131 7.3703 21.871 10.358 29.239 6.0785 14.993 5.0666 15.194 11.359-2.2557 4.9881-13.833 14.85-27.327 24.356-33.328 25.99-16.407 42.025-4.8152 62.504 45.185 3.9611 9.6711 8.3178 19.742 9.6816 22.379l2.4798 4.7952 4.6041-7.2599c2.7063-4.2674 8.0479-9.4516 12.959-12.577 29.001-18.456 50.958-7.5555 59.396 29.488 2.2454 9.8569 3.2753 12.076 5.1875 11.175 5.5149-2.597 13.319-0.6754 28.852 7.1037 10.65 5.3341 19.726 8.6954 26.164 9.6902 12.189 1.8833 19.88 5.4282 25.013 11.529 4.6217 5.4927 4.7771 6.5489 1.4526 9.8734-1.9031 1.903-5.9293 2.4894-17.094 2.4894-8.0323 0-22.611 1.1131-32.397 2.4736-16.172 2.2483-18.91 2.2456-30.063-0.03-9.9934-2.0382-13.882-2.1652-20.956-0.6844-4.9363 1.0332-20.791 1.7226-36.724 1.5967-20.55-0.1623-34.078 0.6292-50.651 2.9634-29.084 4.0964-44.496 3.9436-60.72-0.6019z" fill="#f2f8ec" stroke-width="1.0658"/> <path d="m118.18-1525.2c-10.456-0.6652-28.088-3.0518-39.183-5.3035-22.385-4.543-38.233-5.1173-64.759-2.3468-14.063 1.4688-20.927 1.2959-41.981-1.0571-29.42-3.288-61.134-3.585-79.032-0.7399-17.047 2.7098-33.552 2.5274-50.506-0.558-19.966-3.6337-39.38-3.3628-51.031 0.7121-12.278 4.294-28.865 5.499-42.625 3.0963-6.0992-1.065-26.416-2.4676-45.149-3.117-36.633-1.2699-42.111-2.4405-43.85-9.3692-3.2439-12.925 28.281-37.468 53.492-41.646 9.1191-1.5111 11.987-1.295 23.732 1.7886 22.03 5.7837 27.086 6.4744 39.305 5.3692 11.16-1.0094 12.114-1.4219 21.129-9.1373 25.677-21.974 32.223-25.385 52.201-27.195 10.256-0.9294 13.093-0.5437 23.521 3.1989 22.22 7.9742 21.195 7.8816 35.792 3.2337 11.801-3.7576 14.141-4.0329 21.276-2.5027 23.209 4.9774 33.486-0.6056 58.928-32.013 28.852-35.617 50.277-43.556 78.997-29.273 14.34 7.1316 20.073 11.844 55.47 45.598 15.349 14.636 30.319 27.881 33.268 29.432 4.3231 2.2744 8.6707 2.7562 22.453 2.4884 16.625-0.3227 17.523-0.158 32.849 6.0208 8.6662 3.4941 18.516 6.794 21.888 7.3332 3.6346 0.5814 14.684-0.4658 27.138-2.572 38.792-6.5599 63.654-2.6633 100.64 15.774 12.198 6.0804 25.387 11.894 29.308 12.919 3.9208 1.0248 20.317 2.343 36.436 2.9294 28.959 1.0534 37.399 2.6823 36.028 6.9542-0.33051 1.0302-6.9681 3.5758-14.75 5.6569-11.048 2.9545-18.142 3.7817-32.367 3.7737-35.599-0.018-88.144-1.8819-102.98-3.6488-17.155-2.0435-32.498-0.7835-66.755 5.4822-31.121 5.6921-42.18 6.9492-70.271 7.9878-13.941 0.5156-28.555 1.1631-32.476 1.4392-3.9208 0.276-15.684-0.042-26.139-0.7075z" fill="#f2f8ec" stroke-width="1.0658"/> <path d="m826.04-1365.1c-3.632-0.7838-12.187-3.7041-19.01-6.4896-24.244-9.8968-27.028-10.777-39.45-12.473-14.183-1.9363-29-0.57-51.164 4.7185-20.639 4.9247-49.828 7.6409-102.39 9.5283-58.112 2.0866-62.248 1.3174-37.86-7.0411 22.087-7.5698 31.004-13.531 44.612-29.823 18.341-21.96 33.874-31.606 51.072-31.717 7.0222-0.048 12.486 1.5389 28.158 8.1654 21.436 9.0638 34.732 12.125 45.593 10.496 3.9325-0.5897 14.054-4.598 22.492-8.9074l15.343-7.8352 46.041 0.7963 15.842-6.604c18.429-7.6826 38.242-12.177 47.464-10.766 12.895 1.9723 43.146 10.852 54.378 15.962 7.6161 3.4646 14.892 8.4383 21.387 14.62 5.4141 5.1532 11.441 10.199 13.393 11.213 2.3552 1.2237 11.412 1.6946 26.931 1.4003 24.504-0.4646 27.077 0.063 34.868 7.1596 2.4662 2.2463 3.5645 5.0482 3.5645 9.0936 0 8.472-4.625 13.475-14.642 15.839-4.5807 1.0811-14.032 4.0746-21.002 6.6522l-12.674 4.6865-55.447 0.3713c-30.496 0.2041-67.922 0.8228-83.17 1.375-15.248 0.5521-30.695 0.3629-34.327-0.4209z" fill="#f2f8ec" stroke-width="1.0658"/> <path d="m620.27-1990.7c-21.368-0.1156-42.696 3.0534-75.104 9.4432-52.448 10.341-84.689 11.782-139.46 6.2378-35.862-3.6304-56.779-3.9455-88.718-1.3336-22.385 1.8306-23.626 1.7667-48.318-2.562-17.053-2.9893-33.117-4.6844-49.107-5.1826-28.962-0.9021-41.39 1.3205-86.632 15.495-56.499 17.701-65.754 19.725-89.213 19.524-20.97-0.1797-23.889-0.6615-80.002-13.261-19.306-4.3352-51.545-5.6737-78.417-3.2551-11.327 1.0195-30.575 2.4765-42.773 3.2396-40.776 2.5507-51.978 8.8014-59.664 33.287-3.9956 12.729-7.0827 28.484-5.5818 28.484 0.3802 0 6.2608-2.536 13.066-5.6375 18.089-8.2433 34.634-11.761 55.348-11.773 25.147-0.012 37.864 3.294 99.012 25.765 13.186 4.8457 14.074 4.9517 42.773 5.1115l29.307 0.1641 16.634 5.817c9.1486 3.1999 21.904 6.9177 28.345 8.2613 26.72 5.5737 39.775 16.508 39.775 33.311 0 8.7781-4.0089 14.874-12.157 18.478-6.0938 2.694-9.9728 3.1081-25.632 2.7291-10.384-0.2509-28.392 0.7217-41.192 2.2277-30.567 3.5964-38.826 3.392-57.764-1.4325-20.574-5.2412-36.305-5.4285-56.526-0.6776-13.534 3.1797-18.879 3.5147-53.07 3.3447-20.911-0.1036-47.823 0.6816-59.803 1.742l-21.783 1.9276v7.0113c0 3.8573 1.9378 15.3 4.307 25.424 6.2418 26.675 5.8898 45.01-1.711 88.687-3.2392 18.613-6.3094 39.287-6.8225 45.941-0.83579 10.847 1.7532 48.966 3.4406 50.654 0.37063 0.3706 7.4161-5.7074 15.656-13.506 8.2402-7.7986 19.137-16.368 24.215-19.044 21.259-11.208 48.82-11.232 73.801-0.062 10.843 4.8484 10.993 4.8666 18.333 2.3453 12.486-4.289 17.553-4.7303 30.372-2.6486 10.206 1.6573 13.269 1.6361 17.658-0.1329 3.0593-1.2332 15.718-12.664 29.864-26.965 26.133-26.419 34.914-32.744 51.576-37.154 14.302-3.7857 30.58-0.9097 49.812 8.7965 13.122 6.6229 23.698 15.123 50.694 40.756 13.505 12.823 25.908 24.386 27.562 25.694 2.1296 1.6823 8.606 2.63 22.179 3.2456 18.418 0.8356 19.759 1.1374 34.097 7.7292 17.834 8.1987 22.885 8.4698 48.442 2.5774 22.259-5.1321 42.559-5.4142 59.441-0.8261 6.5172 1.7711 22.184 8.3241 34.818 14.564l22.971 11.346 19.802 1.3057c41.639 2.7449 56.589 6.2845 67.696 16.037 15.458 13.572 10.335 29.058-11.881 35.92-19.34 5.9736-34.774 6.8325-63.887 3.5582-25.15-2.8284-27.282-2.8403-49.11-0.2598-12.55 1.4835-32.8 4.2058-44.998 6.0458-32.669 4.9281-57.326 5.497-133.86 3.0972-90.022-2.8226-109.27-2.6793-129.9 0.9654-20.318 3.5897-40.659 3.669-65.676 0.2539-24.095-3.2902-53.375-3.3027-74.138-0.03-19.511 3.0745-47.537 3.4444-60.586 0.7983-5.2278-1.06-21.332-2.3541-35.787-2.8744l-26.278-0.9468-1.0397 15.678c-1.8789 28.377-1.0975 61.129 2.2433 94.098 2.6213 25.867 3.1841 40.536 2.7692 72.081-1.2459 94.712 0.39577 128.41 8.218 168.72 6.7759 34.917 8.4252 52.996 7.4414 81.561-1.1513 33.429-4.2661 49.908-20.369 107.75-2.1836 7.8438-3.3002 18.044-3.8182 34.852l-0.73329 23.766 2.9549-7.9395c4.9963-13.417 9.5308-21.105 16.581-28.113 38.262-38.029 51.513-49.792 61.718-54.781 26.672-13.042 42.799-7.3708 64.491 22.677 9.9825 13.828 19.098 22.397 32.677 30.718 8.1868 5.017 13.889 6.2556 15.653 3.4005 1.8098-2.9284 36.714-33.017 42.136-36.322 6.7987-4.1445 17.413-4.2579 26.176-0.27841 3.5835 1.6273 13.207 9.1398 21.387 16.693 8.179 7.5529 21.142 17.96 28.806 23.125l13.936 9.3906 9.6351-10.3c6.7225-7.1863 16.405-14.589 32.009-24.478 12.303-7.7971 30.209-20.349 39.794-27.89 9.5844-7.5419 24.911-18.586 34.06-24.543 26.069-16.972 28.134-18.76 40.066-34.728 19.551-26.164 31.53-36.341 70.323-59.729 28.288-17.055 38.646-26.78 54.961-51.613 21.401-32.574 53.303-61.237 89.454-80.373 10.67-5.648 28.816-15.871 40.323-22.717 22.053-13.121 43.188-23.284 54.822-26.359 9.3897-2.4818 29.248-2.1947 38.97 0.5634 4.3565 1.2358 15.763 5.4144 25.347 9.2855 9.5844 3.8709 25.981 9.3642 36.436 12.206 22.918 6.2296 37.793 13.714 50.338 25.328 17.742 16.426 26.78 33.305 32.733 61.128 4.7284 22.102 8.3274 28.721 19.74 36.313 5.1386 3.418 22.248 12.051 38.021 19.184 15.773 7.1324 35.092 16.754 42.934 21.38 34.441 20.319 84.469 47.024 85.419 45.598 0.18022-0.2706 1.1712-6.1951 2.203-13.166 1.0318-6.9704 2.9332-19.446 4.2266-27.723 3.7528-24.018 5.414-59.601 3.8986-83.569-1.8007-28.482-5.9026-51.926-16.696-95.444-10.689-43.098-15.054-52.231-28.169-58.924-12.984-6.6265-19.463-7.6255-38.967-6.0088-10.039 0.8321-26.45 1.5135-36.47 1.513-24.655-9e-4 -86.505-5.4446-109.12-9.6041-16.139-2.9683-22.016-3.2705-47.714-2.466-17.862 0.5592-37.35 2.2212-49.902 4.2575-23.26 3.7736-48.7 5.5696-56.947 4.0223-3.0431-0.5706-7.6948-2.8533-10.334-5.0743-3.8014-3.1986-4.799-5.2969-4.799-10.093 0-7.5791 3.6857-10.897 24.802-22.315 15.056-8.1407 19.025-11.507 39.357-33.386 10.686-11.499 27.5-23.212 42.337-29.493 8.3666-3.542 12.327-4.2186 24.991-4.2605 14.439-0.054 15.818 0.2604 33.973 7.7012 25.627 10.503 31.427 10.612 51.672 0.9592l14.951-7.1288 52.278-0.084 17.426-8.1034c29.483-13.706 48.887-16.24 70.119-9.1556 4.584 1.5298 8.6782 2.439 9.0967 2.0205 0.41853-0.4185 1.5615-24.177 2.5403-52.798 1.381-40.383 1.3416-57.567-0.17663-76.716-1.0759-13.572-2.1767-39.945-2.4443-58.609l-0.48558-33.933-4.8547-6.8845c-2.6692-3.7867-8.2058-9.0124-12.305-11.612l-7.4538-4.7279-34.147-0.03c-18.78-0.018-39.137-0.801-45.236-1.742-19.735-3.0444-45.315-2.1816-70.431 2.3732-26.265 4.7631-36.001 5.076-51.551 1.6646-6.0991-1.338-15.961-3.4864-21.916-4.7742-7.2052-1.5581-25.754-2.6922-55.447-3.3943-74.331-1.7574-87.124-1.4498-102.44 2.463-20.586 5.2578-45.994 7.4811-62.551 5.4735-16.023-1.9429-20.5-4.5057-25.876-14.799-3.1951-6.1179-3.5982-8.803-3.091-20.594 0.49876-11.589 1.4023-15.275 6.2254-25.347 9.9033-20.682 25.638-34.689 50.976-45.375 38.987-16.443 76.169-18.593 105.81-6.1201 2.2242 0.9361 2.7286-0.8262 3.6727-12.872 2.6614-33.953 11.46-55.37 29.973-72.953 26.27-24.951 67.03-37.076 100.6-29.923 34.87 7.4304 60.89 32.234 73.721 70.271l3.5335 10.467 3.4716-5.619c8.8454-14.312 27.162-25.027 42.721-24.997 21.872 0.048 43.068 23.765 50.304 56.291 1.4635 6.5783 3.1159 11.719 3.6727 11.424 7.3445-3.9039 18.455-8.1012 24.886-9.4l8.0354-1.6213-1.284-9.7403c-0.70466-5.3567-2.3073-14.73-3.5614-20.83-1.254-6.0991-2.6212-20.357-3.0415-31.684-1.6324-43.982-15.844-64.857-51.746-76.019-15.077-4.6875-51.323-5.0443-82.115-0.8076-35.734 4.9166-59.108 3.994-96.899-3.8274-32.568-6.7406-53.974-10.139-75.342-10.254zm-557.5 586.81c10.675-0.09 20.876 1.4151 30.041 4.5545 27.213 9.3219 46.895 22.678 70.623 47.925 12.388 13.181 17.502 21.85 24.15 40.935 4.7332 13.588 4.9698 15.411 4.9878 38.813 0.024 29.44-1.7177 37.076-14.412 63.21-7.8377 16.135-10.321 19.617-23.286 32.64-20.45 20.54-41.106 31.176-68.928 35.493-61.74 9.5792-127.02-28.494-145.92-85.11-20.033-59.999 16.964-143.26 74.646-167.99 15.877-6.8057 32.495-10.342 48.098-10.474z" fill="#bde0e2" stroke-width="1.0658"/> <path d="m697.67-711.55c-19.29-5.5845-38.673-14.391-65.101-29.577-23.768-13.658-35.746-22.2-62.105-44.29-67.557-56.616-98.046-72.767-137.37-72.767-29.858 0-43.124 5.75-69.325 30.048-7.8186 7.2506-16.456 14.119-19.195 15.263-2.7385 1.1443-15.233 3.9172-27.765 6.1622-25.856 4.6317-31.805 6.3446-55.733 16.048-9.4077 3.8149-17.379 6.9362-17.715 6.9362s-6.1829-6.5942-12.995-14.654c-6.8117-8.0595-21.525-24.278-32.696-36.04-11.171-11.763-28.868-32.596-39.326-46.296-19.183-25.129-30.284-36.682-41.277-42.957-3.2971-1.882-6.0001-3.9654-6.0068-4.6297-0.0239-2.2286 17.03-12.138 29.222-16.981 28.045-11.141 34.05-15.23 60.304-41.067 20.275-19.953 25.273-23.203 49.997-32.507 19.94-7.5044 27.422-13.063 50.748-37.708 10.991-11.612 27.387-27.499 36.436-35.305s23.629-20.619 32.399-28.473c8.7701-7.8539 24.163-21.163 34.207-29.575 20.905-17.51 33.888-32.81 45.744-53.908 11.354-20.204 15.719-25.317 26.539-31.084 12.405-6.6118 23.712-9.3745 46.449-11.349 22.729-1.9737 30.251-4.7238 57.403-20.988 18.435-11.042 19.672-11.532 28.817-11.4 7.2555 0.1042 12.715 1.5033 22.683 5.8132 21.519 9.3035 30.111 15.295 49.394 34.446 22.63 22.475 34.226 36.722 48.972 60.165 6.2829 9.9888 14.349 21.39 17.924 25.336 12.176 13.437 31.541 30.061 46.87 40.237 18.607 12.351 71.663 46.592 79.808 51.506 17.589 10.61 31.922 38.091 41.826 80.188 4.0056 17.027 4.1288 19.241 5.3795 96.659 1.2847 79.523 1.8683 87.634 8.0769 112.24 1.7291 6.8535 2.9216 12.683 2.6499 12.955-0.27183 0.27184-3.6942-1.9936-7.6055-5.034-17.081-13.278-35.302-18.897-57.013-17.581-11.36 0.68815-17.181 2.2182-37.228 9.7849-27.204 10.268-28.857 11.146-46.887 24.903-17.165 13.097-63.739 41.234-67.492 40.774-0.69677-0.0856-9.2532-2.4673-19.014-5.2933z" fill="#f1bc9d" stroke-width="1.0658"/> <path d="m942.75-524.84c-3e-3 -2.4338-24.218-46.62-32.484-59.275-10.571-16.185-29.16-34.516-42.545-41.956-5.9795-3.3232-20.86-10.202-33.069-15.286-24.846-10.347-39.3-18.277-66.608-36.544l-18.666-12.486 4.9978-6.9593c11.536-16.064 12.319-16.642 28.042-20.719 22.299-5.7822 35.624-15.005 52.717-36.485 13.114-16.48 17.952-17.764 37.926-10.061 15.06 5.8077 26.013 13.616 46.282 32.993 17.201 16.444 27.514 31.852 30.657 45.801 6.883 30.543 8.9756 80.71 4.5857 109.94-3.529 23.495-11.824 59.265-11.837 51.041z" fill="#ca9375" stroke-width="1.0658"/> <path d="m-217.43-561.2c-0.56822-22.188-1.4943-58.342-2.058-80.342-0.68138-26.595-0.37602-47.726 0.91087-63.052 1.5738-18.742 1.5433-25.554-0.16346-36.436-1.4646-9.3401-2.0289-28.762-1.8672-64.267l0.23171-50.881 7.9668-18.031c4.3817-9.9169 9.4493-21.809 11.261-26.426 6.6126-16.85 9.4857-20.786 22.771-31.194 16.34-12.801 22.456-20.796 34.405-44.975 8.9205-18.051 9.768-19.201 14.155-19.201 4.0549 0 6.1308 1.9748 15.852 15.079 12.237 16.496 18.373 21.516 46.793 38.284 30.518 18.006 34.821 18.176 50.7 2.001 5.2245-5.3216 13.026-11.484 17.336-13.695 7.7246-3.9612 8.041-3.9897 22.014-1.9869 24.309 3.4844 51.967 20.151 70.225 42.318 4.2067 5.1073 13.352 16.275 20.322 24.816 7.512 9.2052 22.376 24.074 36.498 36.51 13.103 11.539 36.501 32.941 51.995 47.561l28.171 26.581-20.311 10.054c-12.05 5.9649-29.01 16.275-41.698 25.351-20.608 14.74-37.705 25.389-69.704 43.415-8.2774 4.6628-23.604 13.943-34.06 20.622-38.732 24.743-52.92 30.65-95.034 39.569-45.404 9.6158-60.4 17.675-110.06 59.146-12.668 10.579-26.24 21.794-30.161 24.921-10.27 8.1917-41.669 32.274-43.72 33.533-1.2352 0.75784-2.0386-10.623-2.7723-39.274z" fill="#f1bc9d" stroke-width="1.0658"/> <path d="m141.94-205.74c-59.52-4.2488-68.661-4.5337-109.31-3.4073-54.544 1.5115-89.181 1.4072-164.76-0.49576-56.917-1.4332-58.838-1.5846-66.32-5.2282-5.3699-2.6152-9.1095-5.9632-12.341-11.049-11.292-17.77-11.913-36.443-2.2185-66.704 4.4307-13.829 6.2272-22.844 7.4578-37.42 1.4784-17.51 1.3341-20.232-1.6373-30.892-5.8504-20.989-8.2814-40.993-9.2172-75.85-1.2561-46.784-2.6705-43.777 34.201-72.726 15.343-12.047 37.164-30.042 48.491-39.989 39.146-34.377 50.566-41.137 81.383-48.175 59.526-13.594 71.714-19.342 116.29-54.843 32.286-25.71 48.848-34.474 81.663-43.21 34.106-9.0801 49.966-18.143 83.439-47.68 21.034-18.561 34.844-28.475 50.229-36.059 17.036-8.3979 27.539-10.645 55.92-11.963 30.228-1.4037 32.911-2.4901 55.438-22.443 16.959-15.021 23.9-18.721 37.508-19.992 19.586-1.829 32.793 4.5916 68.922 33.509 31.376 25.113 53.187 39.195 82.881 53.512 14.377 6.9318 36.196 17.456 48.487 23.387 23.815 11.492 62.584 36.461 90.922 58.556 34.843 27.169 71.237 48.894 102.18 60.995 14.469 5.6586 28.805 12.912 35.282 17.851 12.423 9.4739 27.953 33.48 49.819 77.009 16.402 32.652 26.781 64.619 32.205 99.192 2.1188 13.505 5.2768 32.752 7.0179 42.77 13.021 74.927 5.1882 110.76-27.585 126.18-6.6337 3.1219-10.295 3.7349-21.127 3.536-9.969-0.18322-13.763 0.35745-15.867 2.2613-5.4585 4.94-23.519 12.131-34.399 13.698-6.0992 0.87795-26.848 1.6103-46.107 1.6276-19.26 0.018-44.211 0.79508-55.447 1.7286-17.175 1.427-120.97 1.9808-224 1.1953-15.807-0.12035-30.135 0.86112-45.942 3.1477-27.387 3.9619-58.115 6.1335-105.35 7.4453-19.169 0.53229-54.457 1.988-78.417 3.2347-57.971 3.0166-73.401 2.7373-149.71-2.7096z" fill="#ca9375" stroke-width="1.0658"/> <path d="m48.052-1159.1c-36.733-5.7566-70.366-30.286-85.888-62.638-7.0886-14.775-9.5342-25.174-9.5342-40.542 0-49.683 32.58-97.299 78.624-114.91 14.529-5.5576 37.074-6.9343 50.351-3.0747 31.491 9.1548 66.816 36.394 78.704 60.689 7.9349 16.216 9.8374 54.348 3.8542 77.244-9.3274 35.692-27.263 59.381-54.968 72.605-8.1288 3.8798-17.988 7.8038-21.909 8.7198-10.546 2.4639-29.733 3.3972-39.234 1.9082z" fill="#d06d68" stroke-width="1.0658"/> </g> </g> </svg>