<?xml version='1.0' encoding='utf-8'?>
<svg xmlns="http://www.w3.org/2000/svg" width="1343.7mm" height="1902.5mm" version="1.1" viewBox="0 0 1343.7 1902.5"> <g transform="translate(562.83 237.91)"> <g transform="matrix(.93823 0 0 .93823 -230.06 -272.96)"> <path d="m-354.67 37.359h1432.1v2027.8h-1432.1z" fill="#fbfbf3" stop-color="#000000" stroke-linecap="square" stroke-width="5.3292"/> <path d="m503.89 308.87c-4.2254-0.63959-3.4346-1.1915 7.1288-4.9756 6.5348-2.3409 17.941-7.9122 25.347-12.381 16.446-9.9228 28.089-13.951 49.407-17.093 23.724-3.4966 35.538-7.5351 61.829-21.137l23.451-12.132h65.712l20.594-8.522c28.815-11.924 35.8-12.306 62.968-3.4447 27.977 9.1252 34.061 9.9035 55.449 7.0934 22.801-2.9958 29.155-1.9953 41.649 6.5583 9.7005 6.6413 10.01 6.7338 12.675 3.7894 4.2186-4.6614 15.339-9.4348 21.98-9.4348 11.906 0 24.866 10.258 31.28 24.757 1.6852 3.8097 3.2601 6.9267 3.4997 6.9267 0.2395 0 3.8449-1.1616 8.0117-2.5813 12.494-4.2572 34.875-0.74778 42.948 6.7343 4.4263 4.1021 4.8381 6.6354 1.7627 10.841-1.7506 2.394-5.4246 3.1627-20.198 4.2258-9.9322 0.71473-27.683 2.3442-39.445 3.621-38.4 4.1682-41.378 4.2529-57.031 1.6213-8.2774-1.3917-28.951-3.19-45.942-3.9964-16.99-0.80634-38.754-1.8937-48.363-2.4163-15.307-0.83256-19.532-0.45386-34.108 3.0591-9.1505 2.2051-25.527 4.7898-36.391 5.7437s-25.101 2.5076-31.635 3.4526c-23.347 3.3763-38.642 4.1147-57.597 2.7803-24.125-1.6984-82.19 0.72125-118.73 4.9474-26.374 3.0506-36.285 3.4709-46.254 1.9618z" fill="#cbc4ba" stroke-width="1.0658"/> <path d="m8.8267 367.77c-10.02-2.1327-21.783-4.6092-26.139-5.5034-13.987-2.8708-97.331-3.1619-117.23-0.40955-18.002 2.49-38.324 2.1444-65.744-1.1181-8.3218-0.99015-33.759-1.2042-66.591-0.56043-48.889 0.95872-53.342 0.82532-55.84-1.6728-6.1832-6.1832-5.3139-16.92 1.6601-20.505 2.3834-1.2252 11.106-2.9675 19.383-3.872 10.088-1.1023 18.013-3.0087 24.038-5.7828 4.9432-2.2761 14.256-5.0544 20.694-6.174 8.1496-1.4172 14.564-3.7746 21.112-7.7592 5.173-3.1479 14.752-7.2965 21.287-9.2191 17.162-5.0489 22.578-8.2059 36.638-21.354 6.9118-6.4638 14.15-12.075 16.084-12.47 1.9344-0.39458 9.6275-1.0292 17.096-1.4095 13.085-0.6664 14.295-1.0669 33.268-11.009 25.713-13.474 33.937-16.114 49.789-15.984 15.925 0.13113 28.26 4.1986 47.526 15.673 21.148 12.595 25.001 13.929 39.514 13.674 16.109-0.28261 21.837 1.2494 41.702 11.155 14.791 7.375 17.661 8.2348 31.684 9.491 25.057 2.2448 30.864 3.7619 52.169 13.631 26.061 12.072 28.019 12.692 48.797 15.46 18.874 2.5139 22.592 3.41 54.435 13.118 22.231 6.7776 28.735 9.8884 28.735 13.742 0 2.936-11.067 11.042-18.739 13.726-7.4857 2.6186-43.042 2.7032-78.758 0.18741-22.647-1.5954-29.671-1.5294-43.565 0.40895-9.1107 1.2711-28.456 2.9897-42.99 3.8191-14.534 0.82938-32.337 2.2493-39.563 3.1553-19.276 2.417-30.098 1.8942-50.449-2.4373z" fill="#cbc4ba" stroke-width="1.0658"/> <path d="m558.98 647.65c-2.8099-0.72503-7.0188-2.5697-9.3532-4.0992-5.7809-3.7878-3.4335-4.8879 16.968-7.9522 9.0003-1.3518 20.306-3.6038 25.124-5.0045 5.8833-1.7103 14.065-2.4613 24.913-2.2869 17.123 0.27542 48.396-4.3635 54.308-8.0556 4.2232-2.6374 7.1241-8.9287 12.032-26.094 8.374-29.287 22.676-51.747 37.897-59.512 9.7119-4.9546 20.747-4.3487 33.294 1.8281 17.399 8.5655 38.441 32.217 44.961 50.537 3.3162 9.3172 4.6271 11.378 7.2372 11.378 1.1444 0 10.905-8.7659 21.689-19.48 22.078-21.933 34.275-29.605 52.365-32.939 17.466-3.2182 38.358 2.9702 51.329 15.204l5.6238 5.3039 5.5022-3.2464c8.4608-4.992 20.408-3.4723 31.123 3.959 9.268 6.4276 14.225 12.907 18.509 24.192l2.8799 7.5868 14.853 0.31734c24.903 0.53228 39.408 7.2274 39.408 18.191 0 6.1714-4.8329 13.2-10.652 15.491-2.4187 0.95249-23.711 2.8478-47.316 4.2119s-47.13 3.17-52.278 4.013c-5.1481 0.84304-16.253 1.5369-24.678 1.542-8.9844 5e-3 -19.465 1.0782-25.347 2.5949-8.963 2.3108-17.523 2.4372-80.526 1.1882-98.458-1.9519-175.02-1.4139-229.71 1.6142-8.2773 0.45805-17.349 0.2401-20.159-0.48498z" fill="#cbc4ba" stroke-width="1.0658"/> <path d="m618.08 137.79c-2.3784 0.0383-4.5265 0.15388-6.4265 0.34961-18.961 1.9538-33.734 4.228-57.074 8.778-13.069 2.5477-30.535 5.7186-38.813 7.0484-21.93 3.5231-71.177 3.1921-109.31-0.73639-34.877-3.5932-58.382-3.9717-85.713-1.3769-20.371 1.934-29.105 1.2282-63.201-5.0991-13.158-2.4418-24.818-3.4077-41.981-3.4778-27.903-0.11418-36.277 1.5182-82.582 16.099-31.934 10.055-54.945 16.222-71.638 19.193-13.661 2.4313-37.032-0.0467-68.358-7.2433-51.856-11.912-71.49-13.718-110.1-10.133-8.713 0.80879-26.892 2.1653-40.397 3.0168-34.107 2.1504-48.352 6.8458-55.409 18.265-8.3622 13.53-13.012 40.159-15.201 87.034-0.851 18.222-0.65724 21.877 1.1262 21.195 1.1854-0.45368 6.2071-2.1032 11.16-3.6634 5.6815-1.7897 12.992-6.0174 19.802-11.454 18.236-14.558 23.671-16.665 45.651-17.698 18.851-0.88609 19.156-0.96205 36.436-9.1184 22.499-10.62 34.104-13.553 53.07-13.416 18.12 0.13047 28.449 2.6955 51.486 12.788 21.416 9.3824 26.826 11.22 33.107 11.256 10.424 0.0584 26.177 4.7298 42.247 12.528 16.772 8.1385 21.289 9.3076 49.005 12.661 11.992 1.4511 16.152 2.9574 38.021 13.775l24.555 12.148 22.179 1.1417c19.161 0.98722 25.412 2.0521 45.941 7.8219 38.939 10.944 40.521 11.517 46.01 16.693 13.895 13.104 6.3204 31.108-17.841 42.414l-10.328 4.833-23.178-1.281c-30.585-1.6895-64.149-0.98385-81.793 1.7203-42.395 6.4978-43.91 6.5126-87.226 0.7395-12.289-1.6379-101.64-3.4242-202.68-4.0533-75.212-0.46834-74.101-0.64294-82.854 12.998-4.5808 7.1386-5.68 11.529-11.643 46.563-7.8961 46.391-8.3391 62.725-2.9642 109.18 3.036 26.24 3.4309 35.603 2.6176 62.179-0.5263 17.208-0.47541 31.288 0.11436 31.288 2.5456 0 77.754-58.924 109.4-85.71 30.77-26.048 63.592-45.769 89.89-54.011 10.225-3.2046 14.671-3.5005 57.031-3.7903 43.501-0.29758 46.783-0.52845 61.783-4.3565 34.259-8.7427 48.286-7.4174 80.002 7.562 11.763 5.5554 29.003 13.667 38.314 18.026 19.189 8.9839 26.626 13.76 45.422 29.162 16.675 13.665 21.573 16.129 38.246 19.252 7.8232 1.4653 18.131 4.8183 24.598 8.0045 11.34 5.5863 18.998 12.714 43.175 40.177 16.909 19.206 44.719 40.029 64.506 48.299 11.323 4.7322 26.492 8.9924 52.278 14.682 37.192 8.2057 54.597 17.782 93.467 51.424 24.832 21.492 36.507 28.148 63.368 36.133 8.713 2.5902 20.762 6.5791 26.777 8.8616 6.0148 2.2825 16.357 5.4983 22.983 7.1474 16.801 4.1816 26.178 8.7361 51.239 24.892 11.985 7.7266 27.786 17.518 35.112 21.758 7.3259 4.24 17.48 11.153 22.565 15.359v-3e-3c5.0856 4.2066 9.6414 7.6905 10.124 7.7384 0.48259 0.0485 3.3341-2.4464 6.3367-5.5447 13.024-13.439 29.285-20.341 56.05-23.791 32.964-4.2481 38.918-6.3796 52.86-18.914l8.2366-7.4011v-26.3c0-14.464 0.76574-36.048 1.7018-47.962 1.2595-16.029 1.2304-23.411-0.11136-28.395-3.2585-12.101-20.691-27.19-36.727-31.789-2.7112-0.77759-12.566 0.23825-26.947 2.7785-28.632 5.0578-46.559 5.1972-64.652 0.50127-10.119-2.6266-15.828-3.2535-22.971-2.5248-23.94 2.4422-37.762 2.7212-50.515 1.0242-11.485-1.5283-16.98-1.3964-32.965 0.7859-13.215 1.8044-24.16 2.3188-35.18 1.6554-8.7983-0.52966-30.254-1.6076-47.68-2.3949-26.994-1.2195-33.787-2.0534-45.892-5.6406-16.97-5.0288-25.246-9.4023-27.612-14.595-2.4652-5.4104-2.2049-7.4298 1.5718-12.231 4.6206-5.8741 12.91-9.7376 26.795-12.494 6.5276-1.2959 16.784-3.6371 22.791-5.2012 9.53-2.4813 12.56-2.6083 23.763-0.99321 11.735 1.6917 23.874 1.501 41.715-0.65595 6.1664-0.74551 6.8125-1.2724 8.1716-6.6586 0.81172-3.217 1.9637-9.4154 2.5589-13.772 3.139-22.98 15.557-49.265 28.967-61.316 31.214-28.052 71.121-12.943 104.5 39.568l7.3238 11.519 4.7-7.5497c10.08-16.195 33.35-34.019 51.737-39.629 14.408-4.3968 32.809-3.4811 50.428 2.5093 8.131 2.7645 15.418 4.6319 16.195 4.1523 3.9825-2.4612 4.9498-15.195 3.9078-51.396-1.0288-35.748-0.90962-38.072 2.9023-57.068 4.8299-24.069 7.1383-48.236 7.7167-80.794l0.43649-24.552-4.7526-7.5868c-2.7896-4.452-8.0234-9.6865-12.67-12.674l-7.9179-5.0898-42.776 0.45484c-30.992 0.32901-47.359 1.2019-59.41 3.1684-12.616 2.0587-26.582 2.7236-57.823 2.7476-62.582 0.0476-107.32 2.1211-138.98 6.442-52.086 7.1083-108.53 7.766-124.32 1.448-8.0178-3.208-10.605-8.1912-7.4321-14.307 2.9365-5.6602 5.7961-7.8743 16.476-12.757 4.7922-2.1909 15.134-7.8634 22.983-12.605 18.493-11.172 27.851-14.331 53.426-18.048 23.828-3.4634 36.106-7.8356 56.721-20.198 29.28-17.559 31.24-18.057 69.909-17.664 30.441 0.30853 30.723 0.28159 46.177-4.7 30.292-9.7646 40.745-10.102 79.822-2.5774l20.913 4.0255 19.666-4.0502c13.864-2.8562 24.626-4.0502 36.483-4.0502 16.63 0 16.827-0.0461 17.813-3.9728 2.5595-10.198-3.3289-23.535-15.424-34.933-15.548-14.652-30.932-19.601-64.72-20.82-16.731-0.6039-27.705-0.13245-40.397 1.742-46.937 6.932-57.247 6.5163-112.17-4.5267-33.212-6.6775-61.15-10.226-77.799-9.96zm-167.64 303.83c13.497-0.24123 28.052 5.2434 36.439 14.796 7.5736 8.6259 17.292 26.136 20.248 36.48 6.8313 23.908-7.0406 50.811-32.123 62.294-10.674 4.8867-26.907 6.2834-35.527 3.0601-22.462-8.3998-39.604-28.093-41.99-48.24-1.0874-9.1819 2.7217-25.235 8.2056-34.592 7.6066-12.98 21.304-27.119 29.821-30.783 4.5257-1.9469 9.6444-2.9193 14.926-3.0137z" fill="#f7efe4" stroke-width="1.0658"/> <path d="m66.301 917.7c-5.4198-1.2383-22.173-6.3648-37.228-11.392l-27.374-9.1409-20.594 0.18142c-11.327 0.1-39.486 0.36763-62.575 0.59575-32.727 0.32273-46.171-0.17783-60.991-2.2724-10.456-1.4776-32.555-3.449-49.11-4.3809-16.555-0.93196-30.428-2.0171-30.828-2.4115-0.40057-0.39458-0.40057-15.122 0-32.728 1.1563-50.797 0.66215-87.586-1.4416-107.32-1.9178-17.993-1.8825-18.494 2.2354-31.684 4.3526-13.942 15.249-36.196 24.401-49.838 3.7101-5.5297 11.58-12.589 26.068-23.383 27.641-20.593 50.839-40.023 80.328-67.279 42.93-39.68 65.747-55.621 87.858-61.38 13.544-3.5279 44.717-3.1414 67.226 0.8334 20.337 3.5912 24.844 3.3489 51.486-2.7691 9.5844-2.2009 22.061-4.0691 27.726-4.1517 9.0219-0.13172 11.969 0.66503 23.763 6.421 18.132 8.8498 39.581 23.003 61.684 40.702 24.854 19.902 33.638 25.41 47.886 30.023 19.934 6.4539 26.484 10.775 59.144 39.019 29.281 25.322 55.714 43.83 75.787 53.066 6.2387 2.8705 23.106 8.9452 37.482 13.499 38.013 12.042 40.567 13.497 72.864 41.507 36.541 31.691 54.344 40.289 95.852 46.29 24.377 3.5243 31.506 7.2817 43.129 22.732 12.148 16.148 21.834 21.264 48.754 25.751 25.033 4.1726 28.212 5.6671 79.774 37.508l3.7328 2.3051-5.317 5.5559c-9.7232 10.16-23.941 20.046-43.022 29.915-18.285 9.4566-19.024 9.6898-23.555 7.4295-7.5021-3.7425-56.908-4.5499-85.085-1.3905-29.114 3.2644-50.664 3.2286-81.16-0.13472-18.026-1.9881-34.085-2.5473-61.609-2.1456-45.244 0.66048-86.399 0.69473-158.42 0.13173-30.06-0.23471-82.813 0.34607-117.23 1.2914-55.411 1.5218-65.205 2.1849-85.546 5.7918-28.896 5.1239-52.773 6.3006-66.093 3.2574z" fill="#354c5a" stroke-width="1.0658"/> <path d="m842.9 1117.7c-7.8418-1.73-24.789-5.6147-37.661-8.6327-27.279-6.3958-38.3-6.9848-79.569-4.2527-19.079 1.2631-52.369 1.5924-100.6 0.9954-138.79-1.7184-145.54-1.6464-155.02 1.6541-10.044 3.4988-15.367 2.0114-17.069-4.7697-2.3201-9.244 3.7564-14.66 28.715-25.592 19.024-8.3325 41.171-21.775 63.368-38.462 22.705-17.069 30.508-21.032 60.561-30.759 42.737-13.832 57.826-22.453 91.522-52.293 22.68-20.084 33.395-27.128 69.52-45.704 16.454-8.4604 38.91-21.172 49.902-28.248 29.962-19.288 41.681-25.714 64.605-35.427 18.796-7.9646 29.076-13.324 42.116-21.957l4.3566-2.8842v4.501c0 2.4755 3.1775 16.993 7.0612 32.262 19.27 75.76 22.423 127.37 11.655 190.76-1.7917 10.549-4.0625 29.106-5.0464 41.239l-1.7888 22.06-23.763 4.3931c-29.333 5.4228-51.782 5.7654-72.873 1.1124z" fill="#858c96" stroke-width="1.0658"/> <path d="m397.75 1450.4c-12.563-2.4012-27.972-3.3303-74.457-4.4895-32.238-0.8039-71.091-1.9241-86.338-2.4894-17.981-0.6666-48.878-0.06-87.923 1.7283-78.186 3.5795-90.813 2.7978-151.29-9.3655-38.083-7.6594-59.122-9.0388-143.37-9.3998l-72.873-0.3119-2.1501-15.012c-1.4816-10.345-2.1005-30.526-1.9907-64.914 0.15208-47.585-0.0419-51.079-4.1867-75.249-3.7226-21.711-4.32-29.438-4.1644-53.862 0.16405-25.71 0.60377-30.074 4.4718-44.357 10.207-37.692 15.098-58.308 16.917-71.309 1.6522-11.81 2.8839-15.305 8.199-23.265 3.44-5.1516 7.9872-10.502 10.105-11.889 8.0464-5.2722 70.73-17.764 92.444-18.423 8.473-0.2569 9.0837 0.018 19.252 8.6363 9.6175 8.1525 19.274 14.144 49.283 30.579 10.805 5.9176 17.471 12.018 48.675 44.548 18.593 19.383 32.141 29.168 55.033 39.748 39.023 18.034 63.832 31.29 76.76 41.013 18.377 13.82 31.862 27.545 36.129 36.77 1.9218 4.1543 5.2949 11.384 7.4957 16.065 4.9003 10.424 19.804 26.465 39.028 42.005 26.587 21.493 38.261 28.148 61.632 35.133 5.038 1.5058 14.662 5.9387 21.387 9.8507 6.7246 3.9121 20.36 11.663 30.301 17.224 9.941 5.5611 21.036 12.841 24.655 16.177 9.1254 8.4114 17.873 13.252 41.919 23.196 23.398 9.6756 33.797 16.116 37.461 23.201 3.9578 7.6536 1.8742 12.067-7.7107 16.332-11.56 5.1443-25.461 5.8071-44.694 2.1309z" fill="#2e4e5f" stroke-width="1.0658"/> <path d="m-82.264 1956c-10.456-0.6242-38.971-1.6465-63.368-2.2717-24.396-0.6253-47.068-1.8169-50.381-2.648-8.0774-2.0265-17.515-12.028-21.937-23.247-2.8078-7.1241-3.5324-12.111-3.4929-24.039 0.0419-13.082 0.81645-17.329 5.912-32.476 8.7872-26.121 11.455-54.753 6.6526-71.397-2.797-9.6939-6.6812-30.06-8.137-42.665-0.60378-5.2278-1.2952-47.644-1.5364-94.259-0.2413-46.615-1.2178-101.62-2.1699-122.24-1.4981-32.437-1.3965-39.249 0.75473-50.589 4.3656-23.014 9.1935-28.772 28.507-34 9.3073-2.5193 12.512-2.5279 50.064-0.1341 22.066 1.4067 53.665 2.9834 70.22 3.5036 16.555 0.5204 41.149 1.9532 54.655 3.1843 31.503 2.8717 64.725 2.8334 100.6-0.1161 15.684-1.2896 37.85-2.3543 49.259-2.366 23.071-0.024 107.83 6.2546 150.94 11.18 15.361 1.7551 40.048 3.5805 54.86 4.0562 24.953 0.8014 28.968 0.5155 54.655-3.8884 15.248-2.6144 31.644-5.2432 36.436-5.8419 36.862-4.6049 52.331-24.483 39.267-50.46-9.5596-19.008-36.393-33.159-70.814-37.344-16.51-2.0073-17.88-2.5511-30.236-12.007-15.706-12.02-42.654-29.312-59.902-38.44-10.156-5.3743-22.637-13.753-31.189-20.937-7.8418-6.5877-21.743-17.583-30.892-24.435-22.376-16.757-28.803-23.086-39.542-38.943-16.785-24.783-49.473-52.363-101.4-85.56-34.513-22.062-49.395-33.619-74.503-57.86-24.5-23.653-28.376-26.65-49.11-37.963-18.62-10.16-21.787-12.237-36.436-23.896-14.994-11.933-22.534-15.323-33.989-15.282-9.9146 0.036-42.736 5.853-87.993 15.596-14.377 3.0949-26.836 5.7453-27.688 5.8896-0.85848 0.1455-2.085-6.7983-2.7518-15.579-0.66161-8.7131-3.3963-27.186-6.0771-41.052-3.9565-20.465-10.219-73.535-8.8406-74.914 0.191-0.191 11.722-0.80513 25.624-1.3653 33.317-1.3425 92.953 2.5967 120.65 7.9695 37.365 7.2473 51.693 8.731 101.86 10.547 39.266 1.4216 58.114 1.372 88.433-0.23231 27.554-1.4581 49.443-1.638 76.833-0.63144 21.066 0.77418 70.026 1.4514 108.8 1.5048 57.386 0.079 75.652 0.64767 98.22 3.0571 44.884 4.7921 81.945 4.2797 230.18-3.1826 51.198-2.5774 67.675-2.8476 67.592-1.1085-0.0677 1.4216-23.196 15.486-63.256 38.467-41.56 23.841-61.379 36.483-83.587 53.316-18.86 14.295-27.447 19.037-72.358 39.956-26.924 12.541-35.289 21.657-33.827 36.867 0.92836 9.6616 7.2173 18.108 17.122 22.994 11.215 5.5334 64.145 8.4457 168.28 9.2591 47.727 0.3731 94.421 1.3551 103.76 2.1828 9.3432 0.8276 38.018 2.3308 63.721 3.3403 28.657 1.1254 56.232 3.1369 71.289 5.2001 13.505 1.8506 34.531 3.5396 46.723 3.7533l22.168 0.3886-0.45865 5.2094c-0.25207 2.8651-1.5202 11.592-2.8173 19.393-1.8743 11.272-2.3196 29.348-2.169 88.048 0.13053 50.854-0.37481 76.045-1.6215 80.867-3.4748 13.438-10.039 29.246-15.712 37.84-4.8091 7.2841-8.066 9.9809-20.539 17.006-8.1532 4.5921-28.827 17.52-45.942 28.73-74.205 48.601-76.054 49.696-100.82 59.732-13.07 5.2962-28.66 12.37-34.646 15.719-27.74 15.521-55.346 40.341-76.712 68.972-35.675 47.804-48.638 58.771-109.52 92.657-39.165 21.798-53.944 31.433-82.864 54.025-45.86 35.825-53.938 40.53-124.87 72.718-58.14 26.383-68.87 32.017-96.92 50.891-23.125 15.56-40.824 24.061-71.846 34.507-94.265 31.743-112.22 39.928-140.66 64.112-5.124 4.3576-15.682 11.177-23.463 15.153l-14.146 7.2303-16.934-0.261c-9.3138-0.1437-25.489-0.7717-35.945-1.3958z" fill="#d9d3c5" stroke-width="1.0658"/> <path d="m203.68 1963.9c-10.891-0.7047-45.408-3.1291-76.704-5.3876-31.296-2.2584-61.503-4.1062-67.126-4.1062-8.4208 0-9.91-0.3784-8.4432-2.1459 3.7049-4.4643 32.2-16.962 61.865-27.133 16.93-5.805 33.683-12.017 37.228-13.805 14.736-7.4313 38.419-24.991 76.11-56.435 23.986-20.01 34.534-24.29 80.834-32.797 32.033-5.8857 45.409-9.5778 64.16-17.711 54.257-23.533 98.42-57.946 202.32-157.66 12.457-11.954 33.248-30.262 46.203-40.684s32.859-27.145 44.232-37.163c35.442-31.22 60.294-49.745 76.939-57.352 4.4746-2.0451 18.829-6.5668 31.898-10.048 38.559-10.271 48.484-15.084 95.051-46.094 13.941-9.2833 30.337-19.766 36.436-23.295 14.507-8.3941 40.46-21.531 41.138-20.823 0.64832 0.6773 7.4499 31.188 11.778 52.834 5.8172 29.093 8.4919 54.678 8.446 80.794-0.0539 29.268-2.1179 44.395-12.161 89.02-13.568 60.291-13.683 76.652-1.0622 151.78 13.723 81.688 10.442 112.31-14.403 134.45-23.045 20.528-48.46 25.783-135.92 28.1-134.95 3.5765-221.79 4.2189-244.76 1.8107-25.843-2.7091-41.143-2.0646-83.962 3.5372-22.388 2.9289-43.494 4.3496-82.378 5.5444-28.753 0.8837-67.249 2.298-85.546 3.143-55.388 2.5578-81.411 2.9727-102.18 1.6289z" fill="#1d313c" stroke-width="1.0658"/> <path d="m435.77 546.4c-9.8609-5.7966-22.177-18.795-26.195-27.646-4.0214-8.8588-3.9241-19.078 0.26405-27.73 1.8573-3.8368 8.808-12.519 15.446-19.294 9.6866-9.8869 13.741-12.865 20.539-15.089 20.676-6.763 40.583 5.5002 48.046 29.596 5.2766 17.039 4.7754 28.172-1.8259 40.557-8.9681 16.826-16.916 21.719-38.055 23.429-9.3349 0.75515-11.037 0.39757-18.218-3.8232z" fill="#f7c06d" stroke-width="1.0658"/> </g> </g> </svg>