<?xml version='1.0' encoding='utf-8'?>
<svg xmlns="http://www.w3.org/2000/svg" width="1343.7mm" height="1902.5mm" version="1.1" viewBox="0 0 1343.7 1902.5"> <g transform="translate(-2591.1 2252.4)"> <g transform="matrix(.93823 0 0 .93823 -230.06 -272.96)"> <path d="m3006.9-2109.8h1432.1v2027.8h-1432.1z" fill="#333" stop-color="#000000" stroke-linecap="square" stroke-width="5.3292"/> <path d="m3977.2-1803.5c15.359-23.092 46.13-38.554 77.036-38.71 13.118-0.066 16.325 0.4843 28.342 4.8684 12.707 4.6356 13.864 4.8101 18.604 2.8051 5.891-2.4923 7.3541-5.6654 10.716-23.242 4.5871-23.982 12.142-38.533 25.17-48.475 9.5192-7.2652 42.01-24.156 52.408-27.245 9.9376-2.952 30.651-3.0871 41.11-0.2677 19.002 5.1222 26.661 16.09 35.12 50.298 10.225 41.347 14.157 49.421 24.063 49.421 7.6179 0 12.821-3.5489 21.919-14.949 11.444-14.342 16.194-17.12 27.499-16.082 13.131 1.2054 19.445 6.028 25.893 19.774 6.4737 13.802 8.0735 28.729 4.4373 41.394-4.011 13.97-6.2551 14.858-37.584 14.885-37.895-0.2203-67.756-3.6163-96.567-5.9904-41.091 1.6656-100.3 4.3685-133.82 4.399-11.854 0-30.013 0.9744-40.351 2.1655-10.339 1.191-26.452 2.9148-35.808 3.8306-15.532 3.2227-60.647-0.054-48.193-18.879z" fill="#fefcf7" stroke-width="1.0658"/> <path d="m3088.4-1343.2c-1.1551-9.5415 1.3528-26.416 5.253-35.343 6.6967-15.328 25.609-37.041 36.146-41.499 6.5999-2.7921 14.267-2.7387 21.087 0.1467 7.3871 3.125 9.4104 5.1463 22.135 22.114 11.601 15.468 16.286 18.869 22.225 16.129 5.8513-2.6993 7.0183-7.6861 3.9333-16.807-1.8628-5.5069-2.7255-12.467-2.7574-22.242-0.042-12.862 0.3927-15.162 4.5309-23.962 4.7797-10.165 14.234-20.971 21.959-25.101 12.653-6.7639 32.466 0.2137 49.511 17.436 15.907 16.073 20.647 27.852 24.48 60.827 1.8831 16.201 2.4695 18.3 5.9608 21.341 5.3163 4.6299 7.2278 4.2898 14.61-2.5997 7.7812-7.2619 15.033-10.506 23.44-10.487 8.0716 0.018 20.526 5.8442 24.411 11.418 8.2239 11.8 14.584 30.357 11.143 32.51-0.7815 0.4886-6.1298 1.6289-11.885 2.5329-13.16 2.0674-28.63-0.3988-55.247-8.8063-26.9-8.4971-30.522-8.6749-69.325-3.4046-41.664 5.6588-56.834 7.1449-93.925 9.201-16.27 0.902-33.909 2.2604-39.197 3.0188-17.532 2.5142-17.401 2.5596-18.489-6.4244z" fill="#f9f6f1" stroke-width="1.0658"/> <path d="m3996.8-2010.2c-21.162 0.3952-42.473 3.7922-74.841 9.9506-17.462 3.3225-37.427 6.6977-44.37 7.5033-21.616 2.5082-67.311 1.7597-101.98-1.6708-27.344-2.7061-36.405-2.9917-62.999-1.9802-50.808 1.9323-62.515 1.5261-88.749-3.0973-18.87-3.3256-28.46-4.1955-47.331-4.2853-27.855-0.1323-38.413 1.6674-74.59 12.72-93.319 28.511-101.62 29.194-170.23 13.973-38.988-8.6493-49.64-9.6369-86.768-8.0447-17.756 0.7616-35.279 2.024-38.94 2.8064-3.6608 0.7823-13.087 1.4523-20.947 1.4883-16.806 0.077-33.546 3.0218-43.151 7.5929-10.475 4.9855-15.029 11.332-20.106 28.024-6.373 20.956-8.9822 48.608-8.9822 95.15 0 37.562 0.089 38.701 4.5885 58.262 6.5738 28.581 6.32 40.351-1.841 85.846-6.0416 33.68-6.4434 37.59-6.3955 62.148 0.036 17.536 0.9875 32.899 2.8837 46.427 3.2223 22.99 3.5755 48.818 1.5811 115.18-1.2463 41.464-1.206 42.522 1.5409 41.631 1.55-0.5023 6.4788-2.2731 10.953-3.9326 9.5726-3.5505 15.471-3.7864 26.842-1.0767 8.5605 2.0401 19.973 7.9483 23.379 12.104 2.9907 3.6485 4.0537 2.8203 5.13-3.9944 2.4367-15.429 15.909-34.965 30.858-44.747 16.773-10.977 31.636-10.878 54.311 0.3622 10.122 5.0176 15.031 8.7437 25.189 19.112 17.374 17.734 24.22 33.357 26.201 59.794 0.7695 10.267 1.0235 10.915 3.9295 10.068 30.31-8.8304 57.541 2.0414 70.404 28.104 8.5563 17.336 5.222 32.526-8.5428 38.915-6.4686 3.0019-9.3438 3.2465-38.788 3.2705-30.29 0.024-32.479-0.1707-46.053-4.0936-17.758-5.1317-26.75-5.1918-50.258-0.3311-33.563 6.9398-47.283 8.4676-85.624 9.533-28.951 0.8045-38.489 1.5497-41.044 3.2086-3.3041 2.1462-3.3293 2.4195-3.3293 39.422 0 41.894 2.8174 80.721 7.5961 104.66 1.7672 8.8546 3.6245 16.099 4.1245 16.099 0.4999 0 7.5516-6.7915 15.672-15.09 8.12-8.2985 20.089-19.536 26.597-24.973 19.175-16.018 24.291-21.411 32.628-34.382 12.29-19.122 22.993-25.642 55.112-33.581 10.316-2.5496 23.748-7.0367 29.849-9.9723 9.7313-4.682 12.548-5.3504 22.928-5.4456 14.79-0.1353 24.07 2.8191 43.259 13.778 28.869 16.487 32.401 18.145 45.49 21.368 21.948 5.4043 35.894 12.284 59.141 29.171l11.69 8.4902 2.9364-4.2606c5.4415-7.8991 17.903-19.206 26.083-23.664 7.4651-4.0685 9.6893-4.4979 27.355-5.2631 18.758-0.8124 19.402-0.9545 26.303-5.786 13.124-9.1888 24.55-26.646 40.369-61.672 5.3781-11.908 12.465-26.306 15.749-31.999 11.435-19.824 39.825-45.532 56.715-51.359 17.098-5.8985 34.14 0.5592 54.03 20.48 16.33 16.356 21.928 24.975 38.29 58.934 14.714 30.54 26.686 48.38 38.15 56.851 8.6418 6.3859 32.073 18.297 50.208 25.52 11.004 4.3831 54.326 18.069 67.798 21.418 2.3191 0.5765 5.3661-1.7439 12.868-9.7961 12.446-13.358 21.544-26.419 38.714-55.58 7.5168-12.767 19.974-32.676 27.68-44.24 19.564-29.358 23.771-41.343 26.343-75.02 1.8825-24.648 4.1547-33.323 14.264-54.453 8.8896-18.581 13.002-24.949 29.496-45.688 5.8961-7.4132 15.246-21.564 20.777-31.449 11.566-20.669 19.098-31.066 30.923-42.683 17.191-16.889 26.5-30.902 30.344-45.675 2.8939-11.124 11.19-27.07 17.94-34.484 7.7577-8.5211 16.293-11.86 27.655-10.817 19.612 1.8006 27.043 9.5467 56.378 58.779 19.14 32.123 30.992 45.762 58.337 67.13 7.1946 5.6211 13.917 10.546 14.941 10.944 3.2961 1.281 4.3649-67.581 1.6058-103.53-3.2524-42.406-3.068-75.204 0.5209-91.744 2.7585-12.711 5.4912-30.218 6.3528-40.697 0.4071-4.9729 0.1976-5.2-6.5132-6.9339-3.8152-0.9861-9.1387-3.1628-11.832-4.8361-7.8041-4.8479-40.756-11.151-58.888-11.266-77.438-4.6786-100.24 11.43-158.51 6.8411-12.129-0.8415-44.429 2.2389-75.193 7.1721-24.126 5.6831-50.028-1.8586-67.155-19.561-10.018-11.227-6.7595-28.022 9.1988-47.427 13.59-16.525 34.208-29.008 57.953-35.087 10.586-2.7108 15.261-3.0764 31.009-2.4164 13.212 0.5538 20.925 1.6393 26.829 3.7748l8.2891 2.9981 2.5434-12.2c5.8166-27.897 20.494-48.455 44.954-62.962 15.846-9.3979 38.341-19.568 50.561-22.859 13.745-3.7032 46.344-3.699 58.305 0.01 17.797 5.5119 31.141 17.391 39.385 35.056 4.3295 9.2782 11.752 35.51 11.752 41.681 0 5.2647 1.64 5.2226 7.9053-0.2071 3.3129-2.8713 9.9764-6.6794 14.806-8.4624l8.7806-3.2427-0.8598-20.313c-1.316-31.04-6.7251-47.362-20.223-61.028-13.542-13.712-30.655-20.221-60.685-23.079-19.006-1.809-32.8-1.0443-62.124 3.4437-29.246 4.476-55.816 4.1849-81.354-0.8911-49.914-9.9214-76.878-14.373-104.09-13.865zm-595.01 60.991c8.49-0.109 16.385 0.6122 22.312 2.1751 12.167 3.2086 27.446 11.706 36.022 20.031 4.0039 3.8868 12.144 13.763 18.088 21.95 5.944 8.1862 11.013 15.15 11.263 15.474 0.2509 0.3239 5.0801-3.8301 10.734-9.2298 23.132-22.094 49.906-34.903 66.49-31.814 20.569 3.8316 33.449 18.103 52.739 58.426 24.586 51.393 26.274 75.468 5.981 85.314-10.242 4.9691-42.677 10.347-56.285 9.3319-13.365-0.9967-56.093 2.4603-78.73 6.3707-60.334 12.978-138.85 2.6026-188.72-4.9165-15.536-10.784-19.274-10.017-38.618 7.9241-14.826 13.75-20.345 17.068-33.72 20.26-11.252 2.6855-16.5 2.7328-23.46 0.2138-10.434-3.7769-16.233-9.9394-20.799-22.104-6.9607-18.548-4.5348-36.579 6.5688-48.819 8.6712-9.5591 30.481-26.363 40.617-31.294 11.839-5.7595 29.508-6.4481 56.817-2.2092 11.123 1.7266 20.941 3.1406 21.817 3.1406 1.0371 0 1.6003-5.6146 1.6182-16.099 0.048-28.826 6.4657-48.739 19.843-61.548 11.476-10.989 19.936-14.835 43.528-19.787 8.3146-1.7452 17.402-2.6822 25.892-2.7909zm110.86 230.9c11.113-0.048 22.422 1.4988 31.668 4.6999 34.237 11.854 56.529 33.493 68.38 66.372 8.6477 23.991 11.44 54.502 6.6802 73.006-7.2363 28.129-32.821 53.42-62.077 61.366-17.694 4.8054-43.961 4.2284-66.787-1.4666-34.669-8.6501-56.413-23.665-67-46.257-16.142-34.445-5.8478-86.23 23.475-118.08 4.7157-5.1228 9.6668-11.474 11.003-14.112 3.6219-7.1537 12.574-15.405 20.913-19.273 8.8052-4.085 21.15-6.1939 33.744-6.2501zm391.73 51.774c5.435 0.082 10.981 1.1942 15.876 3.3262 8.8961 3.8748 20.494 15.765 25.892 26.551 5.0477 10.086 10.944 30.944 12.169 43.055 0.5395 5.3337 1.1409 9.7001 1.3367 9.7001 0.1964 0 4.059-1.718 8.5831-3.8151 11.491-5.3265 23.854-7.0982 35.907-5.1486 10.327 1.6704 21.824 6.7346 26.056 11.476 9.2338 10.348 12.071 32.652 5.7427 45.162-4.8347 9.5573-11.022 11.804-38.005 13.803-12.774 0.9464-28.567 3.202-37.569 5.3621-18.606 4.4648-33.04 5.7713-96.144 8.7038-34.851 1.6195-52.546 3.0932-64.342 5.3652-21.946 4.2268-37.213 5.0922-42.965 2.4382-2.4794-1.144-7.3205-5.3101-10.755-9.2607-11.423-13.139-13.154-28.69-6.0583-54.364 7.5253-27.226 18.26-39.469 38.451-43.853 13.138-2.8529 31.979 2.6685 43.974 12.887 4.502 3.8354 4.662 3.8572 9.4556 1.3428 5.1881-2.7212 15.678-3.5475 22.039-1.7358l3.8553 1.0984 0.9437-11.331c2.5058-30.014 13.07-50.166 30.353-57.906 4.4478-1.9925 9.7693-2.9403 15.204-2.859z" stroke-width="1.0658"/> <path d="m4208.9-970.87c-1.9321-2.8547-8.7697-10.197-15.194-16.317-9.8676-9.3983-14.785-12.658-31.656-20.989-22.846-11.28-26.676-14.623-41.265-36.012-36.665-53.756-56.77-70.437-106.37-88.261-10.52-3.7802-13.567-5.8677-29.277-20.063-9.6441-8.7145-23.048-20.612-29.786-26.44l-12.251-10.595 8.1218-8.8346c14.807-16.107 26.349-36.914 41.825-75.404 4.8361-12.027 14.312-31.976 21.058-44.332s24.646-47.736 39.779-78.624c23.459-47.884 28.525-59.471 34.376-78.624 18.018-58.983 20.191-63.463 40.692-83.866 17.554-17.471 30.622-33.864 35.216-44.179 4.9543-11.124 16.117-28.11 19.776-30.093 7.9708-4.3189 13.865 1.8731 28.65 30.093 6.2557 11.944 15.09 27.444 19.628 34.445 11.835 18.254 32.735 38.726 55.002 53.875 10.169 6.9184 22.316 16.573 26.993 21.455 9.9685 10.404 9.8099 9.1884 6.2078 47.473-1.2011 12.767-2.574 46.463-3.0494 74.88l-0.8658 51.667 5.2013 18.03c2.8614 9.9164 7.5538 28.786 10.43 41.933 13.261 60.63 14.155 97.266 3.9637 162.43-2.3836 15.238-5.4097 41.935-6.7251 59.327-3.1345 41.45-2.5076 39.509-10.385 32.157-10.292-9.605-17.596-12.764-29.63-12.816-15.752-0.067-25.472 5.5467-49.892 28.818-10.752 10.246-21.238 19.849-23.303 21.341-3.7493 2.7101-3.7565 2.7077-7.2658-2.4777z" fill="#925622" stroke-width="1.0658"/> <path d="m3724.2-880.11c-14.02-16.031-27.025-27.552-37.08-32.847-3.409-1.7953-11.729-4.2677-18.489-5.4942-30.664-5.5636-35.149-7.7771-70.854-34.967-28.316-21.563-37.094-26.847-66.17-39.831-27.223-12.157-31.792-15.937-49.01-40.545-17.866-25.534-31.823-39.086-48.739-47.324l-13.487-6.5679 5.5705-5.9676c3.0637-3.2821 8.6806-8.4989 12.482-11.593 6.9509-5.6572 32.207-37.84 47.169-60.105 4.4238-6.5832 13.3-17.541 19.724-24.351 11.747-12.451 19.068-17.147 36.598-23.475 22.234-8.0257 40.952-28.952 67.158-75.083 7.9256-13.951 17.299-29.175 20.831-33.832 9.8915-13.042 25.079-23.118 43.808-29.064l8.4961-2.6976 10.096 6.9847c15.408 10.659 27.865 24.868 45.26 51.62 18 27.685 32.784 46.298 43.65 54.954 7.8832 6.2801 26.754 17.349 70.373 41.279 68.009 37.31 69.932 38.576 97.623 64.292 9.9781 9.2661 19.739 16.859 25.239 19.634 8.1397 4.1069 10.968 4.6532 30.62 5.9143 24.071 1.5446 34.693 4.3211 48.833 12.764 19.839 11.846 32.73 26.568 54.406 62.13 16.706 27.409 24.027 35.399 43.543 47.519 8.1353 5.0524 21.216 13.771 29.068 19.376 7.8525 5.6044 15.392 10.864 16.756 11.689 2.1042 1.272-0.8408 4.9882-19.467 24.563l-21.946 23.064-4.264-8.089c-9.6678-18.34-12.846-20.762-32.013-24.395-6.95-1.3172-18.266-4.3178-25.145-6.668-6.8799-2.3502-15.076-4.7573-18.212-5.349-7.9396-1.4978-19.233 1.7579-25.814 7.4416-8.0649 6.9654-12.308 8.8026-38.156 16.522-39.374 11.759-53.492 15.44-80.459 20.982-14.237 2.9256-35.269 7.9676-46.739 11.204-27.731 7.8259-38.848 9.0666-70.806 7.9016-22.873-0.83382-27.925-0.6024-35.482 1.6249-10.66 3.142-20.871 8.2078-32.218 15.984-4.6686 3.1996-8.7433 5.8175-9.0548 5.8175-0.3113 0-6.4759-6.7574-13.699-15.016z" fill="#925622" stroke-width="1.0658"/> <path d="m3118.2-847.66c-0.4964-6.7038-2.2157-18.928-3.8211-27.165-8.5329-43.784-7.3697-70.346 5.0046-114.28 12.971-46.056 18.054-79.16 16.742-109.04l-0.689-15.683 15.824-17.528c17.661-19.564 29.487-31.079 50.821-49.485 7.9607-6.8682 16.582-15.575 19.159-19.349 14.944-21.889 15.757-22.475 40.208-28.949 22.712-6.0135 30.27-9.5239 42.87-19.913 9.1912-7.5782 10.931-8.45 15.495-7.7635 8.4527 1.2717 22.962 9.4004 37.944 21.258 19.398 15.352 22.646 17.35 41.169 25.318 8.9175 3.836 22.895 10.57 31.062 14.966s17.844 9.1505 21.504 10.567c3.6608 1.4168 7.1677 3.0264 7.793 3.5769 1.3361 1.1761-6.5369 18.939-17.23 38.875-6.3156 11.774-10.549 17.148-25.498 32.365l-17.924 18.246-14.616 3.1637c-8.0391 1.7401-21.869 4.5563-30.733 6.2583-28.082 5.3919-36.679 11.362-58.76 40.802-7.5624 10.083-19.822 25.746-27.244 34.807-7.4217 9.0604-15.721 19.843-18.443 23.962-2.7221 4.1183-10.124 14.041-16.448 22.049-13.985 17.71-25.268 36.906-34.577 58.821-10.693 25.176-16.736 36.062-23.547 42.419-5.429 5.0668-7.4277 5.9357-15.737 6.842-13.102 1.4291-18.313 3.3071-29.648 10.686l-9.7761 6.3637z" fill="#925622" stroke-width="1.0658"/> <path d="m4302-829.98c-35.64-13.891-41.205-16.391-59.905-26.918-10.576-5.9534-26.217-14.352-34.76-18.663-8.5421-4.3109-19.711-10.19-24.819-13.064l-9.2887-5.2258 10.268-10.944c5.6475-6.0195 15.963-19.704 22.924-30.41 8.895-13.681 15.637-22.16 22.686-28.529 25.422-22.971 43.246-34.641 52.908-34.641 6.827 0 16.872 7.4128 28.017 20.674l9.6835 11.524v35.326c0 19.429 0.4611 51.609 0.994 71.511 0.5807 21.481 0.4311 36.146-0.3713 36.088-0.7406-0.0539-9.001-3.0807-18.356-6.7271z" fill="#925622" stroke-width="1.0658"/> <path d="m4342.7-655.54c-22.022-22.625-41.62-34.534-77.018-46.802-25.045-8.68-32.362-12.474-49.409-25.615-7.7292-5.958-19.044-13.738-25.146-17.288-7.5073-4.3683-15.468-10.988-24.625-20.476-21.442-22.217-30.721-25.417-84.092-28.997-15.457-1.037-35.092-1.592-43.634-1.2332-23.113 0.9704-25.534 2.4072-53.988 32.039l-23.666 24.646-18.634-9.4475c-21.178-10.737-45.038-19.295-78.195-28.046-13.204-3.4849-26.113-7.8882-30.538-10.417-17.326-9.9002-52.335-36.144-71.468-53.573l-8.0261-7.3116 5.0679-3.8961c9.2883-7.1406 27.157-15.886 35.39-17.32 4.5663-0.79549 27.603-1.0994 52.509-0.69275 69.918 1.1418 110.55-2.5569 136.43-12.42 25.041-9.5429 42.716-21.177 64.27-42.304 16.645-16.315 14.611-16.104 34.396-3.5632 11.314 7.1721 35.234 18.032 40.065 18.19 0.8344 0.0299 6.8248 5.5556 13.312 12.285 14.504 15.045 23.318 20.893 59.128 39.23 15.457 7.9152 36.092 18.763 45.853 24.107 9.7632 5.3438 27.069 13.167 38.458 17.386 11.389 4.2182 25.866 10.07 32.171 13.003 10.208 4.7501 11.462 5.7809 11.462 9.4185 0 2.2466 5.3181 25.356 11.818 51.355 9.8686 39.475 15 63.676 19.978 94.223 0.3713 2.2651 0.1677 4.1184-0.443 4.1184-0.612 0-5.754-4.7686-11.426-10.597z" fill="#d2a44c" stroke-width="1.0658"/> <path d="m3124.1-392.82c-0.5257-6.302-0.958-40.503-0.9595-76.003 0-35.5-1.0376-91.839-2.3019-125.2-1.8537-48.909-1.9726-66.302-0.6141-89.826 0.9267-16.045 2.0053-29.698 2.397-30.339 0.3916-0.64168-0.367-9.6381-1.6847-19.992-1.3182-10.354-2.5259-28.56-2.6836-40.459l-0.2868-21.634 5.1542-4.0818c2.8348-2.245 10.987-9.2785 18.117-15.63 9.2227-8.216 14.777-12.012 19.252-13.157 22.016-5.6318 30.692-13.511 53.52-48.607 17.377-26.716 24.297-35.67 42.876-55.483 6.1794-6.5895 14.124-16.698 17.654-22.464 11.111-18.146 32.753-56.29 41.05-72.349 11.19-21.658 16.693-28.543 27.141-33.954 7.6241-3.9489 10.267-4.5195 20.934-4.5195 11.302 0 12.524 0.3054 16.458 4.1185 2.3372 2.2652 4.985 4.1184 5.8841 4.1184 3.035 0 28.329 8.8233 34.642 12.084 3.5915 1.8551 14.496 11.844 25.56 23.414 20.028 20.944 31.692 30.848 42.569 36.147 3.5022 1.7061 15.371 5.4107 26.374 8.2326 35.376 9.072 45.289 14.58 85.752 47.65 13.423 10.971 31.727 24.822 40.676 30.781 31.334 20.866 36.551 25.255 62.298 52.41 34.095 35.961 45.14 43.327 85.806 57.23 9.8671 3.3732 22.846 8.2106 28.843 10.75 5.9967 2.5393 20.438 7.9354 32.092 11.991 25.402 8.8406 48.122 18.94 68.761 30.567 20.359 11.468 21.129 12.073 18.875 14.823-3.6376 4.4376-29.427 15.905-47.297 21.031-29.65 8.5048-49.885 12.585-70.848 14.285-20.742 1.6822-29.456 3.8687-40.029 10.045-9.9638 5.8197-22.328 19.567-31.074 34.549-9.1634 15.698-6.1445 15.346-29.564 3.4466-9.6118-4.8836-23.565-14.21-39.017-26.08-43.675-33.549-73.706-52.031-91.099-56.065-11.685-2.7102-26.603-2.2781-36.148 1.047-11.675 4.0671-21.796 11.08-38.805 26.887-17.93 16.663-34.36 28.134-56.947 39.759-28.803 14.824-33.847 19.198-52.389 45.432-6.488 9.1794-13.124 14.794-30.443 25.757-22.359 14.153-33.238 23.549-65.596 56.651-39.903 40.821-43.856 45.61-58.926 71.39-15.12 25.865-25.875 37.661-38.922 42.692-4.8811 1.8822-18.193 5.01-29.583 6.9507-29.913 5.0969-42.198 9.723-50.918 19.174-1.9722 2.1376-4.0378 3.8865-4.59 3.8865-0.5527 0-1.4348-5.1561-1.961-11.458z" fill="#d2a44c" stroke-width="1.0658"/> <path d="m4335.9-319.64c-3.75-3.0574-11.522-9.7139-17.271-14.792-19.222-16.979-31.579-21.962-71.794-28.953-31.547-5.4841-36.067-5.5312-55.726-0.58258-9.0402 2.2758-21.808 4.2321-30.549 4.6808-24.143 1.2395-34.384-2.9426-63.376-25.883-19.251-15.232-33.614-21.274-76.658-32.247-27.092-6.9062-50.646-14.641-63.917-20.99-10.074-4.8193-10.931-5.8888-25.087-31.312-9.9758-17.916-13.372-22.123-36.272-44.928-16.775-16.705-21.939-22.946-29.722-35.922-11.781-19.641-17.452-25.235-31.95-31.52-8.5193-3.693-63.618-32.75-66.649-35.148-0.9961-0.78813 20.181-30.571 25.747-36.21 9.0573-9.1758 16.136-12.18 41.806-17.743 27.214-5.8971 65.168-14.434 83.346-18.747 33.443-7.9346 68.168-27.83 88.91-50.94 4.7605-5.304 12.106-15.361 16.322-22.349 8.3273-13.8 13.473-18.263 25.081-21.754 10.611-3.1906 20.748-2.777 39.771 1.6221 39.42 9.116 45.995 12.904 58.127 33.487 10.546 17.892 21.152 25.717 41.647 30.724 6.1662 1.5064 15.481 5.4268 22.187 9.3381 17.945 10.466 32.506 17.673 47.522 23.52 31.828 12.392 46.201 22.225 69.928 47.839 6.7407 7.2762 16.523 16.312 21.738 20.081l9.4824 6.8511-0.9832 16.611c-1.334 22.522-5.4546 47.816-12.466 76.524-9.4854 38.832-11.018 49.584-10.886 76.368 0.1198 24.687 0.8868 31.02 10.9 90.185 6.4455 38.085 4.854 43.65-9.2076 32.187z" fill="#ebb88b" stroke-width="1.0658"/> <path d="m3563.9-182.19c-12.61-0.63871-50.217-2.9895-83.571-5.224-53.567-3.5885-64.701-3.9153-95.404-2.8002-73.116 2.6559-223.99 0.459-238.14-3.4671-16.855-4.676-27.479-22.997-27.197-46.903 0.1288-10.991 1.1267-15.695 7.3027-34.445l7.1529-21.715 0.2347-26.208c0.2264-25.303 0.3731-26.484 4.2447-34.206 5.7762-11.52 14.404-20.351 23.471-24.022 4.2447-1.7186 17.077-5.0794 28.516-7.4686 11.439-2.389 24.937-6.0361 29.995-8.1047 22.48-9.1937 26.33-12.682 132.64-120.19l63.626-64.343 9.4695-18.444c6.2438-12.161 11.274-19.966 14.768-22.913 2.9144-2.4585 16.569-10.222 30.343-17.252 29.299-14.954 35.955-19.115 57.788-36.122 21.251-16.554 28.29-20.121 41.416-20.987 12.979-0.85627 27.816 3.8343 47.33 14.963 25.66 14.634 37.362 23.358 74.511 55.551 22.46 19.463 67.235 44.77 96.723 54.669 7.9436 2.6665 21.256 5.8961 29.583 7.177 21.273 3.2723 20.889 3.1713 25.27 6.6601 2.1751 1.7322 8.6993 9.6655 14.498 17.629 5.799 7.964 18.704 22.567 28.678 32.451 24.854 24.63 31.463 34.406 44.284 65.506 5.0581 12.269 11.393 20.008 23.591 28.822 19.695 14.23 42.624 22.401 78.021 27.804 27.885 4.2569 39.883 8.2738 60.385 20.216 20.008 11.655 30.03 16.113 42.155 18.754 12.999 2.8314 34.55 2.2892 54.503-1.3714 9.6384-1.7682 19.29-2.8127 21.447-2.3214 10.312 2.3497 65.401 20.825 71.673 24.037 3.908 2.0016 14.557 8.7762 23.666 15.055 22.015 15.175 30.363 19.007 38.659 17.748l6.3706-0.96733-0.6161 12.419c-1.4873 29.962-11.959 48.815-32.898 59.226-7.2006 3.5803-10.113 4.1267-22.571 4.2348-10.155 0.0883-15.304 0.78656-17.75 2.4078-7.6693 5.0833-19.431 10.352-28.193 12.629-9.9608 2.5892-20.874 2.9486-200.08 6.5892-74.506 1.5135-96.468 1.5003-117.09-0.0702-28.86-2.1976-50.577-1.4354-81.851 2.8728-30.31 4.1755-55.54 5.8829-113.15 7.6576-27.66 0.85198-62.272 2.1699-76.915 2.9284-44.535 2.3073-72.844 2.757-96.883 1.5395z" fill="#ebb88b" stroke-width="1.0658"/> <path d="m3205.1-1780.9c-0.5341-2.155-0.6318-6.9684-0.2168-10.696 0.8774-7.8818 5.2811-13.175 20.318-24.423 20.323-15.202 25.42-16.06 56.947-9.5904 35.142 7.2123 56.64 5.2823 62.189-5.583 2.7524-5.389 2.7094-9.5258-0.2521-24.328-3.597-17.973-2.283-37.208 3.307-48.41 3.4578-6.9291 5.7189-9.3779 11.812-12.794 19.614-10.994 50.34-13.334 67.9-5.1711 15.179 7.0563 23.397 16.986 41.114 49.685 5.3673 9.9054 11.436 19.606 13.487 21.556 7.8432 7.4603 23.658 4.9435 29.376-4.6751 1.1251-1.8927 5.3214-9.1002 9.3251-16.017 12.914-22.309 31.983-40.126 45.981-42.96 13.733-2.7808 29.254 10.12 40.88 33.979 12.723 26.111 20.966 56.72 18.237 67.726l-0.9308 3.7545-16.642-0.8085c-19.005-0.9233-32.071 1.0491-61.756 9.3224-10.169 2.8342-30.803 7.6231-45.853 10.642-24.825 4.9798-29.766 5.5035-53.249 5.6447-27.72 0.1677-55.721-2.6312-88.748-8.8685-20.416-3.8555-61.379-5.7965-73.589-3.4869-3.8487 0.728-12.994 4.8517-20.323 9.1637l-13.325 7.8403c-28.08 21.296-44.498 4.3147-45.986-1.502z" fill="#fefcf7" stroke-width="1.0658"/> <path d="m3492.5-1535.1c-39.287-8.7344-55.43-22.644-60.197-51.866-1.5862-9.7248-1.5611-15.377 0.1149-25.941 5.2529-33.098 20.863-58.775 47.376-77.93 16.69-12.058 38.213-14.412 62.056-6.7859 24.7 7.9002 41.792 22.129 51.616 42.971 7.9638 16.894 10.928 32.189 10.204 52.649-0.5484 15.491-1.2467 18.757-6.1804 28.904-7.2581 14.927-23.63 30.73-37.563 36.258-13.968 5.541-46.553 6.3829-67.427 1.7421z" fill="#d3a54d" stroke-width="1.0658"/> <path d="m3760-1520.1c-6.1034-6.1797-7.4893-14.065-4.8277-27.466 3.3614-16.925 8.1343-28.618 14.503-35.531 5.5581-6.0329 5.6729-6.0753 16.427-6.0753 8.3877 0 12.426 0.7959 17.91 3.5297 7.6323 3.8051 14.367 12.174 14.367 17.852 0 3.9556 6.0983 10.816 9.6143 10.816 1.2942 0 4.0661-1.7344 6.1597-3.8541 3.0447-3.0828 3.6476-4.8456 3.0124-8.8089-0.9516-5.9369 0.9976-8.3036 6.8389-8.3036 3.2495 0 6.1089 1.8633 11.492 7.4881 8.024 8.3848 12.39 9.4325 17.164 4.1184 2.5963-2.8903 3.144-6.032 3.8505-22.09 1.7527-39.835 11.127-58.745 27.986-56.455 17.159 2.3304 29.528 27.65 34.348 70.311 1.5965 14.132 2.3765 17.028 5.2123 19.353 6.1815 5.068 10.785 3.4695 23.455-8.1436 9.2017-8.4342 18.268-12.131 29.842-12.167 18.322-0.06 27.372 8.3054 26.211 24.221-0.3179 4.3533-1.2831 8.6295-2.1453 9.5024s-12.121 2.229-25.019 3.0134c-15.523 0.944-28.953 2.7236-39.722 5.2639-15.322 3.6139-19.678 3.9126-74.696 5.1228-64.414 1.4168-80.751 2.751-100.12 8.1759-16.166 4.5282-17.509 4.536-21.863 0.1276z" fill="#fefcf7" stroke-width="1.0658"/> </g> </g> </svg>